<?xml version="1.0" encoding="UTF-8" standalone="no"?>
<svg
   xmlns:dc="http://purl.org/dc/elements/1.1/"
   xmlns:cc="http://creativecommons.org/ns#"
   xmlns:rdf="http://www.w3.org/1999/02/22-rdf-syntax-ns#"
   xmlns:svg="http://www.w3.org/2000/svg"
   xmlns="http://www.w3.org/2000/svg"
   xmlns:sodipodi="http://sodipodi.sourceforge.net/DTD/sodipodi-0.dtd"
   xmlns:inkscape="http://www.inkscape.org/namespaces/inkscape"
   inkscape:version="1.0 (4035a4fb49, 2020-05-01)"
   sodipodi:docname="lamp-off.svg"
   id="svg8"
   version="1.1"
   viewBox="0 0 48 48">
  <metadata
     id="metadata14">
    <rdf:RDF>
      <cc:Work
         rdf:about="">
        <dc:format>image/svg+xml</dc:format>
        <dc:type
           rdf:resource="http://purl.org/dc/dcmitype/StillImage" />
        <dc:title />
      </cc:Work>
    </rdf:RDF>
  </metadata>
  <defs
     id="defs12" />
  <sodipodi:namedview
     inkscape:document-rotation="0"
     inkscape:current-layer="svg8"
     inkscape:window-maximized="1"
     inkscape:window-y="37"
     inkscape:window-x="1366"
     inkscape:cy="13.091921"
     inkscape:cx="17.762523"
     inkscape:zoom="9.8333334"
     showgrid="false"
     id="namedview10"
     inkscape:window-height="1015"
     inkscape:window-width="1920"
     inkscape:pageshadow="2"
     inkscape:pageopacity="0"
     guidetolerance="10"
     gridtolerance="10"
     objecttolerance="10"
     borderopacity="1"
     bordercolor="#666666"
     pagecolor="#ffffff" />
  <path
     id="path2"
     style="opacity:1;fill:none;fill-opacity:0.490196;stroke:#878787;stroke-width:1.76742;stroke-miterlimit:4;stroke-dasharray:none;stroke-opacity:0.490196"
     d="m 34.374437,17.101707 c 0,8.400826 -5.187218,8.491158 -5.187218,14.091708 l -5.216458,-0.0057 -5.15798,0.0057 c 0,-5.60055 -5.187218,-5.690882 -5.187218,-14.091708 0,-6.185898 4.645155,-11.2011021 10.374437,-11.2011021 5.729282,0 10.374437,5.0152041 10.374437,11.2011021"
     sodipodi:nodetypes="ccccssc" />
  <path
     id="path4"
     style="fill:#888888;opacity:1;fill-opacity:0.48834637;stroke:none"
     d="m 18 32 0 8 c 0 1.108 0.892 2 2 2 l 2 2 4 0 2 -2 c 1.108 0 2 -0.892 2 -2 l 0 -8 z" />
  <path
     style="fill:none;stroke:#878787;stroke-width:0.2;stroke-linecap:butt;stroke-linejoin:miter;stroke-miterlimit:4;stroke-dasharray:none;stroke-opacity:0.490196"
     d="m 26.507842,30.333902 c -0.04258,-1.13597 -0.42273,-3.861342 -0.05143,-8.643104 0.390595,-5.030316 1.833319,-10.095716 1.833319,-10.095716 0,0 -0.838035,3.369821 -2.585759,3.15508 -3.305709,-0.406171 1.825079,-2.039209 -1.952016,-3.104552 -1.555245,10.828861 -0.619862,0.202614 -2.702706,0.485761 1.169471,6.220333 -0.445068,1.361946 -2.371713,-0.186513 l 3.001436,11.621165 0.06584,6.734364"
     id="path844"
     sodipodi:nodetypes="cscsccccc" />
</svg>
