<?xml version="1.0" encoding="UTF-8" standalone="no"?>
<svg
   xmlns:dc="http://purl.org/dc/elements/1.1/"
   xmlns:cc="http://creativecommons.org/ns#"
   xmlns:rdf="http://www.w3.org/1999/02/22-rdf-syntax-ns#"
   xmlns:svg="http://www.w3.org/2000/svg"
   xmlns="http://www.w3.org/2000/svg"
   xmlns:sodipodi="http://sodipodi.sourceforge.net/DTD/sodipodi-0.dtd"
   xmlns:inkscape="http://www.inkscape.org/namespaces/inkscape"
   viewBox="0 0 48 48"
   version="1.1"
   id="svg20"
   sodipodi:docname="tools.svg"
   inkscape:version="1.0.1 (3bc2e813f5, 2020-09-07)">
  <metadata
     id="metadata26">
    <rdf:RDF>
      <cc:Work
         rdf:about="">
        <dc:format>image/svg+xml</dc:format>
        <dc:type
           rdf:resource="http://purl.org/dc/dcmitype/StillImage" />
      </cc:Work>
    </rdf:RDF>
  </metadata>
  <defs
     id="defs24" />
  <sodipodi:namedview
     pagecolor="#ffffff"
     bordercolor="#666666"
     borderopacity="1"
     objecttolerance="10"
     gridtolerance="10"
     guidetolerance="10"
     inkscape:pageopacity="0"
     inkscape:pageshadow="2"
     inkscape:window-width="1496"
     inkscape:window-height="1026"
     id="namedview22"
     showgrid="false"
     inkscape:zoom="3.4635417"
     inkscape:cx="13.266985"
     inkscape:cy="28.858579"
     inkscape:window-x="1514"
     inkscape:window-y="121"
     inkscape:window-maximized="0"
     inkscape:current-layer="svg20"
     inkscape:document-rotation="0" />
  <g
     id="g947"
     style="fill:#0066b3;fill-opacity:1"
     transform="matrix(-0.81531522,-0.04204434,0.04204434,-0.81531522,-32.80331,42.100398)">
    <g
       id="g26"
       transform="translate(-99.966627,-6.4839094)"
       style="fill:#0066b3;fill-opacity:1">
      <rect
         x="23.4"
         y="28"
         transform="matrix(0.7071,-0.7071,0.7071,0.7071,-13.2548,32)"
         class="st5"
         width="17.1"
         height="8"
         id="rect24"
         style="fill:#0066b3;fill-opacity:1" />
    </g>
    <g
       id="g36"
       transform="translate(-99.966627,-6.4839094)"
       style="fill:#0066b3;fill-opacity:1">
      <g
         id="g34"
         style="fill:#0066b3;fill-opacity:1">
        <path
           class="st5"
           d="m 46.8,22.8 c -1.6,1.6 -4.1,1.6 -5.7,0 -1.6,-1.6 -1.6,-4.1 0,-5.7 l 6.5,-6.5 C 46.5,10.3 45.3,10 44,10 c -5.5,0 -10,4.5 -10,10 0,5.5 4.5,10 10,10 5.5,0 10,-4.5 10,-10 0,-1.3 -0.3,-2.5 -0.7,-3.6 z"
           id="path32"
           style="fill:#0066b3;fill-opacity:1" />
      </g>
    </g>
    <g
       id="g42"
       transform="translate(-99.966627,-6.4839094)"
       style="fill:#0066b3;fill-opacity:1">
      <g
         id="g40"
         style="fill:#0066b3;fill-opacity:1">
        <path
           class="st5"
           d="m 17.2,41.2 c 1.6,-1.6 4.1,-1.6 5.7,0 1.6,1.6 1.6,4.1 0,5.7 l -6.5,6.5 c 1.1,0.4 2.4,0.7 3.6,0.7 5.5,0 10,-4.5 10,-10 0,-5.5 -4.5,-10 -10,-10 -5.5,0 -10,4.5 -10,10 0,1.3 0.3,2.5 0.7,3.6 z"
           id="path38"
           style="fill:#0066b3;fill-opacity:1" />
      </g>
    </g>
  </g>
  <rect
     style="fill:none;fill-opacity:1;stroke:none;stroke-width:1.87204;stroke-opacity:1"
     id="rect1479"
     width="42.665688"
     height="42.665688"
     x="2.6519701"
     y="2.8986137" />
</svg>
