<svg height="48" viewBox="0 0 48 48" width="48" xmlns="http://www.w3.org/2000/svg"><g fill="#0066b3" transform="matrix(.77192982 0 0 .77192982 2 2)"><path d="m46.179 38.429-5.596 8.04-3.949-3.241c-.426-.352-1.057-.287-1.407.138-.351.427-.289 1.058.139 1.407l4.786 3.929c.18.148.404.228.634.228.045 0 .091-.003.137-.01.276-.038.524-.19.684-.419l6.214-8.929c.315-.453.204-1.076-.25-1.392-.454-.319-1.076-.205-1.392.249z"/><path d="m41 31c-1.396 0-2.739.227-4 .636v-18.636-13h-34v13 41.443c0 .631.377 1.195.96 1.437.193.08.396.119.597.119.404 0 .8-.158 1.098-.456l14.345-14.345 10.692 10.692c2.378 3.099 6.108 5.11 10.308 5.11 7.168 0 13-5.832 13-13s-5.832-13-13-13zm-36-29h30v9h-30zm23.269 44.639-8.269-8.269-15 14.999v-40.369h30v19.479c-.002.001-.004.002-.005.003-.193.101-.379.21-.566.321-.126.074-.251.149-.374.228-.175.111-.348.223-.517.342-.135.095-.264.196-.395.296-.264.202-.52.412-.768.633-.118.105-.237.21-.352.32-.149.142-.293.289-.435.438-.098.103-.193.21-.288.316-.283.318-.549.648-.8.992-.043.059-.089.115-.131.175-.132.188-.255.381-.377.576-.062.099-.122.198-.182.299-.118.2-.235.4-.342.607-.007.014-.014.029-.021.044-.219.424-.411.862-.583 1.312-.055.144-.109.287-.159.433-.063.184-.124.369-.179.557-.076.259-.142.521-.202.785-.036.163-.069.326-.099.491-.051.276-.094.554-.128.835-.014.12-.027.24-.038.361-.035.382-.059.767-.059 1.157 0 .448.023.892.068 1.329.012.115.038.228.052.343.042.321.083.642.147.955.001.004.001.008.002.012zm12.731 8.361c-3.623 0-6.832-1.768-8.838-4.479-.151-.204-.296-.411-.431-.623-.032-.05-.062-.102-.093-.153-.132-.214-.26-.429-.377-.65-.015-.029-.028-.06-.043-.089-.182-.352-.339-.714-.481-1.082-.069-.179-.139-.358-.198-.542-.041-.126-.075-.255-.111-.383-.057-.2-.11-.401-.156-.605-.028-.123-.053-.246-.076-.37-.042-.224-.076-.451-.104-.68-.013-.108-.029-.215-.039-.323-.032-.335-.053-.676-.053-1.021 0-.332.021-.66.05-.985.01-.111.023-.221.036-.331.026-.215.06-.427.098-.639.023-.124.042-.248.068-.37.059-.271.128-.539.207-.802.052-.175.114-.346.175-.518.039-.109.078-.219.12-.327.072-.185.147-.368.229-.548.031-.068.065-.134.097-.202.186-.389.393-.768.623-1.132.018-.029.034-.058.052-.086.115-.178.237-.352.362-.523.051-.07.102-.138.155-.207.126-.165.254-.328.39-.486.034-.039.07-.076.105-.115.263-.298.544-.581.839-.85.072-.066.143-.134.218-.198.146-.126.296-.247.448-.365.084-.065.17-.128.256-.191.16-.117.321-.234.488-.343.025-.016.052-.031.077-.047.378-.241.773-.459 1.183-.655.093-.044.183-.092.277-.134l.212-.097c1.304-.545 2.735-.849 4.235-.849 6.065 0 11 4.935 11 11s-4.935 11-11 11z"/></g></svg>