<svg height="48" width="48" xmlns="http://www.w3.org/2000/svg"><g fill="none" stroke="#0066b3"><g transform="translate(.61263 -5.146905)"><path d="m12.02898 43.286975h12.034576" stroke-linecap="round" stroke-width="1.92991"/><path d="m17.84585 43.325191v-28.177433" stroke-width="3.85982"/><path d="m11.889577 15.489309h22.995587v5.463984" stroke-linecap="round" stroke-linejoin="round" stroke-width="2.89486"/><g stroke-width="1.92991"><path d="m31.002146 23.211774v9.653306" stroke-linecap="round"/><path d="m31.273419 28.038973h-13.455589"/></g></g><path d="m10.595381 2.6229011c3.463577-.3520837 6.94543.072411 10.419319-.036329 5.329864-.017833 10.662693.05573 15.989215-.083284 2.117568-.1061972 4.355888 1.4287677 4.307576 3.7003775.06555 10.6029544-.01385 21.2087704.04012 31.8122554.09307 1.480965.09627 3.137364-.551523 4.550799-.298076.650376-.733988 1.249309-1.362402 1.756039-1.188373 1.240407-2.57078 1.259433-5.164894 1.162333-7.492799-.0034-14.986393.0065-22.47867-.0051-2.4615496.07046-3.4794426-.708755-4.4424346-2.393852-1.123641-1.980038-.567325-4.338183-.695115-6.514183-.01123-9.919675.0272-19.843132-.02851-29.7599974-.004-1.8939814 1.190662-4.0426493 3.277231-4.1146795.2299346-.025616.4606126-.044359.6900516-.074439z" stroke-linecap="round" stroke-width="2"/></g></svg>