<svg viewBox="0 0 48 48" xmlns="http://www.w3.org/2000/svg"><path d="m-26.292347 19.783846-1.62965 1.336051-1.87436.911799-1.91121.645979-2.373269.367442-.156579 1.646987-.270729 1.843503-.703613 1.811407-1.298225 1.725368m10.320755-22.476112v13.302965l-.8219 3.067388-1.42906 2.475197-1.63895 1.638952-2.78515 1.392723-2.6234.644738h-11.694117v-22.275562m-3.093394-.498741h26.808781m7.91262-2.019932v7.206309h-9.84537m-22.629409-.01428h-9.60873v-7.191408c.632486-1.166661.240554-2.43457 3.355844-3.355844h35.372445c1.91385.592762 3.06207 1.691468 3.35522 3.355223m-3.85074 32.666277v-25.438709m-3.28142 25.527249h6.62636m-37.926166-.0885v-25.438746m-3.281427 25.527246h6.626364m32.311539-32.617911a1 1 0 0 1 -1 1 1 1 0 0 1 -1-1 1 1 0 0 1 1-1 1 1 0 0 1 1 1zm-.002 3.703773a1 1 0 0 1 -1 1 1 1 0 0 1 -1-1 1 1 0 0 1 1-1 1 1 0 0 1 1 1z" fill="none" stroke="#0066b3" stroke-linecap="round" stroke-width="1.5" transform="translate(60.595552 3.976205)"/></svg>