<svg viewBox="0 0 48 48" xmlns="http://www.w3.org/2000/svg"><rect fill="none" height="48" ry="11.347466" stroke-linejoin="round" stroke-width="19.4251" width="48"/><path d="m4.568821.56882h38.862358v46.862358h-38.862358z" style="opacity:.999;fill:none;stroke:#0066b3;stroke-width:1.13764;stroke-linecap:round;stroke-linejoin:round;stroke-miterlimit:8"/><g fill="#0066b3"><g stroke-opacity=".3" stroke-width=".427625"><path d="m10.924864 16.153111v-.442659l1.778987-.225506v-9.8136589h-.425955q-2.113068 0-2.8898092.167041l-.2255053 1.7455785h-.5595874v-2.6308959h9.8554199v2.6308959h-.56794l-.225505-1.7455785q-.250562-.0584644-1.094119-.1002246-.843557-.0501123-1.845803-.0501123h-.40925v9.7969548l1.778986.225506v.442659z"/><path d="m21.306463 5.7381035q0 .3674902-.267265.6347558-.267266.2672656-.643108.2672656-.367491 0-.634756-.2672656-.267266-.2672656-.267266-.6347558 0-.3758423.267266-.6431079.267265-.2672657.634756-.2672657.375842 0 .643108.2672657.267265.2672656.267265.6431079zm-.08352 9.8303635 1.34468.208801v.375843h-4.067449v-.375843l1.336328-.208801v-6.6816405l-1.110822-.2088012v-.3758423h2.497263z"/><path d="m25.682937 16.320152q-.801796 0-1.202695-.476067-.392546-.476067-.392546-1.336328v-5.5040018h-1.027302v-.3758422l1.044006-.32573.843557-1.7789868h.526179v1.7789868h1.795691v.7015722h-1.795691v5.3536648q0 .542883.24221.818501.250561.275617.65146.275617.484418 0 1.177639-.133633v.542884q-.292322.200449-.843557.32573-.551236.133633-1.018951.133633z"/><path d="m30.710872 15.568467 1.344681.208801v.375843h-4.067449v-.375843l1.336328-.208801v-10.7073288l-1.336328-.2004493v-.3758422h2.722768z"/><path d="m34.569521 12.202591v.150337q0 1.152582.250561 1.79569.258914.634756.785093.968838.534531.334082 1.394792.334082.451011 0 1.069063-.07517.618051-.07517 1.01895-.167041v.467715q-.400899.258913-1.094119.45101-.684868.192098-1.403144.192098-1.829099 0-2.681008-.985542-.843558-.985542-.843558-3.165428 0-2.054604.860262-3.0652022.860261-1.0105981 2.455502-1.0105981 3.015091 0 3.015091 3.4243403v.684869zm1.812394-3.4410452q-.868613 0-1.336328.7015722-.459362.701572-.459362 2.071309h3.357524q0-1.495018-.384194-2.1297733-.384195-.6431079-1.17764-.6431079z"/></g><g stroke-width=".256122"><path d="m11.78916 44.327231v.265127h-2.2060551v-.265127l.7603641-.135065 2.286093-6.363043h.950454l2.376137 6.363043.850407.135065v.265127h-2.836357v-.265127l.900431-.135065-.665318-1.935926h-2.641264l-.675323 1.935926zm1.075514-5.777763-1.15055 3.256557h2.336117z"/><path d="m18.447344 43.251716q0 .860412.800383.860412.620297 0 1.160555-.155074v-3.716778l-.710339-.12506v-.225107h1.535734v4.352081l.595285.12506v.225108h-1.370656l-.04002-.380182q-.35517.195093-.820392.340162-.465223.140067-.780374.140067-1.200574 0-1.200574-1.38066v-3.071469l-.600287-.12506v-.225107h1.430684z"/><path d="m23.674845 44.692405q-.48023 0-.720345-.285136-.235112-.285136-.235112-.800383v-3.296576h-.615295v-.225108l.625299-.195093.505242-1.06551h.315151v1.06551h1.075514v.420201h-1.075514v3.206533q0 .325156.145069.490235.150072.165079.390187.165079.290139 0 .705337-.08004v.325156q-.175084.120057-.505242.195093-.330157.08004-.610291.08004z"/><path d="m26.481187 39.519932q0 .520249-.03502.750359.360172-.205099.81539-.35517.46022-.150072.775371-.150072.610292 0 .92044.35517.310148.35517.310148 1.030493v3.091478l.570273.12506v.225108h-2.025966v-.225108l.625299-.12506v-3.03145q0-.860411-.830397-.860411-.470225 0-1.125538.145069v3.746792l.635303.12506v.225108h-2.060985v-.225108l.595284-.12506v-6.413067l-.700335-.120057v-.225108h1.530733z"/><path d="m34.70512 42.216221q0 2.476184-2.201053 2.476184-1.060507 0-1.600765-.635303-.540259-.635304-.540259-1.840881 0-1.190569.540259-1.820871.540258-.630301 1.640784-.630301 1.070512 0 1.615773.620297.545261.615294.545261 1.830875zm-.900431 0q0-1.080517-.315151-1.565749-.31515-.485232-.985471-.485232-.655313 0-.950454.465223-.290139.465222-.290139 1.585758 0 1.135543.295141 1.610771.300143.470224.945452.470224.660316 0 .980469-.490234.320153-.490234.320153-1.590761z"/><path d="m38.416895 39.765049v1.270608h-.215103l-.290139-.550264q-.250119 0-.595284.07003-.340163.06503-.590283.175084v3.511679l.805386.12506v.225108h-2.231068v-.225104l.595285-.12506v-4.001914l-.595285-.12506v-.225107h1.370656l.04502.58528q.300143-.25012.810387-.48023.515247-.23011.81539-.23011z"/></g><g stroke-opacity=".3" transform="matrix(.00349018 0 0 -.00349018 1.641907 39.230034)"><path d="m5076 6319c-67-10-166-53-212-92-93-79-88-238 10-305 18-12 60-28 92-34 126-23 239 30 251 118 7 55-9 82-64 106-54 24-104 18-139-17-23-23-23-23-30-3-11 37 5 85 41 117 123 108 327 26 380-152 45-152-24-357-186-551-44-53-85-96-91-96-5 0 10 23 35 50 57 64 97 143 97 192 0 101-87 155-185 114-59-25-75-97-30-141 29-30 64-32 95-7 26 21 21 57-11 67-25 8-15 25 15 25 41 0 68-31 68-77-1-49-20-90-69-143l-35-40-31 17c-71 37-188 9-277-66l-45-38 3 71c6 115-28 171-154 257-82 55-94 71-94 126-1 32-2 35-11 20-6-11-11-45-11-77 0-49 9-78 50-172 70-159 75-179 70-267-5-75-28-145-62-186-12-14-11-8 4 23 70 145 59 273-32 358-100 95-239 97-339 7-87-79-75-175 28-227l33-16 13 33c29 68 112 90 158 41 22-23 24-34 24-112 0-71-5-95-23-130-51-96-156-183-306-252-116-54-141-60-88-21 116 85 109 210-13 257-54 20-121 15-158-12-87-64-57-182 43-172 44 4 72 46 52 78-11 18-10 20 11 20 33 0 57-30 57-72 0-48-62-110-155-154-139-66-524-125-825-126-196 0-301 11-440 48-136 35-233 86-305 159-72 71-104 134-118 231-10 66-9 74 14 119 26 54 60 83 99 87 20 2 24-1 22-16-10-55 38-99 94-88 34 6 80 54 87 90 27 133-138 205-290 128-60-30-127-101-155-164-33-74-31-171 6-246 73-150 296-294 547-355 222-54 529-74 793-52 760 64 1666 432 2036 827 135 145 199 278 209 438l6 89 35 18c19 11 52 19 74 19 32 0 45-7 78-40l41-40-5-73c-3-42-12-84-22-102-9-16-14-21-10-10s9 45 11 75c4 46 1 61-19 89-12 19-33 41-46 49l-22 15 20-44c50-110-3-256-157-434-118-138-436-331-811-495-67-29-121-55-118-57 2-2 14 1 27 6 13 6 85 33 159 62 390 150 665 277 820 380 137 91 277 233 324 329 73 149 57 246-52 318-55 37-57 37-156 37-85 0-107-3-143-22l-41-22-18 49c-67 186-291 296-528 259zm-76-953c13-23 13-29 0-53-34-61-289-219-526-327-198-90-216-94-115-32 33 20 86 64 117 99 32 34 52 53 44 42s-27-35-44-52c-16-18-28-35-25-37 7-8 188 159 276 253 135 145 230 183 273 107z"/><path d="m7560 6319c-113-17-201-61-269-134-40-43-91-134-91-163 0-9-13-6-42 10-66 33-197 38-266 8-56-24-118-84-128-125-13-53 1-141 34-206 82-167 265-321 547-462 174-86 780-336 791-325 2 2-27 17-64 33-377 161-721 363-847 497-161 170-228 340-180 455 8 20 14 38 12 40-3 2-18-9-35-25-44-41-57-99-38-165 8-28 14-53 12-55-7-7-38 85-43 128-14 118 99 199 195 140 28-17 32-25 32-62 0-69 19-166 44-229 74-180 291-394 569-560 400-238 973-433 1487-505 195-28 613-26 780 3 304 53 507 145 641 291 72 77 92 121 97 207 7 125-56 238-167 299-129 70-283 28-298-81-14-103 103-180 165-108 18 21 22 35 18 58-6 28-5 29 22 22 40-9 70-32 93-68 30-48 23-180-14-260-73-159-276-267-577-307-254-34-813 15-1027 90-103 36-195 109-209 167-8 30 23 76 53 81 17 3 19-2 15-28-10-66 73-96 123-45 66 65-6 175-114 175-53 0-89-15-128-52-38-37-49-75-34-121 11-33 67-94 106-115 14-8 15-11 5-12-26 0-220 98-285 145-100 71-155 154-170 256-8 54 8 122 36 150 41 41 126 12 153-53l12-28 45 23c59 30 87 82 70 137-15 51-44 85-99 118-39 22-59 27-117 27-102 0-186-49-231-137-38-74-25-204 32-307 13-24 18-38 10-32-7 6-28 44-47 83-30 65-33 82-33 153 1 64 6 93 29 145 84 196 95 227 94 270 0 52-17 105-18 58-2-50-23-77-106-133-49-32-93-72-109-95-37-56-52-128-39-185 9-41 2-64-10-32-10 25-113 86-170 101-61 16-107 13-144-10-20-13-25-10-67 37-52 58-74 116-60 157 11 31 54 58 78 49 16-7 16-9-4-25-54-44 17-106 76-67 58 38 55 101-6 143-51 35-123 27-162-17-23-26-28-40-28-84 1-68 24-118 91-191 30-33 47-57 39-54-24 8-148 156-192 230-88 148-120 320-82 430 27 76 102 151 173 172 64 19 83 20 133 6 76-21 123-88 111-154l-6-27-26 24c-14 14-36 28-48 31-34 11-91-4-124-31-54-46-33-145 39-182 120-61 296-17 338 86 20 47 17 120-7 169-35 74-141 136-264 154-79 11-98 11-175-1zm395-942c22-11 105-86 185-167s165-162 190-181l45-34-39 50c-39 49-38 48 30-16 38-36 84-74 102-83 63-32 25-27-56 8-206 88-492 252-574 329-37 34-37 78-2 106 30 23 54 21 119-12z"/><path d="m2127 5652c-34-37-12-87 35-80 18 2 23 9 21 31-2 29 6 34 25 15 27-27 14-65-40-110-28-24-65-56-81-73-40-40-87-142-86-185v-35l15 46c18 60 92 142 158 177 44 22 64 26 141 27 82 0 95-3 144-31 64-36 91-79 91-144 0-125-137-219-235-161-30 18-37 18-41 6-28-71 90-151 185-125 107 29 175 128 175 255 0 59-5 79-29 125-56 103-165 157-296 148-63-5-68-4-59 13 16 30 11 78-10 99-26 26-90 27-113 2z"/><path d="m10582 5654c-17-11-22-25-22-58 0-23 4-46 9-51 6-6-26-10-87-10-81-1-104-4-142-24-132-68-187-194-145-337 32-113 148-190 245-164 50 14 96 52 103 87 9 46 0 52-41 32-67-34-134-19-189 44-116 132-12 297 187 297 140 0 271-97 306-227 11-44 13-45 13-15 1 44-32 136-65 179-15 19-52 55-84 80-51 39-80 77-80 103 0 11 29 40 40 40 5 0 7-13 4-30-6-28-5-30 24-30 21 0 35 7 42 19 14 28 13 38-10 61-24 24-77 26-108 4z"/><path d="m6085 5629c-21-12-95-65-164-119-159-123-269-195-402-261-57-28-95-49-84-46 83 20 441 138 529 173 152 62 278 86 446 85 190 0 246-12 510-111 66-24 285-94 460-147 8-3-32 19-90 49-135 69-257 148-400 261-156 124-188 141-251 135-64-6-88-26-30-24 50 1 83-29 134-120l35-62-72 34c-102 47-217 68-341 61-105-6-231-39-292-77-18-11-33-18-33-16s19 36 41 76c46 80 76 104 126 104 31 0 33 1 17 13-27 20-94 16-139-8z"/><path d="m6125 5284c-16-2-79-9-140-15-307-30-641-123-1051-295-596-249-849-328-1264-395-182-30-552-37-760-15-508 54-844 204-952 425-31 62-33 72-32 168l1 102-36-15c-210-86-398-375-506-776l-23-87 84-67c163-129 275-297 334-504 28-96 38-298 20-408-38-236-179-471-369-611l-69-51 14-63c40-173 137-406 229-548 79-122 208-235 301-263 20-6 21-3 20 96-1 91 2 109 25 158 72 153 256 277 528 355 170 48 308 70 346 55 28-12 23-14-95-35-286-51-475-138-613-284-77-80-102-136-101-226 0-164 123-300 281-313 95-7 161 26 183 94 33 100-92 201-159 130-17-19-22-33-19-56 5-31 4-32-26-26-18 3-47 23-68 45-44 47-55 102-38 187 40 198 201 322 500 385 124 26 439 36 606 20 205-21 444-64 534-96 158-56 247-176 174-234-35-28-59-28-44-2 15 29 12 49-10 71-26 26-70 26-103 0s-41-62-23-105c39-93 196-103 269-16 52 63 26 159-58 211-20 12-34 25-31 28s67-25 142-63c114-56 148-79 204-134 77-76 110-146 110-237 0-72-20-117-58-133-27-11-36-11-69 5-23 12-44 32-53 51-17 38-33 40-78 13-78-48-80-135-4-211 78-77 175-91 280-38 140 69 177 214 99 383-36 77-99 150-179 206-39 27-69 50-65 50 31 0 347-155 476-234 194-118 239-163 211-213-23-41-43-48-87-35-62 18-118 61-201 154-79 87-222 221-257 240-10 6 2-13 28-43 27-30 65-88 85-129 35-70 37-79 37-170 0-93-1-98-52-210-28-63-54-126-58-138-10-35-8-119 4-139 8-15 10-11 11 20 0 54 11 69 87 120 82 53 136 111 153 162 7 20 10 67 8 105l-4 68 40-35c86-78 225-112 289-71 26 18 26 17 62-25 20-23 43-55 51-70 21-40 20-103-1-127-19-21-75-28-75-10 0 6 4 10 10 10 18 0 31 39 21 59-22 40-108 30-125-14-28-75 25-135 118-135 36 0 52 6 78 29 30 27 33 34 33 88 0 72-27 130-91 196-26 26-45 49-42 52 8 8 122-118 169-186 80-118 128-258 129-371 0-63-34-152-78-200-55-61-104-82-188-83-60 0-76 4-112 27-46 31-70 86-58 133l7 27 20-26c57-73 209-23 209 68 0 83-77 135-198 136-141 0-223-65-224-180 0-70 17-114 62-154 173-156 508-136 670 41 26 29 56 74 66 100 9 27 20 51 24 56 3 4 29-2 56-15 68-30 191-31 250 0 141 73 168 180 87 342-78 155-287 327-566 463-178 87-734 314-744 304-2-2 45-25 104-51 255-113 538-271 684-380 125-94 250-262 285-382 19-65 14-142-11-180-23-35-4-29 34 10 41 43 51 107 27 176-22 65-12 61 13-5 25-67 27-146 5-185-36-59-119-78-181-40-32 19-33 22-33 88 0 132-49 255-154 389-352 445-1382 862-2216 898-139 6-200 17-200 36 0 12 279 11 425-2 254-22 538-81 811-170 148-48 239-83 679-262 260-106 383-149 550-192 306-80 522-107 870-107 432-1 719 42 1085 164 149 49 235 82 660 256 533 218 930 308 1395 318 227 5 230 5 208-14-18-16-44-20-173-26-337-15-680-80-1030-196-667-221-1150-541-1300-862-35-74-60-180-60-253 0-45-3-53-29-68-41-24-106-22-143 4-34 24-58 73-58 117 0 39 26 123 45 147 16 20 16 20 6-1-18-38-31-112-24-144 6-30 68-108 78-98 3 3-2 22-11 44-42 100 14 258 146 411 76 89 130 133 285 230 110 69 420 229 558 288 166 71 78 46-145-41-563-220-800-351-978-541-96-101-143-190-148-279-3-38 1-77 8-94 15-37 81-97 129-118 54-23 173-20 240 6 30 12 56 21 56 19 1-1 10-22 19-47 38-102 143-196 260-233 55-17 95-22 176-22 124 0 195 20 273 74 67 47 97 99 97 171 0 69-23 115-79 154-36 26-51 30-130 34-76 4-96 1-133-17-52-25-78-65-78-119 0-32 6-45 30-66 56-46 132-47 175 0l24 25 3-28c9-71-35-133-108-153-123-35-256 39-305 168-44 117-11 293 84 445 50 80 173 227 189 227 6 0-10-22-35-49-138-148-128-321 18-321 71 0 125 43 125 99 0 27-36 68-66 75-55 14-99-48-54-76 28-18 25-28-9-28-31 0-71 38-71 68 0 39 28 99 67 142l43 48 37-20c69-35 182-6 274 72l46 39-10-45c-13-58 5-140 42-192 16-21 60-59 99-85 90-59 115-90 110-139-2-26 0-34 7-27 5 5 10 42 10 82 0 65-5 83-52 189-62 137-78 200-68 274 7 56 63 181 91 205 9 8 3-9-14-36-111-181-63-381 105-441 124-44 270 21 304 135 19 63-23 129-92 146-20 5-27-1-44-32-36-68-122-77-161-17-24 35-23 134 0 202 34 100 160 210 331 287 106 49 128 53 79 17-115-84-121-193-14-250 37-19 56-23 104-20 53 4 62 8 92 41 43 46 46 96 9 132-53 54-133 20-122-50 5-33 4-36-16-30-29 9-57 42-57 67 0 54 67 119 173 168 181 83 757 144 1046 111 309-36 517-143 597-307 38-79 46-212 15-262-22-35-75-72-103-72-14 0-16 6-12 29 5 23 1 35-19 55-61 61-167 1-167-94 0-154 249-175 380-34 60 66 83 118 88 207 4 71 2 82-27 141-91 185-377 338-724 388-79 11-85 13-65 25 32 18 113 8 280-33 447-112 666-310 630-572-5-34-7-62-4-62 2 0 36 17 75 37 84 45 183 134 240 217 83 123 187 366 232 542 20 83 20 87-17 108-50 30-186 165-233 231-128 180-197 419-181 627 21 277 167 547 382 705 35 26 64 52 64 59 0 28-53 212-84 293-112 289-246 472-403 547-41 20-76 34-78 33-1-2 1-30 6-63 37-233-153-431-526-545-246-75-516-106-855-98-263 6-437 29-692 91-256 62-424 120-827 286-465 191-621 243-896 299-206 43-321 53-635 56-168 2-318 1-335-1zm570-134c353-29 655-106 1055-270 387-159 491-199 620-244 304-106 609-176 898-206 129-14 542-13 667 0 391 43 683 139 887 293 83 62 167 165 188 228 7 22 16 39 19 39 37 0 251-469 251-550 0-10-11-25-23-33-46-30-165-158-217-232-68-99-125-224-158-343-23-87-26-115-26-272-1-161 1-183 27-274 56-203 148-358 301-509l99-98-22-73c-32-112-106-281-167-383-30-51-58-93-62-92-4 0-20 27-35 60-73 154-269 297-526 384-98 33-310 85-350 85-11 0-29 9-38 19-10 10-29 31-42 46-35 38-108 72-209 97-74 19-115 22-282 23-201 0-280-8-495-51-264-53-523-132-835-254-250-97-415-153-566-191-110-27-132-30-165-20-43 13-54 25-44 49 6 16 7 16 16 0 13-23 48-23 56-1 7 18-29 53-55 53-22 0-62-40-62-62 0-10 14-27 31-37l31-19-33-7c-18-4-82-7-143-8-84 0-122 4-154 18-67 27-94 98-50 129 46 32 114 12 104-30-7-25-6-25 23-10 73 38 39 148-56 176-102 31-233-72-233-183 0-180 264-276 554-202 54 13 274 95 489 181 582 233 844 313 1182 360 164 23 409 23 493 1 117-31 107-36-68-37-285 0-542-34-844-111-269-69-420-123-927-332-545-225-883-297-1390-297-481 0-823 68-1299 260-107 43-285 115-395 160-354 143-670 234-995 285-128 20-216 27-390 31-124 3-229 7-235 8-5 1 12 10 40 19 222 76 710 17 1190-145 82-27 309-114 505-193 195-78 400-157 455-175 281-90 568-21 605 146 28 123-95 251-218 228-103-19-140-155-51-187 13-4 16-1 12 14-13 47 67 69 108 28 38-38 1-106-70-131-43-14-254-14-291 1-14 5-20 10-13 10 20 1 43 31 43 56 0 31-41 59-74 51-25-6-42-38-31-56 8-13 42-13 50 0 9 15 25 2 19-15-11-26-68-38-131-25-153 31-318 84-633 205-344 132-510 184-785 245-252 55-334 65-560 64-183 0-220-3-289-22-100-28-195-79-221-120-16-25-30-33-75-42-145-29-315-75-406-111-213-83-374-207-452-349l-40-73-35 54c-75 117-160 307-196 439l-19 69 31 24c50 38 133 123 181 186 257 335 296 784 100 1161-59 113-127 202-229 297l-83 79 37 115c42 127 117 293 175 384l38 58 32-60c71-132 166-219 334-305 194-100 436-165 737-198 129-14 541-14 670 0 367 40 749 141 1156 306 90 36 257 104 371 149 396 161 689 236 1018 264 147 12 451 13 595 1zm1769-2981c-27-17-74-54-104-82-30-29-39-35-20-14 18 20 30 37 26 37-16 0-121-95-256-231-106-107-145-140-183-154-79-30-131 7-113 78 7 30 194 159 350 243 91 48 323 153 340 154 6 0-12-14-40-31z"/><path d="m5589 2716c-64-17-108-52-131-103-23-52-14-101 28-145 32-32 50-37 34-9-56 105 111 218 251 169 145-50 203-189 133-318-42-76-116-126-225-150-56-13-235-10-274 4-12 4-10 1 5-8 46-26 146-46 238-46 192 0 317 77 359 219 47 163-61 331-246 385-64 19-109 19-172 2z"/><path d="m7067 2720c-96-25-204-110-243-195-51-107-23-250 64-326 70-61 134-83 260-87 100-4 122-1 198 23 91 28 109 41 34 24-25-6-92-9-150-6-136 5-204 30-275 101-105 105-99 249 13 333 150 114 381 25 328-126-8-23-7-23 14-8 52 36 73 102 51 159-12 33-60 78-99 95-43 18-147 25-195 13z"/><path d="m4560 2569c404-154 547-175 641-91l30 27h-93c-73 0-125 8-243 38-161 40-323 67-395 67-44-1-42-2 60-41z"/><path d="m8170 2595c-47-7-155-30-240-51-121-30-175-38-247-39-57 0-92-4-90-10 2-5 22-21 46-33 57-33 138-38 240-18 77 16 141 37 391 130l95 35-55-1c-30 0-93-6-140-13z"/><path d="m2302 4964c-30-21-25-54 9-73 24-13 29-13 53 2 32 21 33 51 4 71-28 20-38 20-66 0z"/><path d="m10448 4969c-25-14-24-65 1-79 11-5 27-10 35-10 18 0 56 34 56 50 0 17-39 50-57 50-10 0-26-5-35-11z"/><path d="m2380 4875c-18-22-8-48 23-59 23-8 31-6 48 11s19 24 10 42c-14 25-62 29-81 6z"/><path d="m10360 4875c-33-40 34-85 72-48 16 17 18 24 9 42-14 25-62 29-81 6z"/><path d="m2488 4829c-34-19-11-69 31-69 12 0 41 28 41 40 0 13-30 40-43 40-7 0-20-5-29-11z"/><path d="m10278 4829c-24-14-23-46 2-59 44-23 85 17 54 51-19 21-31 23-56 8z"/><path d="m2586 4787c-13-10-16-20-11-36 5-18 13-22 38-19 38 4 49 34 21 55-22 16-26 16-48 0z"/><path d="m10177 4782c-31-35 27-74 61-40 16 16 15 23-4 42-20 21-37 20-57-2z"/><path d="m2692 4758c-29-29 1-68 42-52 28 11 13 64-19 64-6 0-16-5-23-12z"/><path d="m10076 4754c-12-12-13-20-5-35 13-24 47-22 63 4 9 15 7 21-8 33-25 18-31 18-50-2z"/><path d="m2797 4739c-37-21-2-68 35-48 10 5 18 16 18 24 0 21-32 35-53 24z"/><path d="m9987 4738c-23-12-22-35 2-48 15-7 23-6 35 5 27 28-3 63-37 43z"/><path d="m2883 4714c-3-8-1-20 5-26 16-16 47-5 50 20 3 18-1 22-23 22-14 0-28-7-32-16z"/><path d="m9874 4715c-8-19 3-35 25-35 23 0 41 19 34 36-7 18-52 18-59-1z"/><path d="m2980 4700c0-16 5-21 23-18 12 2 22 10 22 18s-10 16-22 18c-18 3-23-2-23-18z"/><path d="m9795 4710c-4-7-3-16 3-22 14-14 45-2 40 15-6 16-34 21-43 7z"/><path d="m3060 4695c0-8 9-15 20-15s20 7 20 15-9 15-20 15-20-7-20-15z"/><path d="m3132 4698c5-15 28-18 29-3 0 6-7 12-17 13-10 3-15-1-12-10z"/><path d="m9655 4701c-7-12 12-24 25-16 11 7 4 25-10 25-5 0-11-4-15-9z"/><path d="m9715 4700c-8-12 20-24 35-15 6 3 8 11 5 16-8 12-32 12-40-1z"/><path d="m2890 2425c-11-13-11-18 2-31 20-20 50-7 46 20-4 26-30 32-48 11z"/><path d="m2980 2420c0-13 7-20 18-20 24 0 32 8 25 26-8 22-43 17-43-6z"/><path d="m3064 2429c-8-14 11-33 25-25 6 4 11 14 11 22 0 16-26 19-36 3z"/><path d="m3136 2433c-11-11-6-23 9-23 8 0 15 4 15 9 0 13-16 22-24 14z"/><path d="m9655 2429c-10-15 1-23 20-15 9 3 13 10 10 16-8 13-22 13-30-1z"/><path d="m9714 2429c-9-16 18-30 33-17 7 6 10 14 7 19-7 13-31 11-40-2z"/><path d="m9795 2431c-9-16 3-31 26-31 14 0 19 6 17 17-4 20-33 29-43 14z"/><path d="m9880 2425c-10-12-10-18 0-30 16-19 25-19 45 1 12 12 13 19 4 30-15 18-33 18-49-1z"/><path d="m2784 2415c-10-25 22-53 44-39 9 6 17 20 17 30 0 25-52 33-61 9z"/><path d="m9977 2423c-14-14-6-42 14-48 26-9 52 15 43 38-6 17-44 23-57 10z"/><path d="m2692 2408c-29-29 1-68 42-52 28 11 13 64-19 64-6 0-16-5-23-12z"/><path d="m10076 2404c-12-12-13-20-5-35 13-24 47-22 63 4 9 15 7 21-8 33-25 18-31 18-50-2z"/><path d="m2579 2374c-26-31 25-70 56-44 20 16 19 46-1 54-25 10-41 7-55-10z"/><path d="m10170 2371c-11-21 9-51 35-51 7 0 21 7 29 16 22 21 4 54-29 54-14 0-29-8-35-19z"/><path d="m2486 2344c-19-19-20-36-4-52 19-19 56-14 69 10 10 18 8 24-11 40-27 22-34 22-54 2z"/><path d="m10278 2349c-39-22-9-76 36-65 34 8 42 37 16 58-25 21-29 21-52 7z"/><path d="m2386 2294c-9-8-16-21-16-28 0-39 72-50 91-14 10 18 8 24-11 40-27 22-44 23-64 2z"/><path d="m10366 2294c-31-30-12-64 36-64 39 0 55 33 28 60-24 24-43 25-64 4z"/><path d="m2309 2226c-29-14-36-48-14-70 32-32 95-10 95 33 0 34-45 55-81 37z"/><path d="m10452 2225c-43-31-20-85 37-85 30 0 56 43 41 69-6 12-15 21-20 21-4 0-14 2-22 5-7 3-23-2-36-10z"/><path d="m2334 2091c-41-25-64-59-64-93 0-31 7-34 35-14 49 33 126 27 179-15 63-49 86-161 47-226-33-53-101-86-191-91-156-9-275 66-322 203-16 45-17 47-18 19-1-79 55-173 146-244 65-51 86-89 67-119-6-9-19-18-29-20-16-3-17-1-5 13 18 22 7 46-22 46-46 0-64-52-29-83 26-24 87-22 112 3 21 21 28 84 10 95-25 15-3 20 88 20 86 0 103 3 148 27 56 29 109 84 129 132 49 119 9 269-91 336-50 34-146 39-190 11z"/><path d="m10312 2089c-87-44-139-148-129-259 14-158 144-257 322-248 66 3 72 2 64-14-15-29-10-84 9-101 11-10 35-17 60-17 33 0 45 5 58 25 20 30 10 63-21 71-33 8-48-4-42-33 5-28-19-29-36-2-18 28 10 73 71 118 90 65 154 178 151 265-1 30-1 30-10-7-15-62-45-112-99-160-62-55-122-77-214-77-158 0-259 99-226 220 15 56 72 114 128 131 39 11 48 10 92-8 58-24 69-14 46 42-31 72-136 97-224 54z"/><path d="m5531 1863c141-72 248-142 399-263 63-50 132-100 152-111 43-22 112-24 147-5 22 12 21 13-22 12-35-1-51 5-70 22-25 24-94 142-82 142 3 0 23-9 45-20 163-83 456-84 619-1 22 12 42 21 45 21 6 0-26-59-61-112-28-42-71-63-110-54-27 6-27 6-9-9 29-22 104-19 151 6 21 12 88 60 148 108 151 120 262 193 402 263 66 33 111 58 100 55-72-18-447-141-525-172-181-71-223-78-440-79-225-1-287 9-465 79-60 24-200 71-310 106-110 34-207 64-215 66-8 3 37-21 101-54z"/></g></g></svg>