<svg enable-background="new 0 0 96 96" height="48" viewBox="0 0 48 48" width="48" xmlns="http://www.w3.org/2000/svg"><g fill="none"><path d="m0 0h48v48h-48z" opacity=".65"/><g stroke="#0066b3"><g stroke-linecap="round"><path d="m34.569657 22.677037v4.435039l-.687096 1.588014-.969368 1.333323-1.203143 1.009784-.981337.510016" stroke-width=".999998"/><path d="m30.748692 25.28675h7.286976" stroke-width=".999998"/><path d="m37.351372 30.470498-1.231253-.802227-.874571-1.26192-.675891-1.294275" stroke-width=".999998"/><path d="m16.944336 19.232765-3.660971-9.5597455"/><path d="m13.283365 9.6730195-3.6569895 9.5121395"/></g><path d="m10.996337 15.547183h4.555049"/><path d="m22.919711 35.554844h12.214866l4.399841 4.791287.129777-4.791287h3.872257l2.296202-1.021997 1.167346-2.251081v-9.747394l-.64338-2.291829-1.502848-1.412895-2.109917-.409419m0 0c-6.222311.021-5.188735.04201-11.411046.06301m-7.332809-.220856-1.94999 1.070578-1.316559 1.859953-.24856 2.335526v8.123458l.739592 2.488058 1.69523 1.41489" stroke-linecap="round" stroke-linejoin="round"/><path d="m17.208434 24.170282h-4.343011l-4.399841 4.791286-.129777-4.791286h-3.872257l-2.296202-1.021997-1.167346-2.251081v-9.747394l.64338-2.2918288 1.502848-1.412895 2.109917-.409419 18.666933.06301 2.026911.849722 1.316559 1.859952.24856 2.3355258v8.123458l-.739591 2.488059-1.695231 1.41489" stroke-linecap="round" stroke-linejoin="round"/></g></g></svg>