<svg viewBox="0 0 48 48" xmlns="http://www.w3.org/2000/svg"><g fill="none" stroke="#0066b3" stroke-linecap="round"><path d="m10.132465 1.9326415c-.9531113 0-2.0145093 1.0632248-2.0145094 2.0163355v40.299315c0 .896689 1.117819 2.016335 2.0145094 2.016335h28.210433c.896689 0 1.998389-1.119646 2.01451-2.016335v-30.224943h-10.074373c-.89669 0-2.01451-1.117819-2.01451-2.014509v-10.0761985z" stroke-linejoin="round"/><path d="m28.267208 1.9331502 12.0902 12.0901988h-10.075166c-.89669 0-2.015034-1.118343-2.015034-2.015033z" stroke-linejoin="round"/><g stroke-width=".844683" transform="matrix(1.7758134 0 0 1.7758134 45.978055 23.152395)"><path d="m-18.427059 8.4832096 2.730358-8.86075686 2.835857 8.85773376" stroke-linejoin="round"/><path d="m-17.448143 5.6402607 3.679344-.065664"/></g><path d="m34.371155 22.177115h-7.456979l.06298 6.51368 3.668812-.349334s2.822786.574451 2.980513.835013c.157726.260562 1.599972 2.372295 1.599972 2.372295s-.03282 2.539098.04032 3.116775c.07314.577679-1.520784 2.625558-1.818671 2.658333-.297887.03277-2.346882.79157-2.477162.79157-.130279 0-2.796259-.375345-2.796259-.375345l-1.789705-1.549596" stroke-linejoin="round" stroke-width="1.5"/></g></svg>