<svg viewBox="0 0 48 48" xmlns="http://www.w3.org/2000/svg"><g fill="none" stroke="#0066b3" stroke-linecap="round" transform="matrix(1.7630544 0 0 1.7630544 46.639069 23.177962)"><g stroke-linejoin="round" stroke-width="1.088289" transform="matrix(1.8241403 0 0 1.8241403 43.556169 -8.414443)"><path d="m-36.823588 9.1297741-.0156-9.0477756"/><path d="m-31.848556 9.1297741-.0156-9.04777556"/></g><path d="m-22.856355-.48205147 7.344819.0218999" stroke-width="1.98519"/><g stroke-width="1.985191"><path d="m-1.2118969 8.2140558-7.9594293.00898"/><path d="m-9.171948 8.223657 2.5128907-3.6966761 2.4581556-3.3266182s1.6592704-2.5139899 1.7754693-2.8074375c.1161983-.2934481.7180238-2.2664967.7180238-2.4559469s-.6295552-2.472876-.6295552-2.472876l-1.5490957-1.8733634s-.6128773-.2831541-1.6420389-.2831541c-1.0291617 0-2.5329417.1824237-2.5329417.1824237l-2.0912809 1.2292552" stroke-linejoin="round"/></g></g></svg>