<svg height="210mm" viewBox="0 0 297 210" width="297mm" xmlns="http://www.w3.org/2000/svg"><g fill="none" stroke="#000" stroke-linecap="round"><path d="m17.795003 7.1939916v195.6119184h272.007697v-195.6119184z"/><path d="m166.86935 175.26492v27.54099h122.93335v-27.54099z"/><g stroke-width=".264352"><path d="m296.86784 202.80591v7.06183h-7.06514"/><path d="m296.86784 7.1939916v-7.06180375h-7.06514"/><path d="m289.8027 104.99996h7.06514"/><path d="m7.1973001 104.99996h-7.06513535"/><path d="m222.68392 202.80591v7.06183"/><path d="m222.68392 7.1939916v-7.06180375"/><path d="m.13216475 7.1939916v-7.06180375h7.06513535"/><path d="m.13216475 202.80591v7.06183h7.06513535"/><path d="m148.5 7.1939916v-7.06180375"/><path d="m148.5 202.80591v7.06183"/></g><path d="m206.54561 97.654042a15.538986 15.531657 0 1 0 -31.0779 0 15.538986 15.531657 0 1 0 31.0779 0z"/><path d="m222.08456 97.654042a31.07799 31.063332 0 1 0 -62.15598 0 31.07799 31.063332 0 1 0 62.15598 0z"/><path d="m222.08456 97.654042a31.07799 31.063332 0 1 0 -62.15598 0 31.07799 31.063332 0 1 0 62.15598 0z"/><path d="m82.233651 113.1856 62.155979 15.53156v-62.126415l-62.155979 15.531561z"/><path d="m191.00666 142.3854v4.97009"/><path d="m191.00666 120.01972v11.18293"/><path d="m191.00666 47.953118v4.970093"/><path d="m191.00666 64.105962v11.182225"/><path d="m191.00666 86.471114v22.365676"/><path d="m179.81863 97.654042h22.37606"/><path d="m157.44239 97.654042h11.18803"/><path d="m72.133351 97.654042h18.180681"/><path d="m101.50206 97.654042h11.18803"/><path d="m123.87812 97.654042h22.37624"/><path d="m213.38272 97.654042h11.18803"/></g></svg>