<svg viewBox="0 0 48 48" xmlns="http://www.w3.org/2000/svg"><g fill="none" stroke="#0066b3" stroke-linecap="round"><path d="m10.219937 2.1106683c-.946263 0-2.0000348 1.0555857-2.0000349 2.0018484v40.0097713c0 .890247 1.1097875 2.001849 2.0000349 2.001849h28.007747c.890246 0 1.984031-1.111602 2.000036-2.001849v-30.007782h-10.001991c-.890248 0-2.000035-1.109788-2.000035-2.000036v-10.0038017z" stroke-linejoin="round"/><path d="m28.224386 2.1111732 12.003334 12.0033328h-10.002777c-.890248 0-2.000557-1.110308-2.000557-2.000556z" stroke-linejoin="round"/><g stroke-width=".850796" transform="matrix(1.7630544 0 0 1.7630544 46.639069 23.177962)"><path d="m-18.427059 8.4832096 2.730358-8.86075686 2.835857 8.85773376" stroke-linejoin="round"/><path d="m-17.448143 5.6402607 3.679344-.065664"/><path d="m-11.509129 5.764658 3.4537281-6.25640776.092648 8.97201826" stroke-linejoin="round"/><path d="m-6.5256767 5.8381691-4.9834523-.0735111"/></g></g></svg>