<svg viewBox="0 0 48 48" xmlns="http://www.w3.org/2000/svg"><g fill="none"><path d="m.62318.62318h46.753639v46.753639h-46.753639z" opacity=".999"/><g stroke-linejoin="round"><rect height="48" ry="11.347466" stroke-width="19.4251" width="48"/><g stroke="#0066b3" transform="translate(151.83815 -14.857072)"><g stroke-linecap="round"><path d="m-121.01623 30.695671v-9.999409h-13.89319v10.182592"/><path d="m-136.53286 30.850186h16.88558"/><ellipse cx="-127.8652" cy="42.936428" rx="1.753298" ry="1.844953" stroke-width=".752858"/><path d="m-137.00308 42.441677c1.52688 1.788287 3.05369 3.576489 4.31084 5.174871 1.25715 1.598381 2.24454 3.006773 3.00866 4.542259.76411 1.535487 1.30487 3.197571 1.84543 4.859075"/><path d="m-132.36588 30.838147c-.0715.84688-.14289 1.692682-.35521 2.659561-.21233.966879-.56526 2.054667-.94521 3.010931-.37994.956265-.78668 1.780949-1.34746 2.748054s-1.27542 2.076615-1.98932 3.184984"/><path d="m-118.67322 42.441677c-1.52688 1.788287-3.05369 3.576489-4.31084 5.174871-1.25715 1.598381-2.24454 3.006773-3.00866 4.542259-.76411 1.535487-1.30487 3.197571-1.84543 4.859075"/><path d="m-123.31042 30.838147c.0715.84688.14289 1.692682.35521 2.659561.21233.966879.56526 2.054667.94521 3.010931.37994.956265.78668 1.780949 1.34746 2.748054s1.27542 2.076615 1.98932 3.184984"/></g><path d="m-127.83815 57.017882v-12.241308"/></g></g></g></svg>