<svg height="48" viewBox="0 0 48 48" width="48" xmlns="http://www.w3.org/2000/svg"><g fill="none" stroke="#0066b3" stroke-width="2.58824"><path d="m34.352941 39.524936v-20.705882c0-2.858886-2.317583-5.176471-5.17647-5.176471h-20.7058828c-2.8588858 0-5.1764706 2.317585-5.1764706 5.176471v20.705882c0 2.858887 2.3175848 5.176471 5.1764706 5.176471h20.7058828c2.858887 0 5.17647-2.317584 5.17647-5.176471z" stroke-linecap="round" stroke-linejoin="round"/><path d="m34.352941 34.348466h5.176471c2.858887 0 5.17647-2.317584 5.17647-5.176471v-20.6969314c0-2.8588857-2.317583-5.1764706-5.17647-5.1764706-.0031 0-.006 0-.0091 0l-20.705767.03578c-2.855389.00493-5.167527 2.3210691-5.167527 5.1764628v5.1317472" stroke-dasharray="2.58824 5.17648" stroke-linecap="square"/><g stroke-linecap="round" stroke-linejoin="round"><path d="m18.823529 21.407289v15.529412"/><path d="m26.588235 29.171995h-15.529412"/></g></g></svg>