<svg viewBox="0 0 48 48" xmlns="http://www.w3.org/2000/svg"><g fill="none"><g stroke="#0066b3" stroke-linecap="round" stroke-width="1.94201" transform="matrix(.5149305 0 0 .5149305 7.893555 13.14069)"><circle cx="18.059835" cy="18.297001" r="15"/><path d="m28.608398 28.970908 12.466324 16.718938 4.722687-5.161042z" stroke-linejoin="round"/></g><path d="m0 0h48v48h-48z" stroke-linecap="round" stroke-width="1.5"/><path d="m6.3471112 10.736827c0-1.13043.78732-2.040487 1.76531-2.040487h9.7091998c2.64796 0 3.53062 4.080976 6.17858 4.080976h15.88779c.97798 0 1.76531.910057 1.76531 2.040488v22.445368c0 1.13043-.78733 2.040488-1.76531 2.040488h-31.7755698c-.97799 0-1.76531-.910058-1.76531-2.040488.018-.420716 0-26.211639 0-26.526345" stroke="#0066b3" stroke-width="2"/></g></svg>