<svg viewBox="0 0 48 48" xmlns="http://www.w3.org/2000/svg"><g fill="none" stroke="#0066b3" stroke-linecap="round" transform="matrix(1.7630544 0 0 1.7630544 46.639069 23.177962)"><g stroke-linejoin="round" stroke-width="1.088289" transform="matrix(1.8241403 0 0 1.8241403 43.556169 -8.414443)"><path d="m-36.823588 9.1297741-.0156-9.0477756"/><path d="m-31.848556 9.1297741-.0156-9.04777556"/></g><path d="m-23.264892-.45864155 8.673909-.0362339" stroke-width="1.98519"/><path d="m-1.4831988-7.9795584-1.6530391-.5280434-1.699074-.1676954-1.559577.3300553-1.4078153 1.0900975-.8068305 1.3977958-.9288964 2.143944-.1641373 2.78323689-.013658 2.26923341.2912059 2.4136572.6203814 2.5112396.9515026 1.5476159 1.4717913.9604757 1.5639908.029477 1.6005831-.7640502 1.0836693-1.3215752.6537535-2.0385803s.1349102-2.0864427.069983-2.2477066c-.064928-.1612636-.7121562-2.15264282-.7121562-2.15264282l-1.2158967-1.51526348-1.8360613-.8814277-1.7193689.4608825-1.4360737 1.38925039-1.303223 1.99031241" opacity=".998" stroke-linejoin="round" stroke-width="1.985191"/></g></svg>