<svg viewBox="0 0 48 48" xmlns="http://www.w3.org/2000/svg"><g fill="none" stroke="#0066b3" stroke-linecap="round" transform="matrix(1.7630544 0 0 1.7630544 46.639069 23.177962)"><g stroke-linejoin="round" stroke-width="1.088289" transform="matrix(1.8241403 0 0 1.8241403 43.556169 -8.414443)"><path d="m-36.823588 9.1297741-.0156-9.0477756"/><path d="m-31.848556 9.1297741-.0156-9.04777556"/></g><path d="m-23.092818-.42950967 8.262198.003941" stroke-width="1.98519"/><g stroke-linejoin="round" stroke-width="1.985191"><path d="m-9.5991096-7.9347181 1.315357-.4992859 2.2796778-.3618582 1.8640678.1721451 1.2572318.6911951 1.0303391 1.428068.3542733 1.8655057-.2389921 1.2505252-.9780299 1.4913493-1.1041117.6714093-1.5426308.49900441-2.1587797.0268908"/><path d="m-7.520707-.6997687 2.1587797-.0268908 2.1989287.7961819 1.2378541 1.0426269s.4922468 2.0818189.5087341 2.2332879c.016488.1514689-.021627 1.9881507-.021627 1.9881507l-.6315111 1.7829927-1.5198254 1.2917945-1.9247728.4741895-2.1196509-.2905117-2.0515907-.5915325"/></g></g></svg>