<svg height="48" width="48" xmlns="http://www.w3.org/2000/svg"><g fill="none"><path d="m0 0h48v48h-48z" stroke-linecap="round" stroke-width="1.5"/><g stroke="#0066b3"><path d="m6.3469062 10.736827c0-1.1304295.7873281-2.0404874 1.7653097-2.0404874h9.7092031c2.647965 0 3.530619 4.0809764 6.178584 4.0809764h15.887787c.977982 0 1.76531.910057 1.76531 2.040488v22.445368c0 1.13043-.787328 2.040488-1.76531 2.040488h-31.7755741c-.9779816 0-1.7653097-.910058-1.7653097-2.040488.017996-.420716 0-26.211639 0-26.526345" stroke-width="2"/><path d="m20.457566 19.082 1.119785-.712099 1.109622-.343629 1.147588-.07549 1.234993.213567.706441.382035.637344.587078.340914.628917.146054 1.019138-.007.820261-.602939 1.541938-1.271471 1.629341-4.399301 4.448476-.307142.629359.233034.172105 2.483389.02622 4.658655-.000843" stroke-linecap="round" stroke-linejoin="round"/></g></g></svg>