<svg height="48" viewBox="0 0 48 48" width="48" xmlns="http://www.w3.org/2000/svg"><g fill="none" fill-rule="evenodd" stroke="#0066b3" stroke-linecap="round" stroke-linejoin="round" transform="matrix(2.5882353 0 0 2.5882353 2 1.995525)"><path d="m12.5 14.5v-8c0-1.1045695-.89543-2-2-2h-8c-1.1045695 0-2 .8954305-2 2v8c0 1.10457.8954305 2 2 2h8c1.10457 0 2-.89543 2-2z"/><path d="m12.5 12.5h2c1.10457 0 2-.89543 2-2v-7.9965417c0-1.1045695-.89543-2.00000003-2-2.00000003-.0012 0-.0023 0-.0035 0l-7.9999553.01382415c-1.1032187.00190597-1.9965447.89677668-1.9965447 1.99999698v1.9827206"/><path d="m6.5 7.5v6"/><path d="m6.5 7.5v6" transform="matrix(0 1 -1 0 17 4)"/></g></svg>