<svg viewBox="0 0 48 48" xmlns="http://www.w3.org/2000/svg"><g fill="none" stroke="#0066b3" stroke-linecap="round"><path d="m10.147267 2.1051994c-.9486658 0-2.0051131 1.0582655-2.0051132 2.0069307v40.1113469c0 .892507 1.1126051 2.00693 2.0051132 2.00693h28.078852c.892507 0 1.989067-1.114423 2.005113-2.00693v-30.083965h-10.027383c-.892508 0-2.005113-1.112605-2.005113-2.005113v-10.0291996z" stroke-linejoin="round"/><path d="m28.197425 2.1057056 12.033807 12.0338064h-10.028172c-.892508 0-2.005635-1.113126-2.005635-2.005634z" stroke-linejoin="round"/><g stroke-width=".848642" transform="matrix(1.7675305 0 0 1.7675305 45.825663 23.225978)"><path d="m-18.427059 8.4832096 2.730358-8.86075686 2.835857 8.85773376" stroke-linejoin="round"/><path d="m-17.448143 5.6402607 3.679344-.065664"/></g><path d="m34.458284 23.061493-.588938-.319698-1.917102-.342114-1.991912.255913-1.328076.649175-1.367579 1.229339-.989469 1.569989-.527822 1.636251-.150852 1.889631.218709 3.171453s.400116 2.148353.622249 2.570767c.222132.422414 1.326052 2.051904 1.326052 2.051904l1.416524.975239 1.379509.271145 1.44934-.171398 1.184483-.612625.99298-1.085735.712112-1.152329.24393-1.20875s.09205-1.191992.08634-1.349212c-.0057-.157218-.408998-1.592294-.408998-1.592294l-1.002268-1.491635-1.366969-1.160337-1.619883-.208494-1.556309.225665-1.084636.586331-1.21268 1.259263-.820704.783934" stroke-linejoin="round" stroke-width="1.5"/></g></svg>