<svg viewBox="0 0 48 48" xmlns="http://www.w3.org/2000/svg"><g fill="none" stroke="#0066b3" stroke-linecap="round" stroke-linejoin="round"><path d="m103.45 201.856-27.218 79.411 35.698-25.043 14.925 38.892 31.743-72.641" stroke-width="10.163046" transform="matrix(.14759355 0 0 .14759355 .3395 1.704814)"/><path d="m214.448 201.856 29.219 79.411-37.699-25.043-14.925 38.892-31.743-72.641" stroke-width="10.163046" transform="matrix(.14759355 0 0 .14759355 .3395 1.704814)"/><g stroke-width="1.5"><path d="m25.274102 3.512392 1.622791 2.4084316c.393779.5844704 1.139127.8250479 1.803445.5821089l2.737713-1.0008318c1.024299-.3744449 2.103356.4044063 2.061439 1.4880381l-.112023 2.8960807c-.02716.7028405.433482 1.3326225 1.114626 1.5241985l2.806934.789035c1.050276.295187 1.462357 1.555341.787412 2.407546l-1.804036 2.277516c-.437762.552738-.437762 1.331294 0 1.883884l1.804036 2.277516c.675093.852206.262864 2.112359-.787412 2.407546l-2.806934.789035c-.681144.191429-1.141783.821359-1.114626 1.524199l.112023 2.896081c.04192 1.083632-1.036992 1.862483-2.061439 1.488038l-2.737713-1.000832c-.664318-.242791-1.409666-.0022-1.803445.582109l-1.622791 2.408432c-.6072.901206-1.940855.901206-2.548055 0l-1.622791-2.408432c-.39378-.58447-1.139127-.825048-1.803446-.582109l-2.737713 1.000832c-1.024299.374445-2.103355-.404406-2.061439-1.488038l.112024-2.896081c.02716-.70284-.433483-1.332622-1.114627-1.524199l-2.806934-.789035c-1.0502757-.295187-1.4623569-1.55534-.7874116-2.407546l1.8040356-2.277516c.437763-.552738.437763-1.331294 0-1.883884l-1.8040356-2.277516c-.6750929-.852205-.2628641-2.112359.7874116-2.407546l2.806934-.789035c.681144-.191429 1.141784-.821358 1.114627-1.5241985l-.112024-2.8960807c-.041916-1.0836318 1.036992-1.862483 2.061439-1.4880381l2.737713 1.0008318c.664319.2427914 1.409666.00221 1.803446-.5821089l1.622791-2.4084316c.6072-.9012062 1.940855-.9012062 2.548055 0z"/><circle cx="23.992399" cy="17.832066" r="9.184747"/></g></g></svg>