<svg fill-rule="evenodd" height="48" preserveAspectRatio="xMidYMid" stroke-linejoin="round" stroke-width="28.222" viewBox="0 0 1270 1270" width="48" xmlns="http://www.w3.org/2000/svg"><g stroke-width="26.4583" transform="matrix(.88232637 0 0 .88232637 -11778.026 1980.7537)"><path d="m720 816h9799v9801h-9799z" fill="none" transform="matrix(.14689016 0 0 .14686019 13243.071 -2364.7597)"/><g fill="#0066b3" stroke-width="1143" transform="matrix(.56434182 0 0 .56434182 4983.4235 -1187.6177)"><path d="m16184.97-686.28835h1163.115c-42.509-622.98625-540.129-1120.60635-1163.115-1163.11505z" fill-opacity=".65"/><path d="m17022.444 249.11984c187.617-203.471694 308.923-469.06489 328.924-762.60845h-1091.533z"/><path d="m16012.17-635.65803v-1213.74537c-651.541 44.4527-1166.398 586.6983-1166.398 1249.51492 0 314.84112 116.424 602.3366912 308.188 822.44036z"/><path d="m16073.255-452.4039-797.125 797.1252c220.103 191.76451 507.599 308.18833 822.44 308.18833 301.968 0 578.706-107.09264 794.922-285.07637z" fill-opacity=".65"/></g></g></svg>