<svg height="48" width="48" xmlns="http://www.w3.org/2000/svg"><path d="m0 0h48v48h-48z" fill="none" stroke-linecap="round" stroke-width="1.5"/><path d="m15.46625 7.2339101-14.2229191 16.7660899 14.2229191 16.76609h31.290419v-33.5321799zm5.689168 8.3830459h2.844582c.796483 0 1.50763.307377 2.019655.810361l3.669513 3.632653 3.669513-3.632653c.512026-.502984 1.223171-.810361 2.019655-.810361h2.844584v2.794348c0 .782418-.312905 1.481004-.824931 1.983986l-3.697958 3.60471 3.697958 3.604711c.512026.502981.824931 1.201568.824931 1.983986v2.794349h-2.844584c-.796484 0-1.507629-.30738-2.019655-.810362l-3.669513-3.632653-3.669513 3.632653c-.512025.502982-1.223172.810362-2.019655.810362h-2.844582v-2.794349c0-.782418.312903-1.481005.824928-1.983986l3.697959-3.604711-3.697959-3.60471c-.512025-.502982-.824928-1.201568-.824928-1.983986z" fill="#0066b3" fill-opacity=".65"/></svg>