<svg height="48" viewBox="0 0 48 48" width="48" xmlns="http://www.w3.org/2000/svg"><path d="m9.5 2c3.384343 0 6.245126 2.2416262 7.178598 5.321128 3.079776.9337464 5.321402 3.794529 5.321402 7.178872 0 4.142136-3.357864 7.5-7.5 7.5-3.384343 0-6.2451256-2.241626-7.178598-5.321128-3.0797758-.933746-5.321402-3.794529-5.321402-7.178872 0-4.1421356 3.3578644-7.5 7.5-7.5zm7.485771 7.0375344.010375.2197346.003854.242731c0 4.142136-3.357864 7.5-7.5 7.5-.1550226 0-.3089466-.004703-.4616372-.013975.9441134 2.072914 3.0345862 3.513975 5.4616372 3.513975 3.313708 0 6-2.686292 6-6 0-2.427051-1.441061-4.5175238-3.514229-5.4624656zm-7.485771-5.5375344c-3.3137085 0-6 2.6862915-6 6 0 2.427051 1.4410607 4.517524 3.5142285 5.462466l-.0103749-.219735-.0038536-.242731c0-4.142136 3.357864-7.5 7.5-7.5.155023 0 .308947.0047.461637.013975-.944113-2.0729143-3.034586-3.513975-5.461637-3.513975z" fill="#0066b3" transform="matrix(2.2 0 0 2.2 -2.4 -2.4)"/></svg>