<svg height="48" width="48" xmlns="http://www.w3.org/2000/svg"><g fill="none"><rect height="48" ry="1.601457" width="48"/><g stroke="#0066b3" stroke-linecap="round" stroke-linejoin="round"><text fill-rule="evenodd" font-family="monospace" font-size="32.4879" stroke-width=".25" x="-181.48769" y="26.877356"><tspan stroke-width=".25" x="-181.48769" y="26.877356">Aa</tspan></text><g stroke-width="2" transform="translate(150.18707 .484309)"><path d="m-142.41043 31.489244 6.33376-20.05102 2.78693-.04363 5.76912 20.012471"/><path d="m-139.53313 23.50232h9.21589"/></g><g stroke-width="1.5" transform="translate(150.55875 .665962)"><path d="m-109.78168 31.557591v-11.305617l-.60081-2.60328s-1.60695-1.757708-2.08525-1.918654c-.4783-.160945-3.6927-.505189-3.6927-.505189l-3.22437.787527-1.28024.713344"/><path d="m-110.29418 22.592694-3.04166-.0599-3.29439.216363-2.43183.664643-1.97957 1.719215s-.50535 1.467168-.58625 1.68557.0779 1.828474.0779 1.828474l1.16067 1.719046 2.12103 1.064414 2.85024-.07383 2.40698-1.15941 2.60639-2.807409"/></g></g></g></svg>