<svg viewBox="0 0 48 48" xmlns="http://www.w3.org/2000/svg"><g fill="none" stroke="#0066b3" stroke-linejoin="round" stroke-width="1.701592" transform="matrix(1.7630544 0 0 1.7630544 58.63906781347 23.177962)"><path d="m-24.00077 8.7415979-.02846-16.5044121" stroke-linecap="round"/><path d="m-24.046797-7.7803838h4.776703l1.194913.2856971.895319.3449819.917795.6406422.527179.9306843.174426 1.398766-.02477 1.190001s-.174021.5012213-.33995.9564332c-.06138.1683831-.218969.4896433-.472129.8090311-.192154.24242321-.605671.47427141-.605671.47427141l-1.151328.67153337-1.42581.09895732h-4.273411"/><path d="m-24.164377.08299367h5.110585l1.278435.31601914.957901.38159601.981947.70863568.564027 1.0294611.186618 1.5472218-.0265 1.3162999s-.186185.5544176-.363712 1.0579427c-.06567.1862542-.234274.5416108-.50513.8948964-.205585.2681524-.648006.5246073-.648006.5246073l-1.231804.7428057-1.525471.109459h-4.572114"/></g></svg>