<svg enable-background="new 0 0 96 96" viewBox="0 0 65 65" xmlns="http://www.w3.org/2000/svg"><path d="m15.31979 63.854369c.0353-.07003 3.099422-4.854737 6.809118-10.632673l6.744879-10.505336-3.104065-.03405c-1.70724-.01873-3.101228-.07604-3.097758-.127337.0036-.0513 2.543478-3.187576 5.644455-6.969495l5.638124-6.876218-4.372411-.063665-4.372423-.063665 13.844211-13.842394c7.614338-7.6133148 13.862641-13.82398646 13.885139-13.80148949.022498.0224862-1.918746 3.04267009-4.313856 6.71149639-2.395121 3.6688271-5.511859 8.4469551-6.926073 10.6180551l-2.571313 3.947463 3.799342.03369 3.799319.03369-5.705643 6.969858-5.705655 6.96986 3.76672.06368 3.766719.06367-13.796522 13.816107c-7.588081 7.598847-13.767622 13.758794-13.732307 13.688758zm15.177108-2.180379c-2.691403-.290692-5.076651-.778726-6.922961-1.416469l-.683418-.236067.938653-.995041.938676-.995042 1.336463.331046c2.551555.632013 3.700302.767058 6.557318.770866 2.92676.0039 4.318978-.162036 6.876229-.819551 7.288066-1.8739 13.619661-7.022803 17.070712-13.882047 4.570658-9.084547 3.596248-19.837061-2.53826-28.009589-1.030272-1.372548-3.026781-3.492795-4.081347-4.334295-.390391-.311514-.709793-.606747-.709793-.656075 0-.04933.296425-.548286.658729-1.108798l.658742-1.0191092.515064.4070827c.283286.2238975.970318.8324465 1.526728 1.3523335 4.943673 4.619175 8.021566 10.45537 9.071106 17.200332.317499 2.040444.31702 6.369251-.0011 8.404267-.49995 3.199844-1.445723 6.154849-2.873256 8.977286-1.407224 2.782254-3.011463 5.01841-5.198345 7.245965-4.584444 4.669719-10.178948 7.541253-16.645903 8.543982-1.243047.192736-5.47895.348579-6.494203.238923zm-15.243214-5.741665c-1.624559-1.217386-4.015647-3.528806-5.307066-5.130238-3.2944377-4.085348-5.3895794-8.85606-6.2093026-14.138792-.3147349-2.028419-.3147349-6.366771 0-8.39519 2.5664186-16.539641 18.0672006-27.62446855 34.3651236-24.5749808 1.977027.3699189 5.484096 1.4454689 6.210572 1.9046577.154375.09758.0084.3021085-.764029 1.0667398l-.955035.9460096-1.657923-.550584c-6.912789-2.2956663-14.605439-1.5720893-21.071807 1.9820251-4.382835 2.4089496-8.202425 6.2271836-10.5663719 10.5626516-3.4531216 6.332972-4.2288655 13.49812-2.2127426 20.437653 1.5560953 5.356061 5.1597035 10.505258 9.6858195 13.840085l1.282671.945062-.654565 1.040771c-.360019.572425-.695098 1.042014-.744618 1.043529-.04954.0014-.679851-.439213-1.400726-.979399z" fill="#0066b3" fill-opacity=".65" stroke-width=".127337"/></svg>