<svg enable-background="new 0 0 65 65" height="48" viewBox="0 0 48 48" width="48" xmlns="http://www.w3.org/2000/svg"><path d="m23.59897 28.930316h-1.258135l-.408894-5.252714 2.248916-.456073q1.352496-.267354 1.965837-1.368222.61334-1.100869.61334-3.208244 0-2.311824-.833514-3.255424-.833515-.959328-2.940891-.959328-1.761388 0-3.050977.770608l-.550435 2.579175h-1.037961v-3.994578q2.484817-.676247 4.639373-.676247 6.668115 0 6.668115 5.347074 0 2.563449-1.273861 4.120391-1.258135 1.556942-3.680045 2.060197l-.896421.204446zm1.415402 4.057486q0 .770607-.550435 1.336768-.534707.566161-1.336768.566161-.817788 0-1.368221-.566161-.534707-.566161-.534707-1.336768 0-.802061.550433-1.352494.550434-.550435 1.352495-.550435.786335 0 1.336768.550435.550435.534706.550435 1.352494z" fill="#0066b3"/><g fill="none"><rect height="32.359806" ry="4.286376" stroke="#0066b3" stroke-linecap="round" stroke-linejoin="round" stroke-width="1.45399" transform="matrix(.70710678 .70710678 -.70710678 .70710678 0 0)" width="32.359806" x="17.761223" y="-16.179903"/><path d="m0 0h48v48h-48z"/></g></svg>