<svg height="48" width="48" xmlns="http://www.w3.org/2000/svg"><g fill="none" stroke="#0066b3" stroke-linecap="round" stroke-linejoin="round" stroke-width="7.845774" transform="matrix(.2549143 0 0 .2549143 -.471773 -.471773)"><path d="m180.3 53.4c-2-7.6-8-13.6-15.6-15.7-13.7-3.7-68.7-3.7-68.7-3.7s-55 0-68.8 3.7c-7.6 2-13.5 8-15.6 15.7-3.6 13.8-3.6 42.6-3.6 42.6s0 28.8 3.7 42.6c2 7.6 8 13.6 15.6 15.7 13.7 3.7 68.7 3.7 68.7 3.7s55 0 68.8-3.7c7.6-2 13.5-8 15.6-15.7 3.6-13.8 3.6-42.6 3.6-42.6s0-28.8-3.7-42.6z"/><path d="m78 122.2v-52.4l46 26.2z"/></g></svg>