<svg viewBox="0 0 48 48" xmlns="http://www.w3.org/2000/svg"><g fill="none"><rect height="44" rx="2.73524" width="44" x="2" y="2"/><path d="m20.356511 28.097793-2.255505 2.470139-2.392166 1.925831-2.459785.809317-2.054076.1487-2.1114896-.290961-2.040765-.803967-1.692274-1.274971-1.493874-1.757661-1.146413-1.991763-.61204-2.153986.111365-2.695174.732673-2.584603 1.193949-1.879641 1.445321-1.408079 1.691152-1.008356 1.999767-.733082 2.2948646-.283455 2.496813.320766 2.121734.849116 2.052136 1.595516 11.943031 13.607302 2.295338 1.635463 2.790229.827013 2.712794-.117482 2.263042-.807093 2.112798-1.177956 1.957896-2.144146 1.103306-2.355935.48537-2.498913-.207761-2.649998-1.216132-2.579711-1.925087-2.211279-2.890073-1.687983-2.610532-.642392-2.719381.145308-2.124216.865666-2.291042 1.883105-2.054459 2.223279" stroke="#0066b3" stroke-linecap="round" stroke-linejoin="round" stroke-width="2"/></g></svg>