<svg height="48" width="48" xmlns="http://www.w3.org/2000/svg"><g stroke="#0066b3" stroke-linecap="round" stroke-linejoin="round" transform="matrix(.72738936 0 0 .95836622 14.163385 2.107739)"><path d="m7.9809404 11.442412c.3939642-3.3302067.9889552-5.7065191 1.784973-6.1554567 3.1520386-1.7776849 31.5203876 14.2214787 31.5203876 17.7768487 0 3.555369-28.368349 19.554533-31.5203876 17.776848-.6523635-.367919-1.5220266-3.240499-1.9043565-5.661574" fill="none" stroke-width="2.39542"/><path d="m30.621733 28.707247c0 2.601299-20.275121 14.307146-22.5279124 13.006496-2.2527912-1.30065-2.2527912-24.712343 0-26.012992 2.2527914-1.30065 22.5279124 10.405197 22.5279124 13.006496z" fill="#0066b3" fill-opacity=".3" fill-rule="evenodd" stroke-width="1.732201" transform="matrix(1.3991704 0 0 1.3667669 -21.283709 -15.901884)"/></g></svg>