<svg fill-rule="evenodd" height="48" preserveAspectRatio="xMidYMid" stroke-linejoin="round" stroke-width="28.222" viewBox="0 0 12.7 12.7" width="48" xmlns="http://www.w3.org/2000/svg"><path d="m2.6412106 5.4100866h7.4234804" style="fill:#0066b3;fill-opacity:.35;fill-rule:evenodd;stroke:#0066b3;stroke-width:.264583;stroke-linecap:round;stroke-linejoin:round"/><path d="m10.04766 8.7743698v-4.8919337l-.3072395-1.22036-.5757582-.8058148-.879362-.7246201-.7517901-.29439107-1.0483835-.17640186-1.1043618.11334794-1.160913.45283959-.7206154.6902687-.5228013.8001946-.2626433.8427193-.0636482.9272136-.00265 1.2321943.00376 3.1083488.1193973.5547491.4469293 1.0977288.9528243.941938 1.4549513.597165 1.1597967.0196 1.1019819-.276733.9450688-.540797.6838646-.785997.4799043-.9049916z" fill="none" stroke="#0066b3" stroke-linecap="round" stroke-linejoin="round" stroke-width=".264583"/><path d="m6.3577068 5.4117327.0033691-1.3770944-.3760994-.1466854-.1355191-.2799833-.0083619-1.4341257.137578-.2767729.376296-.1478366.0042528-1.08553666-1.0103681.12236198-1.0878651.43175998-.7703289.6869325-.5166817.8727208-.2799471.9334309-.058722.8523748.00707.8558312z" fill="#0066b3" fill-opacity=".65" fill-rule="evenodd"/><g fill="none" stroke="#0066b3" stroke-linecap="round" stroke-linejoin="round" stroke-width=".264583"><rect height="2.228479" ry=".436275" width="1.089053" x="5.83993" y="1.777201"/><path d="m6.3549693 1.7492344v-.94782663"/><path d="m6.3610759 5.4100866v-1.3754483"/></g></svg>