<svg fill-rule="evenodd" height="48" preserveAspectRatio="xMidYMid" stroke-linejoin="round" stroke-width="28.222" viewBox="0 0 12.7 12.7" width="48" xmlns="http://www.w3.org/2000/svg"><path d="m10.06174 5.4100846h-7.42348" style="fill:#0066b3;fill-opacity:.35;fill-rule:evenodd;stroke:#0066b3;stroke-width:.264583;stroke-linecap:round;stroke-linejoin:round"/><path d="m2.655291 8.7743676v-4.8919334l.30724-1.22036.575758-.8058148.879362-.7246201.75179-.2943911 1.048383-.1764018 1.104362.1133479 1.160913.4528396.720615.6902687.522802.8001946.262643.8427193.06365.9272136.0027 1.2321945-.0038 3.108349-.119397.554749-.446929 1.0977294-.952825.941937-1.454951.597165-1.159797.0196-1.101981-.276733-.945069-.540797-.683865-.785997-.479904-.9049924z" fill="none" stroke="#0066b3" stroke-linecap="round" stroke-linejoin="round" stroke-width=".264583"/><path d="m6.345244 5.4117306-.0034-1.3770942.3761-.1466854.135519-.2799833.0084-1.4341257-.137578-.2767729-.376296-.1478366-.0043-1.0855367 1.010368.122362 1.087865.43176.770329.6869325.516682.8727208.279947.9334309.05872.8523748-.0071.8558308z" fill="#0066b3" fill-opacity=".65" fill-rule="evenodd"/><g fill="none" stroke="#0066b3" stroke-linecap="round" stroke-linejoin="round" stroke-width=".264583"><rect height="2.228479" ry=".436275" transform="scale(-1 1)" width="1.089053" x="-6.863021" y="1.777199"/><path d="m6.347982 1.7492325v-.9478266"/><path d="m6.341875 5.4100846v-1.3754482"/></g></svg>