<svg fill-rule="evenodd" height="48" preserveAspectRatio="xMidYMid" stroke-linejoin="round" stroke-width="28.222" viewBox="0 0 12.7 12.7" width="48" xmlns="http://www.w3.org/2000/svg"><g stroke="#0066b3" stroke-linecap="round" stroke-linejoin="round"><path d="m10.044709 8.7743674v-4.8919337l-.30724-1.22036-.575758-.8058149-.879362-.72462-.75179-.29439108-1.048383-.17640186-1.104362.11334794-1.160913.4528396-.720616.6902686-.522801.8001947-.262643.8427193-.06365.9272135-.0027 1.2321943.0038 3.1083489.119397.5547491.446929 1.0977292.952825.941938 1.454951.597165 1.159797.0196 1.101981-.276733.945069-.540797.683865-.785997.479904-.904992z" fill="none" stroke-width=".264583"/><path d="m6.2852815 1.3207539.222702-.0018.1462274 4.260179.9684878.133822-1.3210775 3.0589785-1.2351199-3.0891495.9513964-.07624z" fill="#0066b3" fill-opacity=".3" fill-rule="evenodd" stroke-width=".171445"/></g></svg>