<svg viewBox="0 0 48 48" xmlns="http://www.w3.org/2000/svg"><g fill="#0066b3" fill-opacity=".7" transform="translate(176.660322 -16.884038)"><path d="m-152.66032 18.884038-5.53125.697266-6.00391 2.554687-4.50195 3.669922-4.14063 6.28125-1.375 4.347657-.44726 4.449218v14.666016l.8457 3.521484 1.75391 2.298828 2.19726 1.164063 2.53711.349609h7.33203v-18.333984h-7.33203v-3.666016l1.16211-5.763672 2.50391-4.208984 3.64453-2.738281 4.39453-1.660156 2.96094-.294922z"/><path d="m-152.66032 18.884038 5.53125.697266 6.00391 2.554687 4.50195 3.669922 4.14063 6.28125 1.375 4.347657.44726 4.449218v14.666016l-.8457 3.521484-1.75391 2.298828-2.19726 1.164063-2.53711.349609h-7.33203v-18.333984h7.33203v-3.666016l-1.16211-5.763672-2.50391-4.208984-3.64453-2.738281-4.39453-1.660156-2.96094-.294922z"/></g></svg>