<svg height="16" width="16" xmlns="http://www.w3.org/2000/svg"><path d="m1.1991845.99999975c-.6648 0-1.199219.51968225-1.199219 1.16601565v11.6679686c0 .05989.0048.118383.01367.175782.0013.0084.0024.01702.0039.02539.01036.05848.02602.114824.04492.169921.01828.05329.04077.104792.06641.154297.0034.0065.0063.01312.0098.01953.02724.05024.05953.09706.09375.142578.002.0026.0039.0052.0059.0078.03566.04662.07293.09197.115235.132812.04398.04246.09223.07981.142578.115235.04992.03513.10284.06633.158203.09375.11038.05467.230277.09399.357422.113281.06126.0093.123459.01564.1875.01564h12.4003905 1.201172c.6648 0 1.199219-.519682 1.199219-1.166016v-11.6679686c0-.6463334-.534419-1.16601565-1.199219-1.16601565zm3.300781 2.00000005c1.380708 0 2.5 1.1192916 2.5 2.5 0 1.380708-1.119292 2.5-2.5 2.5s-2.5-1.119292-2.5-2.5c0-1.3807084 1.119292-2.5 2.5-2.5zm4.3007812 4.0000002 4.1679683 7h-11.7695305c-.143006 0-.199219-.07172-.199219-.166016v-.972656l1.960937-2.8613282 2.164063 3.2207032z" fill="#444"/></svg>