<svg viewBox="0 0 48 48" xmlns="http://www.w3.org/2000/svg"><path d="m41.568359 3.8457031-15.367187.0019531c-.945563-.0000007-1.773088.4588338-2.292969 1.1621094l-20.1074218 20.1074224c-2.480421 2.48042-2.5644053 2.72661-.0839843 5.207031l13.9199221 13.921875c2.480421 2.480421 2.668015 2.51167 5.148437.03125l19.595703-19.595703c.703276-.519882 1.761719-1.947017 1.761719-2.892579l.001953-15.367187c0-.6471934-.222173-1.2348414-.582031-1.7128906l.027344-.0273438c-.04726-.047256-.103833-.0831034-.154297-.1269531-.04385-.050466-.079705-.1070435-.126953-.1542969l-.027344.0273438c-.47805-.3598587-1.065698-.5820318-1.712891-.5820313zm-6.511718 4.6679688a4.1975555 4.1975555 0 0 1 2.992187 1.2304687 4.1975555 4.1975555 0 0 1 0 5.9355474 4.1975555 4.1975555 0 0 1 -5.935547 0 4.1975555 4.1975555 0 0 1 0-5.9355474 4.1975555 4.1975555 0 0 1 2.94336-1.2304687z" style="opacity:.999;fill:#0066b3;fill-opacity:.65;fill-rule:evenodd;stroke:#0066b3;stroke-width:2;stroke-linecap:round;stroke-linejoin:round"/></svg>