<svg viewBox="0 0 48 48" xmlns="http://www.w3.org/2000/svg"><rect height="43.709965" ry="2.912911" style="opacity:.999;fill:none;stroke:#0066b3;stroke-width:2;stroke-linecap:round;stroke-linejoin:round;stroke-miterlimit:8" width="43.945904" x="1.989542" y="2.341313"/><path d="m2.2498168 14.439605h43.6365942" fill="none" stroke="#0066b3" stroke-width="2"/><g fill="#0066b3"><g stroke-width=".308788"><path d="m9.3754729 9.5613702 1.9268341-4.2612673v5.6816901h-.852254c-.259381 0-.395248.111163-.395248.308787 0 .209976.148218.321139.395248.321139h1.852725c.259382 0 .395248-.111163.395248-.321139 0-.197624-.135866-.308787-.395248-.308787h-.358193v-5.6940416h.24703c.259381 0 .395248-.1111635.395248-.321139s-.135867-.3087875-.395248-.3087875h-1.284556l-1.8650766 4.1254008-1.8897794-4.1254008h-1.2722045c-.2593815 0-.395248.1111635-.395248.3087875 0 .2099755.1358665.321139.395248.321139h.24703v5.6940416h-.3581935c-.2593815 0-.3952479.111163-.3952479.308787 0 .209976.1482179.321139.3952479.321139h1.852725c.2593815 0 .4075995-.111163.4075995-.321139 0-.197624-.1358665-.308787-.4075995-.308787h-.8522535v-5.6693386l1.9515369 4.2489158z"/><path d="m17.95977 9.3390432.629926 1.6427498h-.839902c-.259381 0-.395248.111163-.395248.308787 0 .209976.135867.321139.395248.321139h1.926834c.259382 0 .4076-.111163.4076-.321139 0-.197624-.135867-.308787-.4076-.308787h-.407599l-2.433246-6.3239681h-2.55676c-.271733 0-.4076.098812-.4076.3087875s.148218.321139.4076.321139h1.371016l-2.149161 5.6940416h-.345842c-.259381 0-.395248.111163-.395248.308787 0 .209976.148218.321139.395248.321139h1.865077c.259381 0 .407599-.111163.407599-.321139 0-.197624-.135866-.308787-.407599-.308787h-.876957l.617575-1.6427498zm-.24703-.6299265h-2.704979l1.284556-3.4213653h.09881z"/><path d="m22.233393 8.5732502h1.556289c.926363.4323025 1.445126 1.062229 2.544409 3.0384688h.728739c.259381 0 .407599-.111163.407599-.321139 0-.197624-.135866-.308787-.407599-.308787h-.333491c-.951065-1.6056953-1.32161-2.0997553-2.025646-2.5938153 1.062229-.3581934 1.64275-.9881199 1.64275-1.7786159 0-1.0498775-1.049878-1.9515369-2.285028-1.9515369h-3.075523c-.259382 0-.395248.098812-.395248.3087875s.135866.321139.395248.321139h.605223v5.6940416h-.605223c-.259382 0-.395248.111163-.395248.308787 0 .209976.135866.321139.395248.321139h2.099755c.259381 0 .407599-.111163.407599-.321139 0-.197624-.135866-.308787-.407599-.308787h-.852254zm0-.6299264v-2.6555724h1.815671c.864605 0 1.655101.6299264 1.655101 1.3216104 0 .7287385-.963417 1.333962-2.124458 1.333962z"/><path d="m33.374451 5.2506969c-.568169-.4817085-1.284556-.74109-2.075052-.74109-.82755 0-1.580992.321139-2.149161.914011-.543466.5681689-.901659 1.4327739-.901659 2.1862154v1.0004714c0 1.6798043 1.556289 3.1990383 3.273147 3.1990383.802848 0 1.568641-.308787 2.186216-.876956.345842-.321139.49406-.518763.49406-.666981 0-.172921-.123515-.2964363-.308788-.2964363-.111163 0-.172921.037054-.271733.1358663-.666981.765793-1.259853 1.074581-2.099755 1.074581-1.420422 0-2.630869-1.2104473-2.630869-2.6432213v-.8522534c0-1.408071 1.07458-2.5444089 2.420894-2.5444089 1.062229 0 2.000943.6052234 2.0627 1.3216104.0247.2346785.123515.345842.321139.345842.209976 0 .321139-.1358665.321139-.395248v-1.3586649c0-.2593815-.111163-.3828965-.321139-.3828965-.209975 0-.321139.1358665-.321139.3828965z"/><path d="m40.266592 8.3262202v2.6555728h-.592872c-.271733 0-.407599.111163-.407599.308787 0 .209976.148218.321139.407599.321139h1.72921c.259381 0 .407599-.111163.407599-.321139 0-.197624-.135866-.308787-.407599-.308787h-.49406v-5.6940416h.24703c.259381 0 .395248-.1111635.395248-.321139s-.135867-.3087875-.395248-.3087875h-1.48218c-.271733 0-.407599.098812-.407599.3087875s.148218.321139.407599.321139h.592872v2.4085424h-3.186687v-2.4085424h.592872c.259382 0 .4076-.1111635.4076-.321139s-.135867-.3087875-.4076-.3087875h-1.48218c-.259381 0-.395248.098812-.395248.3087875s.135867.321139.395248.321139h.24703v5.6940416h-.49406c-.271733 0-.407599.111163-.407599.308787 0 .209976.148218.321139.407599.321139h1.72921c.259382 0 .4076-.111163.4076-.321139 0-.197624-.135867-.308787-.4076-.308787h-.592872v-2.6555728z"/></g><g stroke-width=".933517"><path d="m7.2925914 39.41767c2.0163923-1.717668 4.3315096-3.846082 7.4307796-6.83333 4.704915-4.480872 5.451727-5.563749 5.451727-7.766844 0-3.472676-3.323313-6.497264-7.094714-6.497264-2.315117 0-4.4808716 1.045536-5.8998144 2.837885-.746812.933515-1.2322398 2.053733-1.2322398 2.763204 0 .448088.4107466.858834.933515.858834.4854278 0 .7841526-.261384.933515-.858834.6347902-2.165754 2.8378852-3.696719 5.2650242-3.696719 2.763205 0 5.153003 2.128414 5.153003 4.555553 0 1.605646-.672131 2.539161-4.144807 5.899815-3.099269 2.949907-5.9371548 5.563749-8.5509968 7.841526l-.3360654.298724v2.501821h15.1229422v-3.024589c0-.784153-.336065-1.194899-.970855-1.194899s-.970856.410746-.970856 1.194899v1.120218z"/><path d="m36.86636 18.432253-7.169395 2.240436c-.709472.224044-.933515.448087-.933515.970856 0 .485428.448087.933515.896174.933515.07468 0 .448087-.07468.59745-.112022l4.667574-1.456283v18.408915h-5.00364c-.821493 0-1.23224.336065-1.23224.933515 0 .63479.448088.970856 1.23224.970856h11.948992c.784152 0 1.194899-.336066 1.194899-.970856 0-.59745-.410747-.933515-1.194899-.933515h-5.00364z"/></g></g></svg>