<?xml version="1.0" encoding="UTF-8"?>
<!DOCTYPE svg PUBLIC "-//W3C//DTD SVG 1.1//EN" "http://www.w3.org/Graphics/SVG/1.1/DTD/svg11.dtd">
<svg version="1.2" width="90.31mm" height="90.31mm" viewBox="0 0 9031 9031" preserveAspectRatio="xMidYMid" fill-rule="evenodd" stroke-width="28.222" stroke-linejoin="round" xmlns="http://www.w3.org/2000/svg" xmlns:ooo="http://xml.openoffice.org/svg/export" xmlns:xlink="http://www.w3.org/1999/xlink" xmlns:presentation="http://sun.com/xmlns/staroffice/presentation" xmlns:smil="http://www.w3.org/2001/SMIL20/" xmlns:anim="urn:oasis:names:tc:opendocument:xmlns:animation:1.0" xml:space="preserve">
 <defs class="ClipPathGroup">
  <clipPath id="presentation_clip_path" clipPathUnits="userSpaceOnUse">
   <rect x="0" y="0" width="9031" height="9031"/>
  </clipPath>
  <clipPath id="presentation_clip_path_shrink" clipPathUnits="userSpaceOnUse">
   <rect x="9" y="9" width="9013" height="9013"/>
  </clipPath>
 </defs>
 <defs class="TextShapeIndex">
  <g ooo:slide="id1" ooo:id-list="id3 id4 id5"/>
 </defs>
 <defs class="EmbeddedBulletChars">
  <g id="bullet-char-template-57356" transform="scale(0.00048828125,-0.00048828125)">
   <path d="M 580,1141 L 1163,571 580,0 -4,571 580,1141 Z"/>
  </g>
  <g id="bullet-char-template-57354" transform="scale(0.00048828125,-0.00048828125)">
   <path d="M 8,1128 L 1137,1128 1137,0 8,0 8,1128 Z"/>
  </g>
  <g id="bullet-char-template-10146" transform="scale(0.00048828125,-0.00048828125)">
   <path d="M 174,0 L 602,739 174,1481 1456,739 174,0 Z M 1358,739 L 309,1346 659,739 1358,739 Z"/>
  </g>
  <g id="bullet-char-template-10132" transform="scale(0.00048828125,-0.00048828125)">
   <path d="M 2015,739 L 1276,0 717,0 1260,543 174,543 174,936 1260,936 717,1481 1274,1481 2015,739 Z"/>
  </g>
  <g id="bullet-char-template-10007" transform="scale(0.00048828125,-0.00048828125)">
   <path d="M 0,-2 C -7,14 -16,27 -25,37 L 356,567 C 262,823 215,952 215,954 215,979 228,992 255,992 264,992 276,990 289,987 310,991 331,999 354,1012 L 381,999 492,748 772,1049 836,1024 860,1049 C 881,1039 901,1025 922,1006 886,937 835,863 770,784 769,783 710,716 594,584 L 774,223 C 774,196 753,168 711,139 L 727,119 C 717,90 699,76 672,76 641,76 570,178 457,381 L 164,-76 C 142,-110 111,-127 72,-127 30,-127 9,-110 8,-76 1,-67 -2,-52 -2,-32 -2,-23 -1,-13 0,-2 Z"/>
  </g>
  <g id="bullet-char-template-10004" transform="scale(0.00048828125,-0.00048828125)">
   <path d="M 285,-33 C 182,-33 111,30 74,156 52,228 41,333 41,471 41,549 55,616 82,672 116,743 169,778 240,778 293,778 328,747 346,684 L 369,508 C 377,444 397,411 428,410 L 1163,1116 C 1174,1127 1196,1133 1229,1133 1271,1133 1292,1118 1292,1087 L 1292,965 C 1292,929 1282,901 1262,881 L 442,47 C 390,-6 338,-33 285,-33 Z"/>
  </g>
  <g id="bullet-char-template-9679" transform="scale(0.00048828125,-0.00048828125)">
   <path d="M 813,0 C 632,0 489,54 383,161 276,268 223,411 223,592 223,773 276,916 383,1023 489,1130 632,1184 813,1184 992,1184 1136,1130 1245,1023 1353,916 1407,772 1407,592 1407,412 1353,268 1245,161 1136,54 992,0 813,0 Z"/>
  </g>
  <g id="bullet-char-template-8226" transform="scale(0.00048828125,-0.00048828125)">
   <path d="M 346,457 C 273,457 209,483 155,535 101,586 74,649 74,723 74,796 101,859 155,911 209,963 273,989 346,989 419,989 480,963 531,910 582,859 608,796 608,723 608,648 583,586 532,535 482,483 420,457 346,457 Z"/>
  </g>
  <g id="bullet-char-template-8211" transform="scale(0.00048828125,-0.00048828125)">
   <path d="M -4,459 L 1135,459 1135,606 -4,606 -4,459 Z"/>
  </g>
  <g id="bullet-char-template-61548" transform="scale(0.00048828125,-0.00048828125)">
   <path d="M 173,740 C 173,903 231,1043 346,1159 462,1274 601,1332 765,1332 928,1332 1067,1274 1183,1159 1299,1043 1357,903 1357,740 1357,577 1299,437 1183,322 1067,206 928,148 765,148 601,148 462,206 346,322 231,437 173,577 173,740 Z"/>
  </g>
 </defs>
 <defs class="TextEmbeddedBitmaps"/>
 <g>
  <g id="id2" class="Master_Slide">
   <g id="bg-id2" class="Background"/>
   <g id="bo-id2" class="BackgroundObjects"/>
  </g>
 </g>
 <g class="SlideGroup">
  <g>
   <g id="container-id1">
    <g id="id1" class="Slide" clip-path="url(#presentation_clip_path)">
     <g class="Page">
      <g class="com.sun.star.drawing.ClosedBezierShape">
       <g id="id3">
        <rect class="BoundingBox" stroke="none" fill="none" x="1129" y="1129" width="6775" height="6775"/>
        <path fill="none" stroke="rgb(89,197,199)" stroke-width="282" stroke-linejoin="miter" d="M 7762,4516 C 7762,5114 7626,5622 7327,6139 7028,6657 6657,7028 6139,7327 5622,7626 5114,7762 4516,7762 3918,7762 3411,7626 2893,7327 2376,7028 2004,6657 1705,6139 1406,5622 1270,5114 1270,4516 1270,3918 1406,3411 1705,2893 2004,2376 2376,2004 2893,1705 3411,1406 3918,1270 4516,1270 5114,1270 5622,1406 6139,1705 6657,2004 7028,2376 7327,2893 7626,3411 7762,3918 7762,4516 Z"/>
       </g>
      </g>
      <g class="com.sun.star.drawing.ClosedBezierShape">
       <g id="id4">
        <rect class="BoundingBox" stroke="none" fill="none" x="5927" y="5927" width="1695" height="1695"/>
        <path fill="rgb(255,246,133)" stroke="none" d="M 7480,6774 C 7480,6904 7451,7015 7386,7127 7321,7240 7240,7321 7127,7386 7015,7451 6904,7480 6774,7480 6644,7480 6534,7451 6421,7386 6308,7321 6228,7240 6163,7127 6098,7015 6068,6904 6068,6774 6068,6644 6098,6534 6163,6421 6228,6308 6308,6228 6421,6163 6534,6098 6644,6068 6774,6068 6904,6068 7015,6098 7127,6163 7240,6228 7321,6308 7386,6421 7451,6534 7480,6644 7480,6774 Z"/>
        <path fill="none" stroke="rgb(89,197,199)" stroke-width="282" stroke-linejoin="miter" d="M 7480,6774 C 7480,6904 7451,7015 7386,7127 7321,7240 7240,7321 7127,7386 7015,7451 6904,7480 6774,7480 6644,7480 6534,7451 6421,7386 6308,7321 6228,7240 6163,7127 6098,7015 6068,6904 6068,6774 6068,6644 6098,6534 6163,6421 6228,6308 6308,6228 6421,6163 6534,6098 6644,6068 6774,6068 6904,6068 7015,6098 7127,6163 7240,6228 7321,6308 7386,6421 7451,6534 7480,6644 7480,6774 Z"/>
       </g>
      </g>
      <g class="com.sun.star.drawing.ClosedBezierShape">
       <g id="id5">
        <rect class="BoundingBox" stroke="none" fill="none" x="3747" y="3647" width="1695" height="1695"/>
        <path fill="rgb(255,246,133)" stroke="none" d="M 5300,4494 C 5300,4624 5271,4735 5206,4847 5141,4960 5060,5041 4947,5106 4835,5171 4724,5200 4594,5200 4464,5200 4354,5171 4241,5106 4128,5041 4048,4960 3983,4847 3918,4735 3888,4624 3888,4494 3888,4364 3918,4254 3983,4141 4048,4028 4128,3948 4241,3883 4354,3818 4464,3788 4594,3788 4724,3788 4835,3818 4947,3883 5060,3948 5141,4028 5206,4141 5271,4254 5300,4364 5300,4494 Z"/>
        <path fill="none" stroke="rgb(89,197,199)" stroke-width="282" stroke-linejoin="miter" d="M 5300,4494 C 5300,4624 5271,4735 5206,4847 5141,4960 5060,5041 4947,5106 4835,5171 4724,5200 4594,5200 4464,5200 4354,5171 4241,5106 4128,5041 4048,4960 3983,4847 3918,4735 3888,4624 3888,4494 3888,4364 3918,4254 3983,4141 4048,4028 4128,3948 4241,3883 4354,3818 4464,3788 4594,3788 4724,3788 4835,3818 4947,3883 5060,3948 5141,4028 5206,4141 5271,4254 5300,4364 5300,4494 Z"/>
       </g>
      </g>
     </g>
    </g>
   </g>
  </g>
 </g>
</svg>