<?xml version="1.0" encoding="UTF-8" standalone="no"?>
<svg
   viewBox="0 0 48 48"
   version="1.1"
   id="svg16"
   sodipodi:docname="arc.svg"
   inkscape:version="1.1.2 (0a00cf5339, 2022-02-04, custom)"
   xmlns:inkscape="http://www.inkscape.org/namespaces/inkscape"
   xmlns:sodipodi="http://sodipodi.sourceforge.net/DTD/sodipodi-0.dtd"
   xmlns="http://www.w3.org/2000/svg"
   xmlns:svg="http://www.w3.org/2000/svg">
  <defs
     id="defs20">
    <inkscape:path-effect
       effect="bspline"
       id="path-effect1621"
       is_visible="true"
       lpeversion="1"
       weight="33.333333"
       steps="2"
       helper_size="0"
       apply_no_weight="true"
       apply_with_weight="true"
       only_selected="false" />
  </defs>
  <sodipodi:namedview
     id="namedview18"
     pagecolor="#ffffff"
     bordercolor="#666666"
     borderopacity="1.0"
     inkscape:pageshadow="2"
     inkscape:pageopacity="0.0"
     inkscape:pagecheckerboard="0"
     showgrid="false"
     inkscape:zoom="6.8645833"
     inkscape:cx="-15.150228"
     inkscape:cy="7.2109256"
     inkscape:window-width="1920"
     inkscape:window-height="1021"
     inkscape:window-x="1366"
     inkscape:window-y="35"
     inkscape:window-maximized="1"
     inkscape:current-layer="g12" />
  <rect
     height="44"
     rx="2.73524"
     width="44"
     x="2"
     y="2"
     id="rect2"
     style="fill:none" />
  <g
     stroke="#0066b3"
     id="g12"
     style="fill:none">
    <circle
       cx="24"
       cy="24"
       r="3"
       stroke-width="0.75"
       id="circle4" />
    <circle
       cx="36.761444"
       cy="11.637134"
       r="3"
       stroke-width="0.75"
       id="circle4-0"
       style="fill:none" />
    <circle
       cx="11.766336"
       cy="11.219085"
       r="3"
       stroke-width="0.75"
       id="circle4-6"
       style="fill:none" />
    <circle
       cx="36.596294"
       cy="36.626411"
       r="3"
       stroke-width="0.75"
       id="circle6" />
    <path
       style="fill:none;stroke:#0066b3;stroke-width:2;stroke-linecap:butt;stroke-linejoin:miter;stroke-miterlimit:4;stroke-dasharray:none;stroke-opacity:1"
       d="m 14.060811,9.0036677 c 0.966834,-0.5959298 1.933391,-1.1916886 3.040818,-1.636557 1.107427,-0.4448684 2.355229,-0.7388356 3.4014,-0.9330189 1.046171,-0.1941832 1.8905,-0.2886456 2.800995,-0.347225 0.910494,-0.058579 1.886998,-0.081348 2.837946,0.021073 0.950948,0.1024217 1.876083,0.3297137 2.867963,0.6333488 0.991881,0.3036352 2.050416,0.6834501 3.011908,1.1780014 0.961492,0.4945512 1.82595,1.1034361 2.689286,1.7115308 m 4.106266,3.9376777 c 0.521424,0.957469 1.043496,1.916129 1.303884,2.394267 0.260387,0.478139 0.260387,0.478139 0.260387,0.478139 0.296022,0.787898 0.592497,1.577002 0.824617,2.388744 0.232121,0.811741 0.400553,1.647343 0.526454,2.539786 0.1259,0.892443 0.2094,1.84175 0.209857,2.76813 4.58e-4,0.926379 -0.08195,1.829955 -0.234173,2.741076 -0.152225,0.911121 -0.374168,1.829915 -0.634875,2.694575 -0.260708,0.86466 -0.560131,1.675297 -0.987239,2.493484 -0.427107,0.818186 -0.981923,1.644201 -1.536598,2.470007"
       id="path1619"
       inkscape:path-effect="#path-effect1621"
       inkscape:original-d="M 14.060811,9.0036677 C 15.028367,8.408909 15.994924,7.8131503 16.960481,7.2163916 18.209332,6.9234128 19.457134,6.6294458 20.70396,6.3344729 21.549323,6.2410069 22.393652,6.1465443 23.236998,6.05108 24.214542,6.02931 25.191046,6.006541 26.16657,5.982772 c 0.926173,0.2283013 1.851308,0.4555935 2.775463,0.6818903 1.059577,0.3808301 2.118112,0.760645 3.175668,1.1394675 0.865493,0.6099092 1.729951,1.218794 2.593426,1.8266915 m 4.106266,3.9376777 c 0,0 1.043847,1.915938 1.564271,2.872406 v 0 c 0,0 0.593044,1.576797 0.888066,2.363695 0.169439,0.836635 0.337872,1.672237 0.505307,2.506855 0.0845,0.950344 0.168003,1.89965 0.250504,2.847975 -0.08141,0.904613 -0.163815,1.808189 -0.247222,2.710784 -0.220952,0.919831 -0.442895,1.838625 -0.665842,2.756437 -0.298436,0.81167 -0.59786,1.622307 -0.898289,2.431961 -0.553838,0.827048 -1.108654,1.653063 -1.664481,2.478095"
       sodipodi:nodetypes="cccccccccccccccccc" />
  </g>
</svg>
