<svg viewBox="0 0 48 48" xmlns="http://www.w3.org/2000/svg"><g fill="none"><rect height="44" rx="2.73524" width="44" x="2" y="2"/><g stroke="#0066b3"><circle cx="24" cy="24" r="3" stroke-width=".75"/><circle cx="36.596294" cy="36.626411" r="3" stroke-width=".75"/><path d="m23.136719 5.0234375c-4.617336.2098473-9.158108 2.0951102-12.636719 5.6074215-6.9572228 7.024624-7.3591086 18.236215-.921875 25.740235 6.437234 7.504019 17.580656 8.813291 25.582031 3.005859l-1.173828-1.619141c-7.173123 5.206284-17.11778 4.037798-22.888672-2.689453-5.7708914-6.72725-5.4128358-16.733771.824219-23.03125 6.237055-6.2974782 16.23891-6.752641 23.021484-1.046875 6.782575 5.705767 8.047043 15.640298 2.910157 22.863282l1.630859 1.158203c5.730022-8.056993 4.311826-19.186193-3.253906-25.5507815-3.782866-3.1822943-8.476415-4.6473473-13.09375-4.4375z" fill="#0066b3" stroke="none"/><path d="m26.015337 26.191876 8.356467 8.364326" stroke-dasharray=".5 1" stroke-width=".5"/></g></g></svg>