<svg fill-rule="evenodd" height="112.89mm" preserveAspectRatio="xMidYMid" stroke-linejoin="round" stroke-width="28.222" viewBox="0 0 11289 11289" width="112.89mm" xmlns="http://www.w3.org/2000/svg" xmlns:xlink="http://www.w3.org/1999/xlink"><marker id="a" orient="auto" overflow="visible" refX="0.0" refY="0.0"><path d="m8.7185878 4.0337352-10.9258773-4.01772194 10.9258779-4.01772106c-1.7454984 2.3720609-1.7354408 5.6174519-.0000006 8.035443z" fill="#0066b3" fill-rule="evenodd" stroke="#0066b3" stroke-linejoin="round" stroke-width=".625" transform="matrix(-.3 0 -0 -.3 .69 -0)"/></marker><marker id="b" orient="auto" overflow="visible" refX="0.0" refY="0.0"><path d="m8.7185878 4.0337352-10.9258773-4.01772194 10.9258779-4.01772106c-1.7454984 2.3720609-1.7354408 5.6174519-.0000006 8.035443z" fill="#0066b3" fill-rule="evenodd" stroke="#0066b3" stroke-linejoin="round" stroke-width=".625" transform="matrix(.3 0 0 .3 -.69 0)"/></marker><path d="m720 816h9799v9801h-9799z" fill="none"/><g stroke="#0066b3"><text style="font-size:2764.07;font-family:Vemana2000;letter-spacing:0;word-spacing:0;fill:#0066b3;stroke-width:0;stroke-linejoin:round" transform="scale(.89186032 1.1212518)" x="6229.9551" y="5663.313"><tspan fill="#0066b3" font-family="Vemana2000" stroke="#0066b3" stroke-linejoin="round" stroke-width="0" x="6229.9551" y="5663.313">90</tspan></text><path d="m1058.3333 10054.167h8995.8337" fill="none" stroke-linecap="round" stroke-linejoin="miter" stroke-width="264.583332"/><path d="m1058.3333 10054.167v-8995.8337" fill="none" stroke-linecap="round" stroke-linejoin="miter" stroke-width="264.583332"/><path d="m-326.09818-5129.8552a4923.9609 4831.3784 0 0 1 -3706.08682-5615.6998" style="fill:none;stroke-width:396.876;stroke-linecap:round;stroke-linejoin:miter;stroke-dashoffset:3.99627;marker-start:url(#b);marker-end:url(#a)" transform="matrix(-.96680205 .2555265 -.25277975 -.96752385 0 0)"/></g></svg>