<svg fill-rule="evenodd" height="112.89mm" preserveAspectRatio="xMidYMid" stroke-linejoin="round" stroke-width="28.222" viewBox="0 0 11289 11289" width="112.89mm" xmlns="http://www.w3.org/2000/svg" xmlns:xlink="http://www.w3.org/1999/xlink"><marker id="a" orient="auto" overflow="visible" refX="0.0" refY="0.0"><path d="m8.7185878 4.0337352-10.9258773-4.01772194 10.9258779-4.01772106c-1.7454984 2.3720609-1.7354408 5.6174519-.0000006 8.035443z" fill="#0066b3" fill-rule="evenodd" stroke="#0066b3" stroke-linejoin="round" stroke-width=".625" transform="matrix(-.3 0 0 -.3 .69 0)"/></marker><marker id="b" orient="auto" overflow="visible" refX="0.0" refY="0.0"><path d="m8.7185878 4.0337352-10.9258773-4.01772194 10.9258779-4.01772106c-1.7454984 2.3720609-1.7354408 5.6174519-.0000006 8.035443z" fill="#0066b3" fill-rule="evenodd" stroke="#0066b3" stroke-linejoin="round" stroke-width=".625" transform="matrix(.3 0 0 .3 -.69 0)"/></marker><path d="m720 816h9799v9801h-9799z" fill="none"/><g stroke="#0066b3"><text style="font-size:2764.07;font-family:Vemana2000;letter-spacing:0;word-spacing:0;fill:#0066b3;stroke-width:0;stroke-linejoin:round" transform="scale(.89186032 1.1212518)" x="5814.6284" y="2753.0989"><tspan fill="#0066b3" font-family="Vemana2000" stroke="#0066b3" stroke-linejoin="round" stroke-width="0" x="5814.6284" y="2753.0989">2</tspan></text><g fill="none" stroke-linecap="round" stroke-linejoin="miter"><path d="m10318.749 8863.5416v-5512.0417" stroke-width="158.749999"/><path d="m1058.3333 8951.625v-5512.0417" stroke-width="158.749999"/><path d="m1852.0833 3827.7504h7672.9167" marker-end="url(#a)" marker-start="url(#b)" stroke-width="396.874998"/><g stroke-width="79.375"><path d="m10318.76 9701.4997v-317.493"/><path d="m1058.3343 9701.4997v-317.493"/></g></g></g></svg>