<svg fill-rule="evenodd" height="112.89mm" preserveAspectRatio="xMidYMid" stroke-linejoin="round" stroke-width="28.222" viewBox="0 0 11289 11289" width="112.89mm" xmlns="http://www.w3.org/2000/svg"><path d="m678.706477 709.44703h9799v9801h-9799z" fill="none"/><path d="m2656.706477 2591.44703h5899v5899h-5899z" fill="none"/><g transform="translate(-41.293523 -106.55297)"><g fill="none" stroke="#0066b3"><path d="m1333.7045 2810.865h8598.958v7027.354h-8598.958z" stroke-width="396.874998"/><ellipse cx="4024.0259" cy="5975.7808" rx="1085.99" ry="1076.0721" stroke-width="396.874998"/><path d="m5758.8564 8749.3379h4174.0435v1089.1174h-4174.0435z" stroke-width="158.749999"/><path d="m6120.2012 4886.9206v2184.4698l2008.4044-501.0547c2.1995-40.2934-1.3724-865.6738.8268-1046.8612z" stroke-linecap="round" stroke-linejoin="round" stroke-width="396.874998"/><path d="m4047.2188 3525.1733v4774.7157" stroke-dasharray="846.667 211.667 105.833 211.667" stroke-linejoin="miter" stroke-width="105.833"/><path d="m9274.3143 6011.9486h-7561.5247" stroke-dasharray="846.666663 211.666666 105.833333 211.666666" stroke-linejoin="miter" stroke-width="105.833333"/></g><text fill="#0066b3" font-family="sans-serif" font-size="1786.91" stroke-width="1260.75" text-anchor="middle" transform="scale(.89931398 1.1119587)" x="6175.2344" y="1954.8693"><tspan fill="#0066b3" stroke-width="1260.75" text-anchor="middle" x="6175.2344" y="1954.8693">DRAWING</tspan></text><path d="m6081.9982 9127.6573h3334.2344" fill="none" stroke="#0066b3" stroke-linejoin="miter" stroke-width="105.833333"/><path d="m6089.8555 9481.8841h1385.7052" fill="none" stroke="#0066b3" stroke-linejoin="miter" stroke-width="105.833333"/><path d="m8443.7682 9457.8642h958.0007" fill="none" stroke="#0066b3" stroke-linejoin="miter" stroke-width="105.833333"/></g></svg>