<?xml version="1.0" encoding="UTF-8" standalone="no"?>
<svg
   viewBox="0 0 48 48"
   version="1.1"
   id="svg16"
   sodipodi:docname="ellipse.svg"
   inkscape:version="1.1.2 (0a00cf5339, 2022-02-04, custom)"
   xmlns:inkscape="http://www.inkscape.org/namespaces/inkscape"
   xmlns:sodipodi="http://sodipodi.sourceforge.net/DTD/sodipodi-0.dtd"
   xmlns="http://www.w3.org/2000/svg"
   xmlns:svg="http://www.w3.org/2000/svg">
  <defs
     id="defs20">
    <inkscape:path-effect
       effect="bspline"
       id="path-effect3841"
       is_visible="true"
       lpeversion="1"
       weight="33.333333"
       steps="2"
       helper_size="0"
       apply_no_weight="true"
       apply_with_weight="true"
       only_selected="false" />
  </defs>
  <sodipodi:namedview
     id="namedview18"
     pagecolor="#ffffff"
     bordercolor="#666666"
     borderopacity="1.0"
     inkscape:pageshadow="2"
     inkscape:pageopacity="0.0"
     inkscape:pagecheckerboard="0"
     showgrid="false"
     inkscape:zoom="5.0307701"
     inkscape:cx="-14.510701"
     inkscape:cy="29.319567"
     inkscape:window-width="1920"
     inkscape:window-height="1021"
     inkscape:window-x="1366"
     inkscape:window-y="35"
     inkscape:window-maximized="1"
     inkscape:current-layer="g14" />
  <g
     fill="none"
     id="g14">
    <rect
       height="44"
       rx="2.73524"
       width="44"
       x="2"
       y="2"
       id="rect2" />
    <circle
       cx="24"
       cy="24"
       r="3"
       stroke-width="0.75"
       id="circle4"
       style="stroke:#0066b3" />
    <circle
       cx="16.33456"
       cy="10.580979"
       r="3"
       stroke-width="0.75"
       id="circle6"
       style="stroke:#0066b3" />
    <circle
       cx="41.907383"
       cy="11.403763"
       r="3"
       stroke-width="0.75"
       id="circle6-6"
       style="stroke:#0066b3" />
    <path
       style="fill:none;stroke:#0066b3;stroke-width:2;stroke-linecap:butt;stroke-linejoin:round;stroke-miterlimit:4;stroke-dasharray:none;stroke-opacity:1"
       d="m 13.655484,11.791289 c -1.2525,0.944529 -2.505157,1.889176 -3.634109,2.912005 -1.128952,1.02283 -2.1339588,2.123634 -2.8918198,3.104577 -0.7578611,0.980944 -1.2684,1.841717 -1.8287099,3.013011 -0.5603099,1.171295 -1.1703274,2.652832 -1.5518949,4.311247 -0.3815675,1.658415 -0.5347975,3.493198 -0.4253016,4.986112 0.1094959,1.492913 0.4812426,2.643586 0.9596756,3.739041 0.4784329,1.095454 1.0632406,2.135635 1.8101463,2.97709 0.7469056,0.841455 1.6553908,1.484519 2.7984984,2.174123 1.1431079,0.689604 2.5207069,1.425871 4.2393979,1.906671 1.71869,0.4808 3.778458,0.706626 5.692317,0.680345 1.913859,-0.02628 3.681971,-0.304413 5.136605,-0.614665 1.454633,-0.310252 2.595887,-0.652541 3.622916,-1.020393 1.027029,-0.367852 1.939935,-0.76123 3.206532,-1.43258 1.266596,-0.67135 2.88694,-1.620634 4.353466,-2.682866 1.466527,-1.062233 2.779338,-2.237439 4.044654,-3.61967 1.265317,-1.382231 2.483236,-2.9716 3.415101,-4.890148 0.931866,-1.918548 1.577691,-4.16662 1.897404,-5.885245 0.319712,-1.718625 0.313079,-2.907971 0.127606,-4.12944 -0.185473,-1.221468 -0.550113,-2.475173 -0.915105,-3.730091 M 39.906028,9.2526278 C 38.055883,8.2633808 36.206968,7.2747914 34.248256,6.7546889 32.289544,6.2345865 30.222592,6.1842643 28.037889,6.4315469 25.853186,6.6788295 23.551247,7.2238942 21.984293,7.6755326 20.41734,8.1271709 19.58566,8.4854077 18.7535,8.8438515"
       id="path3839"
       inkscape:path-effect="#path-effect3841"
       inkscape:original-d="m 13.655484,11.791289 c -1.251657,0.945647 -2.504314,1.890294 -3.7579702,2.83394 -1.0040473,1.101848 -2.0090544,2.202651 -3.0150816,3.302477 -0.5095594,0.861808 -1.0200984,1.722581 -1.5316475,2.582371 -0.6090421,1.482597 -1.2190597,2.964134 -1.8300896,4.444701 -0.1522361,1.835856 -0.3054662,3.670639 -0.4596993,5.504458 0.3727618,1.15172 0.7445087,2.302393 1.115263,3.45209 0.5858311,1.041223 1.1706388,2.081404 1.7544582,3.120606 0.9095215,0.64409 1.8180067,1.287154 2.7255101,1.929231 1.3786559,0.737298 2.7562559,1.473565 4.1328839,2.208848 2.06085,0.226834 4.120618,0.45266 6.179427,0.677491 1.769183,-0.277143 3.537295,-0.555275 5.304442,-0.834412 1.1423,-0.341303 2.283554,-0.683592 3.423831,-1.026888 0.913943,-0.392394 1.826849,-0.785772 2.738773,-1.180158 1.621441,-0.948341 3.241784,-1.897624 4.861225,-2.847965 1.313863,-1.174253 2.626673,-2.349459 3.93851,-3.525688 1.218968,-1.588432 2.436887,-3.177801 3.65383,-4.768201 0.646864,-2.247207 1.292689,-4.495279 1.937553,-6.744485 -0.0056,-1.188392 -0.01226,-2.377738 -0.0199,-3.568107 C 44.44315,16.098845 44.07851,14.845141 43.712863,13.590413 M 39.906028,9.2526278 c 0,0 -3.699253,-1.9774746 -5.550434,-2.967741 -2.066074,-0.049325 -4.133025,-0.099647 -6.2011,-0.1509726 -2.301031,0.5460865 -4.60297,1.0911511 -6.905955,1.6352267 -0.83068,0.3592369 -1.662359,0.7174737 -2.495039,1.0747106"
       sodipodi:nodetypes="ccccccccccccccccccccccccc" />
  </g>
</svg>
