<svg viewBox="0 0 48 48" xmlns="http://www.w3.org/2000/svg"><g fill="none"><rect height="44" rx="2.73524" width="44" x="2" y="2"/><g stroke="#0066b3"><circle cx="24" cy="-23.885576" r="3" stroke-width=".75" transform="scale(1 -1)"/><circle cx="37.177044" cy="-13.936373" r="3" stroke-width=".75" transform="scale(1 -1)"/><circle cx="32.553257" cy="-42.325119" r="3" stroke-width=".75" transform="scale(1 -1)"/><circle cx="16.33456" cy="-37.304596" r="3" stroke-width=".75" transform="scale(1 -1)"/><circle cx="41.907383" cy="-36.481815" r="3" stroke-width=".75" transform="scale(1 -1)"/><path d="m13.655484 36.094287c-1.2525-.944529-2.505157-1.889176-3.634109-2.912006-1.1289522-1.02283-2.133959-2.123633-2.8918199-3.104576-.757861-.980944-1.2683998-1.841717-1.8287097-3.013012-.5603099-1.171294-1.1703275-2.652831-1.551895-4.311246s-.5347974-3.493198-.4253015-4.986111c.1094959-1.492914.4812427-2.643587.9596756-3.739041.478433-1.095455 1.0632404-2.135636 1.810146-2.977091s1.6553911-1.4845193 2.7984986-2.1741228c1.1431079-.6896035 2.5207069-1.4258711 4.2393979-1.906671 1.71869-.4807999 3.778458-.7066258 5.692317-.6803447 1.913859.026281 3.681971.3044129 5.136605.6146646 1.454633.3102517 2.595887.6525408 3.622916 1.020393 1.027029.3678521 1.939935.7612301 3.156742 1.4329104 1.216807.6716805 2.738385 1.6221165 4.258005 2.5713305m4.438582 3.742131c1.150872 1.51663 2.301678 3.033175 3.199984 4.915307.898306 1.882133 1.544131 4.130205 1.863844 5.84883.319712 1.718625.313079 2.907971.127606 4.12944-.185473 1.221468-.550113 2.475173-.915105 3.730091" fill="none" stroke-linejoin="round" stroke-width="2"/></g></g></svg>