<svg viewBox="0 0 48 48" xmlns="http://www.w3.org/2000/svg"><g fill="none"><rect height="44" rx="2.73524" width="44" x="2" y="2"/><circle cx="24" cy="24" r="22.009073" stroke="#0066b3" stroke-width=".75"/><path d="m9.1899296 16.586719a16.561852 16.561852 0 0 1 22.1959204-7.4104886 16.561852 16.561852 0 0 1 7.451568 22.1821626 16.561852 16.561852 0 0 1 -22.16833 7.492622 16.561852 16.561852 0 0 1 -7.5336501-22.15442" stroke="#0066b3" stroke-linecap="round" stroke-width=".75"/><path d="m15.161165 32.838835 17.67767-17.67767" stroke="#0066b3" stroke-linecap="round" stroke-width="3"/><path d="m32.838835 32.838835-17.67767-17.67767" stroke="#0066b3" stroke-linecap="round" stroke-width="3"/></g><path d="m22.798179 45.555065c-2.963549-.153706-5.692654-.884474-8.449166-2.262419-2.176597-1.088053-3.815084-2.271658-5.5785301-4.029799-3.444034-3.433673-5.5216843-7.625692-6.1959108-12.501325-.1575434-1.139266-.179415-4.115549-.0384922-5.238002.5133852-4.089121 2.061783-7.791849 4.5993199-10.998482.7449215-.9413429 2.4249042-2.6260685 3.3532192-3.3626871 3.263791-2.5898205 6.965977-4.133107 11.077583-4.6177814 1.278585-.150719 3.58901-.150719 4.867595 0 4.110783.4845774 7.805266 2.024369 11.077583 4.6169305.84962.6731296 2.639029 2.4542779 3.305961 3.2907 2.480678 3.111104 4.050548 6.784766 4.609309 10.786276.176337 1.262819.176337 4.260228 0 5.523046-.563677 4.036712-2.065067 7.558168-4.570905 10.720887-.750377.94708-2.42149 2.619646-3.379928 3.382866-2.143018 1.706521-4.838439 3.111627-7.392811 3.853826-2.346334.68175-4.809135.964367-7.284827.835964zm3.6783-4.762427c7.633752-1.176614 13.456304-7.177731 14.38487-14.826023.106574-.877815.106909-3.040901.000583-3.896818-.922457-7.427262-6.30117-13.2669975-13.54782-14.7090569-1.855224-.3691833-4.023528-.4237912-5.827011-.146751-7.935254 1.2189657-13.9256532 7.7493289-14.4130404 15.7122059-.479072 7.827026 4.3715854 14.903129 11.8347104 17.264388.880611.278616 2.429583.601552 3.379544.70458.857263.09297 3.309207.03295 4.188164-.102525z" fill="#0066b3" fill-opacity=".35" fill-rule="evenodd"/></svg>