<svg viewBox="0 0 48 48" xmlns="http://www.w3.org/2000/svg"><g stroke="#0066b3" stroke-linecap="round" stroke-linejoin="round" transform="translate(178.125164 -14.105244)"><g fill="none"><path d="m-143.62156 34.974294-12.17033-6.189244" stroke-width="1.45113"/><g transform="matrix(.72556661 0 0 .72556661 -61.61105 23.622769)"><path d="m-96.362825 6.9432968-.11876 18.5527312-16.548025 8.379774v-18.230755l16.666775-8.7017502" stroke-width="1.99982"/><path d="m-129.80316 7.1148268 16.6595-8.75979" stroke-width="2"/><path d="m-121.41638 11.379937 16.66314-8.7307702" stroke-width="2"/><path d="m-129.80316 7.1148274v4.6360346" stroke-width="1.99982"/></g><path d="m-131.5287 28.660593-12.17561-6.231353" stroke-width="1.45113"/><path d="m-143.62156 48.20192-3.6258-1.900174" stroke-width="1.45113"/></g><g stroke-width="2" transform="matrix(.73038128 0 0 .73038128 -50.133541 15.264846)"><g fill="none"><path d="m-136.09565 43.355384v5.931641l-16.54802 8.379774v-18.230755l16.66677-8.70175 3.96751 7.772149-16.42387 8.36497-4.21041-7.435369"/><path d="m-152.64367 57.666799-16.5157-8.328166-.25785-18.432809 16.77355 8.53022"/><path d="m-171.36876 37.384041-1.9426 1.075055 3.89414-7.553272 16.6595-8.75979v11.722255"/></g><path d="m-152.75772 22.146034 16.78082 8.58826" fill="#0066b3" fill-opacity=".3"/></g><path d="m-159.29455 21.773498c-4.5235 2.601143-9.0441 5.200619-13.5672 7.80153" fill="none" stroke-width="1.41"/><path d="m-160.97454 26.232218 1.68003-4.458709-2.64522-2.971998" fill="none" stroke-width="1.41"/></g></svg>