<svg viewBox="0 0 48 48" xmlns="http://www.w3.org/2000/svg"><g fill="none" stroke="#0066b3" stroke-linecap="round" stroke-linejoin="round" transform="translate(176.66032 -15.906417)"><g transform="translate(1.464844 1.801173)"><path d="m-143.62156 34.974294-12.17033-6.189244" stroke-width="1.45113"/><g transform="matrix(.72556661 0 0 .72556661 -61.61105 23.622769)"><path d="m-96.362825 6.9432968-.11876 18.5527312-16.548025 8.379774v-18.230755l16.666775-8.7017502" stroke-width="1.99982"/><path d="m-129.80316 7.1148268 16.6595-8.75979" stroke-width="2"/><path d="m-121.41638 11.379937 16.66314-8.7307702" stroke-width="2"/><path d="m-129.80316 7.1148274v4.6360346" stroke-width="1.99982"/></g><g stroke-width="1.45113"><path d="m-131.5287 28.660593-12.17561-6.231353"/><path d="m-143.62156 48.20192-3.6258-1.900174"/></g></g><path d="m-160.07654 45.827473-12.17033-6.189244" stroke-width="1.45113"/><g transform="matrix(.72556661 0 0 .72556661 -78.066031 34.475948)"><path d="m-96.362825 6.9432968-.11876 18.5527312-16.548025 8.379774v-18.230755l16.666775-8.7017502" stroke-width="1.99982"/><path d="m-129.80316 7.1148268 16.6595-8.75979" stroke-width="2"/><path d="m-121.41638 11.379937 16.66314-8.7307702" stroke-width="2"/><path d="m-129.80316 7.1148274v18.2307536" stroke-width="1.99982"/></g><path d="m-147.98368 39.513772-12.17561-6.231353" stroke-width="1.45113"/><path d="m-160.07654 59.055099-12.17033-6.189244" stroke-width="1.45113"/><g stroke-width="1.41"><path d="m-157.82971 23.574671c-4.5235 2.601143-9.0441 5.200619-13.5672 7.80153"/><path d="m-159.5097 28.033391 1.68003-4.458709-2.64522-2.971998"/></g></g></svg>