<svg height="256" width="256" xmlns="http://www.w3.org/2000/svg" xmlns:xlink="http://www.w3.org/1999/xlink"><linearGradient id="a" gradientUnits="userSpaceOnUse" x1="112.99898674118" x2="114.37081325412" y1="125.53501997548" y2="107.95843076019"><stop offset="0" stop-color="#ff0d00"/><stop offset=".5" stop-color="#ff0c00"/><stop offset="1" stop-color="#f1d3d3"/></linearGradient><linearGradient id="b" gradientUnits="userSpaceOnUse" x1="196.046669" x2="225.341099" y1="131.789343" y2="131.789343"><stop offset="0" stop-color="#0ff"/><stop offset="1" stop-color="#0ff" stop-opacity="0"/></linearGradient><path d="m148.32428 209.33832c2.12468 1.10557 40.99408 1.87262 40.99408 1.87262 14.0026-2.9043 28.00597-5.80875 35.75965-8.25251 7.75368-2.44377 9.25924-4.42722 11.88815-8.71105 2.62891-4.28384 6.38105-10.86793 8.45938-17.93421 2.07832-7.06629 2.48261-14.61496 1.62893-22.32586s-2.96561-15.58379-6.82191-23.98557c-3.85629-8.40179-9.45709-17.33195-14.38038-26.18131-4.9233-8.849352-9.16866-17.617406-12.46668-27.018889-3.29803-9.401484-5.64825-19.435788-7.02734-26.303291-1.37909-6.867504-1.78685-10.567785-2.46342-13.539432-.67657-2.971646-1.62231-5.214608-3.86939-6.452658-2.24708-1.238051-5.79591-1.470002-10.57139.0426-4.77548 1.512598-10.77659 4.769877-18.08906 9.429235-7.31246 4.659358-15.93567 10.720439-25.33888 28.390131s-19.58545 46.945988-25.13794 62.698558c-5.55249 15.75258-6.47498 17.98084-2.90136 27.85106 3.57362 9.87023 11.64228 27.38096 17.80234 37.24212s10.41053 12.07289 12.53522 13.17846z" fill="#fcfbd2" stroke="#000"/><g transform="translate(11.665285 9.139664)"><g fill-rule="evenodd" transform="matrix(.1672889 -.8480899 .8480899 .1672889 -213.54172 618.39735)"><path d="m691.61726 249.69001c12.03433-.94776 42.61055 2.70398 58.03572 23.21428-18.22964-9.39047-38.6682-17.6394-58.03572-23.21428z" opacity=".2"/><g fill="#3398c3" stroke="#000" stroke-width="2" transform="matrix(1.0150594 0 0 1 114.12199 98.756399)"><path d="m575.71429 150.57647c-1.47891-2.41897 42.71436 4.51991 54.24332 27.5.69242 1.38017-13.93595.55964-17.10047-1.07143-.9943-.51249-.088-2.0563-1.07142-2.58929-1.6692-.90463-4.24235 1.31254-6.07143.80357-1.68032-.46757-1.12794-3.61135-2.85714-3.83928-1.38499-.18257-4.69089.32888-4.97617 1.69643-.95796 4.59214.24901 10.04697-2.88098 12.49999-11.72623 9.19003-46.45513 4.79602-50 .00001l-10.71428-25z"/><path d="m608.21429 180.84433c.45333 1.22734-1.68964 2.08706-1.60714 3.39285.0631.99919 4.28993-2.31584 6.87499-.26786 1.38967 1.10095-1.31648 6.08104.44643 5.89286.96141-.10262 13.07122.48056 10.71429 3.03571-4.67504 5.06822-18.81135 5.56401-26.25 4.46429-7.37213-1.08989-20.44643-14.10714-20.44643-14.10714s8.83929-9.64286 9.64286-9.64286c5.46846 2.28166 13.69086 1.5449 20.625 7.23215z"/></g><g fill="#fff"><path d="m715.01012 277.54715c-2.9037 7.17554-52.05199.98397-51.42857-1.78572l.35714 4.64286c18.63618 6.66887 44.82133 7.0429 51.07143-2.85714z" opacity=".8"/><path d="m740.36727 293.26143c-.56137.84355-19.70601-1.79643-21.78572-5.71428-.67584-1.2732-3.82553 1.98405-2.67857 2.85714 8.62652 6.5667 25.08636 2.77938 24.46429 2.85714z" opacity=".8"/></g></g><g fill-rule="evenodd" transform="matrix(.8644316 0 0 .8644316 -404.99207 -42.333558)"><path d="m528.57144 260.21933c7.24365-12.62405 28.10525-11.01646 38.57143-7.85715 18.05183 5.4491 20.0441 25.22645 18.21428 25.35715-14.21129-2.90177-29.38948-6.77044-40-6.07143 6.72326 8.3806 15.74104 16.60521 30.00001 25 0 0-21.72595 12.99212-30.00001 8.57143-14.07778-7.52152-24.32017-31.86914-16.78571-45z" fill="#3398c3" stroke="#000" stroke-width="2"/><path d="m543.30358 254.77289c9.00654-4.20959 23.83894-2.63523 35.98215 11.16072-9.46508-6.30071-27.2025-12.16155-35.98215-11.16072z" fill="#fff" opacity=".8"/><path d="m527.14286 278.79075c9.48499 16.13303 21.74411 26.16296 40.71429 21.42857-23.59096 14.00948-34.15188.51111-40.71429-21.42857z" opacity=".2"/></g><path d="m79.027891 90.299303c-37.480475 1.063199-70.4801081 35.428337-67.610904 61.436387 2.869213 26.00805 28.434751 41.9462 34.577264 43.53031 9.629379 3.08729 15.652401-2.73169 10.496672-11.73157-3.16981-4.34519-8.696026-19.77543-1.543633-29.0202 7.152394-9.24478 33.740339-15.70039 37.355798-13.89266z" fill="#3398c3" fill-rule="evenodd" stroke="#000" stroke-width="1.72886"/><path d="m179.7496 51.862965c9.60954 45.140498-60.74946 98.765965-88.990145 89.684775-14.078945-5.12548-26.810787-18.46444-21.302067-41.0605 5.50872-22.596058 40.975772-27.3718 54.335702-22.845688 13.35994 4.526103 32.5436-11.492394 32.41619-11.731573.19886 2.859177-.56981 5.032288-2.00672 6.869136l8.79868-7.486591c.42232 2.093316.0595 3.872576-.54027 5.557068l9.18459-9.879217c.58337 2.296665.59983 4.366564.15437 6.25169 3.14446-3.109395 5.82694-7.95845 7.94967-15.3591z" fill="#3398c3" fill-rule="evenodd" stroke="#000" stroke-width="1.72886"/><path d="m89.215831 81.191893c-11.735653 5.83921-22.44813 13.985198-19.758434 34.268537 1.029451 7.76327 7.984573 19.60555 16.979909 23.00006-9.330027-13.61805-9.166831-18.69216-10.496663-24.69804-2.345618-10.59347 7.397183-24.835804 15.844235-27.80963 8.638382-3.041174 4.173044-7.038341-2.569047-4.760927z" fill="#fff" fill-rule="evenodd" opacity=".8"/><path d="m61.164507 96.360127c-.07862-.707615-48.066399 21.804443-46.716607 52.174173 1.073875 24.16167 34.27913 44.53354 33.618489 41.69566-1.036558.1859-30.105707-25.17616-27.942639-42.78718 3.540919-28.82914 40.936204-51.396321 41.040757-51.082653z" fill="#fff" fill-rule="evenodd" opacity=".8"/><g fill="none" stroke="#000" stroke-width="2" transform="matrix(.8644316 0 0 .8644316 -350.11637 -22.645359)"><path d="m456.58895 142.71982c.96874 21.34672 9.16115 39.89434 34.34519 50.50762l.50507.50508"/><path d="m434.87067 159.89241c4.74203 19.72056 14.88055 33.0875 44.44671 38.3858"/><path d="m418.97871 190.25826c10.88905 12.1761 21.6539 19.4764 48.59936 15.59609"/><path d="m423.5244 219.84855c13.43052 3.50422 28.46005 3.44529 40.70197-5.25997"/><path d="m435.58496 235.23543c10.34998-.97094 20.04392.12748 29.08521-15.23895"/><path d="m446.48743 245.75537c11.78511 1.01015 17.78475-2.61203 20.14177-13.72371"/></g><g fill-rule="evenodd"><g fill="#3398c3" stroke="#000" transform="matrix(.8644316 0 0 .8644316 -346.20448 -29.613465)"><path d="m475.78185 223.65828-5.80838 5.3033-13.13198-12.12183c-2.13308-4.24558 2.54504-6.67286 4.79822-5.55584z"/><path d="m469.21586 226.4362c-.73465-3.90418 5.98088-6.35818 8.46003-.50507.13866.32736.96435 11.67253-.50508 15.9099-1.45535 4.19679-5.52198 5.90751-7.3236 4.54569-1.42886-1.08006.29527-2.80818.52282-5.44666.34951-4.05255-.25737-9.73794-1.15417-14.50386z"/></g><g fill="#3398c3" stroke="#000" transform="matrix(.8644316 0 0 .8644316 -346.20448 -29.613465)"><path d="m488.28249 213.43049-5.68211 6.31346s-16.53023-8.77703-16.66752-8.96511c-1.47467-2.02019 1.24029-7.44363 5.3033-5.93464.0668.0248 17.04633 8.58629 17.04633 8.58629z"/><path d="m481.21142 218.22871c-1.65196-1.08274 2.91105-7.49648 6.56599-5.55583 2.54049 1.34892 5.97867 9.72861 6.31345 15.40482.20744 3.51713-4.11866 9.21323-5.55583 8.08122-1.1339-.89314-1.3237-5.26141-2.49859-9.1749-1.35093-4.49989-2.795-7.42478-4.82502-8.75531z"/></g><g fill="#3398c3" stroke="#000" transform="matrix(.8644316 0 0 .8644316 -346.20448 -29.613465)"><path d="m491.81803 193.73251 15.53109 7.44988-3.03046 6.81853-17.04632-7.19734c-3.17059-1.33869.9917-8.77583 4.54569-7.07107z"/><path d="m514.04138 203.83404c-.17601.35201-5.7262-2.72498-7.70242-3.40926-2.24713-.77809-5.32053 4.89445-3.91434 6.81853 2.00447 2.7427 8.29105 3.4004 7.95496 3.6618z"/></g><g fill="#3398c3" stroke="#000" transform="matrix(.8644316 0 0 .8644316 -346.20448 -29.613465)"><path d="m477.92842 203.58151c-1.34765-2.41151 2.29985-7.05066 6.18719-5.93465.37422.10743 15.15229 10.73287 15.15229 10.73287l-5.55584 6.43972s-15.29235-10.35882-15.78364-11.23794z"/><path d="m492.95445 212.42034c-1.52249-3.96635 5.32602-6.26125 7.95495-2.52538 1.22781 1.74481 2.14697 14.13908 1.64149 15.9099-1.63367 5.72316-4.23571 6.3339-5.3033 5.80838-.4388-.216-.16523-2.80542-.74607-5.75562-.95029-4.82675-2.70193-11.23554-3.54707-13.43728z"/></g><path d="m78.719168 139.2323c2.876275 1.37378 5.548518 2.13547 8.798677 4.63088-4.565201.36074-6.634512-2.1904-8.798677-4.63088z" fill="#fff" opacity=".7"/><path d="m85.253426 149.5078c.204257-.14782-10.678761-17.14537-5.915233-19.77859 6.143216-3.39588 15.418363-9.82475 14.165933.92387-.65934 5.65854 10.533844 22.53512 13.121294 22.9-48.440547-3.56799-15.13188-2.69694-21.371994-4.04528z" fill="#3398c3" stroke="#000" stroke-width="1.72886"/><path d="m97.625278 111.31193c.839657 9.08529 13.463302 22.9467 21.649092 20.00566 5.29608-1.9028 10.30104-1.85333 16.25724-18.00895-11.7112 4.75479-27.94479.71475-37.906332-1.99671z" fill="#666" stroke="#000" stroke-width="1.72886"/><path d="m92.200239 104.81146c.928036 2.55354 3.615469 3.81197 5.83577 5.04222 3.717851 1.6725 7.590151 3.02289 11.635481 3.62023 3.91394.62671 7.85456 1.13797 11.79994 1.49283 7.05558.17368 13.33885-2.49605 19.83329-5.00754.9577-.57119-.80835.98021.84885.0924.62803-.57369 3.12577-1.97038 3.0484-1.30614-4.97992 3.22241-10.78928 4.82456-16.47864 6.29749-4.90447 1.16045-10.02401 1.13668-14.96778.23701-5.32745-.66124-10.74051-1.39941-15.676694-3.6298-2.804914-1.06158-5.487759-2.68799-7.47041-4.95253-.769669-1.26956.783514-1.52892 1.591793-1.88619z"/><path d="m101.34275 120.13781c2.17457-3.81772 18.27639-5.96114 20.17569 2.40668-3.79017-6.59628 1.9201-6.54159 11.26577-3.70133-3.32993 8.15989-7.64822 11.92332-12.55201 12.62022-7.51142 1.06748-14.85533-5.75896-18.88945-11.32557z" fill="url(#a)" stroke="#000" stroke-width=".79655"/><path d="m81.806425 149.26588c5.555062-5.35659-.347531-23.59835 10.225261-23.66503l6.29227 18.8737c-14.300026 2.8728-11.412452 3.04087-16.517531 4.79133z" opacity=".2"/><path d="m180.5986 59.426742c-2.22847 33.471639-33.0228 64.310638-69.15452 80.886098 29.60705-19.00044 59.97609-46.521856 69.15452-80.886098z" opacity=".2"/><path d="m51.860033 154.9773c1.665665 2.98316 5.395333 5.6541 9.107409 7.40942-1.525937-3.21629-5.952329-5.41497-9.107409-7.40942z" fill="#fff" opacity=".7"/><path d="m59.73255 148.95716c3.371257 1.20817 9.167945 2.76943 11.731564 4.78524-3.716692-.73984-9.249677-1.67876-11.731564-4.78524z" fill="#fff" opacity=".7"/><path d="m71.772837 142.47392 10.033588 6.79196c-4.407132-.25571-8.502221-3.24966-10.033588-6.79196z" fill="#fff" opacity=".7"/><path d="m84.893682 151.73568c3.866092 4.52888 2.658006 14.45577 2.469802 15.28193z" fill="#fff" opacity=".7"/><path d="m75.014456 155.59476c2.781291 4.42437 3.674889 9.70658 4.939613 14.5101.960815-8.24273-3.648731-14.73734-4.939613-14.5101z" fill="#fff" opacity=".7"/><g transform="matrix(.7463156 .4361823 -.4361823 .7463156 89.038778 -287.70462)"><path d="m304.50438 437.17997s18.01616-10.21695 26.78572-10.35714c9.5437-.15257 23.56324-6.59667 25.53342 4.22349 0 0-8.20424 4.22442-11.69837 4.33487-2.31174.0731-5.21444 2.42786-7.28335 3.46184-2.40366 1.20128-.57165-.43818-3.02782.65174-9.36873 4.15736-8.31862 1.61943-10.22864 1.90703-7.81146 1.17619-8.4508 14.11626-8.29524 14.3496z" fill="#3398c3" stroke="#000" stroke-width="2"/><path d="m365.93295 457.71568c-5.51948-2.752-11.033-.4024-20.35714-1.07142-1.27142 1.09048-2.17973 2.36252-2.5 3.92857l-7.14286-3.92857c-1.266 1.02492-3.58118-.29405-3.57142 2.85714-3.66518-.33397-3.92217-1.10818-4.28572-2.85714-.71277-4.70111 1.45664-7.35756-2.14286-14.46428-1.52075-7.30017-34.02459-18.93338-51.42857-18.39286-37.87544 1.17632-24.15018 38.34474-9.28571 46.96429 36.33081 21.06736 96.39452 11.14844 100.71428-13.03573z" fill="#3398c3" stroke="#000" stroke-width="2"/><path d="m256.95054 434.92116c23.82404-5.73559 32.6921-6.33958 55.42507 5.98949-9.73553-15.93742-48.02902-17.42937-55.42507-5.98949z" fill="#fff" opacity=".8"/><path d="m353.07582 434.32284s-22.89231-8.27931-31.42857-2.14286c-1.47638 1.06133 2.63809 5.05478 4.28571 4.28572 5.40132-2.52117 27.06435-2.32842 27.14286-2.14286z" fill="#fff" opacity=".8"/><path d="m266.81956 470.76482c44.05809 14.72714 69.33713 1.10098 96.39653-7.86266-4.30855 16.45303-61.06532 31.19281-96.39653 7.86266z" opacity=".2"/></g><path d="m64.826507 164.5478c1.927605 3.51315 2.64274 14.47689.463102 15.59063.494368-3.38699-1.131394-11.4821-.463102-15.59063z" fill="#fff" opacity=".7"/><g transform="matrix(.8800357 0 0 .8136863 -146.1756 -24.774727)"><ellipse cx="219.96072" cy="130.34544" rx="21.970818" ry="26.516504" transform="matrix(1.0229885 0 0 1 61.6135 3.535534)"/><ellipse cx="224.00133" cy="139.94189" fill="#fff" rx="21.970818" ry="20.960665" transform="matrix(.9875095 0 0 1.1194375 65.679887 -19.744789)"/><ellipse cx="217.68787" cy="137.41652" fill="url(#b)" rx="14.647212" ry="17.930208" transform="matrix(1.0172414 0 0 1.0422535 64.179526 -6.05887)"/><ellipse cx="216.17264" cy="135.90129" rx="9.59645" ry="12.879445" transform="matrix(1.0789474 0 0 1.0588235 52.381728 -6.731503)"/><ellipse cx="216.96428" cy="118.07647" fill="#fff" rx="6.25" ry="10" transform="matrix(.8635422 .6148578 -.6148578 .8635422 180.17025 -105.68258)"/><ellipse cx="281.07142839087" cy="151.64788787058" fill="#fff" rx="5.35714327976" ry="3.57142885317"/><path d="m273.75 112.8979c1.29002 8.2422-7.207 3.5225-6.73835.38346.26013 4.48349.44834 4.94384 1.20919 5.5308 2.38372 1.83891 1.03099.35538-.41274 1.37553-1.49115 1.05367-.75935 1.52543-4.43971-.72896.71917 1.66107 1.79997 4.31381 2.54733 4.71738 1.875-2.1875 8.19142-10.92107 7.83428-11.27821z"/></g><path d="m99.752563 109.65416c12.123437 4.49976 41.900567-16.693394 40.532367-18.814102-15.63085 3.783355-27.20377 4.821374-40.532367 18.814102z" fill="#3398c3"/><path d="m105.53289 107.75549c1.59651-.0974 19.01927-11.479941 20.04493-11.482791-6.70753 1.623516-14.32535 5.478221-20.04493 11.482791z" fill="#fff" opacity=".8"/></g></g><path d="m66.755729 104.01309c4.742897-.14472 14.340342-2.35946 26.257937-8.886261 11.917594-6.526798 26.154954-17.365182 35.761584-23.217733s14.58139-6.718991 15.96275-7.572541c1.38137-.85355-.83107-1.694758-3.36198-1.998773-2.5309-.304016-5.3798-.0703-12.06086 1.792572-6.68107 1.862869-17.19351 5.354868-28.01506 10.347131-10.821543 4.992262-21.951248 11.484438-28.513188 16.039051-6.561941 4.554613-8.555391 7.171097-9.608422 9.442995-1.053031 2.271899-1.165659 4.198289 3.577239 4.053559z" fill="#eaf000" stroke="#000" stroke-width="1.75748"/><path d="m28.046372 113.94067a36.441708 32.219017 0 0 1 13.2016-32.816375 36.441708 32.219017 0 0 1 39.24632-3.025014 36.441708 32.219017 0 0 1 19.425378 30.301559" fill="#ff0" stroke="#000" stroke-linejoin="round" stroke-width="1.84063" transform="matrix(.92913257 -.36974676 .36974676 .92913257 0 0)"/><path d="m195.32478 35.012821c.29066.301795-.26341.540689-.5016.483084-.64547-.156106-.73406-.988303-.46456-1.486289.48205-.890782 1.69191-.973445 2.47097-.446046 1.14331.773979 1.22014 2.405143.42753 3.455662-1.05643 1.400178-3.1218 1.469959-4.44035.409008-1.65926-1.335099-1.7214-3.84009-.39049-5.425036 1.61191-1.919581 4.5593-1.973775 6.40972-.371969 2.18066 1.887673 2.22675 5.27909.35345 7.394409-2.16279 2.442219-5.99926 2.480102-8.37909.334931-2.70412-2.437479-2.73374-6.7197-.31641-9.363782 2.71187-2.96626 7.44033-2.987571 10.34846-.297893 3.22858 2.986051 3.24156 8.161121.27938 11.333155" fill="none" stroke="#000" stroke-width="1.75748" transform="matrix(.75470958 -.65605903 .65605903 .75470958 25.45544 137.209493)"/><path d="m195.32478 35.012821c.29066.301795-.26341.540689-.5016.483084-.64547-.156106-.73406-.988303-.46456-1.48629.48205-.890781 1.69191-.973445 2.47097-.446045 1.14331.773979 1.22014 2.405143.42753 3.455663-1.05643 1.400178-3.1218 1.469959-4.44035.409007-1.65926-1.335098-1.7214-3.84009-.39049-5.425036 1.61191-1.919582 4.5593-1.973776 6.40972-.37197 2.18066 1.887673 2.22675 5.279091.35345 7.39441-2.16279 2.44222-5.99926 2.480103-8.37909.334932-2.70412-2.43748-2.73374-6.719702-.31642-9.363784 2.71188-2.96626 7.44034-2.987571 10.34848-.297893 3.22857 2.986052 3.24155 8.161122.27937 11.333157-3.26007 3.49103-8.88202 3.495653-12.31784.260855-3.75359-3.533969-3.74985-9.603009-.24234-13.30253 1.45808-1.537905 3.40813-2.57028 5.49516-2.93042" fill="none" stroke="#000" stroke-width="1.75748" transform="matrix(.27563735 -.96126171 -.96126171 -.27563735 206.44286 389.99436)"/><path d="m204.16343 36.229013c.94033 20.172091 6.49048 40.115648 16.1058 57.873551 9.1013 16.808596 21.927 32.040066 26.47863 50.604696 4.34874 17.73712.2213 37.35842-10.90489 51.8403" fill="none" stroke="#000" stroke-width="1.75748"/><path d="m190.67949 28.804133c3.08013-1.153071-.35474 1.67721-1.458 4.249865s.12456 4.886389 1.39735 6.37486c1.2728 1.488472 2.43086 2.072072 3.61738 2.309825 1.18652.237752 2.61783.0519-.7097 1.363728-3.32753 1.311831-11.26552 4.102139-18.10234 7.849773-6.83681 3.747635-12.57158 8.452229-17.15717 9.58012s-8.02404-1.322729-11.46135-3.772538c7.20085-5.509766 14.40185-11.019648 22.80017-16.342888 8.39832-5.323239 17.99353-10.459673 21.07366-11.612745z" fill="#ffff9d" stroke="#000" stroke-width="1.75748"/><path d="m222.68733 185.27199c.11365.58111-3.80613 3.10733-4.6889 6.13716-.88278 3.02982 1.27099 6.56189 4.99044 8.17326 3.71946 1.61136 9.00407 1.30325 7.77862 2.50243-1.22544 1.19918-8.96056 3.9057-16.3957 5.89501-7.43514 1.98932-14.57005 3.26125-22.07842 3.73942-7.50836.47817-15.38996.16237-21.82955-.48935-6.43958-.65172-11.43691-1.6395-14.53258-1.82669-3.09568-.18719-4.28877.42663-5.48806-.27371s-2.40502-2.71615-3.65978-3.62896c-1.25476-.91282-2.55861-.72131-3.53934-1.14162s-1.6382-1.45369-1.53784-2.53299c.10036-1.07931.95936-2.20348 1.73088-3.55356s1.4556-2.9263 1.8145-4.46915c.35891-1.54285.39245-3.05273 3.31015-3.16334 2.9177-.1106 8.71814 1.17878 14.49289 2.1185s11.52356 1.52989 17.90497 1.40685c6.38142-.12303 13.39527-.95902 19.05384-2.20227 5.65857-1.24326 9.9619-2.89361 14.1874-4.40083 4.22549-1.50723 8.37283-2.87126 8.48648-2.29016z" fill="#ffff9d" stroke="#000" stroke-width="1.75748"/><path d="m213.68892 146.57596-18.7739 21.35718-27.88281-5.58007-9.10892-26.93727 18.7739-21.35718 27.88281 5.58007z" fill="none" stroke="#000" stroke-linejoin="round" stroke-width="1.552886" transform="matrix(.83927355 0 0 .87840449 20.055303 23.849881)"/><circle cx="175.82948" cy="147.07922" fill="#fcfcd2" r="9.448819" stroke="#000" stroke-linejoin="round" stroke-width="1.333333"/><path d="m133.30507 146.84583 9.87304 26.33008" fill="none" stroke="#000"/><path d="m182.79921 154.84779 22.61132 11.82617 5.48243 17.28906" fill="none" stroke="#000"/><path d="m143.17811 173.17591.11022-5.10923-3.71093 1.41352z" stroke="#000"/><path d="m133.30507 146.84583-.11022 5.10923 3.71093-1.41352z" stroke="#000"/><path d="m182.79921 154.84779 3.40386 3.81187 1.74994-3.56468z" stroke="#000"/><text font-family="sans-serif" font-size="8" font-weight="bold" transform="matrix(.39073113 .92050485 -.92050485 .39073113 0 0)" x="193.13092" y="-69.553627"><tspan x="193.13092" y="-69.553627">2.30</tspan></text><text font-family="sans-serif" font-size="8" font-weight="bold" transform="matrix(.30901699 .95105652 -.95105652 .30901699 0 0)" x="221.8055" y="-146.20631"><tspan x="221.8055" y="-146.20631">R0.9</tspan></text><text font-family="sans-serif" font-size="8" font-weight="bold" transform="matrix(.30901699 .95105652 -.95105652 .30901699 0 0)" x="137.45454" y="-161.17693"><tspan x="137.45454" y="-161.17693">1.2</tspan></text><path d="m99.926863 44.489445c.569517-.827149 2.267837-1.10272 4.957597-.847657 2.68977.255064 6.37031 1.040342 9.29803 2.035361s5.10217 2.199227 6.89974 3.48252 3.2182 2.645187 5.61729 5.445157c2.3991 2.79997 5.77654 7.037583 5.5588 9.514007s-4.03052 3.192622-13.61526 7.356005c-9.58475 4.163382-24.94013 11.77361-27.111032 12.299813-2.170901.526203 8.842922-6.031685 16.329932-10.565483 7.487-4.533797 11.44665-7.043164 12.92065-9.213126s.46191-4.001802-1.19542-5.837783c-1.65732-1.835982-3.96014-3.675608-7.25275-5.357697-3.29262-1.682089-7.57472-3.205984-9.99608-4.656295-2.42137-1.450311-2.98101-2.827672-2.411497-3.654822z" fill="#e3c100"/><path d="m73.70436 60.604635c-.873416.401904-3.808011 3.386881-5.141628 7.155966-1.333616 3.769086-1.066339 8.320961-.192938 7.918686.873402-.402275 2.353102-5.758376 3.686765-9.527075s2.521218-5.949482 1.647801-5.547577z" fill="#fafad1"/><g stroke="#000"><path d="m200.10992 112.72672 14.78493 43.26438 2.71914 1.40195 13.91171-4.48266 2.01042-2.08412-16.17294-44.05315-2.27133-.84317-13.91284 4.8437z" fill="none" stroke-linejoin="bevel" stroke-width="1.33333"/><path d="m227.20536 140.31606-13.77535 4.76211-2.88724-.67954" fill="none"/><path d="m196.36267 100.42988 16.37386-6.364828" fill="none"/><path d="m212.73653 94.065052-5.10923-.11022 1.41352 3.71093z"/><path d="m196.36267 100.42988 5.10923.11022-1.41352-3.71093z"/><path d="m213.43001 145.07817-1.5846 2.48096" fill="none"/><path d="m228.41406 138.08597-1.2087 2.23009 2.26081.97344" fill="none"/><path d="m219.98221 119.70015-13.77535 4.76211-2.88724-.67954" fill="none"/><path d="m206.20686 124.46226-1.5846 2.48096" fill="none"/><path d="m221.19091 117.47006-1.2087 2.23009 2.26081.97344" fill="none"/><path d="m165.83919 127.63566c1.12646-.54888 2.25247-1.09754 3.38179-1.51163 1.12931-.41408 2.26154-.69358 3.39308-.9729" fill="none"/><path d="m187.31098 128.10273c1.05118.72232 2.10121 1.44385 2.99916 2.20298.89796.75914 1.644 1.55561 2.38909 2.35107" fill="none"/><path d="m197.61278 148.18026c.03 1.29512.06 2.58919-.18235 3.90611-.24238 1.31691-.75688 2.65704-1.27119 3.99666" fill="none"/><path d="m158.19527 160.69655c.92401 1.38388 1.84724 2.7666 2.9597 3.88857 1.11246 1.12196 2.4137 1.98351 3.71381 2.84431" fill="none"/><path d="m156.27208 138.96828c-.70554 1.30997-1.41089 2.61957-1.74285 4.14136-.33195 1.52179-.29073 3.25503-.24953 4.98729" fill="none"/><path d="m178.33013 169.9101c1.56871-.0246 3.13645-.0491 4.59102-.42107 1.45456-.37199 2.79653-1.09123 4.13817-1.81029" fill="none"/></g></svg>