<?xml version="1.0" encoding="UTF-8" standalone="no"?>
<!-- Created with Inkscape (http://www.inkscape.org/) -->

<svg
   width="256"
   height="256"
   id="svg4426"
   sodipodi:version="0.32"
   inkscape:version="1.1 (1:1.1+202105261518+ce6663b3b7)"
   version="1.0"
   sodipodi:docname="GambasCAD-logo.svg"
   inkscape:output_extension="org.inkscape.output.svg.inkscape"
   inkscape:export-filename="/home/martin/GambasCAD-viewer/png/gambascad64.png"
   inkscape:export-xdpi="24.000002"
   inkscape:export-ydpi="24.000002"
   xmlns:inkscape="http://www.inkscape.org/namespaces/inkscape"
   xmlns:sodipodi="http://sodipodi.sourceforge.net/DTD/sodipodi-0.dtd"
   xmlns:xlink="http://www.w3.org/1999/xlink"
   xmlns="http://www.w3.org/2000/svg"
   xmlns:svg="http://www.w3.org/2000/svg"
   xmlns:rdf="http://www.w3.org/1999/02/22-rdf-syntax-ns#"
   xmlns:cc="http://creativecommons.org/ns#"
   xmlns:dc="http://purl.org/dc/elements/1.1/">
  <title
     id="title3158">Gambas logo</title>
  <defs
     id="defs4428">
    <linearGradient
       id="linearGradient72389"
       inkscape:swatch="solid">
      <stop
         style="stop-color:#000000;stop-opacity:1;"
         offset="0"
         id="stop72387" />
    </linearGradient>
    <inkscape:path-effect
       effect="bspline"
       id="path-effect1039"
       is_visible="true"
       lpeversion="1"
       weight="33.333333"
       steps="2"
       helper_size="0"
       apply_no_weight="true"
       apply_with_weight="true"
       only_selected="false" />
    <inkscape:path-effect
       effect="bspline"
       id="path-effect10795"
       is_visible="true"
       lpeversion="1"
       weight="33.333333"
       steps="2"
       helper_size="0"
       apply_no_weight="true"
       apply_with_weight="true"
       only_selected="false" />
    <inkscape:path-effect
       effect="bspline"
       id="path-effect9436"
       is_visible="true"
       lpeversion="1"
       weight="33.333333"
       steps="2"
       helper_size="0"
       apply_no_weight="true"
       apply_with_weight="true"
       only_selected="false" />
    <inkscape:path-effect
       effect="bspline"
       id="path-effect9105"
       is_visible="true"
       lpeversion="1"
       weight="33.333333"
       steps="2"
       helper_size="0"
       apply_no_weight="true"
       apply_with_weight="true"
       only_selected="false" />
    <inkscape:path-effect
       effect="spiro"
       id="path-effect5191"
       is_visible="true"
       lpeversion="1" />
    <inkscape:path-effect
       effect="spiro"
       id="path-effect4928"
       is_visible="true"
       lpeversion="1" />
    <inkscape:path-effect
       effect="spiro"
       id="path-effect2656"
       is_visible="true"
       lpeversion="1" />
    <inkscape:path-effect
       effect="spiro"
       id="path-effect2444"
       is_visible="true"
       lpeversion="1" />
    <inkscape:path-effect
       effect="spiro"
       id="path-effect2440"
       is_visible="true"
       lpeversion="1" />
    <inkscape:path-effect
       effect="spiro"
       id="path-effect1875"
       is_visible="true"
       lpeversion="1" />
    <linearGradient
       inkscape:collect="always"
       xlink:href="#linearGradient3602"
       id="linearGradient4248"
       gradientUnits="userSpaceOnUse"
       x1="221.64285"
       y1="179.13533"
       x2="223.35713"
       y2="157.17104" />
    <linearGradient
       inkscape:collect="always"
       xlink:href="#linearGradient3428"
       id="linearGradient4246"
       gradientUnits="userSpaceOnUse"
       x1="203.04065"
       y1="137.41652"
       x2="232.33508"
       y2="137.41652" />
    <linearGradient
       id="linearGradient3602">
      <stop
         style="stop-color:#ff0d00;stop-opacity:1;"
         offset="0"
         id="stop3604" />
      <stop
         id="stop3610"
         offset="0.5"
         style="stop-color:#ff0c00;stop-opacity:1;" />
      <stop
         style="stop-color:#f1d3d3;stop-opacity:1;"
         offset="1"
         id="stop3606" />
    </linearGradient>
    <linearGradient
       inkscape:collect="always"
       id="linearGradient3428">
      <stop
         style="stop-color:#00ffff;stop-opacity:1;"
         offset="0"
         id="stop3430" />
      <stop
         style="stop-color:#00ffff;stop-opacity:0;"
         offset="1"
         id="stop3432" />
    </linearGradient>
    <inkscape:perspective
       sodipodi:type="inkscape:persp3d"
       inkscape:vp_x="0 : 526.18109 : 1"
       inkscape:vp_y="0 : 1000 : 0"
       inkscape:vp_z="744.09448 : 526.18109 : 1"
       inkscape:persp3d-origin="372.04724 : 350.78739 : 1"
       id="perspective4434" />
    <linearGradient
       inkscape:collect="always"
       xlink:href="#linearGradient3602"
       id="linearGradient3135"
       gradientUnits="userSpaceOnUse"
       gradientTransform="matrix(0.8002348,0,0,0.8002348,-64.467335,-17.815305)"
       x1="221.64285"
       y1="179.13533"
       x2="223.35713"
       y2="157.17104" />
    <linearGradient
       inkscape:collect="always"
       xlink:href="#linearGradient3428"
       id="linearGradient3137"
       gradientUnits="userSpaceOnUse"
       x1="203.04065"
       y1="137.41652"
       x2="232.33508"
       y2="137.41652"
       gradientTransform="translate(-6.9939814,-5.6271766)" />
  </defs>
  <sodipodi:namedview
     id="base"
     pagecolor="#ffffff"
     bordercolor="#666666"
     borderopacity="1.0"
     gridtolerance="10000"
     guidetolerance="10"
     objecttolerance="10"
     inkscape:pageopacity="0.0"
     inkscape:pageshadow="2"
     inkscape:zoom="2"
     inkscape:cx="135.75"
     inkscape:cy="122.75"
     inkscape:document-units="px"
     inkscape:current-layer="layer1"
     showgrid="false"
     inkscape:window-width="1294"
     inkscape:window-height="704"
     inkscape:window-x="0"
     inkscape:window-y="0"
     inkscape:window-maximized="1"
     inkscape:pagecheckerboard="0" />
  <metadata
     id="metadata4431">
    <rdf:RDF>
      <cc:Work
         rdf:about="">
        <dc:format>image/svg+xml</dc:format>
        <dc:type
           rdf:resource="http://purl.org/dc/dcmitype/StillImage" />
        <dc:title>Gambas logo</dc:title>
        <dc:date>2008-09-15</dc:date>
        <dc:creator>
          <cc:Agent>
            <dc:title>Fabien Bodard</dc:title>
          </cc:Agent>
        </dc:creator>
        <dc:rights>
          <cc:Agent>
            <dc:title>Creative Commons</dc:title>
          </cc:Agent>
        </dc:rights>
        <dc:publisher>
          <cc:Agent>
            <dc:title>Fabien Bodard</dc:title>
          </cc:Agent>
        </dc:publisher>
        <dc:identifier>gbFBodard150908</dc:identifier>
        <dc:relation>http://gambas.sf.net</dc:relation>
        <dc:subject>
          <rdf:Bag>
            <rdf:li>gambas3 logo basic shrimp</rdf:li>
          </rdf:Bag>
        </dc:subject>
        <dc:description>A pretty shrimp, a malicious new gambas logo... we got the power!</dc:description>
        <dc:contributor>
          <cc:Agent>
            <dc:title>Fabien Bodard</dc:title>
          </cc:Agent>
        </dc:contributor>
        <cc:license
           rdf:resource="http://creativecommons.org/licenses/by-sa/4.0/" />
      </cc:Work>
      <cc:License
         rdf:about="http://creativecommons.org/licenses/by-sa/4.0/">
        <cc:permits
           rdf:resource="http://creativecommons.org/ns#Reproduction" />
        <cc:permits
           rdf:resource="http://creativecommons.org/ns#Distribution" />
        <cc:requires
           rdf:resource="http://creativecommons.org/ns#Notice" />
        <cc:requires
           rdf:resource="http://creativecommons.org/ns#Attribution" />
        <cc:permits
           rdf:resource="http://creativecommons.org/ns#DerivativeWorks" />
        <cc:requires
           rdf:resource="http://creativecommons.org/ns#ShareAlike" />
      </cc:License>
    </rdf:RDF>
  </metadata>
  <g
     inkscape:label="Layer 1"
     inkscape:groupmode="layer"
     id="layer1">
    <path
       style="fill:#fcfbd2;stroke:#000000;stroke-width:1px;stroke-linecap:butt;stroke-linejoin:miter;stroke-opacity:1;fill-opacity:1"
       d="m 148.32428,209.33832 c 2.12468,1.10557 40.99408,1.87262 40.99408,1.87262 14.0026,-2.9043 28.00597,-5.80875 35.75965,-8.25251 7.75368,-2.44377 9.25924,-4.42722 11.88815,-8.71105 2.62891,-4.28384 6.38105,-10.86793 8.45938,-17.93421 2.07832,-7.06629 2.48261,-14.61496 1.62893,-22.32586 -0.85368,-7.7109 -2.96561,-15.58379 -6.82191,-23.98557 -3.85629,-8.40179 -9.45709,-17.33195 -14.38038,-26.18131 -4.9233,-8.849352 -9.16866,-17.617406 -12.46668,-27.018889 -3.29803,-9.401484 -5.64825,-19.435788 -7.02734,-26.303291 -1.37909,-6.867504 -1.78685,-10.567785 -2.46342,-13.539432 -0.67657,-2.971646 -1.62231,-5.214608 -3.86939,-6.452658 -2.24708,-1.238051 -5.79591,-1.470002 -10.57139,0.0426 -4.77548,1.512598 -10.77659,4.769877 -18.08906,9.429235 -7.31246,4.659358 -15.93567,10.720439 -25.33888,28.390131 -9.40321,17.669692 -19.58545,46.945988 -25.13794,62.698558 -5.55249,15.75258 -6.47498,17.98084 -2.90136,27.85106 3.57362,9.87023 11.64228,27.38096 17.80234,37.24212 6.16006,9.86116 10.41053,12.07289 12.53522,13.17846 z"
       id="path1037"
       inkscape:path-effect="#path-effect1039"
       inkscape:original-d="m 150.44896,210.44389 38.8694,0.76705 c 0,0 28.00621,-5.8076 42.00781,-8.71289 1.50663,-1.98254 3.0122,-3.96599 4.5168,-5.95049 3.75329,-6.58334 7.50543,-13.16743 11.25664,-19.75264 0.4053,-7.54798 0.80959,-15.09665 1.21289,-22.64648 -2.11102,-7.87221 -4.22296,-15.7451 -6.33594,-23.61914 -5.60002,-8.92952 -11.20082,-17.85968 -16.80273,-26.79102 -4.24453,-8.767403 -8.48989,-17.535457 -12.73633,-26.304686 -2.34931,-10.033706 -4.69952,-20.068011 -7.05078,-30.103516 -0.40677,-3.699429 -0.81453,-7.39971 -1.22329,-11.101065 -0.94477,-2.242049 -1.89051,-4.485009 -2.83726,-6.729013 -3.54796,-0.23096 -7.09679,-0.462911 -10.64668,-0.695867 -6.00036,3.258411 -12.00147,6.515693 -18.00371,9.772039 -8.62254,6.062319 -17.24575,12.123396 -25.87012,18.183594 -10.18165,29.278465 -20.36388,58.554764 -30.54733,87.830634 -0.92153,2.22936 -1.84402,4.45762 -2.76753,6.68492 8.06999,17.51244 16.13864,35.02318 24.20647,52.53327 4.25165,2.21281 8.50213,4.42453 12.75169,6.6353 z" />
    <g
       id="g4454"
       transform="translate(6.2610734,4.772225)">
      <g
         transform="matrix(0.1672889,-0.8480899,0.8480899,0.1672889,-213.54172,618.39735)"
         id="g4504">
        <g
           id="g4506"
           transform="matrix(1.0150594,0,0,1,114.12199,98.756399)">
          <path
             sodipodi:nodetypes="csssssccc"
             id="path4508"
             d="m 608.21429,180.84433 c 0.45333,1.22734 -1.68964,2.08706 -1.60714,3.39285 0.0631,0.99919 4.28993,-2.31584 6.87499,-0.26786 1.38967,1.10095 -1.31648,6.08104 0.44643,5.89286 0.96141,-0.10262 13.07122,0.48056 10.71429,3.03571 -4.67504,5.06822 -18.81135,5.56401 -26.25,4.46429 -7.37213,-1.08989 -20.44643,-14.10714 -20.44643,-14.10714 0,0 8.83929,-9.64286 9.64286,-9.64286 5.46846,2.28166 13.69086,1.5449 20.625,7.23215 z"
             style="fill:#3398c3;fill-opacity:1;fill-rule:evenodd;stroke:#000000;stroke-width:2;stroke-linecap:butt;stroke-linejoin:miter;stroke-miterlimit:4;stroke-opacity:1;stroke-dasharray:none"
             inkscape:connector-curvature="0" />
          <path
             sodipodi:nodetypes="csssssssccc"
             id="path4510"
             d="m 575.71429,150.57647 c -1.47891,-2.41897 42.71436,4.51991 54.24332,27.5 0.69242,1.38017 -13.93595,0.55964 -17.10047,-1.07143 -0.9943,-0.51249 -0.088,-2.0563 -1.07142,-2.58929 -1.6692,-0.90463 -4.24235,1.31254 -6.07143,0.80357 -1.68032,-0.46757 -1.12794,-3.61135 -2.85714,-3.83928 -1.38499,-0.18257 -4.69089,0.32888 -4.97617,1.69643 -0.95796,4.59214 0.24901,10.04697 -2.88098,12.49999 -11.72623,9.19003 -46.45513,4.79602 -50,1e-5 l -10.71428,-25 41.42857,-10 z"
             style="fill:#3398c3;fill-opacity:1;fill-rule:evenodd;stroke:#000000;stroke-width:2;stroke-linecap:butt;stroke-linejoin:miter;stroke-miterlimit:4;stroke-opacity:1;stroke-dasharray:none"
             inkscape:connector-curvature="0" />
        </g>
        <path
           style="opacity:0.8;fill:#ffffff;fill-opacity:1;fill-rule:evenodd;stroke:none"
           d="m 715.01012,277.54715 c -2.9037,7.17554 -52.05199,0.98397 -51.42857,-1.78572 l 0.35714,4.64286 c 18.63618,6.66887 44.82133,7.0429 51.07143,-2.85714 z"
           id="path4512"
           sodipodi:nodetypes="cccc"
           inkscape:connector-curvature="0" />
        <path
           style="opacity:0.2;fill:#000000;fill-opacity:1;fill-rule:evenodd;stroke:none"
           d="m 691.61726,249.69001 c 12.03433,-0.94776 42.61055,2.70398 58.03572,23.21428 -18.22964,-9.39047 -38.6682,-17.6394 -58.03572,-23.21428 z"
           id="path4514"
           sodipodi:nodetypes="ccc"
           inkscape:connector-curvature="0" />
        <path
           style="opacity:0.8;fill:#ffffff;fill-opacity:1;fill-rule:evenodd;stroke:none"
           d="m 740.36727,293.26143 c -0.56137,0.84355 -19.70601,-1.79643 -21.78572,-5.71428 -0.67584,-1.2732 -3.82553,1.98405 -2.67857,2.85714 8.62652,6.5667 25.08636,2.77938 24.46429,2.85714 z"
           id="path4516"
           sodipodi:nodetypes="cssc"
           inkscape:connector-curvature="0" />
      </g>
      <g
         transform="matrix(0.8644316,0,0,0.8644316,-404.99207,-42.333558)"
         id="g4518">
        <path
           style="fill:#3398c3;fill-opacity:1;fill-rule:evenodd;stroke:#000000;stroke-width:2;stroke-linecap:butt;stroke-linejoin:miter;stroke-miterlimit:4;stroke-opacity:1;stroke-dasharray:none"
           d="m 528.57144,260.21933 c 7.24365,-12.62405 28.10525,-11.01646 38.57143,-7.85715 18.05183,5.4491 20.0441,25.22645 18.21428,25.35715 -14.21129,-2.90177 -29.38948,-6.77044 -40,-6.07143 6.72326,8.3806 15.74104,16.60521 30.00001,25 0,0 -21.72595,12.99212 -30.00001,8.57143 -14.07778,-7.52152 -24.32017,-31.86914 -16.78571,-45 z"
           id="path4520"
           sodipodi:nodetypes="cscccss"
           inkscape:connector-curvature="0" />
        <path
           style="opacity:0.8;fill:#ffffff;fill-opacity:1;fill-rule:evenodd;stroke:none"
           d="m 543.30358,254.77289 c 9.00654,-4.20959 23.83894,-2.63523 35.98215,11.16072 -9.46508,-6.30071 -27.2025,-12.16155 -35.98215,-11.16072 z"
           id="path4522"
           sodipodi:nodetypes="ccc"
           inkscape:connector-curvature="0" />
        <path
           style="opacity:0.2;fill:#000000;fill-opacity:1;fill-rule:evenodd;stroke:none"
           d="m 527.14286,278.79075 c 9.48499,16.13303 21.74411,26.16296 40.71429,21.42857 -23.59096,14.00948 -34.15188,0.51111 -40.71429,-21.42857 z"
           id="path4524"
           sodipodi:nodetypes="ccc"
           inkscape:connector-curvature="0" />
      </g>
      <path
         sodipodi:nodetypes="czcczcc"
         id="path4526"
         d="M 79.027891,90.299303 C 41.547416,91.362502 8.5477829,125.72764 11.416987,151.73569 c 2.869213,26.00805 28.434751,41.9462 34.577264,43.53031 9.629379,3.08729 15.652401,-2.73169 10.496672,-11.73157 -3.16981,-4.34519 -8.696026,-19.77543 -1.543633,-29.0202 7.152394,-9.24478 33.740339,-15.70039 37.355798,-13.89266 L 79.027891,90.299303 z"
         style="fill:#3398c3;fill-opacity:1;fill-rule:evenodd;stroke:#000000;stroke-width:1.72886324;stroke-linecap:butt;stroke-linejoin:miter;stroke-miterlimit:4;stroke-opacity:1;stroke-dasharray:none"
         inkscape:connector-curvature="0" />
      <path
         sodipodi:nodetypes="cczzccccccc"
         id="path4530"
         d="m 179.7496,51.862965 c 9.60954,45.140498 -60.74946,98.765965 -88.990145,89.684775 -14.078945,-5.12548 -26.810787,-18.46444 -21.302067,-41.0605 5.50872,-22.596058 40.975772,-27.3718 54.335702,-22.845688 13.35994,4.526103 32.5436,-11.492394 32.41619,-11.731573 0.19886,2.859177 -0.56981,5.032288 -2.00672,6.869136 l 8.79868,-7.486591 c 0.42232,2.093316 0.0595,3.872576 -0.54027,5.557068 l 9.18459,-9.879217 c 0.58337,2.296665 0.59983,4.366564 0.15437,6.25169 3.14446,-3.109395 5.82694,-7.95845 7.94967,-15.3591 z"
         style="fill:#3398c3;fill-opacity:1;fill-rule:evenodd;stroke:#000000;stroke-width:1.72886324;stroke-linecap:butt;stroke-linejoin:miter;stroke-miterlimit:4;stroke-opacity:1;stroke-dasharray:none"
         inkscape:connector-curvature="0" />
      <path
         sodipodi:nodetypes="cscssc"
         id="path4532"
         d="m 89.215831,81.191893 c -11.735653,5.83921 -22.44813,13.985198 -19.758434,34.268537 1.029451,7.76327 7.984573,19.60555 16.979909,23.00006 -9.330027,-13.61805 -9.166831,-18.69216 -10.496663,-24.69804 -2.345618,-10.59347 7.397183,-24.835804 15.844235,-27.80963 8.638382,-3.041174 4.173044,-7.038341 -2.569047,-4.760927 z"
         style="opacity:0.8;fill:#ffffff;fill-opacity:1;fill-rule:evenodd;stroke:none"
         inkscape:connector-curvature="0" />
      <path
         sodipodi:nodetypes="cscsc"
         id="path4550"
         d="M 61.164507,96.360127 C 61.085887,95.652512 13.098108,118.16457 14.4479,148.5343 c 1.073875,24.16167 34.27913,44.53354 33.618489,41.69566 -1.036558,0.1859 -30.105707,-25.17616 -27.942639,-42.78718 3.540919,-28.82914 40.936204,-51.396321 41.040757,-51.082653 z"
         style="opacity:0.8;fill:#ffffff;fill-opacity:1;fill-rule:evenodd;stroke:none"
         inkscape:connector-curvature="0" />
      <g
         transform="matrix(0.8644316,0,0,0.8644316,-350.11637,-22.645359)"
         id="g4552">
        <path
           style="fill:none;stroke:#000000;stroke-width:2;stroke-linecap:butt;stroke-linejoin:miter;stroke-miterlimit:4;stroke-opacity:1;stroke-dasharray:none"
           d="m 456.58895,142.71982 c 0.96874,21.34672 9.16115,39.89434 34.34519,50.50762 l 0.50507,0.50508"
           id="path4554"
           sodipodi:nodetypes="ccc"
           inkscape:connector-curvature="0" />
        <path
           style="fill:none;stroke:#000000;stroke-width:2;stroke-linecap:butt;stroke-linejoin:miter;stroke-miterlimit:4;stroke-opacity:1;stroke-dasharray:none"
           d="m 434.87067,159.89241 c 4.74203,19.72056 14.88055,33.0875 44.44671,38.3858"
           id="path4556"
           sodipodi:nodetypes="cc"
           inkscape:connector-curvature="0" />
        <path
           style="fill:none;stroke:#000000;stroke-width:2;stroke-linecap:butt;stroke-linejoin:miter;stroke-miterlimit:4;stroke-opacity:1;stroke-dasharray:none"
           d="m 418.97871,190.25826 c 10.88905,12.1761 21.6539,19.4764 48.59936,15.59609"
           id="path4558"
           sodipodi:nodetypes="cc"
           inkscape:connector-curvature="0" />
        <path
           style="fill:none;stroke:#000000;stroke-width:2;stroke-linecap:butt;stroke-linejoin:miter;stroke-miterlimit:4;stroke-opacity:1;stroke-dasharray:none"
           d="m 423.5244,219.84855 c 13.43052,3.50422 28.46005,3.44529 40.70197,-5.25997"
           id="path4560"
           sodipodi:nodetypes="cc"
           inkscape:connector-curvature="0" />
        <path
           style="fill:none;stroke:#000000;stroke-width:2;stroke-linecap:butt;stroke-linejoin:miter;stroke-miterlimit:4;stroke-opacity:1;stroke-dasharray:none"
           d="m 435.58496,235.23543 c 10.34998,-0.97094 20.04392,0.12748 29.08521,-15.23895"
           id="path4562"
           sodipodi:nodetypes="cc"
           inkscape:connector-curvature="0" />
        <path
           style="fill:none;stroke:#000000;stroke-width:2;stroke-linecap:butt;stroke-linejoin:miter;stroke-miterlimit:4;stroke-opacity:1;stroke-dasharray:none"
           d="m 446.48743,245.75537 c 11.78511,1.01015 17.78475,-2.61203 20.14177,-13.72371"
           id="path4564"
           sodipodi:nodetypes="cc"
           inkscape:connector-curvature="0" />
      </g>
      <g
         transform="matrix(0.8644316,0,0,0.8644316,-346.20448,-29.613465)"
         id="g4566">
        <g
           id="g4568"
           style="fill:#00ffff">
          <path
             sodipodi:nodetypes="ccssc"
             id="path4570"
             d="m 475.78185,223.65828 -5.80838,5.3033 -13.13198,-12.12183 c -2.13308,-4.24558 2.54504,-6.67286 4.79822,-5.55584 l 14.14214,12.37437 z"
             style="fill:#3398c3;fill-opacity:1;fill-rule:evenodd;stroke:#000000;stroke-width:1px;stroke-linecap:butt;stroke-linejoin:miter;stroke-opacity:1"
             inkscape:connector-curvature="0" />
          <path
             sodipodi:nodetypes="cszsss"
             id="path4572"
             d="m 469.21586,226.4362 c -0.73465,-3.90418 5.98088,-6.35818 8.46003,-0.50507 0.13866,0.32736 0.96435,11.67253 -0.50508,15.9099 -1.45535,4.19679 -5.52198,5.90751 -7.3236,4.54569 -1.42886,-1.08006 0.29527,-2.80818 0.52282,-5.44666 0.34951,-4.05255 -0.25737,-9.73794 -1.15417,-14.50386 z"
             style="fill:#3398c3;fill-opacity:1;fill-rule:evenodd;stroke:#000000;stroke-width:1px;stroke-linecap:butt;stroke-linejoin:miter;stroke-opacity:1"
             inkscape:connector-curvature="0" />
        </g>
        <g
           id="g4574"
           style="fill:#00ffff">
          <path
             sodipodi:nodetypes="ccssc"
             id="path4576"
             d="m 488.28249,213.43049 -5.68211,6.31346 c 0,0 -16.53023,-8.77703 -16.66752,-8.96511 -1.47467,-2.02019 1.24029,-7.44363 5.3033,-5.93464 0.0668,0.0248 17.04633,8.58629 17.04633,8.58629 z"
             style="fill:#3398c3;fill-opacity:1;fill-rule:evenodd;stroke:#000000;stroke-width:1px;stroke-linecap:butt;stroke-linejoin:miter;stroke-opacity:1"
             inkscape:connector-curvature="0" />
          <path
             sodipodi:nodetypes="csssss"
             id="path4578"
             d="m 481.21142,218.22871 c -1.65196,-1.08274 2.91105,-7.49648 6.56599,-5.55583 2.54049,1.34892 5.97867,9.72861 6.31345,15.40482 0.20744,3.51713 -4.11866,9.21323 -5.55583,8.08122 -1.1339,-0.89314 -1.3237,-5.26141 -2.49859,-9.1749 -1.35093,-4.49989 -2.795,-7.42478 -4.82502,-8.75531 z"
             style="fill:#3398c3;fill-opacity:1;fill-rule:evenodd;stroke:#000000;stroke-width:1px;stroke-linecap:butt;stroke-linejoin:miter;stroke-opacity:1"
             inkscape:connector-curvature="0" />
        </g>
        <g
           id="g4580"
           style="fill:#00ffff">
          <path
             sodipodi:nodetypes="cccss"
             id="path4582"
             d="m 491.81803,193.73251 15.53109,7.44988 -3.03046,6.81853 -17.04632,-7.19734 c -3.17059,-1.33869 0.9917,-8.77583 4.54569,-7.07107 z"
             style="fill:#3398c3;fill-opacity:1;fill-rule:evenodd;stroke:#000000;stroke-width:1px;stroke-linecap:butt;stroke-linejoin:miter;stroke-opacity:1"
             inkscape:connector-curvature="0" />
          <path
             sodipodi:nodetypes="csscc"
             id="path4584"
             d="m 514.04138,203.83404 c -0.17601,0.35201 -5.7262,-2.72498 -7.70242,-3.40926 -2.24713,-0.77809 -5.32053,4.89445 -3.91434,6.81853 2.00447,2.7427 8.29105,3.4004 7.95496,3.6618 l 3.6618,-7.07107 z"
             style="fill:#3398c3;fill-opacity:1;fill-rule:evenodd;stroke:#000000;stroke-width:1px;stroke-linecap:butt;stroke-linejoin:miter;stroke-opacity:1"
             inkscape:connector-curvature="0" />
        </g>
        <g
           id="g4586"
           style="fill:#00ffff">
          <path
             sodipodi:nodetypes="csccs"
             id="path4588"
             d="m 477.92842,203.58151 c -1.34765,-2.41151 2.29985,-7.05066 6.18719,-5.93465 0.37422,0.10743 15.15229,10.73287 15.15229,10.73287 l -5.55584,6.43972 c 0,0 -15.29235,-10.35882 -15.78364,-11.23794 z"
             style="fill:#3398c3;fill-opacity:1;fill-rule:evenodd;stroke:#000000;stroke-width:1px;stroke-linecap:butt;stroke-linejoin:miter;stroke-opacity:1"
             inkscape:connector-curvature="0" />
          <path
             sodipodi:nodetypes="csssss"
             id="path4590"
             d="m 492.95445,212.42034 c -1.52249,-3.96635 5.32602,-6.26125 7.95495,-2.52538 1.22781,1.74481 2.14697,14.13908 1.64149,15.9099 -1.63367,5.72316 -4.23571,6.3339 -5.3033,5.80838 -0.4388,-0.216 -0.16523,-2.80542 -0.74607,-5.75562 -0.95029,-4.82675 -2.70193,-11.23554 -3.54707,-13.43728 z"
             style="fill:#3398c3;fill-opacity:1;fill-rule:evenodd;stroke:#000000;stroke-width:1px;stroke-linecap:butt;stroke-linejoin:miter;stroke-opacity:1"
             inkscape:connector-curvature="0" />
        </g>
      </g>
      <path
         sodipodi:nodetypes="ccc"
         id="path4624"
         d="m 78.719168,139.2323 c 2.876275,1.37378 5.548518,2.13547 8.798677,4.63088 -4.565201,0.36074 -6.634512,-2.1904 -8.798677,-4.63088 z"
         style="opacity:0.7;fill:#ffffff;fill-opacity:1;fill-rule:evenodd;stroke:none"
         inkscape:connector-curvature="0" />
      <path
         sodipodi:nodetypes="csscc"
         id="path4596"
         d="m 85.253426,149.5078 c 0.204257,-0.14782 8.09663,-22.14537 12.860158,-24.77859 6.143216,-3.39588 11.393726,-2.42396 12.800696,0.41606 4.46617,9.01509 -6.87631,28.04293 -4.28886,28.40781 L 85.253426,149.5078 z"
         style="fill:#3398c3;fill-opacity:1;fill-rule:evenodd;stroke:#000000;stroke-width:1.72886324;stroke-linecap:butt;stroke-linejoin:miter;stroke-miterlimit:4;stroke-opacity:1;stroke-dasharray:none"
         inkscape:connector-curvature="0" />
      <path
         sodipodi:nodetypes="cscc"
         id="path4602"
         d="m 97.625278,111.31193 c 0.839657,9.08529 13.463302,22.9467 21.649092,20.00566 5.29608,-1.9028 10.30104,-1.85333 16.25724,-18.00895 -11.7112,4.75479 -27.94479,0.71475 -37.906332,-1.99671 z"
         style="fill:#666666;fill-rule:evenodd;stroke:#000000;stroke-width:1.72886324;stroke-linecap:butt;stroke-linejoin:miter;stroke-miterlimit:4;stroke-opacity:1;stroke-dasharray:none"
         inkscape:connector-curvature="0" />
      <path
         sodipodi:nodetypes="cccccccccccc"
         id="path4604"
         d="m 92.200239,104.81146 c 0.928036,2.55354 3.615469,3.81197 5.83577,5.04222 3.717851,1.6725 7.590151,3.02289 11.635481,3.62023 3.91394,0.62671 7.85456,1.13797 11.79994,1.49283 7.05558,0.17368 13.33885,-2.49605 19.83329,-5.00754 0.9577,-0.57119 -0.80835,0.98021 0.84885,0.0924 0.62803,-0.57369 3.12577,-1.97038 3.0484,-1.30614 -4.97992,3.22241 -10.78928,4.82456 -16.47864,6.29749 -4.90447,1.16045 -10.02401,1.13668 -14.96778,0.23701 -5.32745,-0.66124 -10.74051,-1.39941 -15.676694,-3.6298 -2.804914,-1.06158 -5.487759,-2.68799 -7.47041,-4.95253 -0.769669,-1.26956 0.783514,-1.52892 1.591793,-1.88619 z"
         style="fill:#000000;fill-opacity:1;fill-rule:evenodd;stroke:none"
         inkscape:connector-curvature="0" />
      <path
         sodipodi:nodetypes="cccsc"
         id="path4606"
         d="m 101.24275,120.13781 c 2.17457,-3.81772 18.27639,-5.96114 20.17569,2.40668 -3.79017,-6.59628 1.9201,-6.54159 11.26577,-3.70133 -3.32993,8.15989 -7.64822,11.92332 -12.55201,12.62022 -7.51142,1.06748 -14.85533,-5.75896 -18.88945,-11.32557 z"
         style="fill:url(#linearGradient3135);fill-opacity:1;fill-rule:evenodd;stroke:#000000;stroke-width:0.79655021px;stroke-linecap:butt;stroke-linejoin:miter;stroke-opacity:1"
         inkscape:connector-curvature="0" />
      <path
         sodipodi:nodetypes="cccc"
         id="path4612"
         d="m 87.766626,145.63717 c 5.555062,-5.35659 11.657842,-5.75231 22.230634,-5.81899 l -2.76753,6.68492 c -14.21242,0.95969 -15.547367,-3.80573 -19.463104,-0.86593 z"
         style="opacity:0.2;fill:#000000;fill-opacity:1;fill-rule:evenodd;stroke:none"
         inkscape:connector-curvature="0" />
      <path
         sodipodi:nodetypes="ccc"
         id="path4614"
         d="M 180.5986,59.426742 C 178.37013,92.898381 147.5758,123.73738 111.44408,140.31284 141.05113,121.3124 171.42017,93.790984 180.5986,59.426742 z"
         style="opacity:0.2;fill:#000000;fill-opacity:1;fill-rule:evenodd;stroke:none"
         inkscape:connector-curvature="0" />
      <path
         sodipodi:nodetypes="ccc"
         id="path4618"
         d="m 51.860033,154.9773 c 1.665665,2.98316 5.395333,5.6541 9.107409,7.40942 -1.525937,-3.21629 -5.952329,-5.41497 -9.107409,-7.40942 z"
         style="opacity:0.7;fill:#ffffff;fill-opacity:1;fill-rule:evenodd;stroke:none"
         inkscape:connector-curvature="0" />
      <path
         sodipodi:nodetypes="ccc"
         id="path4620"
         d="m 59.73255,148.95716 c 3.371257,1.20817 9.167945,2.76943 11.731564,4.78524 -3.716692,-0.73984 -9.249677,-1.67876 -11.731564,-4.78524 z"
         style="opacity:0.7;fill:#ffffff;fill-opacity:1;fill-rule:evenodd;stroke:none"
         inkscape:connector-curvature="0" />
      <path
         sodipodi:nodetypes="ccc"
         id="path4622"
         d="m 71.772837,142.47392 10.033588,6.79196 c -4.407132,-0.25571 -8.502221,-3.24966 -10.033588,-6.79196 z"
         style="opacity:0.7;fill:#ffffff;fill-opacity:1;fill-rule:evenodd;stroke:none"
         inkscape:connector-curvature="0" />
      <path
         sodipodi:nodetypes="ccc"
         id="path4626"
         d="m 84.893682,151.73568 c 3.866092,4.52888 2.658006,14.45577 2.469802,15.28193 l -2.469802,-15.28193 z"
         style="opacity:0.7;fill:#ffffff;fill-opacity:1;fill-rule:evenodd;stroke:none"
         inkscape:connector-curvature="0" />
      <path
         sodipodi:nodetypes="ccc"
         id="path4628"
         d="m 75.014456,155.59476 c 2.781291,4.42437 3.674889,9.70658 4.939613,14.5101 0.960815,-8.24273 -3.648731,-14.73734 -4.939613,-14.5101 z"
         style="opacity:0.7;fill:#ffffff;fill-opacity:1;fill-rule:evenodd;stroke:none"
         inkscape:connector-curvature="0" />
      <g
         transform="matrix(0.7463156,0.4361823,-0.4361823,0.7463156,89.038778,-287.70462)"
         id="g3488">
        <g
           id="g3441">
          <path
             sodipodi:nodetypes="csssssscc"
             id="path4594"
             d="m 304.50438,437.17997 c 0,0 18.01616,-10.21695 26.78572,-10.35714 9.5437,-0.15257 23.56324,-6.59667 25.53342,4.22349 0,0 -8.20424,4.22442 -11.69837,4.33487 -2.31174,0.0731 -5.21444,2.42786 -7.28335,3.46184 -2.40366,1.20128 -0.57165,-0.43818 -3.02782,0.65174 -9.36873,4.15736 -8.31862,1.61943 -10.22864,1.90703 -7.81146,1.17619 -8.4508,14.11626 -8.29524,14.3496 z"
             style="fill:#3398c3;fill-opacity:1;fill-rule:evenodd;stroke:#000000;stroke-width:2;stroke-linecap:butt;stroke-linejoin:miter;stroke-miterlimit:4;stroke-dasharray:none;stroke-opacity:1"
             inkscape:connector-curvature="0" />
          <path
             sodipodi:nodetypes="cccccccssc"
             id="path4598"
             d="m 365.93295,457.71568 c -5.51948,-2.752 -11.033,-0.4024 -20.35714,-1.07142 -1.27142,1.09048 -2.17973,2.36252 -2.5,3.92857 l -7.14286,-3.92857 c -1.266,1.02492 -3.58118,-0.29405 -3.57142,2.85714 -3.66518,-0.33397 -3.92217,-1.10818 -4.28572,-2.85714 -0.71277,-4.70111 1.45664,-7.35756 -2.14286,-14.46428 -1.52075,-7.30017 -34.02459,-18.93338 -51.42857,-18.39286 -37.87544,1.17632 -24.15018,38.34474 -9.28571,46.96429 36.33081,21.06736 96.39452,11.14844 100.71428,-13.03573 z"
             style="fill:#3398c3;fill-opacity:1;fill-rule:evenodd;stroke:#000000;stroke-width:2;stroke-linecap:butt;stroke-linejoin:miter;stroke-miterlimit:4;stroke-opacity:1;stroke-dasharray:none"
             inkscape:connector-curvature="0" />
        </g>
        <path
           style="opacity:0.8;fill:#ffffff;fill-opacity:1;fill-rule:evenodd;stroke:none"
           d="m 256.95054,434.92116 c 23.82404,-5.73559 32.6921,-6.33958 55.42507,5.98949 -9.73553,-15.93742 -48.02902,-17.42937 -55.42507,-5.98949 z"
           id="path4608"
           sodipodi:nodetypes="ccc"
           inkscape:connector-curvature="0" />
        <path
           style="opacity:0.8;fill:#ffffff;fill-opacity:1;fill-rule:evenodd;stroke:none"
           d="m 353.07582,434.32284 c 0,0 -22.89231,-8.27931 -31.42857,-2.14286 -1.47638,1.06133 2.63809,5.05478 4.28571,4.28572 5.40132,-2.52117 27.06435,-2.32842 27.14286,-2.14286 z"
           id="path4610"
           sodipodi:nodetypes="cssc"
           inkscape:connector-curvature="0" />
        <path
           style="opacity:0.2;fill:#000000;fill-opacity:1;fill-rule:evenodd;stroke:none"
           d="m 266.81956,470.76482 c 44.05809,14.72714 69.33713,1.10098 96.39653,-7.86266 -4.30855,16.45303 -61.06532,31.19281 -96.39653,7.86266 z"
           id="path4616"
           sodipodi:nodetypes="ccc"
           inkscape:connector-curvature="0" />
      </g>
      <path
         sodipodi:nodetypes="ccc"
         id="path4630"
         d="m 64.826507,164.5478 c 1.927605,3.51315 2.64274,14.47689 0.463102,15.59063 0.494368,-3.38699 -1.131394,-11.4821 -0.463102,-15.59063 z"
         style="opacity:0.7;fill:#ffffff;fill-opacity:1;fill-rule:evenodd;stroke:none"
         inkscape:connector-curvature="0" />
      <g
         transform="matrix(0.8800357,0,0,0.8136863,-146.1756,-24.774727)"
         id="g3981">
        <path
           sodipodi:type="arc"
           style="fill:#000000;fill-opacity:1;fill-rule:evenodd;stroke:none"
           id="path3983"
           sodipodi:cx="219.96072"
           sodipodi:cy="130.34544"
           sodipodi:rx="21.970818"
           sodipodi:ry="26.516504"
           d="m 241.93154,130.34544 c 0,14.64466 -9.83667,26.51651 -21.97082,26.51651 -12.13414,0 -21.97081,-11.87185 -21.97081,-26.51651 0,-14.64466 9.83667,-26.5165 21.97081,-26.5165 12.13415,0 21.97082,11.87184 21.97082,26.5165 z"
           transform="matrix(1.0229885,0,0,1,61.6135,3.5355339)" />
        <path
           sodipodi:type="arc"
           style="fill:#ffffff;fill-opacity:1;fill-rule:evenodd;stroke:none"
           id="path3985"
           sodipodi:cx="224.00133"
           sodipodi:cy="139.94189"
           sodipodi:rx="21.970818"
           sodipodi:ry="20.960665"
           d="m 245.97215,139.94189 c 0,11.57626 -9.83668,20.96067 -21.97082,20.96067 -12.13415,0 -21.97082,-9.38441 -21.97082,-20.96067 0,-11.57625 9.83667,-20.96066 21.97082,-20.96066 12.13414,0 21.97082,9.38441 21.97082,20.96066 z"
           transform="matrix(0.9875095,0,0,1.1194375,65.679887,-19.744789)" />
        <path
           sodipodi:type="arc"
           style="fill:url(#linearGradient3137);fill-opacity:1;fill-rule:evenodd;stroke:none"
           id="path3987"
           sodipodi:cx="217.68787"
           sodipodi:cy="137.41652"
           sodipodi:rx="14.647212"
           sodipodi:ry="17.930208"
           d="m 232.33508,137.41652 c 0,9.90258 -6.55778,17.93021 -14.64721,17.93021 -8.08944,0 -14.64722,-8.02763 -14.64722,-17.93021 0,-9.90258 6.55778,-17.93021 14.64722,-17.93021 8.08943,0 14.64721,8.02763 14.64721,17.93021 z"
           transform="matrix(1.0172414,0,0,1.0422535,64.179526,-6.0588701)" />
        <path
           sodipodi:type="arc"
           style="fill:#000000;fill-opacity:1;fill-rule:evenodd;stroke:none"
           id="path3989"
           sodipodi:cx="216.17264"
           sodipodi:cy="135.90129"
           sodipodi:rx="9.5964499"
           sodipodi:ry="12.879445"
           d="m 225.76909,135.90129 c 0,7.11312 -4.29648,12.87945 -9.59645,12.87945 -5.29997,0 -9.59645,-5.76633 -9.59645,-12.87945 0,-7.11312 4.29648,-12.87944 9.59645,-12.87944 5.29997,0 9.59645,5.76632 9.59645,12.87944 z"
           transform="matrix(1.0789474,0,0,1.0588235,52.381728,-6.7315028)" />
        <path
           sodipodi:type="arc"
           style="fill:#ffffff;fill-opacity:1;fill-rule:evenodd;stroke:none"
           id="path3991"
           sodipodi:cx="216.96428"
           sodipodi:cy="118.07647"
           sodipodi:rx="6.25"
           sodipodi:ry="10"
           d="m 223.21428,118.07647 c 0,5.52285 -2.79822,10 -6.25,10 -3.45178,0 -6.25,-4.47715 -6.25,-10 0,-5.52285 2.79822,-10 6.25,-10 3.45178,0 6.25,4.47715 6.25,10 z"
           transform="matrix(0.8635422,0.6148578,-0.6148578,0.8635422,180.17025,-105.68258)" />
        <path
           sodipodi:type="arc"
           style="fill:#ffffff;fill-opacity:1;fill-rule:evenodd;stroke:none"
           id="path3993"
           sodipodi:cx="204.82143"
           sodipodi:cy="141.64789"
           sodipodi:rx="4.8214288"
           sodipodi:ry="3.2142856"
           d="m 209.64286,141.64789 c 0,1.7752 -2.15863,3.21428 -4.82143,3.21428 -2.66281,0 -4.82143,-1.43908 -4.82143,-3.21428 0,-1.7752 2.15862,-3.21429 4.82143,-3.21429 2.6628,0 4.82143,1.43909 4.82143,3.21429 z"
           transform="matrix(1.1111111,0,0,1.1111111,53.492064,-5.7386551)" />
        <path
           style="fill:#000000;fill-opacity:1;fill-rule:evenodd;stroke:none"
           d="m 273.75,112.8979 c 1.29002,8.2422 -7.207,3.5225 -6.73835,0.38346 0.26013,4.48349 0.44834,4.94384 1.20919,5.5308 2.38372,1.83891 1.03099,0.35538 -0.41274,1.37553 -1.49115,1.05367 -0.75935,1.52543 -4.43971,-0.72896 0.71917,1.66107 1.79997,4.31381 2.54733,4.71738 1.875,-2.1875 8.19142,-10.92107 7.83428,-11.27821 z"
           id="path3995"
           sodipodi:nodetypes="ccszccc"
           inkscape:connector-curvature="0" />
      </g>
      <path
         sodipodi:nodetypes="ccc"
         id="path4345"
         d="M 99.752563,109.65416 C 111.876,114.15392 141.65313,92.960766 140.28493,90.840058 124.65408,94.623413 113.08116,95.661432 99.752563,109.65416 z"
         style="fill:#3398c3;fill-opacity:1;fill-rule:evenodd;stroke:none"
         inkscape:connector-curvature="0" />
      <path
         sodipodi:nodetypes="ccc"
         id="path4347"
         d="m 105.53289,107.75549 c 1.59651,-0.0974 19.01927,-11.479941 20.04493,-11.482791 -6.70753,1.623516 -14.32535,5.478221 -20.04493,11.482791 z"
         style="opacity:0.8;fill:#ffffff;fill-opacity:1;fill-rule:evenodd;stroke:none"
         inkscape:connector-curvature="0" />
    </g>
    <path
       style="fill:#ffff00;stroke:#ffff00;stroke-width:5.99811;stroke-linejoin:round;stroke-miterlimit:4;stroke-dasharray:none"
       id="path1463"
       sodipodi:type="arc"
       sodipodi:cx="63.533913"
       sodipodi:cy="106.61616"
       sodipodi:rx="37.795277"
       sodipodi:ry="32.219017"
       sodipodi:start="2.9390937"
       sodipodi:end="0"
       sodipodi:arc-type="arc"
       d="M 26.510905,113.09598 A 37.795277,32.219017 0 0 1 40.402873,81.135716 37.795277,32.219017 0 0 1 80.180818,77.69065 37.795277,32.219017 0 0 1 101.32919,106.61616"
       sodipodi:open="true"
       transform="rotate(-21.7)" />
    <path
       sodipodi:type="spiral"
       style="fill:none;fill-rule:evenodd;stroke:#000000;stroke-width:1.75748031;stroke-miterlimit:4;stroke-dasharray:none"
       id="path1838"
       sodipodi:cx="195.32478"
       sodipodi:cy="35.012821"
       sodipodi:expansion="1"
       sodipodi:revolution="3"
       sodipodi:radius="8.3568201"
       sodipodi:argument="-18.045353"
       sodipodi:t0="0"
       d="m 195.32478,35.012821 c 0.29066,0.301795 -0.26341,0.540689 -0.5016,0.483084 -0.64547,-0.156106 -0.73406,-0.988303 -0.46456,-1.486289 0.48205,-0.890782 1.69191,-0.973445 2.47097,-0.446046 1.14331,0.773979 1.22014,2.405143 0.42753,3.455662 -1.05643,1.400178 -3.1218,1.469959 -4.44035,0.409008 -1.65926,-1.335099 -1.7214,-3.84009 -0.39049,-5.425036 1.61191,-1.919581 4.5593,-1.973775 6.40972,-0.371969 2.18066,1.887673 2.22675,5.27909 0.35345,7.394409 -2.16279,2.442219 -5.99926,2.480102 -8.37909,0.334931 -2.70412,-2.437479 -2.73374,-6.7197 -0.31641,-9.363782 2.71187,-2.96626 7.44033,-2.987571 10.34846,-0.297893 3.22858,2.986051 3.24156,8.161121 0.27938,11.333155"
       transform="rotate(-41,196.21945,34.562913)" />
    <path
       sodipodi:type="spiral"
       style="fill:none;fill-rule:evenodd;stroke:#000000;stroke-width:1.75748029;stroke-miterlimit:4;stroke-dasharray:none"
       id="path1838-3"
       sodipodi:cx="195.32478"
       sodipodi:cy="35.012821"
       sodipodi:expansion="1"
       sodipodi:revolution="3.6018391"
       sodipodi:radius="10.033309"
       sodipodi:argument="-18.045353"
       sodipodi:t0="0"
       transform="matrix(0.27563735,-0.96126171,-0.96126171,-0.27563735,206.44286,389.99436)"
       d="m 195.32478,35.012821 c 0.29066,0.301795 -0.26341,0.540689 -0.5016,0.483084 -0.64547,-0.156106 -0.73406,-0.988303 -0.46456,-1.48629 0.48205,-0.890781 1.69191,-0.973445 2.47097,-0.446045 1.14331,0.773979 1.22014,2.405143 0.42753,3.455663 -1.05643,1.400178 -3.1218,1.469959 -4.44035,0.409007 -1.65926,-1.335098 -1.7214,-3.84009 -0.39049,-5.425036 1.61191,-1.919582 4.5593,-1.973776 6.40972,-0.37197 2.18066,1.887673 2.22675,5.279091 0.35345,7.39441 -2.16279,2.44222 -5.99926,2.480103 -8.37909,0.334932 -2.70412,-2.43748 -2.73374,-6.719702 -0.31642,-9.363784 2.71188,-2.96626 7.44034,-2.987571 10.34848,-0.297893 3.22857,2.986052 3.24155,8.161122 0.27937,11.333157 -3.26007,3.49103 -8.88202,3.495653 -12.31784,0.260855 -3.75359,-3.533969 -3.74985,-9.603009 -0.24234,-13.30253 1.45808,-1.537905 3.40813,-2.57028 5.49516,-2.93042" />
    <path
       style="fill:none;stroke:#000000;stroke-width:1.75748031;stroke-linecap:butt;stroke-linejoin:miter;stroke-opacity:1;stroke-miterlimit:4;stroke-dasharray:none"
       d="m 204.16343,36.229013 c 0.94033,20.172091 6.49048,40.115648 16.1058,57.873551 9.1013,16.808596 21.927,32.040066 26.47863,50.604696 4.34874,17.73712 0.2213,37.35842 -10.90489,51.8403"
       id="path1873"
       inkscape:path-effect="#path-effect1875"
       inkscape:original-d="m 204.16343,36.229013 c 2.72536,18.001711 13.38244,39.87384 16.1058,57.873551 2.72336,17.999716 13.9953,34.048006 26.47863,50.604696 12.48333,16.5567 -7.44377,35.36053 -10.90489,51.8403"
       sodipodi:nodetypes="cssc" />
    <path
       style="fill:#ffff9d;fill-opacity:1;stroke:#000000;stroke-width:1.75748031;stroke-linecap:butt;stroke-linejoin:miter;stroke-opacity:1;stroke-miterlimit:4;stroke-dasharray:none"
       d="m 190.67949,28.804133 c 3.08013,-1.153071 -0.35474,1.67721 -1.458,4.249865 -1.10326,2.572655 0.12456,4.886389 1.39735,6.37486 1.2728,1.488472 2.43086,2.072072 3.61738,2.309825 1.18652,0.237752 2.61783,0.0519 -0.7097,1.363728 -3.32753,1.311831 -11.26552,4.102139 -18.10234,7.849773 -6.83681,3.747635 -12.57158,8.452229 -17.15717,9.58012 -4.58559,1.127891 -8.02404,-1.322729 -11.46135,-3.772538 7.20085,-5.509766 14.40185,-11.019648 22.80017,-16.342888 8.39832,-5.323239 17.99353,-10.459673 21.07366,-11.612745 z"
       id="path9103"
       inkscape:path-effect="#path-effect9105"
       inkscape:original-d="m 197.19439,24.820868 c -3.43387,2.831281 -6.86874,5.661563 -10.30462,8.490848 1.22883,2.31474 2.45665,4.628475 3.68347,6.941214 0.66404,1.962867 2.47626,1.248396 3.71289,1.871094 1.23663,0.622697 2.56806,-0.332334 3.85059,-0.5 -7.93731,2.79142 -15.8753,5.581729 -23.81445,8.371093 -5.73401,4.705789 -11.46878,9.410384 -17.20467,14.114076 -3.43631,-2.448809 -10.31194,-7.349427 -10.31194,-7.349427 0,0 14.4027,-11.018532 21.60254,-16.529297 9.59659,-5.135636 19.1918,-10.272071 28.78619,-15.409601 z"
       sodipodi:nodetypes="cssscccccc" />
    <path
       style="fill:#ffff9d;fill-opacity:1;stroke:#000000;stroke-width:1.75748031;stroke-linecap:butt;stroke-linejoin:miter;stroke-opacity:1;stroke-miterlimit:4;stroke-dasharray:none"
       d="m 222.68733,185.27199 c 0.11365,0.58111 -3.80613,3.10733 -4.6889,6.13716 -0.88278,3.02982 1.27099,6.56189 4.99044,8.17326 3.71946,1.61136 9.00407,1.30325 7.77862,2.50243 -1.22544,1.19918 -8.96056,3.9057 -16.3957,5.89501 -7.43514,1.98932 -14.57005,3.26125 -22.07842,3.73942 -7.50836,0.47817 -15.38996,0.16237 -21.82955,-0.48935 -6.43958,-0.65172 -11.43691,-1.6395 -14.53258,-1.82669 -3.09568,-0.18719 -4.28877,0.42663 -5.48806,-0.27371 -1.19929,-0.70034 -2.40502,-2.71615 -3.65978,-3.62896 -1.25476,-0.91282 -2.55861,-0.72131 -3.53934,-1.14162 -0.98073,-0.42031 -1.6382,-1.45369 -1.53784,-2.53299 0.10036,-1.07931 0.95936,-2.20348 1.73088,-3.55356 0.77152,-1.35008 1.4556,-2.9263 1.8145,-4.46915 0.35891,-1.54285 0.39245,-3.05273 3.31015,-3.16334 2.9177,-0.1106 8.71814,1.17878 14.49289,2.1185 5.77475,0.93972 11.52356,1.52989 17.90497,1.40685 6.38142,-0.12303 13.39527,-0.95902 19.05384,-2.20227 5.65857,-1.24326 9.9619,-2.89361 14.1874,-4.40083 4.22549,-1.50723 8.37283,-2.87126 8.48648,-2.29016 z"
       id="path9434"
       inkscape:path-effect="#path-effect9436"
       inkscape:original-d="m 226.72053,183.32702 c -3.9188,2.52724 -7.83858,5.05346 -11.75937,7.5787 2.15477,3.53308 4.30854,7.06515 6.46132,10.59623 5.28591,-0.30713 10.57052,-0.61523 15.85444,-0.92436 -7.73445,2.70763 -15.46957,5.41415 -23.20587,8.11973 -7.1342,1.27299 -14.26911,2.54493 -21.40517,3.81589 -7.88091,-0.31481 -15.76251,-0.63061 -23.64526,-0.94741 -4.99653,-0.98683 -9.99386,-1.97461 -14.99229,-2.96341 -1.19215,0.61485 -2.38524,1.22867 -3.57937,1.8415 -1.20477,-2.01489 -2.4105,-4.0307 -3.61725,-6.04754 -1.30291,0.19251 -2.60676,0.38402 -3.91164,0.57453 -0.65649,-1.03241 -1.31395,-2.06579 -1.97242,-3.10018 0.86004,-1.12321 1.71905,-2.24738 2.57707,-3.37257 0.68511,-1.57529 1.36918,-3.15152 2.05227,-4.72877 0.0345,-1.50895 0.0681,-3.01883 0.10063,-4.52975 5.80166,1.29043 11.6021,2.57981 17.40164,3.86821 5.75004,0.59119 11.49885,1.18136 17.24678,1.77053 7.01512,-0.83502 14.02897,-1.67101 21.04195,-2.50802 4.30449,-1.64941 8.60782,-3.29975 12.91022,-4.95112 4.14853,-1.36309 8.29587,-2.72712 12.44232,-4.09219 z"
       sodipodi:nodetypes="cccccccccccccccccccc" />
    <path
       style="fill:#eaf000;stroke:#cfcf2a;stroke-width:1px;stroke-linecap:butt;stroke-linejoin:miter;stroke-opacity:1;fill-opacity:1"
       d="M 67.425581,101.13235 C 72.83833,98.106888 83.776227,90.130587 95.694175,83.603804 107.61212,77.07702 120.50925,72.000037 129.44557,69.028291 c 8.93631,-2.971746 13.91107,-3.838186 15.29243,-4.691736 1.38137,-0.85355 -0.83107,-1.694758 -3.36198,-1.998773 -2.5309,-0.304016 -5.3798,-0.0703 -12.06086,1.792572 -6.68107,1.862869 -17.19351,5.354868 -28.01506,10.347131 -10.821543,4.992262 -21.951248,11.484438 -28.513188,16.039051 -6.561941,4.554613 -8.555391,7.171097 -9.608422,9.442995 -1.053031,2.271899 -1.165659,4.198289 4.247091,1.172819 z"
       id="path10793"
       inkscape:path-effect="#path-effect10795"
       inkscape:original-d="M 61.900255,106.08332 C 72.839152,98.108015 83.777049,90.131715 94.713946,82.154415 107.6126,77.078228 120.50973,72.001244 133.40612,66.923159 c 4.97596,-0.865474 9.95072,-1.731913 14.92457,-2.59937 -2.21153,-0.840242 -4.42397,-1.681451 -6.63746,-2.523677 -2.84802,0.234728 -5.69692,0.468448 -8.54688,0.701172 -10.51186,3.493138 -21.0243,6.985138 -31.53795,10.476207 -11.129156,6.493435 -22.258859,12.985612 -33.389785,19.476918 -1.99253,2.617589 -3.985979,5.234073 -5.980469,7.849611 -0.111632,1.92747 -0.22426,3.85386 -0.337891,5.7793 z" />
    <path
       sodipodi:type="star"
       style="fill:none;stroke:#000000;stroke-width:2.51339;stroke-linejoin:round;stroke-miterlimit:4;stroke-dasharray:none;fill-opacity:1;opacity:1"
       id="path1028"
       inkscape:flatsided="true"
       sodipodi:sides="6"
       sodipodi:cx="185.80611"
       sodipodi:cy="140.99588"
       sodipodi:r1="28.435692"
       sodipodi:r2="24.626032"
       sodipodi:arg1="0.19751679"
       sodipodi:arg2="0.72111557"
       inkscape:rounded="0"
       inkscape:randomized="0"
       d="m 213.68892,146.57596 -18.7739,21.35718 -27.88281,-5.58007 -9.10892,-26.93727 18.7739,-21.35718 27.88281,5.58007 z"
       transform="matrix(0.83927355,0,0,0.87840449,30.916248,18.355613)"
       inkscape:export-filename="/home/martin/GambasCAD/png/gambascad128.png"
       inkscape:export-xdpi="48.000004"
       inkscape:export-ydpi="48.000004" />
    <circle
       style="fill:#fcfcd2;stroke:#000000;stroke-width:2.51339;stroke-linejoin:round;stroke-miterlimit:4;stroke-dasharray:none;fill-opacity:1"
       id="path1198"
       cx="186.69043"
       cy="141.58496"
       r="9.4488192" />
    <path
       style="fill:none;stroke:#000000;stroke-width:1px;stroke-linecap:butt;stroke-linejoin:miter;stroke-opacity:1"
       d="m 144.16602,141.35156 9.87304,26.33008"
       id="path1268" />
    <path
       style="fill:none;stroke:#000000;stroke-width:1px;stroke-linecap:butt;stroke-linejoin:miter;stroke-opacity:1"
       d="m 193.66016,149.35352 22.61132,11.82617 5.48243,17.28906"
       id="path1270" />
    <path
       style="fill:#000000;stroke:#000000;stroke-width:1px;stroke-linecap:butt;stroke-linejoin:miter;stroke-opacity:1;fill-opacity:1"
       d="m 154.03906,167.68164 0.11022,-5.10923 -3.71093,1.41352 z"
       id="path1272" />
    <path
       style="fill:#000000;fill-opacity:1;stroke:#000000;stroke-width:1px;stroke-linecap:butt;stroke-linejoin:miter;stroke-opacity:1"
       d="m 144.16602,141.35156 -0.11022,5.10923 3.71093,-1.41352 z"
       id="path1272-3" />
    <path
       style="fill:#000000;fill-opacity:1;stroke:#000000;stroke-width:1px;stroke-linecap:butt;stroke-linejoin:miter;stroke-opacity:1"
       d="m 193.66016,149.35352 3.40386,3.81187 1.74994,-3.56468 z"
       id="path1272-6" />
    <text
       xml:space="preserve"
       style="font-size:8px;line-height:1.2521;font-family:sans-serif;-inkscape-font-specification:'sans-serif Bold';font-weight:bold;font-style:normal;font-stretch:normal;font-variant:normal"
       x="192.31712"
       y="-81.69796"
       id="text25179"
       transform="rotate(67)"><tspan
         sodipodi:role="line"
         id="tspan25177"
         x="192.31712"
         y="-81.69796">2.30</tspan></text>
    <text
       xml:space="preserve"
       style="font-size:8px;line-height:1.2521;font-family:sans-serif;-inkscape-font-specification:'sans-serif Bold';font-weight:bold;font-style:normal;font-stretch:normal;font-variant:normal"
       x="219.93636"
       y="-158.23351"
       id="text28549"
       transform="rotate(72)"><tspan
         sodipodi:role="line"
         id="tspan28547"
         x="219.93636"
         y="-158.23351">R0.9</tspan></text>
  </g>
</svg>
