<svg fill-rule="evenodd" height="48" preserveAspectRatio="xMidYMid" stroke-linejoin="round" stroke-width="28.222" viewBox="0 0 1270 1270" width="48" xmlns="http://www.w3.org/2000/svg"><g fill="none"><path d="m720 816h9799v9801h-9799z" transform="matrix(.12960506 0 0 .12957861 -93.315635 -105.73612)"/><path d="m2698 2698h5899v5899h-5899z" transform="matrix(.12960506 0 0 .12957861 -96.944576 -96.7952)"/><path d="m7937 1235h2121v2121h-2121z" transform="matrix(.12960506 0 0 .12957861 -531.12153 337.5523)"/><path d="m1235 7937h2121v2121h-2121z" transform="matrix(.12960506 0 0 .12957861 337.49158 -530.88354)"/><path d="m77.765747 77.879456h1114.4685v1114.2411h-1114.4685z" stroke="#0066b3" stroke-width="26.458333"/><g stroke-width="120.241039" transform="matrix(-.16615936 0 0 -.16391445 1385.5418 1375.4016)"><path d="m1079 1079h6875v6875h-6875z"/><path d="m7903 7903-6774-6774" stroke="#0066b3" stroke-linejoin="miter" stroke-width="120.241039"/><path d="m3337 1079h4618v4618h-4618z"/><path d="m3387 1129 4517 4517" stroke="#0066b3" stroke-linejoin="miter" stroke-width="120.241039"/><path d="m5594 1079h2360v2360h-2360z"/><path d="m5644 1129 2259 2259" stroke="#0066b3" stroke-linejoin="miter" stroke-width="120.241039"/><path d="m1079 3337h4618v4618h-4618z"/><path d="m5646 7904-4517-4517" stroke="#0066b3" stroke-linejoin="miter" stroke-width="120.241039"/><path d="m1079 5594h2360v2360h-2360z"/><path d="m3388 7903-2259-2259" stroke="#0066b3" stroke-linejoin="miter" stroke-width="120.241039"/></g></g></svg>