<svg viewBox="0 0 48 48" xmlns="http://www.w3.org/2000/svg"><g fill="none" stroke="#0066b3"><g stroke-linecap="round"><path d="m17.63204 36.621114h4.528818" stroke-width="1.5"/><path d="m7.6629353 32.271613h7.8051137" stroke-width="1.5"/><path d="m11.56254 32.388154v9.5942" stroke-width="1.5"/><path d="m33.802358 5.886505h7.805114" stroke-width="1.5"/><path d="m37.701963 6.003046v9.5942" stroke-width="1.5"/><path d="m44.646976 6.073145v9.5942" stroke-width="1.5"/><path d="m27.802358 15.480705h4.784739" stroke-width="1.5"/><path d="m27.802358 5.886505v9.5942" stroke-width="1.5"/><path d="m2.2458825 5.9897982v9.5941998" stroke-width="1.48124"/><path d="m11.959323 5.9897986v9.5941994" stroke-width="1.48124"/><path d="m24.802934 32.275944 6.191043 9.341465m1.263323-11.004089" stroke-width="1.5"/><path d="m30.657821 32.324526-6.191044 9.341464m-1.263322-11.004088" stroke-width="1.5"/><path d="m32.531951 32.271613h7.805114" stroke-width="1.5"/><path d="m36.431556 32.388154v9.5942" stroke-width="1.5"/><path d="m17.487495 41.565215h4.893239" stroke-width="1.5"/><path d="m17.487495 32.388154h4.893239" stroke-width="1.5"/><path d="m17.487495 32.388154v9.177061" stroke-width="1.5"/></g><circle cx="24" cy="24" r="2.221858" stroke-width=".555465"/><path d="m11.959323 5.9897986-4.8332182 9.5941994m.9207473-1.911963" stroke-linecap="round" stroke-width="1.48124"/><path d="m2.2458825 5.9897982 4.8802223 9.5941998" stroke-linecap="round" stroke-width="1.48124"/><path d="m16.258596 5.9529937c0 1.9207556 0 3.8405113.03875 5.1485313s.11613 2.00418.297586 2.593442.466403 1.071513.830004 1.420246c.363602.348732.805328.56452 1.278625.690563.473298.126042.978273.162844 1.422208.136258.443934-.02658.827142-.116306 1.215452-.264778.388309-.148473.78205-.355662 1.079968-.609876.297919-.254214.500521-.555859.654068-.860032.153547-.304174.258079-.611223.319047-.971138.06097-.359914.07821-.773038.08693-1.151041.0087-.378003.0089-.720908.0089-1.730464.000077-1.009555.000077-2.6856879.000077-4.3628546" stroke-linecap="round" stroke-width="1.5"/></g></svg>