<?xml version="1.0" encoding="UTF-8" standalone="no"?>
<svg
   viewBox="0 0 48 48"
   version="1.1"
   id="svg18"
   sodipodi:docname="solid.svg"
   inkscape:version="1.1.2 (0a00cf5339, 2022-02-04, custom)"
   xmlns:inkscape="http://www.inkscape.org/namespaces/inkscape"
   xmlns:sodipodi="http://sodipodi.sourceforge.net/DTD/sodipodi-0.dtd"
   xmlns="http://www.w3.org/2000/svg"
   xmlns:svg="http://www.w3.org/2000/svg">
  <defs
     id="defs22" />
  <sodipodi:namedview
     id="namedview20"
     pagecolor="#ffffff"
     bordercolor="#666666"
     borderopacity="1.0"
     inkscape:pageshadow="2"
     inkscape:pageopacity="0.0"
     inkscape:pagecheckerboard="0"
     showgrid="false"
     inkscape:zoom="1.7161458"
     inkscape:cx="-44.867982"
     inkscape:cy="67.884674"
     inkscape:window-width="1920"
     inkscape:window-height="1021"
     inkscape:window-x="1366"
     inkscape:window-y="35"
     inkscape:window-maximized="1"
     inkscape:current-layer="svg18" />
  <rect
     height="44"
     rx="2.73524"
     width="44"
     x="2"
     y="2"
     id="rect2"
     ry="2.73524"
     style="fill:none" />
  <circle
     cx="28.995638"
     cy="44.691071"
     r="3"
     stroke-width="0.75"
     id="circle4-1"
     style="fill:none;stroke:#0066b3" />
  <circle
     cx="14.465365"
     cy="2.5946717"
     r="3"
     stroke-width="0.75"
     id="circle4-6"
     style="fill:none;stroke:#0066b3" />
  <circle
     cx="41.584164"
     cy="8.3659601"
     r="3"
     stroke-width="0.75"
     id="circle6"
     style="fill:none;stroke:#0066b3" />
  <circle
     cx="6.2674866"
     cy="31.486113"
     r="3"
     stroke-width="0.75"
     id="circle4-0"
     style="fill:none;stroke:#0066b3" />
  <path
     id="path2954"
     style="fill:none;stroke:none;stroke-width:1px;stroke-linecap:butt;stroke-linejoin:miter;stroke-opacity:1;fill-rule:evenodd;fill-opacity:1"
     d="m 38.008906,8.9265538 0.545117,0.9397104 0.533831,0.7123038 1.020004,0.514643 m -2.117662,-3.0937504 0.01871,0.9270932 M 13.116059,5.4507825 15.115976,5.8873382 16.659655,5.0992856 17.5386,3.7236028 M 6.9456622,28.862588 13.116059,5.4507825 M 17.5386,3.7236028 37.990196,7.9994606 m 2.117662,3.0937504 -9.587467,30.691664 m -4.177174,1.621811 0.47035,-1.244413 1.165944,-0.450765 0.898236,-0.363679 1.642644,0.437046 M 6.9456622,28.862588 l 1.3650432,0.46496 1.0782851,1.267325 0.039037,1.140376 -0.8492801,1.951712 m 0,0 17.7644696,9.719725" />
  <path
     style="fill:#0066b3;fill-opacity:1;fill-rule:evenodd;stroke:none;stroke-width:0.305044;stroke-linecap:round;stroke-linejoin:round;paint-order:fill markers stroke;stroke-opacity:1"
     d="m 19.666161,39.081886 c -3.454314,-1.965069 -7.236365,-3.964298 -8.335742,-4.56598 L 9.0566947,33.300554 9.4825145,32.391097 C 9.5979157,32.144625 9.8538699,30.728184 9.0242366,29.647166 8.7059139,29.232389 8.4631778,28.900951 8.3956119,28.94448 7.8884493,29.271217 8.120624,28.743415 7.9177485,28.630223 L 7.5721032,28.437373 10.578122,17.329458 c 1.6222,-5.994395 2.92381,-11.501411 2.982356,-11.5689608 0.05855,-0.06755 0.395921,0.2465679 0.842017,0.1498138 1.475209,-0.3199591 0.713481,-0.022973 1.475209,-0.3199591 0.641798,-0.2502273 0.938923,-0.6069675 1.128677,-0.9285759 0.166856,-0.2827998 0.26817,-0.5377065 0.414214,-0.5341024 0.142915,0.00353 5.153586,1.2288564 10.399286,2.3296015 L 38.295618,8.645697 38.44445,9.5035155 c 0.08986,0.5179185 0.347161,0.5277925 0.661713,1.1342315 0.09487,0.182907 0.449651,0.301408 0.447995,0.388699 -0.0046,0.242359 -9.501509,30.286715 -9.6052,30.390407 -0.0499,0.0499 -0.123897,0.136087 -0.447932,0.05384 -0.520485,-0.132113 -0.491754,-0.30821 -1.552416,0.104841 -0.958144,0.373125 -0.987518,0.392669 -1.241104,0.688024 l -0.475297,0.553584 z"
     id="path6832"
     sodipodi:nodetypes="sscsssscssssssscssssssscs" />
</svg>
