<?xml version="1.0" encoding="UTF-8" standalone="no"?>
<svg
   viewBox="0 0 48 48"
   version="1.1"
   id="svg28"
   sodipodi:docname="spline.svg"
   inkscape:version="1.1.2 (0a00cf5339, 2022-02-04, custom)"
   xmlns:inkscape="http://www.inkscape.org/namespaces/inkscape"
   xmlns:sodipodi="http://sodipodi.sourceforge.net/DTD/sodipodi-0.dtd"
   xmlns="http://www.w3.org/2000/svg"
   xmlns:svg="http://www.w3.org/2000/svg">
  <defs
     id="defs32">
    <inkscape:path-effect
       effect="bspline"
       id="path-effect3056"
       is_visible="true"
       lpeversion="1"
       weight="33.333333"
       steps="2"
       helper_size="0"
       apply_no_weight="true"
       apply_with_weight="true"
       only_selected="false" />
    <inkscape:path-effect
       effect="bspline"
       id="path-effect3052"
       is_visible="true"
       lpeversion="1"
       weight="33.333333"
       steps="2"
       helper_size="0"
       apply_no_weight="true"
       apply_with_weight="true"
       only_selected="false" />
    <inkscape:path-effect
       effect="bspline"
       id="path-effect3048"
       is_visible="true"
       lpeversion="1"
       weight="33.333333"
       steps="2"
       helper_size="0"
       apply_no_weight="true"
       apply_with_weight="true"
       only_selected="false" />
  </defs>
  <sodipodi:namedview
     id="namedview30"
     pagecolor="#ffffff"
     bordercolor="#666666"
     borderopacity="1.0"
     inkscape:pageshadow="2"
     inkscape:pageopacity="0.0"
     inkscape:pagecheckerboard="0"
     showgrid="false"
     inkscape:zoom="2.4269967"
     inkscape:cx="-106.71625"
     inkscape:cy="-32.756534"
     inkscape:window-width="1920"
     inkscape:window-height="1021"
     inkscape:window-x="1366"
     inkscape:window-y="35"
     inkscape:window-maximized="1"
     inkscape:current-layer="svg28" />
  <rect
     height="44"
     rx="2.73524"
     width="44"
     x="2"
     y="2"
     id="rect2"
     ry="2.73524"
     style="fill:none" />
  <circle
     cx="40.175896"
     cy="8.2082853"
     r="3"
     id="circle8"
     style="fill:none;stroke:#0066b3;stroke-width:0.75" />
  <circle
     cx="31.48621"
     cy="30.470667"
     r="3"
     id="circle10"
     style="fill:none;stroke:#0066b3;stroke-width:0.75" />
  <circle
     cx="7.2265773"
     cy="39.473621"
     r="3"
     id="circle12"
     style="fill:none;stroke:#0066b3;stroke-width:0.75" />
  <circle
     cx="9.8432255"
     cy="11.459101"
     r="3"
     id="circle14"
     style="fill:none;stroke:#0066b3;stroke-width:0.75" />
  <path
     style="fill:none;stroke:#0066b3;stroke-width:2;stroke-linecap:butt;stroke-linejoin:miter;stroke-opacity:1;stroke-miterlimit:4;stroke-dasharray:none"
     d="M 5.9292705,36.908611 C 5.3230484,35.505526 4.7163049,34.101234 4.3765752,32.702792 4.0368454,31.30435 3.9645996,29.911972 3.9098445,28.28408 3.8550895,26.656188 3.8178621,24.792913 3.9599372,22.986641 4.1020124,21.180369 4.4235433,19.431438 4.8621363,17.928943 5.3007293,16.426447 5.8564165,15.170796 6.3513658,14.377568 6.8463151,13.58434 7.2801397,13.254156 7.7138219,12.92408"
     id="path3046"
     inkscape:path-effect="#path-effect3048"
     inkscape:original-d="M 5.9292705,36.908611 C 5.3235269,35.505319 4.7167833,34.101027 4.1090397,32.695734 4.037791,31.304301 3.9655452,29.911923 3.8922979,28.518517 3.8560691,26.656168 3.8188418,24.792893 3.7806137,22.928581 4.1031575,21.18058 4.4246884,19.431649 4.7452258,17.681683 5.3019354,16.426981 5.8576229,15.17133 6.4123215,13.914653 6.8471636,13.585455 7.2809884,13.255271 7.7138219,12.92408" />
  <path
     style="fill:none;stroke:#0066b3;stroke-width:2;stroke-linecap:butt;stroke-linejoin:miter;stroke-miterlimit:4;stroke-dasharray:none;stroke-opacity:1"
     d="m 12.741509,11.054181 c 0.948781,0.246448 1.896382,0.492589 2.851484,0.957981 0.955102,0.465392 1.91771,1.149507 2.784889,1.973054 0.867178,0.823547 1.639133,1.786185 2.289995,2.777757 0.650861,0.991572 1.180849,2.011917 1.633699,2.854555 0.45285,0.842639 0.828486,1.507532 1.246865,2.390442 0.418378,0.88291 0.879638,1.983758 1.249466,2.816504 0.369828,0.832746 0.648119,1.397353 1.021744,2.025468 0.373625,0.628114 0.842363,1.319735 1.331272,1.82238 0.48891,0.502644 0.997552,0.816684 1.505033,1.130007"
     id="path3050"
     inkscape:path-effect="#path-effect3052"
     inkscape:original-d="m 12.741509,11.054181 c 0.948601,0.247141 1.896202,0.493283 2.842803,0.738424 0.963647,0.685141 1.926255,1.369256 2.887882,2.052384 0.772987,0.963677 1.544942,1.926315 2.315913,2.887973 0.53101,1.021386 1.060998,2.041731 1.589997,3.061097 0.376652,0.665921 0.752288,1.330815 1.126932,1.994723 0.462278,1.101891 0.923537,2.202739 1.383805,3.302608 0.279303,0.565629 0.557594,1.130236 0.83489,1.693854 0.469766,0.692662 0.938503,1.384284 1.406269,2.074946 0.509662,0.315053 1.018304,0.629093 1.525956,0.942139"
     sodipodi:nodetypes="cccccccccc" />
  <path
     style="fill:none;stroke:#0066b3;stroke-width:2;stroke-linecap:butt;stroke-linejoin:miter;stroke-miterlimit:4;stroke-dasharray:none;stroke-opacity:1"
     d="m 34.183104,29.732565 c 0.753298,-0.493166 1.506356,-0.986176 2.08275,-1.582786 0.576393,-0.596611 0.976535,-1.297277 1.414714,-2.172783 0.438178,-0.875507 0.914387,-1.92593 1.236326,-2.973913 0.321939,-1.047984 0.489516,-2.093832 0.670202,-3.157053 0.180685,-1.063221 0.374479,-2.143727 0.509427,-3.288988 0.134947,-1.14526 0.210955,-2.35532 0.233539,-3.291824 0.02258,-0.936505 -0.0084,-1.599466 -0.03936,-2.263483"
     id="path3054"
     inkscape:path-effect="#path-effect3056"
     inkscape:original-d="m 34.183104,29.732565 c 0.754056,-0.492008 1.507114,-0.985018 2.259171,-1.479027 0.401157,-0.699693 0.801299,-1.400359 1.200448,-2.102038 0.477228,-1.049465 0.953438,-2.099887 1.428657,-3.151331 0.168584,-1.044889 0.336162,-2.090737 0.502742,-3.137606 0.194802,-1.079549 0.388596,-2.160055 0.581394,-3.241582 0.07701,-1.209133 0.153021,-2.419192 0.228033,-3.630325 -0.02995,-0.661987 -0.0609,-1.324948 -0.09285,-1.988921"
     sodipodi:nodetypes="cccccccc" />
</svg>
