<svg fill-rule="evenodd" height="112.89mm" preserveAspectRatio="xMidYMid" stroke-linejoin="round" stroke-width="28.222" viewBox="0 0 11289 11289" width="112.89mm" xmlns="http://www.w3.org/2000/svg" xmlns:xlink="http://www.w3.org/1999/xlink"><clipPath id="a"><path d="m0 0h9031v9031h-9031z"/></clipPath><mask id="b"><path d="m979 979h7074v7074h-7074z" fill="url(#c)"/></mask><linearGradient id="c" gradientUnits="userSpaceOnUse" x1="4516" x2="4516" y1="979" y2="8053"><stop offset=".5" stop-color="#050505"/><stop offset="1" stop-color="#050505"/></linearGradient><g fill="none"><path d="m720 816h9799v9801h-9799z"/><path d="m2698 2698h5899v5899h-5899z"/><path d="m7937 1235h2121v2121h-2121z"/><path d="m1235 7937h2121v2121h-2121z"/><path d="m1333.7045 1239.2605h8598.958v8598.958h-8598.958z" stroke="#0066b3" stroke-width="355.070831"/></g><g clip-path="url(#a)" stroke-width="249.316116" transform="matrix(-1.2820437 0 0 -1.2649807 11425.246 11300.917)"><g stroke-width="249.316116"><g stroke-width="249.316116"><path d="m979 979h7075v7075h-7075z" fill="none"/><g mask="url(#b)" stroke-width="249.316116"><path d="m4516 7903h-3387v-6774h6774v6774z" fill="none" stroke="#0066b3" stroke-linejoin="miter" stroke-width="249.316116"/></g></g><g stroke="#0066b3"><path d="m-7855.3804-2316.5876h6691.1582v1160.2867h-6691.1582z" fill="#0066b3" fill-opacity=".334124" stroke-width="249.316122" transform="scale(-1)"/><path d="m-7855.3809-3476.8743h6691.1587v1160.2866h-6691.1587z" fill="none" stroke-width="249.316" transform="scale(-1)"/><path d="m-7855.3809-4637.1606h6691.1587v1160.2866h-6691.1587z" fill="#0066b3" fill-opacity=".334124" stroke-width="249.316" transform="scale(-1)"/><path d="m-7855.3813-5797.4473h6691.1592v1160.2865h-6691.1592z" fill="none" stroke-width="249.316" transform="scale(-1)"/><path d="m-7855.3813-6957.7339h6691.1592v1160.2865h-6691.1592z" fill="#0066b3" fill-opacity=".334124" stroke-width="249.316" transform="scale(-1)"/><path d="m6202.0143 7950.0085v-6790.2582" fill="#b1b1b1" fill-opacity=".755096" stroke-linejoin="miter" stroke-width="166.210748"/><path d="m3982.132 7949.7348v-6790.2577" fill="#b1b1b1" fill-opacity=".755096" stroke-linejoin="miter" stroke-width="166.211"/></g></g></g></svg>