<svg viewBox="0 0 48 48" xmlns="http://www.w3.org/2000/svg"><g fill="#0066b3" transform="matrix(-.81531522 -.04204434 .04204434 -.81531522 -32.80331 42.100398)"><path d="m23.4 28h17.1v8h-17.1z" transform="matrix(.7071 -.7071 .7071 .7071 -113.221427 25.516091)"/><g transform="translate(-99.966627 -6.483909)"><path d="m46.8 22.8c-1.6 1.6-4.1 1.6-5.7 0s-1.6-4.1 0-5.7l6.5-6.5c-1.1-.3-2.3-.6-3.6-.6-5.5 0-10 4.5-10 10s4.5 10 10 10 10-4.5 10-10c0-1.3-.3-2.5-.7-3.6z"/><path d="m17.2 41.2c1.6-1.6 4.1-1.6 5.7 0s1.6 4.1 0 5.7l-6.5 6.5c1.1.4 2.4.7 3.6.7 5.5 0 10-4.5 10-10s-4.5-10-10-10-10 4.5-10 10c0 1.3.3 2.5.7 3.6z"/></g></g><path d="m2.65197 2.898614h42.665688v42.665688h-42.665688z" fill="none"/></svg>