<svg fill-rule="evenodd" height="48" preserveAspectRatio="xMidYMid" stroke-linejoin="round" stroke-width="28.222" viewBox="0 0 1270 1270" width="48" xmlns="http://www.w3.org/2000/svg"><g fill="none" stroke="#0066b3" stroke-linecap="round" stroke-linejoin="round"><g stroke-width="26.458333"><path d="m1162.6335 104.60397v1070.08403"/><path d="m114.06302 104.60397v1070.08403"/><path d="m114.06302 104.60397h1048.57048"/><path d="m114.06299 1174.688h1048.57051"/></g><path d="m969.23492 174.18143h98.810661v98.810638h-98.810661z" stroke-width="13.229167"/><path d="m991.38106 223.05583 13.77164 30.98134 42.4513-40.97826" stroke-width="13.229167"/><path d="m969.23492 378.82538h98.810661v98.810638h-98.810661z" stroke-width="13.2292"/><path d="m969.23492 590.49207h98.810661v98.810638h-98.810661z" stroke-width="13.2292"/><path d="m991.3811 639.36647 13.7716 30.98134 42.4513-40.97826" stroke-width="13.2292"/><g stroke-width="13.229167"><path d="m175.10315 166.30112h726.46405v108.72903h-726.46405z"/><path d="m177.01486 366.21014h291.16547v113.40482h-291.16547z"/><path d="m566.14337 366.21014h337.33554v108.72903h-337.33554z"/></g><path d="m175.69986 583.11499h726.46405v108.72903h-726.46405z" stroke-width="13.2292"/><path d="m182.2664 780.93579h452.58588v109.22112h-452.58588z" stroke-width="12.44"/><path d="m187.74573 978.2782h452.58588v109.22112h-452.58588z" stroke-width="12.44"/><g transform="matrix(.75711898 0 0 .75711898 536.97161 -298.98637)"><path d="m249.39637 1379.4377v469.0413h447.09267v-469.0413z" stroke-width="26.4583"/><g stroke-width="22.6748"><circle cx="437.70312" cy="1495.7941" r="37.315563"/><path d="m284.68525 1646.3346 78.78342-79.5798 86.75356 71.2139 115.34111-134.0352 96.95373 88.1151"/><path d="m281.4935 1720.7367h383.08692"/></g></g></g></svg>