<svg fill="none" height="48" viewBox="0 0 1.44 1.44" width="48" xmlns="http://www.w3.org/2000/svg"><g stroke="#0066b3" stroke-linecap="round" stroke-linejoin="round" stroke-width=".06"><path d="m.41302325.4744186h-.18418605c-.0675349 0-.1227907-.0552558-.1227907-.1227907v-.1227907c0-.0675349.0552558-.1227907.1227907-.1227907h.18418605c.0675349 0 .1227907.0552558.1227907.1227907v.1227907c0 .0675349-.0552558.1227907-.1227907.1227907z"/><path d="m1.2602791.41302325h-.2210233c-.0405209 0-.0736744-.0331541-.0736744-.073675v-.0982313c0-.0405209.0331535-.073675.0736744-.073675h.2210233c.040521 0 .073674.0331541.073674.073675v.0982313c0 .0405209-.033154.073675-.073674.073675z"/><path d="m1.2602791.87348837h-.2210233c-.0405209 0-.0736744-.0331535-.0736744-.0736744v-.09823257c0-.0405209.0331535-.0736744.0736744-.0736744h.2210233c.040521 0 .073674.0331535.073674.0736744v.0982326c0 .0405209-.033154.0736744-.073674.0736744z"/><g stroke-miterlimit="10"><path d="m.53581395.29023255h.42976745"/><path d="m.75069768.29023255v.79813955c0 .067535.0552558.1227907.12279069.1227907h.092093"/><path d="m.75069768.75069768h.21488372"/></g><path d="m1.2602791 1.3339535h-.2210233c-.0405209 0-.0736744-.033154-.0736744-.073674v-.098233c0-.040521.0331535-.073674.0736744-.073674h.2210233c.040521 0 .073674.033154.073674.073674v.098233c0 .040521-.033154.073674-.073674.073674z"/></g></svg>