<svg fill-rule="evenodd" height="48" preserveAspectRatio="xMidYMid" stroke-linejoin="round" stroke-width="28.222" viewBox="0 0 12.7 12.7" width="48" xmlns="http://www.w3.org/2000/svg"><g fill="none" stroke="#0066b3" stroke-linecap="round" stroke-linejoin="round" stroke-width="16.588614" transform="matrix(.03194001 0 0 .03185882 18.293457 -9.13957)"><path d="m-211.83759 562.91822c0-34.72499 0-104.17526.0127-140.72141s.038-40.18806-.44523-44.45791c-.48328-4.26986-1.47523-9.16743-3.75243-13.41942-2.27719-4.252-5.83968-7.85814-13.66043-12.22335s-19.89925-9.48908-30.47529-13.03829c-10.57605-3.54921-19.64902-5.52351-31.76477-7.62497-12.11574-2.10146-27.27345-4.32993-41.18946-5.66264s-26.58947-1.76956-37.29724-1.82546c-10.70776-.0559-19.44917.26915-29.75912.94911s-22.18773 1.71477-33.52581 3.09518-22.1358 3.10635-31.3878 5.02457c-9.252 1.91823-16.95772 4.02864-24.88686 6.57945-7.92914 2.5508-16.08117 5.54184-22.34209 8.63595-6.26093 3.0941-10.63028 6.29106-13.85058 9.31913-3.22029 3.02807-5.29127 5.88699-6.73887 9.53749-1.4476 3.65049-2.27176 8.09216-2.69335 12.98823-.42158 4.89606-.44062 10.24614-.45013 46.33036-.01 36.08422-.01 102.89979.0809 136.9216.0904 34.0218.27125 35.24841 1.16384 37.65365s2.4968 5.98891 3.89616 8.49839c1.39937 2.50947 2.59369 3.94463 4.82981 5.80212 2.23612 1.8575 5.51381 4.13729 9.14418 6.19198 3.63036 2.05469 7.61315 3.88424 14.02852 6.39586s15.26287 5.70519 24.90295 8.44669 20.07215 5.03083 30.34608 6.63364c10.27393 1.6028 20.38914 2.51905 30.26232 3.38473 9.87317.86569 19.50372 1.68078 29.91098 1.98028s21.59065.0834 32.69076-.43601c11.10011-.51945 22.11628-1.34222 32.69596-2.4997 10.57969-1.15747 20.7223-2.64956 29.80972-4.33059 9.08742-1.68104 17.11918-3.5509 24.38366-5.47919 7.26448-1.9283 13.76128-3.91491 19.59504-6.1441s11.00417-4.7008 15.65191-7.37027c4.64774-2.66946 8.77257-5.53662 11.67991-7.92302s4.59711-4.29196 5.86953-6.34844c1.27241-2.05647 2.12743-4.26387 2.60198-5.97875.47454-1.71488.56855-2.93726.61556-3.54858.047-.61132.047-.61132.047-35.33631z"/><path d="m-211.85695 379.57432c-4.9008 5.61825-9.80147 11.23636-20.55207 16.3038s-27.35043 9.58385-41.25174 12.8003c-13.90132 3.21646-25.10338 5.13278-38.4914 6.76195-13.38802 1.62918-28.96121 2.9711-36.74809 3.64208-7.78687.67099-48.77194.67099-56.23293.17357s-22.38234-1.49222-34.0158-2.71123c-11.63345-1.21901-19.97768-2.66213-28.54738-4.51952-8.56969-1.85738-17.3639-4.12884-25.87179-6.32963-8.50788-2.20078-16.72844-4.33063-23.5823-8.95635s-12.34023-11.74713-17.82693-18.86896"/><path d="m-212.17882 467.16992c-4.9008 5.61825-9.80147 11.23636-20.55207 16.3038s-27.35043 9.58385-41.25174 12.8003c-13.90132 3.21646-25.10338 5.13278-38.4914 6.76195-13.38802 1.62918-28.96121 2.9711-36.74809 3.64208-7.78687.67099-48.77194.67099-56.23293.17357s-22.38234-1.49222-34.0158-2.71123c-11.63345-1.21901-19.97768-2.66213-28.54738-4.51952-8.56969-1.85738-17.3639-4.12884-25.87179-6.32963-8.50788-2.20078-16.72844-4.33063-23.5823-8.95635s-12.34023-11.74713-17.82693-18.86896"/><path d="m-211.92714 541.12922c-4.9008 5.61825-9.80147 11.23636-20.55207 16.3038s-27.35043 9.58385-41.25174 12.8003c-13.90132 3.21646-25.10338 5.13278-38.4914 6.76195-13.38802 1.62918-28.96121 2.9711-36.74809 3.64208-7.78687.67099-48.77194.67099-56.23293.17357s-22.38234-1.49222-34.0158-2.71123c-11.63345-1.21901-19.97768-2.66213-28.54738-4.51952-8.56969-1.85738-17.3639-4.12884-25.87179-6.32963-8.50788-2.20078-16.72844-4.33063-23.5823-8.95635s-12.34023-11.74713-17.82693-18.86896"/></g></svg>