<?xml version="1.0" encoding="UTF-8" standalone="no"?>
<svg
   fill-rule="evenodd"
   height="48"
   preserveAspectRatio="xMidYMid"
   stroke-linejoin="round"
   stroke-width="28.222"
   viewBox="0 0 12.7 12.7"
   width="48"
   version="1.1"
   id="svg53"
   sodipodi:docname="databasebackup.svg"
   inkscape:version="1.1.2 (0a00cf5339, 2022-02-04)"
   xmlns:inkscape="http://www.inkscape.org/namespaces/inkscape"
   xmlns:sodipodi="http://sodipodi.sourceforge.net/DTD/sodipodi-0.dtd"
   xmlns="http://www.w3.org/2000/svg"
   xmlns:svg="http://www.w3.org/2000/svg">
  <defs
     id="defs57">
    <inkscape:path-effect
       effect="bspline"
       id="path-effect1937"
       is_visible="true"
       lpeversion="1"
       weight="33.333333"
       steps="2"
       helper_size="0"
       apply_no_weight="true"
       apply_with_weight="true"
       only_selected="false" />
    <inkscape:path-effect
       effect="bspline"
       id="path-effect1941-9"
       is_visible="true"
       lpeversion="1"
       weight="33.333333"
       steps="2"
       helper_size="0"
       apply_no_weight="true"
       apply_with_weight="true"
       only_selected="false" />
    <inkscape:path-effect
       effect="bspline"
       id="path-effect1941-9-2"
       is_visible="true"
       lpeversion="1"
       weight="33.333333"
       steps="2"
       helper_size="0"
       apply_no_weight="true"
       apply_with_weight="true"
       only_selected="false" />
    <inkscape:path-effect
       effect="bspline"
       id="path-effect1941-9-0"
       is_visible="true"
       lpeversion="1"
       weight="33.333333"
       steps="2"
       helper_size="0"
       apply_no_weight="true"
       apply_with_weight="true"
       only_selected="false" />
  </defs>
  <sodipodi:namedview
     id="namedview55"
     pagecolor="#ffffff"
     bordercolor="#666666"
     borderopacity="1.0"
     inkscape:pageshadow="2"
     inkscape:pageopacity="0.0"
     inkscape:pagecheckerboard="0"
     inkscape:document-units="mm"
     showgrid="false"
     inkscape:zoom="11.313708"
     inkscape:cx="24.218408"
     inkscape:cy="28.063302"
     inkscape:window-width="1920"
     inkscape:window-height="1023"
     inkscape:window-x="1366"
     inkscape:window-y="33"
     inkscape:window-maximized="1"
     inkscape:current-layer="svg53"
     units="px"
     width="48px" />
  <clipPath
     id="a">
    <path
       d="M 0,0 H 9031 V 9031 H 0 Z"
       id="path2" />
  </clipPath>
  <mask
     id="b">
    <path
       d="M 979,979 H 8053 V 8053 H 979 Z"
       fill="url(#c)"
       id="path5" />
  </mask>
  <linearGradient
     id="c"
     gradientUnits="userSpaceOnUse"
     x1="4516"
     x2="4516"
     y1="979"
     y2="8053">
    <stop
       offset=".5"
       stop-color="#050505"
       id="stop8" />
    <stop
       offset="1"
       stop-color="#050505"
       id="stop10" />
  </linearGradient>
  <g
     id="g4835"
     transform="matrix(0.03194001,0,0,0.03185882,18.293457,-9.1395699)"
     style="stroke-width:16.5886144;stroke-miterlimit:4;stroke-dasharray:none;stroke:#0066b3;stroke-opacity:1;fill:none">
    <path
       style="fill:none;stroke:#0066b3;stroke-width:16.5886144;stroke-linecap:round;stroke-linejoin:round;stroke-miterlimit:4;stroke-dasharray:none;stroke-opacity:1"
       d="m -212.54712,523.26716 c 0.0299,-41.65962 0.0597,-83.21878 0.0873,-105.91972 0.0277,-22.70095 0.0529,-26.32791 -0.43031,-30.60524 -0.48323,-4.27734 -1.47106,-9.15456 -3.64835,-14.91861 -2.17729,-5.76405 -5.53312,-12.36875 -13.24917,-18.23071 -7.71606,-5.86196 -19.79456,-10.98583 -30.3706,-14.53504 -10.57605,-3.54921 -19.64902,-5.52351 -31.76477,-7.62497 -12.11574,-2.10146 -27.27345,-4.32993 -41.18946,-5.66264 -13.91601,-1.33271 -26.58947,-1.76956 -37.29724,-1.82546 -10.70776,-0.0559 -19.44917,0.26915 -29.75912,0.94911 -10.30995,0.67996 -22.18773,1.71477 -33.52581,3.09518 -11.33808,1.38041 -22.1358,3.10635 -31.3878,5.02457 -9.252,1.91823 -16.95772,4.02864 -24.88686,6.57945 -7.92914,2.5508 -16.08117,5.54184 -22.34209,8.63595 -6.26093,3.0941 -10.63028,6.29106 -13.85058,9.31913 -3.22029,3.02807 -5.29127,5.88699 -6.73887,9.53749 -1.4476,3.65049 -2.27176,8.09216 -2.69335,12.98823 -0.42158,4.89606 -0.44062,10.24614 -0.45013,46.33036 -0.01,36.08422 -0.01,102.89979 0.0809,136.9216 0.0904,34.0218 0.27125,35.24841 1.16384,37.65365 0.89259,2.40524 2.4968,5.98891 3.89616,8.49839 1.39937,2.50947 2.59369,3.94463 4.82981,5.80212 2.23612,1.8575 5.51381,4.13729 9.14418,6.19198 3.63036,2.05469 7.61315,3.88424 14.02852,6.39586 6.41537,2.51162 15.26287,5.70519 24.90295,8.44669 9.64008,2.7415 20.07215,5.03083 30.34608,6.63364 10.27393,1.6028 20.38914,2.51905 30.26232,3.38473 9.87317,0.86569 19.50372,1.68078 29.91098,1.98028 10.40726,0.2995 21.59065,0.0834 33.56975,-0.5855 11.97909,-0.66893 24.76303,-1.79153 37.53117,-2.91274"
       id="path1935"
       sodipodi:nodetypes="cccccccccccccccccccccccccccccc"
       inkscape:original-d="m -212.54712,523.26716 c 0,0 0.0679,-83.21877 0.0896,-124.97887 0.0337,-3.64174 0.059,-7.2687 0.0761,-10.92597 -0.98559,-4.89874 -1.97342,-9.77597 -2.97592,-14.693 -3.35519,-6.61142 -6.71102,-13.21612 -10.06769,-19.81446 -12.07872,-5.12381 -24.15722,-10.24768 -36.23624,-15.37192 -9.07306,-1.97411 -18.14604,-3.9484 -27.21945,-5.92301 -15.15806,-2.2283 -30.31577,-4.45675 -45.47407,-6.68555 -12.6737,-0.43661 -25.34716,-0.87347 -38.02115,-1.31058 -8.74152,0.32533 -17.48293,0.65039 -26.22482,0.9752 -11.87799,1.03513 -23.75577,2.06994 -35.63405,3.10451 -10.79786,1.72625 -21.59558,3.45221 -32.39379,5.1779 -7.70575,2.11076 -15.41147,4.22119 -23.11762,6.33137 -8.1521,2.99143 -16.30413,5.98247 -24.4566,8.97329 -4.36928,3.19736 -8.73863,6.39432 -13.10836,9.59109 -2.07079,2.85928 -4.14176,5.71821 -6.21302,8.5769 -0.82394,4.44214 -1.64809,8.88381 -2.47254,13.32531 -0.0188,5.35057 -0.0378,10.70065 -0.0571,16.05058 2.7e-4,66.81851 2.7e-4,133.63408 0,200.45074 0.18108,1.22692 0.3619,2.45353 0.54245,3.6799 1.60454,3.58408 3.20876,7.16775 4.81272,10.75124 1.19465,1.4355 2.38898,2.87065 3.58307,4.30559 3.27808,2.28013 6.55576,4.55994 9.83326,6.83948 3.98323,1.82989 7.96602,3.65943 11.94864,5.48876 8.84812,3.19394 17.69562,6.38751 26.54303,9.58088 10.43275,2.2897 20.86482,4.57903 31.29684,6.86813 10.11587,0.91654 20.23108,1.83279 30.34623,2.74878 9.6312,0.81539 19.26175,1.63047 28.89223,2.44531 11.18407,-0.21582 22.36746,-0.43188 33.55081,-0.64821 12.77562,-1.11284 25.55956,-2.23543 38.32691,-3.36561"
       inkscape:path-effect="#path-effect1937" />
    <path
       style="fill:none;stroke:#0066b3;stroke-width:16.5886144;stroke-linecap:round;stroke-linejoin:round;stroke-miterlimit:4;stroke-dasharray:none;stroke-opacity:1"
       d="m -213.61846,381.03266 c -4.90082,5.61828 -9.80038,11.23512 -20.55154,16.30318 -10.75115,5.06806 -27.33564,9.5803 -40.95067,12.55573 -13.61504,2.97544 -24.22994,4.40566 -37.32473,5.79182 -13.09478,1.38616 -28.66797,2.72808 -36.45485,3.39906 -7.78687,0.67099 -48.77194,0.67099 -56.23293,0.17357 -7.46099,-0.49742 -22.38234,-1.49222 -34.0158,-2.71123 -11.63345,-1.21901 -19.97768,-2.66213 -28.54738,-4.51952 -8.56969,-1.85738 -17.3639,-4.12884 -25.87179,-6.32963 -8.50788,-2.20078 -16.72844,-4.33063 -23.5823,-8.95635 -6.85386,-4.62572 -12.34023,-11.74713 -17.82693,-18.86896"
       id="path1939-1"
       inkscape:path-effect="#path-effect1941-9"
       inkscape:original-d="m -213.61846,381.03266 c -4.892,5.62597 -9.79156,11.24281 -14.70233,16.85469 -16.59769,4.52638 -33.18217,9.03862 -49.80053,13.54951 -10.61314,1.4394 -21.22804,2.86962 -31.84528,4.29073 -15.57356,1.34224 -31.14675,2.68415 -46.72052,4.02585 h -40.98507 c -14.922,-0.99459 -29.84335,-1.98939 -44.76584,-2.98451 -8.34444,-1.44294 -16.68867,-2.88606 -25.03363,-4.32953 -8.79444,-2.27133 -17.58865,-4.54279 -26.38364,-6.81465 -8.22078,-2.12971 -16.44134,-4.25955 -24.66265,-6.38979 -5.48632,-7.12142 -10.97269,-14.24283 -16.45943,-21.36463"
       sodipodi:nodetypes="ccccccccccc" />
    <path
       style="fill:none;stroke:#0066b3;stroke-width:16.5886144;stroke-linecap:round;stroke-linejoin:round;stroke-miterlimit:4;stroke-dasharray:none;stroke-opacity:1"
       d="m -212.17882,467.16992 c -4.9008,5.61825 -9.80147,11.23636 -16.00868,15.31517 -6.20722,4.07881 -13.72292,6.61882 -21.24124,9.15971 m -89.64843,14.93459 c -19.63896,0.25655 -39.25813,0.51284 -56.5485,0.14383 -17.29037,-0.36902 -32.21172,-1.36382 -43.84518,-2.58283 -11.63345,-1.21901 -19.97768,-2.66213 -28.54738,-4.51952 -8.56969,-1.85738 -17.3639,-4.12884 -25.87179,-6.32963 -8.50788,-2.20078 -16.72844,-4.33063 -23.5823,-8.95635 -6.85386,-4.62572 -12.34023,-11.74713 -17.82693,-18.86896"
       id="path1939-1-7"
       inkscape:path-effect="#path-effect1941-9-2"
       inkscape:original-d="m -212.17882,467.16992 c -4.90051,5.6185 -9.80118,11.23661 -14.70233,16.85469 -7.5102,2.54925 -15.0259,5.08926 -22.54759,7.62019 m -89.64843,14.93459 c 0,0 -39.25802,0.52125 -58.91689,0.76965 -14.922,-0.99459 -29.84335,-1.98939 -44.76584,-2.98451 -8.34444,-1.44294 -16.68867,-2.88606 -25.03363,-4.32953 -8.79444,-2.27133 -17.58865,-4.54279 -26.38364,-6.81465 -8.22078,-2.12971 -16.44134,-4.25955 -24.66265,-6.38979 -5.48632,-7.12142 -10.97269,-14.24283 -16.45943,-21.36463"
       sodipodi:nodetypes="cccccccccc" />
    <path
       style="fill:none;stroke:#0066b3;stroke-width:16.5886144;stroke-linecap:round;stroke-linejoin:round;stroke-miterlimit:4;stroke-dasharray:none;stroke-opacity:1"
       d="m -368.57715,581.30834 c -24.64369,-0.99484 -49.29238,-1.98988 -65.78393,-3.20877 -16.49154,-1.21889 -24.83577,-2.66201 -33.40547,-4.5194 -8.56969,-1.85738 -17.3639,-4.12884 -25.87179,-6.32963 -8.50788,-2.20078 -16.72844,-4.33063 -23.5823,-8.95635 -6.85386,-4.62572 -12.34023,-11.74713 -17.82693,-18.86896"
       id="path1939-1-9"
       inkscape:path-effect="#path-effect1941-9-0"
       inkscape:original-d="m -368.57715,581.30834 c 0,0 -49.2927,-1.98192 -73.93107,-2.98451 -8.34444,-1.44294 -16.68867,-2.88606 -25.03363,-4.32953 -8.79444,-2.27133 -17.58865,-4.54279 -26.38364,-6.81465 -8.22078,-2.12971 -16.44134,-4.25955 -24.66265,-6.38979 -5.48632,-7.12142 -10.97269,-14.24283 -16.45943,-21.36463"
       sodipodi:nodetypes="cccccc" />
  </g>
  <g
     id="g3757"
     transform="matrix(0.78323411,0,0,0.78323411,2.078337,2.0807104)">
    <g
       stroke="#0066b3"
       stroke-linecap="round"
       stroke-width="2"
       id="g839"
       transform="matrix(0.26458333,0,0,0.26458333,2.6207847,3.3127632)">
      <g
         id="g2200">
        <g
           id="g2441"
           transform="matrix(0.75186118,0,0,1.0067212,6.606919,-2.2311906)">
          <g
             id="g2280">
            <path
               d="M 24,27.935091 11.937752,20.064909"
               id="path835" />
            <path
               d="M 24,27.935091 36.062248,20.064909"
               id="path837" />
          </g>
        </g>
      </g>
    </g>
  </g>
  <ellipse
     style="fill:none;fill-opacity:0.65;stroke:#0066b3;stroke-width:0.52916667;stroke-linecap:round;stroke-linejoin:round;stroke-miterlimit:4;stroke-dasharray:none"
     id="path2136"
     cx="9.2648201"
     cy="8.9305096"
     rx="2.6023903"
     ry="2.6113002" />
</svg>
