<?xml version="1.0" encoding="UTF-8" standalone="no"?>
<svg
   fill-rule="evenodd"
   height="48"
   preserveAspectRatio="xMidYMid"
   stroke-linejoin="round"
   stroke-width="28.222"
   viewBox="0 0 12.7 12.7"
   width="48"
   version="1.1"
   id="svg53"
   sodipodi:docname="databaseunconnected.svg"
   inkscape:version="1.2.2 (b0a8486541, 2022-12-01)"
   xmlns:inkscape="http://www.inkscape.org/namespaces/inkscape"
   xmlns:sodipodi="http://sodipodi.sourceforge.net/DTD/sodipodi-0.dtd"
   xmlns="http://www.w3.org/2000/svg"
   xmlns:svg="http://www.w3.org/2000/svg">
  <defs
     id="defs57">
    <inkscape:path-effect
       effect="bspline"
       id="path-effect1937"
       is_visible="true"
       lpeversion="1"
       weight="33.333333"
       steps="2"
       helper_size="0"
       apply_no_weight="true"
       apply_with_weight="true"
       only_selected="false" />
    <inkscape:path-effect
       effect="bspline"
       id="path-effect1941-9"
       is_visible="true"
       lpeversion="1"
       weight="33.333333"
       steps="2"
       helper_size="0"
       apply_no_weight="true"
       apply_with_weight="true"
       only_selected="false" />
    <inkscape:path-effect
       effect="bspline"
       id="path-effect1941-9-2"
       is_visible="true"
       lpeversion="1"
       weight="33.333333"
       steps="2"
       helper_size="0"
       apply_no_weight="true"
       apply_with_weight="true"
       only_selected="false" />
    <inkscape:path-effect
       effect="bspline"
       id="path-effect1941-9-0"
       is_visible="true"
       lpeversion="1"
       weight="33.333333"
       steps="2"
       helper_size="0"
       apply_no_weight="true"
       apply_with_weight="true"
       only_selected="false" />
  </defs>
  <sodipodi:namedview
     id="namedview55"
     pagecolor="#ffffff"
     bordercolor="#666666"
     borderopacity="1.0"
     inkscape:pageshadow="2"
     inkscape:pageopacity="0.0"
     inkscape:pagecheckerboard="0"
     inkscape:document-units="mm"
     showgrid="false"
     inkscape:zoom="11.313708"
     inkscape:cx="14.274719"
     inkscape:cy="28.107496"
     inkscape:window-width="1920"
     inkscape:window-height="1015"
     inkscape:window-x="1366"
     inkscape:window-y="37"
     inkscape:window-maximized="1"
     inkscape:current-layer="svg53"
     units="px"
     width="48px"
     inkscape:showpageshadow="2"
     inkscape:deskcolor="#d1d1d1" />
  <clipPath
     id="a">
    <path
       d="M 0,0 H 9031 V 9031 H 0 Z"
       id="path2" />
  </clipPath>
  <mask
     id="b">
    <path
       d="M 979,979 H 8053 V 8053 H 979 Z"
       fill="url(#c)"
       id="path5" />
  </mask>
  <linearGradient
     id="c"
     gradientUnits="userSpaceOnUse"
     x1="4516"
     x2="4516"
     y1="979"
     y2="8053">
    <stop
       offset=".5"
       stop-color="#050505"
       id="stop8" />
    <stop
       offset="1"
       stop-color="#050505"
       id="stop10" />
  </linearGradient>
  <path
     style="fill:none;stroke:#0066b3;stroke-width:0.529166;stroke-linecap:round;stroke-linejoin:round;stroke-miterlimit:4;stroke-dasharray:none;stroke-opacity:1"
     d="m 11.5047,7.5311044 c 9.67e-4,-1.3272265 0.0019,-2.6512521 0.0028,-3.3744775 8.85e-4,-0.7232255 0.0017,-0.8387762 -0.01376,-0.9750468 C 11.478318,3.0453095 11.446767,2.8899269 11.377223,2.70629 11.307678,2.5226531 11.20049,2.3122362 10.954038,2.1254816 10.707587,1.938727 10.321799,1.7754864 9.984,1.6624128 9.6462012,1.5493392 9.3564101,1.4864403 8.9694332,1.4194903 8.5824563,1.3525403 8.098319,1.2815439 7.6538414,1.2390853 7.2093639,1.1966267 6.8045734,1.1827091 6.4625673,1.1809281 6.1205612,1.1791471 5.8413605,1.1895031 5.5120606,1.2111658 5.1827608,1.2328284 4.8033844,1.2657964 4.441246,1.3097746 4.0791076,1.3537528 3.7342282,1.4087391 3.4387193,1.4698514 3.1432104,1.5309638 2.8970895,1.5981992 2.6438327,1.6794649 2.3905759,1.7607305 2.1301999,1.8560213 1.930226,1.9545959 1.730252,2.0531705 1.5906949,2.1550217 1.4878386,2.2514925 1.3849823,2.3479632 1.3188353,2.4390452 1.2725989,2.5553457 1.2263625,2.6716463 1.2000388,2.8131525 1.1865739,2.9691353 1.173109,3.1251181 1.1725023,3.2955654 1.172199,4.445166 c -3.033e-4,1.1496007 -3.033e-4,3.2782659 0.00259,4.3621601 0.00289,1.0838943 0.00866,1.1229738 0.037173,1.1996019 0.02851,0.07663 0.079748,0.190799 0.1244426,0.270747 0.044695,0.07995 0.082845,0.125675 0.1542654,0.184851 0.07142,0.05918 0.1761105,0.131808 0.292065,0.197268 0.1159544,0.06546 0.2431639,0.123747 0.4480708,0.203765 0.2049069,0.08002 0.4874963,0.18176 0.7954008,0.269101 0.3079045,0.08734 0.6411042,0.160276 0.9692538,0.211339 0.3281496,0.05106 0.6512295,0.08025 0.9665788,0.107833 0.3153492,0.02758 0.6229483,0.05355 0.955357,0.06309 0.3324086,0.0095 0.6896058,0.0027 1.072218,-0.01865 0.3826123,-0.02131 0.7909319,-0.05708 1.1987461,-0.0928"
     id="path1935"
     sodipodi:nodetypes="cccccccccccccccccccccccccccccc"
     inkscape:original-d="m 11.5047,7.5311044 c 0,0 0.0022,-2.6512519 0.0029,-3.9816794 C 11.5087,3.4334035 11.5095,3.3178528 11.51,3.2013365 11.47852,3.0452685 11.44697,2.8898857 11.41495,2.7332349 11.307777,2.5226028 11.200591,2.3121849 11.093379,2.1019696 10.707585,1.938731 10.321797,1.7754906 9.9359934,1.6122383 9.6461998,1.5493455 9.3564087,1.486447 9.0666039,1.4235382 8.5824553,1.3525472 8.0983179,1.2815514 7.6141617,1.2105445 7.2093636,1.1966346 6.8045731,1.1827168 6.3997658,1.168791 6.1205615,1.1791556 5.8413608,1.1895116 5.5621447,1.1998597 5.1827616,1.2328377 4.8033852,1.2658055 4.4239928,1.2987657 4.0791091,1.353762 3.7342298,1.408749 3.3893348,1.4637275 3.1432131,1.5309738 2.8970923,1.5982096 2.6509578,1.6654375 2.3905797,1.7607409 2.1302038,1.8560319 1.8698138,1.9513159 1.7302589,2.05318 1.5907019,2.1550314 1.4511326,2.2568767 1.3849916,2.34797 1.3188448,2.4390521 1.2526887,2.5301266 c -0.026317,0.1415214 -0.05264,0.2830277 -0.078973,0.4245287 -6.005e-4,0.1704628 -0.00121,0.3409101 -0.00182,0.5113525 8.6e-6,2.1287589 8.6e-6,4.2574241 0,6.3861241 0.00578,0.039088 0.011559,0.078167 0.017326,0.1172372 0.051249,0.1141849 0.1024879,0.2283559 0.1537184,0.3425219 0.038157,0.04573 0.076304,0.09146 0.1144433,0.137171 0.1047019,0.07264 0.209391,0.145274 0.3140744,0.217898 0.1272244,0.0583 0.2544347,0.116585 0.3816397,0.174865 0.282609,0.101755 0.5651982,0.203499 0.8477846,0.305236 0.3332222,0.07295 0.6664226,0.145882 0.9996214,0.21881 0.323101,0.0292 0.6461809,0.05839 0.9692589,0.08757 0.3076206,0.02598 0.6152205,0.05194 0.9228181,0.07791 0.3572193,-0.0069 0.7144169,-0.01376 1.0716132,-0.02065 0.4080534,-0.03545 0.8163726,-0.07122 1.2241619,-0.107225"
     inkscape:path-effect="#path-effect1937" />
  <path
     style="fill:none;stroke:#0066b3;stroke-width:0.529166;stroke-linecap:round;stroke-linejoin:round;stroke-miterlimit:4;stroke-dasharray:none;stroke-opacity:0.60000002"
     d="M 11.470481,2.999681 C 11.31395,3.1786719 11.157458,3.3576178 10.814065,3.5190807 10.470673,3.6805437 9.9409648,3.824298 9.5061003,3.9190919 9.0712359,4.0138858 8.7321958,4.0594509 8.313948,4.1036123 7.8957002,4.1477737 7.3982925,4.1905258 7.1495796,4.2119026 6.9008668,4.2332794 5.5918033,4.2332794 5.3534991,4.2174322 5.1151949,4.201585 4.6386069,4.1698919 4.2670343,4.1310556 3.8954616,4.0922193 3.6289468,4.0462431 3.3552306,3.9870691 3.0815145,3.9278951 2.8006273,3.8555289 2.5288854,3.7854145 2.2571435,3.7153002 1.9945788,3.6474458 1.7756665,3.5000758 1.5567542,3.3527058 1.3815194,3.1258261 1.2062741,2.8989329"
     id="path1939-1"
     inkscape:path-effect="#path-effect1941-9"
     inkscape:original-d="M 11.470481,2.999681 C 11.314231,3.1789178 11.157739,3.3578637 11.000889,3.5366516 10.470758,3.6808567 9.9410498,3.8246113 9.4102593,3.968323 9.0712755,4.0141805 8.7322354,4.0597457 8.3931207,4.1050206 7.895701,4.1477827 7.3982932,4.1905344 6.9008668,4.2332794 H 5.5918033 C 5.1151944,4.2015929 4.6386064,4.1698998 4.1619819,4.1381964 3.8954604,4.0922261 3.6289456,4.04625 3.3624075,4.0002627 3.081513,3.9279008 2.8006258,3.8555348 2.5197138,3.783156 2.257142,3.715306 1.9945772,3.6474518 1.7319885,3.5795848 1.5567554,3.3527048 1.3815207,3.1258251 1.2062741,2.8989329"
     sodipodi:nodetypes="ccccccccccc" />
  <path
     style="fill:none;stroke:#0066b3;stroke-width:0.529166;stroke-linecap:round;stroke-linejoin:round;stroke-miterlimit:4;stroke-dasharray:none;stroke-opacity:0.60000002"
     d="m 11.516463,5.7439125 c -0.156531,0.1789908 -0.313058,0.3579769 -0.511317,0.487923 -0.198258,0.1299461 -0.43831,0.210868 -0.678445,0.2918178 M 7.4633288,6.9994517 C 6.8360601,7.007625 6.2094237,7.0157901 5.6571691,7.0040337 5.1049144,6.9922774 4.6283263,6.9605844 4.2567537,6.9217481 3.8851811,6.8829118 3.6186663,6.8369356 3.3449501,6.7777616 3.071234,6.7185876 2.7903468,6.6462214 2.5186049,6.5761071 2.246863,6.5059927 1.9842982,6.4381383 1.7653859,6.2907682 1.5464736,6.1433981 1.3712388,5.9165185 1.1959936,5.6896254"
     id="path1939-1-7"
     inkscape:path-effect="#path-effect1941-9-2"
     inkscape:original-d="M 11.516463,5.7439125 C 11.359941,5.9229113 11.203414,6.1018976 11.046871,6.280883 10.806995,6.362099 10.566943,6.4430208 10.326701,6.5236533 M 7.4633288,6.9994517 c 0,0 -1.2539016,0.016606 -1.8818061,0.02452 C 5.1049139,6.9922854 4.6283258,6.9605922 4.1517014,6.9288889 3.8851799,6.8829185 3.6186651,6.8369424 3.352127,6.7909552 3.0712325,6.7185933 2.7903453,6.6462272 2.5094332,6.5738485 2.2468615,6.5059984 1.9842967,6.4381442 1.721708,6.3702773 1.5464748,6.1433972 1.3712401,5.9165175 1.1959936,5.6896254"
     sodipodi:nodetypes="cccccccccc" />
  <path
     style="fill:none;stroke:#0066b3;stroke-width:0.529166;stroke-linecap:round;stroke-linejoin:round;stroke-miterlimit:4;stroke-dasharray:none;stroke-opacity:0.60000002"
     d="M 6.5210991,9.3802279 C 5.7339794,9.3485336 4.9467,9.3168328 4.4199598,9.2780003 3.8932197,9.2391678 3.6267049,9.1931916 3.3529887,9.1340176 3.0792726,9.0748436 2.7983855,9.0024774 2.5266435,8.9323631 2.2549016,8.8622487 1.9923368,8.7943943 1.7734246,8.6470243 1.5545123,8.4996542 1.3792775,8.2727746 1.2040323,8.0458814"
     id="path1939-1-9"
     inkscape:path-effect="#path-effect1941-9-0"
     inkscape:original-d="m 6.5210991,9.3802279 c 0,0 -1.5744093,-0.063142 -2.3613591,-0.095083 C 3.8932185,9.2391745 3.6267037,9.1931984 3.3601656,9.1472112 3.0792711,9.0748493 2.798384,9.0024833 2.5174719,8.9301045 2.2549001,8.8622544 1.9923353,8.7944002 1.7297466,8.7265333 1.5545135,8.4996533 1.3792788,8.2727736 1.2040323,8.0458814"
     sodipodi:nodetypes="cccccc" />
  <ellipse
     style="fill:#0066b3;fill-opacity:0.30000001;stroke:#0066b3;stroke-width:0.52916667;stroke-linecap:round;stroke-linejoin:round;stroke-miterlimit:4;stroke-dasharray:none;stroke-opacity:1"
     id="path2136"
     cx="9.2648201"
     cy="8.9305096"
     rx="2.6023903"
     ry="2.6113002" />
</svg>
