<?xml version="1.0" encoding="UTF-8" standalone="no"?>
<svg
   width="48"
   height="48"
   version="1"
   id="svg14"
   sodipodi:docname="key.svg"
   inkscape:version="1.1.1 (3bf5ae0d25, 2021-09-20)"
   xmlns:inkscape="http://www.inkscape.org/namespaces/inkscape"
   xmlns:sodipodi="http://sodipodi.sourceforge.net/DTD/sodipodi-0.dtd"
   xmlns="http://www.w3.org/2000/svg"
   xmlns:svg="http://www.w3.org/2000/svg"
   xmlns:rdf="http://www.w3.org/1999/02/22-rdf-syntax-ns#"
   xmlns:cc="http://creativecommons.org/ns#"
   xmlns:dc="http://purl.org/dc/elements/1.1/">
  <metadata
     id="metadata20">
    <rdf:RDF>
      <cc:Work
         rdf:about="">
        <dc:format>image/svg+xml</dc:format>
        <dc:type
           rdf:resource="http://purl.org/dc/dcmitype/StillImage" />
      </cc:Work>
    </rdf:RDF>
  </metadata>
  <defs
     id="defs18" />
  <sodipodi:namedview
     pagecolor="#ffffff"
     bordercolor="#666666"
     borderopacity="1"
     objecttolerance="10"
     gridtolerance="10"
     guidetolerance="10"
     inkscape:pageopacity="0"
     inkscape:pageshadow="2"
     inkscape:window-width="1920"
     inkscape:window-height="1032"
     id="namedview16"
     showgrid="false"
     inkscape:zoom="4.369792"
     inkscape:cx="15.561381"
     inkscape:cy="23.685338"
     inkscape:window-x="1366"
     inkscape:window-y="24"
     inkscape:window-maximized="1"
     inkscape:current-layer="g59"
     inkscape:document-rotation="0"
     inkscape:pagecheckerboard="0" />
  <g
     id="g59"
     transform="matrix(0.72738936,0,0,0.95836622,14.163385,2.1077391)">
    <path
       id="path4196"
       d="m -10.880762,22.925751 c -3.122526,2.403898 -4.927738,5.805599 -4.821261,9.243577 0.0078,6.019691 5.886977,11.675402 13.4536649,13.442118 6.7112299,1.700364 14.5006671,-0.08566 18.6700831,-4.293263 3.788172,-3.660543 4.221795,-8.843508 1.862087,-13.16426 l 4.850829,-0.997663 c 1.465705,-0.257647 1.264991,-1.178094 0.438314,-1.80537 l -3.363266,-2.46331 3.586791,-2.599947 4.626457,-0.106398 -0.03896,-4.739353 5.543047,-0.0984 2.097709,-1.592352 -0.0047,-4.4143541 3.88119,-0.2470181 2.564218,-2.1171538 0.09028,-3.4568431 0.196875,-3.64630429 C 40.916042,-0.88083569 38.83431,-0.62657991 35.640848,0.31689726 L 13.070302,17.722366 10.416485,15.917201 C 9.5078995,15.243951 8.0515296,15.776066 7.8157252,16.664199 l -0.468998,3.531438 c -4.2711794,-1.19572 -9.0812252,-1.213465 -13.2137827,0.151438 -1.9065575,0.591689 -3.5942746,1.485908 -5.0136595,2.578607 z"
       sodipodi:nodetypes="scccccccccccccccccccccccs"
       style="fill:none;stroke:#0066b3;stroke-width:2.39556;stroke-linecap:round;stroke-linejoin:round;stroke-miterlimit:4;stroke-dasharray:none;stroke-dashoffset:3.003;stroke-opacity:1"
       inkscape:connector-curvature="0" />
    <path
       id="path4192"
       style="fill:none;stroke:#0066b3;stroke-width:1.79656129;stroke-linecap:round;stroke-linejoin:round;stroke-dashoffset:3.003;stroke-miterlimit:4;stroke-dasharray:none;stroke-opacity:1"
       inkscape:connector-curvature="0"
       d="m -1.0739384,34.526228 c 1.35934951,0.980051 1.57498641,2.770832 0.35988512,3.930004 -0.95774172,0.951841 -2.70169622,1.38309 -4.17677302,1.036416 -1.6642181,-0.357469 -2.9230031,-1.585472 -2.8772592,-2.920237 0.00499,-1.108226 0.9072928,-2.216493 2.2752732,-2.663983 1.4084971,-0.488188 3.1420792,-0.280503 4.2501582,0.49676 0.058184,0.03893 0.1137825,0.07982 0.1685871,0.121414 z" />
  </g>
</svg>
