<?xml version="1.0" encoding="UTF-8" standalone="no"?>
<svg
   viewBox="0 0 48 48"
   version="1.1"
   id="svg10"
   sodipodi:docname="variety.svg"
   inkscape:version="1.1.2 (0a00cf5339, 2022-02-04, custom)"
   xmlns:inkscape="http://www.inkscape.org/namespaces/inkscape"
   xmlns:sodipodi="http://sodipodi.sourceforge.net/DTD/sodipodi-0.dtd"
   xmlns="http://www.w3.org/2000/svg"
   xmlns:svg="http://www.w3.org/2000/svg"
   xmlns:rdf="http://www.w3.org/1999/02/22-rdf-syntax-ns#"
   xmlns:cc="http://creativecommons.org/ns#"
   xmlns:dc="http://purl.org/dc/elements/1.1/">
  <metadata
     id="metadata16">
    <rdf:RDF>
      <cc:Work
         rdf:about="">
        <dc:format>image/svg+xml</dc:format>
        <dc:type
           rdf:resource="http://purl.org/dc/dcmitype/StillImage" />
      </cc:Work>
    </rdf:RDF>
  </metadata>
  <defs
     id="defs14">
    <inkscape:path-effect
       effect="bspline"
       id="path-effect844"
       is_visible="true"
       lpeversion="1"
       weight="33.333333"
       steps="2"
       helper_size="0"
       apply_no_weight="true"
       apply_with_weight="true"
       only_selected="false" />
    <inkscape:path-effect
       effect="spiro"
       id="path-effect865"
       is_visible="true"
       lpeversion="1" />
    <inkscape:path-effect
       effect="bspline"
       id="path-effect912"
       is_visible="true"
       lpeversion="1"
       weight="33.333333"
       steps="2"
       helper_size="0"
       apply_no_weight="true"
       apply_with_weight="true"
       only_selected="false" />
    <inkscape:path-effect
       effect="spiro"
       id="path-effect884"
       is_visible="true"
       lpeversion="1" />
    <inkscape:path-effect
       effect="bspline"
       id="path-effect882"
       is_visible="true"
       lpeversion="1"
       weight="33.333333"
       steps="2"
       helper_size="0"
       apply_no_weight="true"
       apply_with_weight="true"
       only_selected="false" />
    <inkscape:perspective
       sodipodi:type="inkscape:persp3d"
       inkscape:vp_x="0 : 24 : 1"
       inkscape:vp_y="0 : 1000 : 0"
       inkscape:vp_z="48 : 24 : 1"
       inkscape:persp3d-origin="24 : 16 : 1"
       id="perspective839" />
    <inkscape:path-effect
       effect="bspline"
       id="path-effect843"
       is_visible="true"
       lpeversion="1"
       weight="33.333333"
       steps="2"
       helper_size="0"
       apply_no_weight="true"
       apply_with_weight="true"
       only_selected="false" />
    <inkscape:path-effect
       effect="spiro"
       id="path-effect847"
       is_visible="true"
       lpeversion="1" />
  </defs>
  <sodipodi:namedview
     pagecolor="#ffffff"
     bordercolor="#666666"
     borderopacity="1"
     objecttolerance="10"
     gridtolerance="10"
     guidetolerance="10"
     inkscape:pageopacity="0"
     inkscape:pageshadow="2"
     inkscape:window-width="1920"
     inkscape:window-height="1021"
     id="namedview12"
     showgrid="false"
     inkscape:zoom="11.313709"
     inkscape:cx="21.655144"
     inkscape:cy="20.285125"
     inkscape:window-x="1366"
     inkscape:window-y="35"
     inkscape:window-maximized="1"
     inkscape:current-layer="svg10"
     inkscape:document-rotation="0"
     inkscape:pagecheckerboard="0" />
  <rect
     style="opacity:0.999;fill:none;fill-rule:evenodd;stroke:none;stroke-width:1.07076;stroke-linecap:round;stroke-linejoin:round;stroke-miterlimit:8;stroke-dasharray:none"
     id="rect847"
     width="46.929237"
     height="46.929237"
     x="0.53538233"
     y="0.53538233"
     ry="3.127449" />
  <path
     class="fil0"
     d="m 22.275089,33.477185 c -0.604623,0.29652 -5.64732,2.663934 -6.720348,-0.339925 l -0.0011,4.97e-4 c -0.119422,-0.3353 -0.01299,-0.696224 0.240447,-0.91639 l 0.385725,-0.412056 C 13.883362,31.076187 9.301879,29.269085 7.6669565,26.125217 l -4.962e-4,2.43e-4 c -0.2085727,-0.401076 -0.061764,-0.892908 0.3265896,-1.115903 0.2585541,-0.1578 2.9197741,-1.761175 5.4059541,-2.427319 -0.783918,-2.191624 -2.482516,-7.724477 -0.903054,-10.774634 0,0 0.436667,-0.453387 0.737864,-0.45621 0.51997,-0.03021 3.473066,-0.01734 6.839643,3.76969 0.595786,-2.284526 6.898059,-10.5723432 6.898059,-10.5723432 0.341878,-0.3136604 0.873377,-0.2907739 1.187033,0.0511 0.04308,0.046951 0.07971,0.097461 0.110172,0.1505197 0.423628,0.6236909 4.105804,6.2137835 3.784272,11.6693105 2.242037,-1.130512 6.366845,-2.781388 7.902375,-0.565611 l 0.0021,-0.0015 c 0.155635,0.224819 0.186453,0.49891 0.107501,0.740195 -0.150145,0.546072 -1.670408,5.910012 -4.311558,9.081487 1.67687,1.044532 5.105971,3.394197 5.105971,5.143473 0,0.319822 -0.178736,0.597887 -0.441756,0.739851 -0.499159,0.318027 -3.761582,2.262477 -9.019989,2.328675 0.466979,0.985512 0.349701,1.628588 -0.173584,2.025948 -0.997791,0.757556 -3.636534,-0.343156 -5.987107,-1.323738 -1.480818,-0.617767 -2.605443,-1.365557 -2.713936,-1.272837 l 0.0021,0.0032 c -0.07559,0.06937 -0.160534,0.122145 -0.250276,0.15877 z"
     id="path7"
     style="clip-rule:evenodd;fill:none;fill-opacity:0.780392;fill-rule:nonzero;stroke:#0066b3;stroke-width:1;stroke-linecap:round;stroke-linejoin:round;stroke-miterlimit:4;stroke-dasharray:none;stroke-opacity:1;image-rendering:optimizeQuality;shape-rendering:geometricPrecision;text-rendering:geometricPrecision"
     sodipodi:nodetypes="cccccccccccccsccccccscccccccc" />
  <path
     style="fill:none;stroke:#0066b3;stroke-width:1;stroke-linecap:round;stroke-linejoin:miter;stroke-opacity:1;stroke-miterlimit:4;stroke-dasharray:none"
     d="m 22.52511,33.318814 -2.617988,8.675192"
     id="path3438"
     sodipodi:nodetypes="cc" />
</svg>
