999
GambasCAD
  0
SECTION
2
HEADER
9
$MENU
1
.
9
$DIMTM
40
0
9
$DIMTP
40
0
9
$SURFU
70
6
9
$SURFV
70
6
9
$XEDIT
290
1
9
$ANGDIR
70
0
9
$AUNITS
70
0
9
$AUPREC
70
0
9
$CLAYER
8
EQUPMENT
9
$DIMALT
70
0
9
$DIMASO
70
1
9
$DIMASZ
40
1
9
$DIMBLK
1
Oblique
9
$DIMCEN
40
0.100000001490116
9
$DIMDEC
70
2
9
$DIMDLE
40
0
9
$DIMDLI
40
0.001000000047497
9
$DIMEXE
40
0.000500000023749
9
$DIMEXO
40
9.99999974737875E-5
9
$DIMFXL
70
1
9
$DIMGAP
40
0
9
$DIMLIM
70
0
9
$DIMLWD
70
-2
9
$DIMLWE
70
-2
9
$DIMRND
40
0
9
$DIMSAH
70
0
9
$DIMSD1
70
0
9
$DIMSD2
70
0
9
$DIMSE1
70
0
9
$DIMSE2
70
0
9
$DIMSHO
70
1
9
$DIMTAD
70
1
9
$DIMTIH
70
0
9
$DIMTIX
70
0
9
$DIMTOH
70
0
9
$DIMTOL
70
0
9
$DIMTSZ
40
0
9
$DIMTVP
40
0
9
$DIMTXT
40
2
9
$DIMUPT
70
0
9
$DIMZIN
70
0
9
$DRAGVS
349
0
9
$EXTMAX
10
495.952941894531
20
389.241424560547
30
0
9
$EXTMIN
10
179.91340637207
20
181.775939941406
30
0
9
$LIMMAX
10
420
20
297
9
$LIMMIN
10
0
20
0
9
$LUNITS
70
2
9
$LUPREC
70
0
9
$PDMODE
70
0
9
$PDSIZE
40
0
9
$SKPOLY
70
0
9
$UCSORG
10
0
20
0
30
0
9
$USERI1
70
0
9
$USERI2
70
0
9
$USERI3
70
0
9
$USERI4
70
0
9
$USERI5
70
0
9
$USERR1
70
0
9
$USERR2
70
0
9
$USERR3
70
0
9
$USERR4
70
0
9
$USERR5
70
0
9
$ACADVER
1
AC1032
9
$ANGBASE
50
0
9
$ATTMODE
70
1
9
$CECOLOR
62
256
9
$CELTYPE
6
ByLayer
9
$CEPSNID
390
0
9
$CMLJUST
70
0
9
$CSHADOW
280
0
9
$DIMADEC
70
0
9
$DIMALTD
70
2
9
$DIMALTF
40
25.3999996185303
9
$DIMALTU
70
2
9
$DIMALTZ
70
0
9
$DIMAZIN
70
0
9
$DIMBLK1
1

9
$DIMBLK2
1

9
$DIMCLRD
70
10
9
$DIMCLRE
70
10
9
$DIMCLRT
70
9
9
$DIMDSEP
70
44
9
$DIMFRAC
40
0
9
$DIMJUST
70
0
9
$DIMLFAC
40
1
9
$DIMPOST
1

9
$DIMSOXD
70
0
9
$DIMTDEC
70
2
9
$DIMTFAC
40
1
9
$DIMTOFL
70
0
9
$DIMTOLJ
70
1
9
$DIMTZIN
70
0
9
$ENDCAPS
280
0
9
$HALOGAP
280
0
9
$INSBASE
10
0
20
0
30
0
9
$LTSCALE
40
1
9
$PEXTMAX
10
594
20
420
30
0
9
$PEXTMIN
10
0
20
0
30
0
9
$PLIMMAX
10
593.206237792969
20
419.206237792969
9
$PLIMMIN
10
-0.793749988079071
20
-0.793749988079071
9
$PUCSORG
10
0
20
0
30
0
9
$TDINDWG
40
0.259572356939316
9
$UCSBASE
2

9
$UCSNAME
2

9
$UCSXDIR
10
1
20
0
30
0
9
$UCSYDIR
10
0
20
1
30
0
9
$CHAMFERA
40
10
9
$CHAMFERB
40
10
9
$CHAMFERC
40
20
9
$CHAMFERD
40
0
9
$CMLSCALE
40
20
9
$CMLSTYLE
2
Standard
9
$DGNFRAME
70
2
9
$DIMALTTD
70
2
9
$DIMALTTZ
70
0
9
$DIMAPOST
1

9
$DIMASSOC
280
2
9
$DIMATFIT
70
2
9
$DIMAUNIT
70
0
9
$DIMFXLON
70
0
9
$DIMLTEX1
70
0
9
$DIMLTEX2
70
0
9
$DIMLTYPE
70
0
9
$DIMLUNIT
70
2
9
$DIMSCALE
40
1
9
$DIMSTYLE
2
standard
9
$DIMTFILL
70
0
9
$DIMTMOVE
70
0
9
$DIMTXSTY
7
Standard
9
$DISPSILH
70
0
9
$DWFFRAME
70
2
9
$EXTNAMES
290
1
9
$FILLMODE
70
1
9
$HANDSEED
5
40D9
9
$HIDETEXT
290
1
9
$INDEXCTL
280
0
9
$INSUNITS
70
4
9
$LATITUDE
70
37.795
9
$LIMCHECK
70
0
9
$LOFTANG1
70
1.5707963267949
9
$LOFTANG2
70
1.5707963267949
9
$LOFTMAG1
70
0
9
$LOFTMAG2
70
0
9
$MAXACTVP
70
64
9
$MIRRTEXT
70
1
9
$OBSCOLOR
70
257
9
$OBSLTYPE
280
0
9
$PINSBASE
10
0
20
0
30
0
9
$PLINEGEN
70
0
9
$PLINEWID
40
0
9
$PUCSBASE
2

9
$PUCSNAME
2

9
$PUCSXDIR
10
1
20
0
30
0
9
$PUCSYDIR
10
0
20
1
30
0
9
$SHADEDGE
70
3
9
$SHADEDIF
70
70
9
$SHOWHIST
70
1
9
$SORTENTS
280
127
9
$SPLFRAME
70
0
9
$STEPSIZE
70
6
9
$SURFTAB1
70
6
9
$SURFTAB2
70
6
9
$SURFTYPE
70
6
9
$TDCREATE
40
2459860.25
9
$TDUPDATE
40
2460328.5
9
$TEXTSIZE
40
50
9
$TILEMODE
70
1
9
$TIMEZONE
70
-8000
9
$TRACEWID
40
1
9
$UNITMODE
70
0
9
$USRTIMER
70
1
9
$CELTSCALE
40
1
9
$CELWEIGHT
370
-1
9
$CEPSNTYPE
380
0
9
$CMATERIAL
70
0
9
$DIMALTRND
40
0
9
$DIMARCSYM
70
0
9
$DIMJOGANG
70
0.785398163397448
9
$DIMLDRBLK
1
DotBlank
9
$ELEVATION
40
0
9
$ExportDXF
9
$FILLETRAD
40
0
9
$JOINSTYLE
280
0
9
$LOFTPARAM
70
7
9
$LONGITUDE
70
-122.394
9
$LWDISPLAY
290
0
9
$ORTHOMODE
70
0
9
$PLIMCHECK
70
0
9
$PSLTSCALE
70
1
9
$PSOLWIDTH
70
0.25
9
$PSVPSCALE
40
0
9
$QTEXTMODE
70
0
9
$REGENMODE
70
1
9
$SetValues
9
$SKETCHINC
40
1
9
$SOLIDHIST
70
0
9
$TDUCREATE
40
2459860.5
9
$TDUUPDATE
40
2460328.5
9
$TEXTSTYLE
7
romans
9
$THICKNESS
40
0
9
$TREEDEPTH
70
3020
9
$UCSORGTOP
10
0
20
0
30
0
9
$VISRETAIN
70
1
9
$WORLDVIEW
70
1
9
$LENSLENGTH
70
50
9
$OLESTARTUP
70
0
9
$PELEVATION
40
0
9
$PSOLHEIGHT
70
4
9
$PSTYLEMODE
290
1
9
$PUCSORGTOP
10
0
20
0
30
0
9
$SPLINESEGS
70
8
9
$SPLINETYPE
70
6
9
$STYLESHEET
70
0
9
$TDUSRTIMER
40
0.259571999311447
9
$UCSORGBACK
10
0
20
0
30
0
9
$UCSORGLEFT
10
0
20
0
30
0
9
$XCLIPFRAME
290
2
9
$DIMTFILLCLR
70
0
9
$DWGCODEPAGE
3
ANSI_1252
9
$LASTSAVEDBY
70
0
9
$LOFTNORMALS
70
1
9
$MEASUREMENT
70
1
9
$PROJECTNAME
1

9
$PUCSORGBACK
10
0
20
0
30
0
9
$PUCSORGLEFT
10
0
20
0
30
0
9
$STEPSPERSEC
70
2
9
$UCSORGFRONT
10
0
20
0
30
0
9
$UCSORGRIGHT
10
0
20
0
30
0
9
$UCSORTHOREF
2

9
$VERSIONGUID
2
{63C6730D-8149-47D6-B404-51CFE32F90A7}
9
$ACADMAINTVER
70
55
9
$CAMERAHEIGHT
70
0
9
$PUCSORGFRONT
10
0
20
0
30
0
9
$PUCSORGRIGHT
10
0
20
0
30
0
9
$PUCSORTHOREF
2

9
$UCSORGBOTTOM
10
0
20
0
30
0
9
$UCSORTHOVIEW
70
0
9
$CAMERADISPLAY
70
0
9
$HYPERLINKBASE
1

9
$INTERFEREVPVS
346
0
9
$PROXYGRAPHICS
70
1
9
$PUCSORGBOTTOM
10
0
20
0
30
0
9
$PUCSORTHOVIEW
70
0
9
$INTERFERECOLOR
62
256
9
$INTERFEREOBJVS
345
0
9
$NORTHDIRECTION
70
0
9
$REALWORLDSCALE
70
1
9
$DIMTXTDIRECTION
70
0
9
$FINGERPRINTGUID
2
{CB6401CE-DC19-482D-AF17-A6DC42739CB7}
9
$INTERSECTIONCOLOR
70
257
9
$LIGHTGLYPHDISPLAY
70
1
9
$TILEMODELIGHTSYNCH
70
1
9
$INTERSECTIONDISPLAY
290
0
9
$SHADOWPLANELOCATION
40
0
  0
ENDSEC
  0
SECTION
  2
CLASSES
  0
ENDSEC
  0
SECTION
2
TABLES
  0
TABLE
  2
VPORT
  5
1F
  330
0
  100
AcDbSymbolTable
  70
0
  0
ENDTAB
  0
TABLE
  2
LTYPE
  5
20
  330
0
  100
AcDbSymbolTable
  70
5
  0
LTYPE
  5
21
  330
20
  100
AcDbSymbolTableRecord
  100
AcDbLinetypeTableRecord
   2
ByBlock
  70
0
   3

  72
65
  73
0
  40
0
  0
LTYPE
  5
22
  330
20
  100
AcDbSymbolTableRecord
  100
AcDbLinetypeTableRecord
   2
ByLayer
  70
0
   3

  72
65
  73
0
  40
0
  0
LTYPE
  5
23
  330
20
  100
AcDbSymbolTableRecord
  100
AcDbLinetypeTableRecord
   2
Continuous
  70
0
   3
Solid line
  72
65
  73
0
  40
0
  0
LTYPE
  5
24
  330
20
  100
AcDbSymbolTableRecord
  100
AcDbLinetypeTableRecord
   2
HIDDEN
  70
0
   3
Hidden __ __ __ __ __ __ __ __ __ __ __ __ __ __
  72
65
  73
2
  40
9.525
  49
6.35
  49
-3.175
  0
LTYPE
  5
25
  330
20
  100
AcDbSymbolTableRecord
  100
AcDbLinetypeTableRecord
   2
FENCELINE1
  70
0
   3
Fenceline circle ----0-----0----0-----0----0-----0--
  72
65
  73
4
  40
36.83
  49
6.35
  49
-2.54
  49
-2.54
  49
25.4
  0
ENDTAB
  0
TABLE
  2
LAYER
  5
26
  330
0
  100
AcDbSymbolTable
  70
5
  0
LAYER
  5
27
  330
26
  100
AcDbSymbolTableRecord
  100
AcDbLayerTableRecord
  2
0
 70
0
 62
7
  6
Continuous
290
1
370
-3
390
 
347
 
  0
LAYER
  5
28
  330
26
  100
AcDbSymbolTableRecord
  100
AcDbLayerTableRecord
  2
Defpoints
 70
0
 62
7
  6
Continuous
290
1
370
-3
390
 
347
 
  0
LAYER
  5
29
  330
26
  100
AcDbSymbolTableRecord
  100
AcDbLayerTableRecord
  2
PIPELINES
 70
0
 62
7
  6
Continuous
290
1
370
-3
390
 
347
 
  0
LAYER
  5
2A
  330
26
  100
AcDbSymbolTableRecord
  100
AcDbLayerTableRecord
  2
INSTRUMENTS
 70
0
 62
7
  6
Continuous
290
1
370
-3
390
 
347
 
  0
LAYER
  5
2B
  330
26
  100
AcDbSymbolTableRecord
  100
AcDbLayerTableRecord
  2
EQUPMENT
 70
0
 62
7
  6
Continuous
290
1
370
-3
390
 
347
 
  0
ENDTAB
  0
TABLE
  2
STYLE
  5
2C
  330
0
  100
AcDbSymbolTable
  70
3
  0
STYLE
  5
2D
  330
2C
  100
AcDbSymbolTableRecord
  100
AcDbTextStyleTableRecord
  2
standard
 70
0
 40
0
 41
0
 50
0
 71
0
 42
0
  3
romans.shx
  4

  0
STYLE
  5
2E
  330
2C
  100
AcDbSymbolTableRecord
  100
AcDbTextStyleTableRecord
  2
romans
 70
0
 40
0
 41
0
 50
0
 71
0
 42
0
  3
romans.shx
  4

  0
STYLE
  5
2F
  330
2C
  100
AcDbSymbolTableRecord
  100
AcDbTextStyleTableRecord
  2

 70
0
 40
0
 41
0
 50
0
 71
0
 42
0
  3
ltypeshp.shx
  4

  0
ENDTAB
  0
TABLE
  2
VIEW
  5
30
  330
0
  100
AcDbSymbolTable
  70
0
  0
ENDTAB
  0
TABLE
  2
APPID
  5
31
  330
0
  100
AcDbSymbolTable
  70
0
  0
ENDTAB
  0
TABLE
  2
UCS
  5
32
  330
0
  100
AcDbSymbolTable
  70
0
  0
ENDTAB
  0
TABLE
  2
DIMSTYLE
  5
33
  330
0
  100
AcDbSymbolTable
  70
1
  0
DIMSTYLE
 105
34
 330
33
 100
AcDbSymbolTableRecord
 100
AcDbDimStyleTableRecord
  2
standard
 70
0
   3

   4

   5
_DotBlank
   6
_
   7
_
  40
1
  41
1
  42
0.625
  43

  44
1.25
  45

  46
1
  47

  48

 140
2
 141

 142

 143

 144

 145

 146

 147

 148

  71

  72

  73

  74

  75
0
  76
0
  77

  78

  79

 170

 171

 172

 173

 174

 175

 176

 177

 178

 179

 270

 271

 272

 273

 274

 275

 276

 277

 278

 279

 280

 281

 282

 283

 284

 285

 286

 287

 288

 289

 340
romans.shx
 341

 342
_DotBlank
 343
_
 344
_
 371

 372

  0
ENDTAB
  0
TABLE
  2
BLOCK_RECORD
  5
1
  330
0
  100
AcDbSymbolTable
  70
15
  0
BLOCK_RECORD
  5
8
 330
1
 100
AcDbSymbolTableRecord
 100
AcDbBlockTableRecord
  2
*Model_Space
 340
A
  70
0
 280
0
 281
0
  0
BLOCK_RECORD
  5
2
 330
1
 100
AcDbSymbolTableRecord
 100
AcDbBlockTableRecord
  2
*Paper_Space
 340
4
  70
0
 280
0
 281
0
  0
BLOCK_RECORD
  5
D
 330
1
 100
AcDbSymbolTableRecord
 100
AcDbBlockTableRecord
  2
_DotBlank
 340
0
  70
0
 280
0
 281
0
  0
BLOCK_RECORD
  5
F
 330
1
 100
AcDbSymbolTableRecord
 100
AcDbBlockTableRecord
  2
_Oblique
 340
0
  70
0
 280
0
 281
0
  0
BLOCK_RECORD
  5
11
 330
1
 100
AcDbSymbolTableRecord
 100
AcDbBlockTableRecord
  2
A2
 340
0
  70
0
 280
0
 281
0
  0
BLOCK_RECORD
  5
13
 330
1
 100
AcDbSymbolTableRecord
 100
AcDbBlockTableRecord
  2
A
 340
0
  70
0
 280
0
 281
0
  0
BLOCK_RECORD
  5
15
 330
1
 100
AcDbSymbolTableRecord
 100
AcDbBlockTableRecord
  2
INSTRUMENT_LOCAL
 340
0
  70
0
 280
0
 281
0
  0
BLOCK_RECORD
  5
17
 330
1
 100
AcDbSymbolTableRecord
 100
AcDbBlockTableRecord
  2
VALVE_GATE
 340
0
  70
0
 280
0
 281
0
  0
BLOCK_RECORD
  5
19
 330
1
 100
AcDbSymbolTableRecord
 100
AcDbBlockTableRecord
  2
INDICATING_DCS
 340
0
  70
0
 280
0
 281
0
  0
BLOCK_RECORD
  5
1B
 330
1
 100
AcDbSymbolTableRecord
 100
AcDbBlockTableRecord
  2
VALVE_GLOBE
 340
0
  70
0
 280
0
 281
0
  0
BLOCK_RECORD
  5
1D
 330
1
 100
AcDbSymbolTableRecord
 100
AcDbBlockTableRecord
  2
VALVE_ACTUATOR_PNEUMATIC
 340
0
  70
0
 280
0
 281
0
  0
BLOCK_RECORD
  5
5
 330
1
 100
AcDbSymbolTableRecord
 100
AcDbBlockTableRecord
  2
*Paper_Space19
 340
7
  70
0
 280
0
 281
0
  0
ENDTAB
  0
ENDSEC
   0
SECTION
   2
BLOCKS
   0
BLOCK
   5
9
 330
8
 100
AcDbEntity
   8
0
 100
AcDbBlockBegin
   2
*Model_Space
  70
0
  10
0
  20
0
  30
0
   3
*Model_Space
   1

   0
ENDBLK
   5
35
 330
8
 100
AcDbEntity
   8
0
 100
AcDbBlockEnd
   0
BLOCK
   5
3
 330
2
 100
AcDbEntity
   8
0
 100
AcDbBlockBegin
   2
*Paper_Space
  70
0
  10
0
  20
0
  30
0
   3
*Paper_Space
   1

   0
ENDBLK
   5
36
 330
2
 100
AcDbEntity
   8
0
 100
AcDbBlockEnd
   0
BLOCK
   5
E
 330
D
 100
AcDbEntity
   8
0
 100
AcDbBlockBegin
   2
_DotBlank
  70
0
  10
0
  20
0
  30
0
   3
_DotBlank
   1

   0
CIRCLE
   5
32
 330
D
 100
AcDbEntity
   8
0
   6
ByBlock
  62
0
 370
-2
 100
AcDbCircle
  10
0
  20
0
  40
0.5
   0
LINE
   5
33
 330
D
 100
AcDbEntity
   8
0
   6
ByBlock
  62
0
 370
-2
 100
AcDbLine
  10
-0.5
  20
0
  11
-1
  21
0
   0
ENDBLK
   5
37
 330
D
 100
AcDbEntity
   8
0
 100
AcDbBlockEnd
   0
BLOCK
   5
10
 330
F
 100
AcDbEntity
   8
0
 100
AcDbBlockBegin
   2
_Oblique
  70
0
  10
0
  20
0
  30
0
   3
_Oblique
   1

   0
LINE
   5
1542
 330
F
 100
AcDbEntity
   8
0
   6
ByBlock
  62
0
 370
-2
 100
AcDbLine
  10
-0.5
  20
-0.5
  11
0.5
  21
0.5
   0
ENDBLK
   5
38
 330
F
 100
AcDbEntity
   8
0
 100
AcDbBlockEnd
   0
BLOCK
   5
12
 330
11
 100
AcDbEntity
   8
0
 100
AcDbBlockBegin
   2
A2
  70
0
  10
0
  20
0
  30
0
   3
A2
   1

   0
TEXT
   5
1B54
 330
11
 100
AcDbEntity
   8
0
   6
ByBlock
  62
1
 370
0
 100
AcDbText
  10
410.75
  20
38.25
  30
0
  40
1.5
   1
APROBO
  50
0
  41
1
  51
0
   7
standard
  71
0
  72
-1
  11
410.75
  21
39
  31
0
 210
0
 220
0
 230
1
 100
AcDbText
  73
2
   0
TEXT
   5
1B55
 330
11
 100
AcDbEntity
   8
0
   6
ByBlock
  62
1
 370
0
 100
AcDbText
  10
452.247619047619
  20
35.4999999999998
  30
0
  40
1
   1
FIRMA
  50
0
  41
1
  51
0
   7
standard
  71
0
  72
4
  11
454
  21
35.9999999999998
  31
0
 210
0
 220
0
 230
1
 100
AcDbText
  73
0
   0
LINE
   5
1B56
 330
11
 100
AcDbEntity
   8
0
   6
ByBlock
  62
1
 370
0
 100
AcDbLine
  10
410
  20
37
  11
460
  21
36.9999999999999
   0
TEXT
   5
1B57
 330
11
 100
AcDbEntity
   8
0
   6
ByBlock
  62
1
 370
0
 100
AcDbText
  10
419.785714285715
  20
35.4999999999998
  30
0
  40
1
   1
INDIC.
  50
0
  41
1
  51
0
   7
standard
  71
0
  72
4
  11
421.5
  21
35.9999999999998
  31
0
 210
0
 220
0
 230
1
 100
AcDbText
  73
0
   0
TEXT
   5
1B58
 330
11
 100
AcDbEntity
   8
0
   6
ByBlock
  62
1
 370
0
 100
AcDbText
  10
426.614285714286
  20
35.4999999999998
  30
0
  40
1
   1
NOMB.
  50
0
  41
1
  51
0
   7
standard
  71
0
  72
4
  11
428.5
  21
35.9999999999998
  31
0
 210
0
 220
0
 230
1
 100
AcDbText
  73
0
   0
LINE
   5
1B59
 330
11
 100
AcDbEntity
   8
0
   6
ByBlock
  62
2
 370
0
 100
AcDbLine
  10
425
  20
34.9999999999999
  11
425
  21
37.9999999999999
   0
TEXT
   5
1B5A
 330
11
 100
AcDbEntity
   8
0
   6
ByBlock
  62
1
 370
0
 100
AcDbText
  10
438.0761904762
  20
35.4999999999998
  30
0
  40
1
   1
FECHA
  50
0
  41
1
  51
0
   7
standard
  71
0
  72
4
  11
440
  21
35.9999999999998
  31
0
 210
0
 220
0
 230
1
 100
AcDbText
  73
0
   0
LINE
   5
1B5B
 330
11
 100
AcDbEntity
   8
0
   6
ByBlock
  62
1
 370
0
 100
AcDbLine
  10
410
  20
41
  11
460
  21
41
   0
LINE
   5
1B5C
 330
11
 100
AcDbEntity
   8
0
   6
ByBlock
  62
1
 370
0
 100
AcDbLine
  10
410
  20
45
  11
460
  21
45
   0
TEXT
   5
1B5D
 330
11
 100
AcDbEntity
   8
0
   6
ByBlock
  62
1
 370
0
 100
AcDbText
  10
410.75
  20
42.25
  30
0
  40
1.5
   1
REVISO
  50
0
  41
1
  51
0
   7
standard
  71
0
  72
-1
  11
410.75
  21
43
  31
0
 210
0
 220
0
 230
1
 100
AcDbText
  73
2
   0
TEXT
   5
1B5E
 330
11
 100
AcDbEntity
   8
0
   6
ByBlock
  62
1
 370
0
 100
AcDbText
  10
410.75
  20
46.2500000000001
  30
0
  40
1.5
   1
DISEÑO
  50
0
  41
1
  51
0
   7
standard
  71
0
  72
-1
  11
410.75
  21
47.0000000000001
  31
0
 210
0
 220
0
 230
1
 100
AcDbText
  73
2
   0
LINE
   5
1B5F
 330
11
 100
AcDbEntity
   8
0
   6
ByBlock
  62
2
 370
0
 100
AcDbLine
  10
425
  20
41
  11
425
  21
42
   0
LINE
   5
1B60
 330
11
 100
AcDbEntity
   8
0
   6
ByBlock
  62
2
 370
0
 100
AcDbLine
  10
425
  20
45
  11
425
  21
46
   0
CIRCLE
   5
1B61
 330
11
 100
AcDbEntity
   8
0
   6
ByBlock
  62
2
 370
0
 100
AcDbCircle
  10
579.625
  20
45
  40
1.25
   0
CIRCLE
   5
1B62
 330
11
 100
AcDbEntity
   8
0
   6
ByBlock
  62
2
 370
0
 100
AcDbCircle
  10
579.625
  20
45
  40
2.5
   0
CIRCLE
   5
1B63
 330
11
 100
AcDbEntity
   8
0
   6
ByBlock
  62
2
 370
0
 100
AcDbCircle
  10
579.625
  20
45
  40
2.5
   0
LINE
   5
1B64
 330
11
 100
AcDbEntity
   8
0
   6
ByBlock
  62
2
 370
0
 100
AcDbLine
  10
448
  20
34.9999999999999
  11
448
  21
37.9999999999999
   0
LINE
   5
1B65
 330
11
 100
AcDbEntity
   8
0
   6
ByBlock
  62
2
 370
0
 100
AcDbLine
  10
448
  20
41
  11
448
  21
42
   0
LINE
   5
1B66
 330
11
 100
AcDbEntity
   8
0
   6
ByBlock
  62
2
 370
0
 100
AcDbLine
  10
448
  20
45
  11
448
  21
46
   0
LWPOLYLINE
   5
1B67
 330
11
 100
AcDbEntity
   8
0
   6
ByBlock
  62
2
 370
0
 100
AcDbPolyline
  90
5
  70
1
  43
0
  10
570.875
  20
43.75
  42
0
  10
575.875
  20
42.5
  42
0
  10
575.875
  20
47.5
  42
0
  10
570.875
  20
46.25
  42
0
  10
570.875
  20
43.75
   0
LINE
   5
1B68
 330
11
 100
AcDbEntity
   8
0
   6
ByBlock
  62
1
 370
0
 100
AcDbLine
  10
579.625
  20
41.4
  11
579.625
  21
41
   0
LINE
   5
1B69
 330
11
 100
AcDbEntity
   8
0
   6
ByBlock
  62
1
 370
0
 100
AcDbLine
  10
579.625
  20
43.2
  11
579.625
  21
42.3
   0
LINE
   5
1B6A
 330
11
 100
AcDbEntity
   8
0
   6
ByBlock
  62
1
 370
0
 100
AcDbLine
  10
579.625
  20
49
  11
579.625
  21
48.6
   0
LINE
   5
1B6B
 330
11
 100
AcDbEntity
   8
0
   6
ByBlock
  62
1
 370
0
 100
AcDbLine
  10
579.625
  20
47.7
  11
579.625
  21
46.8
   0
LINE
   5
1B6C
 330
11
 100
AcDbEntity
   8
0
   6
ByBlock
  62
1
 370
0
 100
AcDbLine
  10
579.625
  20
45.9
  11
579.625
  21
44.1
   0
LINE
   5
1B6D
 330
11
 100
AcDbEntity
   8
0
   6
ByBlock
  62
1
 370
0
 100
AcDbLine
  10
578.725
  20
45
  11
580.525
  21
45
   0
LINE
   5
1B6E
 330
11
 100
AcDbEntity
   8
0
   6
ByBlock
  62
1
 370
0
 100
AcDbLine
  10
576.925
  20
45
  11
577.825
  21
45
   0
LINE
   5
1B6F
 330
11
 100
AcDbEntity
   8
0
   6
ByBlock
  62
1
 370
0
 100
AcDbLine
  10
570.0625
  20
45
  11
571.525
  21
45
   0
LINE
   5
1B70
 330
11
 100
AcDbEntity
   8
0
   6
ByBlock
  62
1
 370
0
 100
AcDbLine
  10
572.425
  20
45
  11
573.325
  21
45
   0
LINE
   5
1B71
 330
11
 100
AcDbEntity
   8
0
   6
ByBlock
  62
1
 370
0
 100
AcDbLine
  10
574.225
  20
45
  11
576.025
  21
45
   0
LINE
   5
1B72
 330
11
 100
AcDbEntity
   8
0
   6
ByBlock
  62
1
 370
0
 100
AcDbLine
  10
581.425
  20
45
  11
582.325
  21
45
   0
LWPOLYLINE
   5
1B73
 330
11
 100
AcDbEntity
   8
0
   6
ByBlock
  62
2
 370
0
 100
AcDbPolyline
  90
6
  70
0
  43
0
  10
462.85352199183
  20
23
  42
0
  10
461
  20
23
  42
0
  10
461
  20
28
  42
0
  10
540
  20
28
  42
0
  10
540
  20
23
  42
0
  10
485.374950563259
  20
23
  42
0
   0
LWPOLYLINE
   5
1B74
 330
11
 100
AcDbEntity
   8
0
   6
ByBlock
  62
2
 370
0
 100
AcDbPolyline
  90
5
  70
0
  43
0
  10
410
  20
49
  42
0
  10
410
  20
34.9999999999999
  42
0
  10
460
  20
34.9999999999999
  42
0
  10
460
  20
49
  42
0
  10
410
  20
49
  42
0
   0
LWPOLYLINE
   5
1B75
 330
11
 100
AcDbEntity
   8
0
   6
ByBlock
  62
2
 370
0
 100
AcDbPolyline
  90
6
  70
0
  43
0
  10
480.346379134688
  20
10.9999999999999
  42
0
  10
540
  20
11
  42
0
  10
540
  20
22
  42
0
  10
461
  20
22
  42
0
  10
461
  20
10.9999999999999
  42
0
  10
462.682093420402
  20
10.9999999999999
  42
0
   0
LINE
   5
1B76
 330
11
 100
AcDbEntity
   8
0
   6
ByBlock
  62
2
 370
0
 100
AcDbLine
  10
466
  20
29
  11
466
  21
49
   0
LINE
   5
1B77
 330
11
 100
AcDbEntity
   8
0
   6
ByBlock
  62
2
 370
0
 100
AcDbLine
  10
482
  20
29
  11
482
  21
49
   0
LINE
   5
1B78
 330
11
 100
AcDbEntity
   8
0
   6
ByBlock
  62
2
 370
0
 100
AcDbLine
  10
432
  20
34.9999999999999
  11
432
  21
37.9999999999999
   0
LINE
   5
1B79
 330
11
 100
AcDbEntity
   8
0
   6
ByBlock
  62
2
 370
0
 100
AcDbLine
  10
432
  20
41
  11
432
  21
42
   0
LINE
   5
1B7A
 330
11
 100
AcDbEntity
   8
0
   6
ByBlock
  62
2
 370
0
 100
AcDbLine
  10
432
  20
45
  11
432
  21
46
   0
LWPOLYLINE
   5
1B7B
 330
11
 100
AcDbEntity
   8
0
   6
ByBlock
  62
1
 370
0
 100
AcDbPolyline
  90
3
  70
0
  43
0
  10
594
  20
10
  42
0
  10
594
  20
0
  42
0
  10
584
  20
0
  42
0
   0
LWPOLYLINE
   5
1B7C
 330
11
 100
AcDbEntity
   8
0
   6
ByBlock
  62
1
 370
0
 100
AcDbPolyline
  90
3
  70
0
  43
0
  10
594
  20
410
  42
0
  10
594
  20
420
  42
0
  10
584
  20
420
  42
0
   0
LWPOLYLINE
   5
1B7D
 330
11
 100
AcDbEntity
   8
0
   6
ByBlock
  62
2
 370
0
 100
AcDbPolyline
  90
6
  70
0
  43
0
  10
574.060664848973
  20
41
  42
0
  10
583
  20
41
  42
0
  10
583
  20
49
  42
0
  10
569
  20
49
  42
0
  10
569
  20
41
  42
0
  10
571
  20
41
  42
0
   0
LWPOLYLINE
   5
1B7E
 330
11
 100
AcDbEntity
   8
0
   6
ByBlock
  62
2
 370
0
 100
AcDbPolyline
  90
6
  70
0
  43
0
  10
543
  20
23
  42
0
  10
541
  20
23
  42
0
  10
541
  20
28
  42
0
  10
568
  20
27.9999999999999
  42
0
  10
568
  20
22.9999999999999
  42
0
  10
561.032093420402
  20
22.9999999999999
  42
0
   0
LWPOLYLINE
   5
1B7F
 330
11
 100
AcDbEntity
   8
0
   6
ByBlock
  62
2
 370
0
 100
AcDbPolyline
  90
6
  70
0
  43
0
  10
571
  20
10.9999999999999
  42
0
  10
569
  20
10.9999999999999
  42
0
  10
569
  20
15.9999999999999
  42
0
  10
583
  20
15.9999999999999
  42
0
  10
583
  20
10.9999999999999
  42
0
  10
580.346379134687
  20
10.9999999999999
  42
0
   0
LWPOLYLINE
   5
1B80
 330
11
 100
AcDbEntity
   8
0
   6
ByBlock
  62
2
 370
0
 100
AcDbPolyline
  90
6
  70
0
  43
0
  10
571
  20
22.9999999999999
  42
0
  10
569
  20
22.9999999999999
  42
0
  10
569
  20
27.9999999999999
  42
0
  10
583
  20
27.9999999999999
  42
0
  10
583
  20
22.9999999999999
  42
0
  10
579.032093420402
  20
22.9999999999999
  42
0
   0
LWPOLYLINE
   5
1B81
 330
11
 100
AcDbEntity
   8
0
   6
ByBlock
  62
2
 370
0
 100
AcDbPolyline
  90
6
  70
0
  43
0
  10
571
  20
34.9999999999999
  42
0
  10
569
  20
34.9999999999999
  42
0
  10
569
  20
39.9999999999999
  42
0
  10
583
  20
39.9999999999999
  42
0
  10
583
  20
34.9999999999999
  42
0
  10
577.774950563259
  20
34.9999999999999
  42
0
   0
LWPOLYLINE
   5
1B82
 330
11
 100
AcDbEntity
   8
0
   6
ByBlock
  62
2
 370
0
 100
AcDbPolyline
  90
6
  70
0
  43
0
  10
571
  20
28.9999999999999
  42
0
  10
569
  20
28.9999999999999
  42
0
  10
569
  20
33.9999999999999
  42
0
  10
583
  20
33.9999999999999
  42
0
  10
583
  20
28.9999999999999
  42
0
  10
579.260664848973
  20
28.9999999999999
  42
0
   0
LINE
   5
1B83
 330
11
 100
AcDbEntity
   8
0
   6
ByBlock
  62
1
 370
0
 100
AcDbLine
  10
461
  20
45
  11
568
  21
45
   0
LINE
   5
1B84
 330
11
 100
AcDbEntity
   8
0
   6
ByBlock
  62
1
 370
0
 100
AcDbLine
  10
461
  20
37
  11
568
  21
37
   0
LINE
   5
1B85
 330
11
 100
AcDbEntity
   8
0
   6
ByBlock
  62
1
 370
0
 100
AcDbLine
  10
568
  20
41
  11
461
  21
41
   0
LINE
   5
1B86
 330
11
 100
AcDbEntity
   8
0
   6
ByBlock
  62
1
 370
0
 100
AcDbLine
  10
461
  20
41
  11
568
  21
41
   0
LINE
   5
1B87
 330
11
 100
AcDbEntity
   8
0
   6
ByBlock
  62
1
 370
0
 100
AcDbLine
  10
568
  20
45
  11
461
  21
45
   0
LINE
   5
1B88
 330
11
 100
AcDbEntity
   8
0
   6
ByBlock
  62
1
 370
0
 100
AcDbLine
  10
461
  20
33
  11
568
  21
33
   0
LINE
   5
1B89
 330
11
 100
AcDbEntity
   8
0
   6
ByBlock
  62
1
 370
0
 100
AcDbLine
  10
568
  20
37
  11
461
  21
37
   0
LINE
   5
1B8A
 330
11
 100
AcDbEntity
   8
0
   6
ByBlock
  62
1
 370
0
 100
AcDbLine
  10
568
  20
33
  11
461
  21
33
   0
TEXT
   5
1B8B
 330
11
 100
AcDbEntity
   8
0
   6
ByBlock
  62
1
 370
0
 100
AcDbText
  10
571
  20
34.2499999999999
  30
0
  40
1.5
   1
ESCALA
  50
0
  41
1
  51
0
   7
standard
  71
0
  72
-1
  11
571
  21
34.9999999999999
  31
0
 210
0
 220
0
 230
1
 100
AcDbText
  73
2
   0
TEXT
   5
1B8C
 330
11
 100
AcDbEntity
   8
0
   6
ByBlock
  62
1
 370
0
 100
AcDbText
  10
571
  20
28.2499999999999
  30
0
  40
1.5
   1
TIPO.DOC
  50
0
  41
1
  51
0
   7
standard
  71
0
  72
-1
  11
571
  21
28.9999999999999
  31
0
 210
0
 220
0
 230
1
 100
AcDbText
  73
2
   0
TEXT
   5
1B8D
 330
11
 100
AcDbEntity
   8
0
   6
ByBlock
  62
1
 370
0
 100
AcDbText
  10
543
  20
22.25
  30
0
  40
1.5
   1
NUMERO DE PLANO
  50
0
  41
1
  51
0
   7
standard
  71
0
  72
-1
  11
543
  21
23
  31
0
 210
0
 220
0
 230
1
 100
AcDbText
  73
2
   0
TEXT
   5
1B8E
 330
11
 100
AcDbEntity
   8
0
   6
ByBlock
  62
1
 370
0
 100
AcDbText
  10
543
  20
16.25
  30
0
  40
1.5
   1
MOMBRE DEL ARCHIVO
  50
0
  41
1
  51
0
   7
standard
  71
0
  72
-1
  11
543
  21
17
  31
0
 210
0
 220
0
 230
1
 100
AcDbText
  73
2
   0
TEXT
   5
1B8F
 330
11
 100
AcDbEntity
   8
0
   6
ByBlock
  62
1
 370
0
 100
AcDbText
  10
543
  20
10.25
  30
0
  40
1.5
   1
ESPECIALIDAD
  50
0
  41
1
  51
0
   7
standard
  71
0
  72
-1
  11
543
  21
11
  31
0
 210
0
 220
0
 230
1
 100
AcDbText
  73
2
   0
TEXT
   5
1B90
 330
11
 100
AcDbEntity
   8
0
   6
ByBlock
  62
1
 370
0
 100
AcDbText
  10
463
  20
10.2499999999999
  30
0
  40
1.5
   1
TITULO DEL PLANO
  50
0
  41
1
  51
0
   7
standard
  71
0
  72
-1
  11
463
  21
10.9999999999999
  31
0
 210
0
 220
0
 230
1
 100
AcDbText
  73
2
   0
TEXT
   5
1B91
 330
11
 100
AcDbEntity
   8
0
   6
ByBlock
  62
1
 370
0
 100
AcDbText
  10
571
  20
40.25
  30
0
  40
1.5
   1
ISO
  50
0
  41
1
  51
0
   7
standard
  71
0
  72
-1
  11
571
  21
41
  31
0
 210
0
 220
0
 230
1
 100
AcDbText
  73
2
   0
TEXT
   5
1B92
 330
11
 100
AcDbEntity
   8
0
   6
ByBlock
  62
1
 370
0
 100
AcDbText
  10
463
  20
22.25
  30
0
  40
1.5
   1
NOMBRE DEL PROYECTO
  50
0
  41
1
  51
0
   7
standard
  71
0
  72
-1
  11
463
  21
23
  31
0
 210
0
 220
0
 230
1
 100
AcDbText
  73
2
   0
LWPOLYLINE
   5
1B93
 330
11
 100
AcDbEntity
   8
0
   6
ByBlock
  62
2
 370
0
 100
AcDbPolyline
  90
5
  70
1
  43
0
  10
461
  20
29
  42
0
  10
568
  20
29
  42
0
  10
568
  20
49
  42
0
  10
461
  20
49
  42
0
  10
461
  20
29
   0
TEXT
   5
1B94
 330
11
 100
AcDbEntity
   8
0
   6
ByBlock
  62
1
 370
0
 100
AcDbText
  10
571
  20
10.2499999999999
  30
0
  40
1.5
   1
HOJA-TOT
  50
0
  41
1
  51
0
   7
standard
  71
0
  72
-1
  11
571
  21
10.9999999999999
  31
0
 210
0
 220
0
 230
1
 100
AcDbText
  73
2
   0
TEXT
   5
1B95
 330
11
 100
AcDbEntity
   8
0
   6
ByBlock
  62
1
 370
0
 100
AcDbText
  10
571
  20
22.2499999999999
  30
0
  40
1.5
   1
REVISION
  50
0
  41
1
  51
0
   7
standard
  71
0
  72
-1
  11
571
  21
22.9999999999999
  31
0
 210
0
 220
0
 230
1
 100
AcDbText
  73
2
   0
TEXT
   5
1B96
 330
11
 100
AcDbEntity
   8
0
   6
ByBlock
  62
1
 370
0
 100
AcDbText
  10
410.771428571429
  20
14.5
  30
0
  40
1.5
   1
DOCUMENTO GENERADO POR COMPUTADORA.
  50
0
  41
1
  51
0
   7
standard
  71
0
  72
-1
  11
410.771428571429
  21
15.25
  31
0
 210
0
 220
0
 230
1
 100
AcDbText
  73
2
   0
TEXT
   5
1B97
 330
11
 100
AcDbEntity
   8
0
   6
ByBlock
  62
1
 370
0
 100
AcDbText
  10
410.828571428572
  20
12
  30
0
  40
1.5
   1
SOLO MODIFICAR POR EL MISMO MEDIO
  50
0
  41
1
  51
0
   7
standard
  71
0
  72
-1
  11
410.828571428572
  21
12.75
  31
0
 210
0
 220
0
 230
1
 100
AcDbText
  73
2
   0
LWPOLYLINE
   5
1B98
 330
11
 100
AcDbEntity
   8
0
   6
ByBlock
  62
2
 370
0
 100
AcDbPolyline
  90
5
  70
1
  43
0
  10
410
  20
11
  42
0
  10
460
  20
11
  42
0
  10
460
  20
22
  42
0
  10
410
  20
22
  42
0
  10
410
  20
11
   0
LWPOLYLINE
   5
1B99
 330
11
 100
AcDbEntity
   8
0
   6
ByBlock
  62
2
 370
0
 100
AcDbPolyline
  90
5
  70
1
  43
0
  10
410
  20
23
  42
0
  10
460
  20
23
  42
0
  10
460
  20
34
  42
0
  10
410
  20
34
  42
0
  10
410
  20
23
   0
LINE
   5
1B9A
 330
11
 100
AcDbEntity
   8
0
   6
ByBlock
  62
2
 370
0
 100
AcDbLine
  10
418
  20
34.9999999999999
  11
418
  21
49
   0
LINE
   5
1B9B
 330
11
 100
AcDbEntity
   8
0
   6
ByBlock
  62
2
 370
0
 100
AcDbLine
  10
489
  20
28.9999999999999
  11
489
  21
48.9999999999999
   0
LINE
   5
1B9C
 330
11
 100
AcDbEntity
   8
0
   6
ByBlock
  62
2
 370
0
 100
AcDbLine
  10
496
  20
28.9999999999999
  11
496
  21
48.9999999999999
   0
LINE
   5
1B9D
 330
11
 100
AcDbEntity
   8
0
   6
ByBlock
  62
1
 370
0
 100
AcDbLine
  10
584
  20
210
  11
594
  21
210
   0
LINE
   5
1B9E
 330
11
 100
AcDbEntity
   8
0
   6
ByBlock
  62
1
 370
0
 100
AcDbLine
  10
9.99999999999989
  20
210
  11
0
  21
210
   0
LWPOLYLINE
   5
1B9F
 330
11
 100
AcDbEntity
   8
0
   6
ByBlock
  62
2
 370
0
 100
AcDbPolyline
  90
5
  70
1
  43
0
  10
410
  20
23
  42
0
  10
421
  20
23
  42
0
  10
421
  20
34
  42
0
  10
410
  20
34
  42
0
  10
410
  20
23
   0
LWPOLYLINE
   5
1BA0
 330
11
 100
AcDbEntity
   8
0
   6
ByBlock
  62
2
 370
0
 100
AcDbPolyline
  90
6
  70
0
  43
0
  10
543
  20
11
  42
0
  10
541
  20
11
  42
0
  10
541
  20
16
  42
0
  10
568
  20
15.9999999999999
  42
0
  10
568
  20
10.9999999999999
  42
0
  10
555.260664848973
  20
10.9999999999999
  42
0
   0
LWPOLYLINE
   5
1BA1
 330
11
 100
AcDbEntity
   8
0
   6
ByBlock
  62
2
 370
0
 100
AcDbPolyline
  90
6
  70
0
  43
0
  10
543
  20
17
  42
0
  10
541
  20
17
  42
0
  10
541
  20
22
  42
0
  10
583
  20
21.9999999999999
  42
0
  10
583
  20
16.9999999999999
  42
0
  10
563.774950563259
  20
16.9999999999999
  42
0
   0
LINE
   5
1BA2
 330
11
 100
AcDbEntity
   8
0
   6
ByBlock
  62
2
 370
0
 100
AcDbLine
  10
503
  20
29
  11
503
  21
49
   0
LWPOLYLINE
   5
1BA3
 330
11
 100
AcDbEntity
   8
0
   6
ByBlock
  62
1
 370
0
 100
AcDbPolyline
  90
3
  70
0
  43
0
  10
0
  20
410
  42
0
  10
0
  20
420
  42
0
  10
10
  20
420
  42
0
   0
LWPOLYLINE
   5
1BA4
 330
11
 100
AcDbEntity
   8
0
   6
ByBlock
  62
1
 370
0
 100
AcDbPolyline
  90
3
  70
0
  43
0
  10
0
  20
10
  42
0
  10
0
  20
0
  42
0
  10
10
  20
0
  42
0
   0
LINE
   5
1BA5
 330
11
 100
AcDbEntity
   8
0
   6
ByBlock
  62
1
 370
0
 100
AcDbLine
  10
297
  20
410
  11
297
  21
420
   0
LINE
   5
1BA6
 330
11
 100
AcDbEntity
   8
0
   6
ByBlock
  62
1
 370
0
 100
AcDbLine
  10
297
  20
10
  11
297
  21
0
   0
LWPOLYLINE
   5
1BA7
 330
11
 100
AcDbEntity
   8
0
   6
ByBlock
  62
6
 370
-3
 100
AcDbPolyline
  90
5
  70
1
  43
0
  10
9.99999999999988
  20
10
  42
0
  10
584
  20
10
  42
0
  10
584
  20
410
  42
0
  10
9.99999999999987
  20
410
  42
0
  10
9.99999999999988
  20
10
   0
ENDBLK
   5
39
 330
11
 100
AcDbEntity
   8
0
 100
AcDbBlockEnd
   0
BLOCK
   5
14
 330
13
 100
AcDbEntity
   8
0
 100
AcDbBlockBegin
   2
A
  70
2
  10
0
  20
0
  30
0
   3
A
   1

   0
ATTDEF
   5
1C55
 330
13
 100
AcDbEntity
   8
0
   6
ByBlock
  62
4
 370
-2
 100
AcDbText
  10
-52
  20
24
  30
0
  40
3
   1

  50
0
  41
1
  51
0
   7
standard
  71
1
  72
0
 210
0
 220
0
 230
1
 100
AcDbText
  73
0
 100
AcDbAttributeDefinition
   3
NUMERO_DE_PLANO
   2
TAG001
  70
0
   0
ATTDEF
   5
1C56
 330
13
 100
AcDbEntity
   8
0
   6
ByBlock
  62
3
 370
-2
 100
AcDbText
  10
-23.9999999999999
  20
12.4999999999999
  30
0
  40
2
   1

  50
0
  41
1
  51
0
   7
standard
  71
1
  72
0
 210
0
 220
0
 230
1
 100
AcDbText
  73
0
 100
AcDbAttributeDefinition
   3
HOJA_N°_DE_TOTAL_N°
   2
TAG002
  70
0
   0
ATTDEF
   5
1C57
 330
13
 100
AcDbEntity
   8
0
   6
ByBlock
  62
3
 370
-2
 100
AcDbText
  10
-23.9999999999999
  20
24.4999999999999
  30
0
  40
2
   1

  50
0
  41
1
  51
0
   7
standard
  71
1
  72
0
 210
0
 220
0
 230
1
 100
AcDbText
  73
0
 100
AcDbAttributeDefinition
   3
REVISION
   2
TAG003
  70
0
   0
ATTDEF
   5
1C58
 330
13
 100
AcDbEntity
   8
0
   6
ByBlock
  62
4
 370
-2
 100
AcDbText
  10
-93.4999999999998
  20
23.9999999999999
  30
0
  40
3
   1

  50
0
  41
1
  51
0
   7
standard
  71
1
  72
0
 210
0
 220
0
 230
1
 100
AcDbText
  73
0
 100
AcDbAttributeDefinition
   3
NOMBRE_DEL_PROYECTO
   2
TAG004
  70
0
   0
ATTDEF
   5
1C59
 330
13
 100
AcDbEntity
   8
0
   6
ByBlock
  62
3
 370
-2
 100
AcDbText
  10
-93.4999999999998
  20
16.8571428571428
  30
0
  40
3
   1

  50
0
  41
1
  51
0
   7
standard
  71
1
  72
0
 210
0
 220
0
 230
1
 100
AcDbText
  73
0
 100
AcDbAttributeDefinition
   3
TITULO_DEL_PLANO_1°LINEA
   2
TAG005
  70
0
   0
ATTDEF
   5
1C5A
 330
13
 100
AcDbEntity
   8
0
   6
ByBlock
  62
3
 370
-2
 100
AcDbText
  10
-93.4999999999998
  20
11.9999999999999
  30
0
  40
3
   1

  50
0
  41
1
  51
0
   7
standard
  71
1
  72
0
 210
0
 220
0
 230
1
 100
AcDbText
  73
0
 100
AcDbAttributeDefinition
   3
TITULO_DEL_PLANO_2°LINEA
   2
TAG006
  70
0
   0
ATTDEF
   5
1C5B
 330
13
 100
AcDbEntity
   8
0
   6
ByBlock
  62
3
 370
-2
 100
AcDbText
  10
-52
  20
18
  30
0
  40
3
   1

  50
0
  41
1
  51
0
   7
standard
  71
1
  72
0
 210
0
 220
0
 230
1
 100
AcDbText
  73
0
 100
AcDbAttributeDefinition
   3
MOMBRE_DEL_ARCHIVO
   2
TAG007
  70
0
   0
ATTDEF
   5
1C5C
 330
13
 100
AcDbEntity
   8
0
   6
ByBlock
  62
3
 370
-2
 100
AcDbText
  10
-23.9999999999999
  20
30.4999999999999
  30
0
  40
2
   1

  50
0
  41
1
  51
0
   7
standard
  71
1
  72
0
 210
0
 220
0
 230
1
 100
AcDbText
  73
0
 100
AcDbAttributeDefinition
   3
TIPO_DE_DOCUMENTO
   2
TAG008
  70
0
   0
ATTDEF
   5
1C5D
 330
13
 100
AcDbEntity
   8
0
   6
ByBlock
  62
3
 370
-2
 100
AcDbText
  10
-23.9999999999999
  20
36.4999999999999
  30
0
  40
2
   1

  50
0
  41
1
  51
0
   7
standard
  71
1
  72
0
 210
0
 220
0
 230
1
 100
AcDbText
  73
0
 100
AcDbAttributeDefinition
   3
ESCALA_DEL_PLANO
   2
TAG009
  70
0
   0
ATTDEF
   5
1C5E
 330
13
 100
AcDbEntity
   8
0
   6
ByBlock
  62
3
 370
-2
 100
AcDbText
  10
-172.5
  20
38
  30
0
  40
2
   1

  50
0
  41
1
  51
0
   7
standard
  71
1
  72
0
 210
0
 220
0
 230
1
 100
AcDbText
  73
0
 100
AcDbAttributeDefinition
   3
APROBO_INDICACION
   2
TAG026
  70
0
   0
LWPOLYLINE
   5
1C5F
 330
13
 100
AcDbEntity
   8
0
   6
ByBlock
  62
0
 370
-2
 100
AcDbPolyline
  90
3
  70
0
  43
0
  10
0
  20
10
  42
0
  10
0
  20
0
  42
0
  10
-10
  20
0
  42
0
   0
ATTDEF
   5
1C60
 330
13
 100
AcDbEntity
   8
0
   6
ByBlock
  62
3
 370
-2
 100
AcDbText
  10
-165.5
  20
38
  30
0
  40
2
   1

  50
0
  41
1
  51
0
   7
standard
  71
1
  72
0
 210
0
 220
0
 230
1
 100
AcDbText
  73
0
 100
AcDbAttributeDefinition
   3
APROBO_NOMBRE
   2
TAG027
  70
0
   0
ATTDEF
   5
1C61
 330
13
 100
AcDbEntity
   8
0
   6
ByBlock
  62
3
 370
-2
 100
AcDbText
  10
-154
  20
38
  30
0
  40
2
   1

  50
0
  41
1
  51
0
   7
standard
  71
1
  72
0
 210
0
 220
0
 230
1
 100
AcDbText
  73
0
 100
AcDbAttributeDefinition
   3
APROBO_FECHA
   2
TAG028
  70
0
   0
ATTDEF
   5
1C62
 330
13
 100
AcDbEntity
   8
0
   6
ByBlock
  62
3
 370
-2
 100
AcDbText
  10
-172.5
  20
42
  30
0
  40
2
   1

  50
0
  41
1
  51
0
   7
standard
  71
1
  72
0
 210
0
 220
0
 230
1
 100
AcDbText
  73
0
 100
AcDbAttributeDefinition
   3
REVISO_INDICACION
   2
TAG023
  70
0
   0
ATTDEF
   5
1C63
 330
13
 100
AcDbEntity
   8
0
   6
ByBlock
  62
3
 370
-2
 100
AcDbText
  10
-165.5
  20
42
  30
0
  40
2
   1

  50
0
  41
1
  51
0
   7
standard
  71
1
  72
0
 210
0
 220
0
 230
1
 100
AcDbText
  73
0
 100
AcDbAttributeDefinition
   3
REVISO_NOMBRE
   2
TAG024
  70
0
   0
ATTDEF
   5
1C64
 330
13
 100
AcDbEntity
   8
0
   6
ByBlock
  62
3
 370
-2
 100
AcDbText
  10
-154
  20
42
  30
0
  40
2
   1

  50
0
  41
1
  51
0
   7
standard
  71
1
  72
0
 210
0
 220
0
 230
1
 100
AcDbText
  73
0
 100
AcDbAttributeDefinition
   3
REVISO_FECHA
   2
TAG025
  70
0
   0
ATTDEF
   5
1C65
 330
13
 100
AcDbEntity
   8
0
   6
ByBlock
  62
3
 370
-2
 100
AcDbText
  10
-172.5
  20
46
  30
0
  40
2
   1

  50
0
  41
1
  51
0
   7
standard
  71
1
  72
0
 210
0
 220
0
 230
1
 100
AcDbText
  73
0
 100
AcDbAttributeDefinition
   3
DISEÑO_INDICACION
   2
TAG020
  70
0
   0
ATTDEF
   5
1C66
 330
13
 100
AcDbEntity
   8
0
   6
ByBlock
  62
3
 370
-2
 100
AcDbText
  10
-165.5
  20
46
  30
0
  40
2
   1

  50
0
  41
1
  51
0
   7
standard
  71
1
  72
0
 210
0
 220
0
 230
1
 100
AcDbText
  73
0
 100
AcDbAttributeDefinition
   3
DISEÑO_NOMBRE
   2
TAG021
  70
0
   0
ATTDEF
   5
1C67
 330
13
 100
AcDbEntity
   8
0
   6
ByBlock
  62
3
 370
-2
 100
AcDbText
  10
-154
  20
46
  30
0
  40
2
   1

  50
0
  41
1
  51
0
   7
standard
  71
1
  72
0
 210
0
 220
0
 230
1
 100
AcDbText
  73
0
 100
AcDbAttributeDefinition
   3
DISEÑO_FECHA
   2
TAG022
  70
0
   0
LWPOLYLINE
   5
1C68
 330
13
 100
AcDbEntity
   8
0
   6
ByBlock
  62
0
 370
-2
 100
AcDbPolyline
  90
5
  70
1
  43
0
  10
-6.25000000000003
  20
3.75
  42
0
  10
-3.75000000000003
  20
3.75
  42
0
  10
-3.75000000000003
  20
6.25
  42
0
  10
-6.25000000000003
  20
6.25
  42
0
  10
-6.25000000000003
  20
3.75
   0
ATTDEF
   5
1C69
 330
13
 100
AcDbEntity
   8
0
   6
ByBlock
  62
3
 370
-2
 100
AcDbText
  10
-52
  20
12
  30
0
  40
3
   1

  50
0
  41
1
  51
0
   7
standard
  71
1
  72
0
 210
0
 220
0
 230
1
 100
AcDbText
  73
0
 100
AcDbAttributeDefinition
   3
ESPECIALIDAD
   2
TAG010
  70
0
   0
ATTDEF
   5
1C6A
 330
13
 100
AcDbEntity
   8
0
   6
ByBlock
  62
3
 370
-2
 100
AcDbText
  10
-130.5
  20
30
  30
0
  40
2
   1

  50
0
  41
1
  51
0
   7
standard
  71
1
  72
0
 210
0
 220
0
 230
1
 100
AcDbText
  73
0
 100
AcDbAttributeDefinition
   3
R1
   2
TAG030
  70
0
   0
ATTDEF
   5
1C6B
 330
13
 100
AcDbEntity
   8
0
   6
ByBlock
  62
3
 370
-2
 100
AcDbText
  10
-120
  20
30.0000000000001
  30
0
  40
2
   1

  50
0
  41
1
  51
0
   7
standard
  71
1
  72
0
 210
0
 220
0
 230
1
 100
AcDbText
  73
0
 100
AcDbAttributeDefinition
   3
R1_FECHA
   2
TAG031
  70
0
   0
ATTDEF
   5
1C6C
 330
13
 100
AcDbEntity
   8
0
   6
ByBlock
  62
3
 370
-2
 100
AcDbText
  10
-108.5
  20
30.0000000000001
  30
0
  40
2
   1

  50
0
  41
1
  51
0
   7
standard
  71
1
  72
0
 210
0
 220
0
 230
1
 100
AcDbText
  73
0
 100
AcDbAttributeDefinition
   3
R1_DISEÑO
   2
TAG032
  70
0
   0
ATTDEF
   5
1C6D
 330
13
 100
AcDbEntity
   8
0
   6
ByBlock
  62
3
 370
-2
 100
AcDbText
  10
-101.5
  20
30.0000000000001
  30
0
  40
2
   1

  50
0
  41
1
  51
0
   7
standard
  71
1
  72
0
 210
0
 220
0
 230
1
 100
AcDbText
  73
0
 100
AcDbAttributeDefinition
   3
R1_REVISO
   2
TAG033
  70
0
   0
ATTDEF
   5
1C6E
 330
13
 100
AcDbEntity
   8
0
   6
ByBlock
  62
3
 370
-2
 100
AcDbText
  10
-94.5
  20
30.0000000000002
  30
0
  40
2
   1

  50
0
  41
1
  51
0
   7
standard
  71
1
  72
0
 210
0
 220
0
 230
1
 100
AcDbText
  73
0
 100
AcDbAttributeDefinition
   3
R1_APROBO
   2
TAG034
  70
0
   0
ATTDEF
   5
1C6F
 330
13
 100
AcDbEntity
   8
0
   6
ByBlock
  62
3
 370
-2
 100
AcDbText
  10
-90
  20
30.0000000000003
  30
0
  40
2
   1

  50
0
  41
1
  51
0
   7
standard
  71
1
  72
0
 210
0
 220
0
 230
1
 100
AcDbText
  73
0
 100
AcDbAttributeDefinition
   3
R1_DESCRIPCION
   2
TAG039
  70
0
   0
ATTDEF
   5
1C70
 330
13
 100
AcDbEntity
   8
0
   6
ByBlock
  62
3
 370
-2
 100
AcDbText
  10
-130.5
  20
34
  30
0
  40
2
   1

  50
0
  41
1
  51
0
   7
standard
  71
1
  72
0
 210
0
 220
0
 230
1
 100
AcDbText
  73
0
 100
AcDbAttributeDefinition
   3
R2
   2
TAG040
  70
0
   0
ATTDEF
   5
1C71
 330
13
 100
AcDbEntity
   8
0
   6
ByBlock
  62
3
 370
-2
 100
AcDbText
  10
-120
  20
34.0000000000001
  30
0
  40
2
   1

  50
0
  41
1
  51
0
   7
standard
  71
1
  72
0
 210
0
 220
0
 230
1
 100
AcDbText
  73
0
 100
AcDbAttributeDefinition
   3
R2_FECHA
   2
TAG041
  70
0
   0
ATTDEF
   5
1C72
 330
13
 100
AcDbEntity
   8
0
   6
ByBlock
  62
3
 370
-2
 100
AcDbText
  10
-108.5
  20
34.0000000000001
  30
0
  40
2
   1

  50
0
  41
1
  51
0
   7
standard
  71
1
  72
0
 210
0
 220
0
 230
1
 100
AcDbText
  73
0
 100
AcDbAttributeDefinition
   3
R2_DISEÑO
   2
TAG042
  70
0
   0
ATTDEF
   5
1C73
 330
13
 100
AcDbEntity
   8
0
   6
ByBlock
  62
3
 370
-2
 100
AcDbText
  10
-101.5
  20
34.0000000000001
  30
0
  40
2
   1

  50
0
  41
1
  51
0
   7
standard
  71
1
  72
0
 210
0
 220
0
 230
1
 100
AcDbText
  73
0
 100
AcDbAttributeDefinition
   3
R2_REVISO
   2
TAG043
  70
0
   0
ATTDEF
   5
1C74
 330
13
 100
AcDbEntity
   8
0
   6
ByBlock
  62
3
 370
-2
 100
AcDbText
  10
-94.5
  20
34.0000000000002
  30
0
  40
2
   1

  50
0
  41
1
  51
0
   7
standard
  71
1
  72
0
 210
0
 220
0
 230
1
 100
AcDbText
  73
0
 100
AcDbAttributeDefinition
   3
R2_APROBO
   2
TAG044
  70
0
   0
ATTDEF
   5
1C75
 330
13
 100
AcDbEntity
   8
0
   6
ByBlock
  62
3
 370
-2
 100
AcDbText
  10
-90
  20
34.0000000000003
  30
0
  40
2
   1

  50
0
  41
1
  51
0
   7
standard
  71
1
  72
0
 210
0
 220
0
 230
1
 100
AcDbText
  73
0
 100
AcDbAttributeDefinition
   3
R2_DESCRIPCION
   2
TAG049
  70
0
   0
ATTDEF
   5
1C76
 330
13
 100
AcDbEntity
   8
0
   6
ByBlock
  62
3
 370
-2
 100
AcDbText
  10
-130.5
  20
38
  30
0
  40
2
   1

  50
0
  41
1
  51
0
   7
standard
  71
1
  72
0
 210
0
 220
0
 230
1
 100
AcDbText
  73
0
 100
AcDbAttributeDefinition
   3
R3
   2
TAG050
  70
0
   0
ATTDEF
   5
1C77
 330
13
 100
AcDbEntity
   8
0
   6
ByBlock
  62
3
 370
-2
 100
AcDbText
  10
-120
  20
38.0000000000001
  30
0
  40
2
   1

  50
0
  41
1
  51
0
   7
standard
  71
1
  72
0
 210
0
 220
0
 230
1
 100
AcDbText
  73
0
 100
AcDbAttributeDefinition
   3
R3_FECHA
   2
TAG051
  70
0
   0
ATTDEF
   5
1C78
 330
13
 100
AcDbEntity
   8
0
   6
ByBlock
  62
3
 370
-2
 100
AcDbText
  10
-108.5
  20
38.0000000000001
  30
0
  40
2
   1

  50
0
  41
1
  51
0
   7
standard
  71
1
  72
0
 210
0
 220
0
 230
1
 100
AcDbText
  73
0
 100
AcDbAttributeDefinition
   3
R3_DISEÑO
   2
TAG052
  70
0
   0
ATTDEF
   5
1C79
 330
13
 100
AcDbEntity
   8
0
   6
ByBlock
  62
3
 370
-2
 100
AcDbText
  10
-101.5
  20
38.0000000000001
  30
0
  40
2
   1

  50
0
  41
1
  51
0
   7
standard
  71
1
  72
0
 210
0
 220
0
 230
1
 100
AcDbText
  73
0
 100
AcDbAttributeDefinition
   3
R3_REVISO
   2
TAG053
  70
0
   0
ATTDEF
   5
1C7A
 330
13
 100
AcDbEntity
   8
0
   6
ByBlock
  62
3
 370
-2
 100
AcDbText
  10
-94.5
  20
38.0000000000002
  30
0
  40
2
   1

  50
0
  41
1
  51
0
   7
standard
  71
1
  72
0
 210
0
 220
0
 230
1
 100
AcDbText
  73
0
 100
AcDbAttributeDefinition
   3
R3_APROBO
   2
TAG054
  70
0
   0
ATTDEF
   5
1C7B
 330
13
 100
AcDbEntity
   8
0
   6
ByBlock
  62
3
 370
-2
 100
AcDbText
  10
-90
  20
38.0000000000003
  30
0
  40
2
   1

  50
0
  41
1
  51
0
   7
standard
  71
1
  72
0
 210
0
 220
0
 230
1
 100
AcDbText
  73
0
 100
AcDbAttributeDefinition
   3
R3_DESCRIPCION
   2
TAG059
  70
0
   0
ATTDEF
   5
1C7C
 330
13
 100
AcDbEntity
   8
0
   6
ByBlock
  62
3
 370
-2
 100
AcDbText
  10
-130.5
  20
42
  30
0
  40
2
   1

  50
0
  41
1
  51
0
   7
standard
  71
1
  72
0
 210
0
 220
0
 230
1
 100
AcDbText
  73
0
 100
AcDbAttributeDefinition
   3
R4
   2
TAG060
  70
0
   0
ATTDEF
   5
1C7D
 330
13
 100
AcDbEntity
   8
0
   6
ByBlock
  62
3
 370
-2
 100
AcDbText
  10
-120
  20
42.0000000000001
  30
0
  40
2
   1

  50
0
  41
1
  51
0
   7
standard
  71
1
  72
0
 210
0
 220
0
 230
1
 100
AcDbText
  73
0
 100
AcDbAttributeDefinition
   3
R4_FECHA
   2
TAG061
  70
0
   0
ATTDEF
   5
1C7E
 330
13
 100
AcDbEntity
   8
0
   6
ByBlock
  62
3
 370
-2
 100
AcDbText
  10
-108.5
  20
42.0000000000001
  30
0
  40
2
   1

  50
0
  41
1
  51
0
   7
standard
  71
1
  72
0
 210
0
 220
0
 230
1
 100
AcDbText
  73
0
 100
AcDbAttributeDefinition
   3
R4_DISEÑO
   2
TAG062
  70
0
   0
ATTDEF
   5
1C7F
 330
13
 100
AcDbEntity
   8
0
   6
ByBlock
  62
3
 370
-2
 100
AcDbText
  10
-101.5
  20
42.0000000000001
  30
0
  40
2
   1

  50
0
  41
1
  51
0
   7
standard
  71
1
  72
0
 210
0
 220
0
 230
1
 100
AcDbText
  73
0
 100
AcDbAttributeDefinition
   3
R4_REVISO
   2
TAG063
  70
0
   0
ATTDEF
   5
1C80
 330
13
 100
AcDbEntity
   8
0
   6
ByBlock
  62
3
 370
-2
 100
AcDbText
  10
-94.5
  20
42.0000000000002
  30
0
  40
2
   1

  50
0
  41
1
  51
0
   7
standard
  71
1
  72
0
 210
0
 220
0
 230
1
 100
AcDbText
  73
0
 100
AcDbAttributeDefinition
   3
R4_APROBO
   2
TAG064
  70
0
   0
ATTDEF
   5
1C81
 330
13
 100
AcDbEntity
   8
0
   6
ByBlock
  62
3
 370
-2
 100
AcDbText
  10
-90
  20
42.0000000000003
  30
0
  40
2
   1

  50
0
  41
1
  51
0
   7
standard
  71
1
  72
0
 210
0
 220
0
 230
1
 100
AcDbText
  73
0
 100
AcDbAttributeDefinition
   3
R4_DESCRIPCION
   2
TAG069
  70
0
   0
ATTDEF
   5
1C82
 330
13
 100
AcDbEntity
   8
0
   6
ByBlock
  62
3
 370
-2
 100
AcDbText
  10
-130.5
  20
46
  30
0
  40
2
   1

  50
0
  41
1
  51
0
   7
standard
  71
1
  72
0
 210
0
 220
0
 230
1
 100
AcDbText
  73
0
 100
AcDbAttributeDefinition
   3
R5
   2
TAG070
  70
0
   0
ATTDEF
   5
1C83
 330
13
 100
AcDbEntity
   8
0
   6
ByBlock
  62
3
 370
-2
 100
AcDbText
  10
-120
  20
46.0000000000001
  30
0
  40
2
   1

  50
0
  41
1
  51
0
   7
standard
  71
1
  72
0
 210
0
 220
0
 230
1
 100
AcDbText
  73
0
 100
AcDbAttributeDefinition
   3
R5_FECHA
   2
TAG071
  70
0
   0
ATTDEF
   5
1C84
 330
13
 100
AcDbEntity
   8
0
   6
ByBlock
  62
3
 370
-2
 100
AcDbText
  10
-108.5
  20
46.0000000000001
  30
0
  40
2
   1

  50
0
  41
1
  51
0
   7
standard
  71
1
  72
0
 210
0
 220
0
 230
1
 100
AcDbText
  73
0
 100
AcDbAttributeDefinition
   3
R5_DISEÑO
   2
TAG072
  70
0
   0
ATTDEF
   5
1C85
 330
13
 100
AcDbEntity
   8
0
   6
ByBlock
  62
3
 370
-2
 100
AcDbText
  10
-101.5
  20
46.0000000000001
  30
0
  40
2
   1

  50
0
  41
1
  51
0
   7
standard
  71
1
  72
0
 210
0
 220
0
 230
1
 100
AcDbText
  73
0
 100
AcDbAttributeDefinition
   3
R5_REVISO
   2
TAG073
  70
0
   0
ATTDEF
   5
1C86
 330
13
 100
AcDbEntity
   8
0
   6
ByBlock
  62
3
 370
-2
 100
AcDbText
  10
-94.5
  20
46.0000000000002
  30
0
  40
2
   1

  50
0
  41
1
  51
0
   7
standard
  71
1
  72
0
 210
0
 220
0
 230
1
 100
AcDbText
  73
0
 100
AcDbAttributeDefinition
   3
R5_APROBO
   2
TAG074
  70
0
   0
ATTDEF
   5
1C87
 330
13
 100
AcDbEntity
   8
0
   6
ByBlock
  62
3
 370
-2
 100
AcDbText
  10
-90
  20
46.0000000000003
  30
0
  40
2
   1

  50
0
  41
1
  51
0
   7
standard
  71
1
  72
0
 210
0
 220
0
 230
1
 100
AcDbText
  73
0
 100
AcDbAttributeDefinition
   3
R5_DESCRIPCION
   2
TAG079
  70
0
   0
ENDBLK
   5
3A
 330
13
 100
AcDbEntity
   8
0
 100
AcDbBlockEnd
   0
BLOCK
   5
16
 330
15
 100
AcDbEntity
   8
0
 100
AcDbBlockBegin
   2
INSTRUMENT_LOCAL
  70
2
  10
0
  20
0
  30
0
   3
INSTRUMENT_LOCAL
   1

   0
CIRCLE
   5
1DCF
 330
15
 100
AcDbEntity
   8
0
   6
Continuous
  62
0
 370
-2
 100
AcDbCircle
  10
0
  20
0
  40
6
   0
ATTDEF
   5
1DD0
 330
15
 100
AcDbEntity
   8
0
   6
Continuous
  62
0
 370
-3
 100
AcDbText
  10
-3
  20
1.5
  30
0
  40
3
   1
##
  50
0
  41
1
  51
0
   7
romans
  71
1
  72
0
 210
0
 220
0
 230
1
 100
AcDbText
  73
0
 100
AcDbAttributeDefinition
   3
INSTRUMENT TYPE
   2
INS
  70
0
   0
ATTDEF
   5
1DD1
 330
15
 100
AcDbEntity
   8
0
   6
Continuous
  62
0
 370
-3
 100
AcDbText
  10
-4.57142857142857
  20
-3.6
  30
0
  40
3
   1
0000
  50
0
  41
1
  51
0
   7
romans
  71
1
  72
0
 210
0
 220
0
 230
1
 100
AcDbText
  73
0
 100
AcDbAttributeDefinition
   3
NUMBER
   2
1234
  70
0
   0
ATTDEF
   5
1DD2
 330
15
 100
AcDbEntity
   8
0
   6
Continuous
  62
0
 370
-3
 100
AcDbText
  10
6
  20
-4.5
  30
0
  40
3
   1

  50
0
  41
1
  51
0
   7
romans
  71
1
  72
0
  11
0
  21
0
  31
0
 210
0
 220
0
 230
1
 100
AcDbText
  73
0
 100
AcDbAttributeDefinition
   3
SUFFIX
   2
SF
  70
0
   0
ATTDEF
   5
1DD3
 330
15
 100
AcDbEntity
   8
0
   6
Continuous
  62
0
 370
-3
 100
AcDbText
  10
6
  20
1
  30
0
  40
3
   1

  50
0
  41
1
  51
0
   7
romans
  71
1
  72
0
  11
0
  21
0
  31
0
 210
0
 220
0
 230
1
 100
AcDbText
  73
0
 100
AcDbAttributeDefinition
   3
SET POINT
   2
SET
  70
0
   0
ATTDEF
   5
1DD4
 330
15
 100
AcDbEntity
   8
0
   6
Continuous
  62
0
 370
-3
 100
AcDbText
  10
6
  20
4.5
  30
0
  40
3
   1

  50
0
  41
1
  51
0
   7
romans
  71
1
  72
0
  11
0
  21
0
  31
0
 210
0
 220
0
 230
1
 100
AcDbText
  73
0
 100
AcDbAttributeDefinition
   3
ALARM
   2
AL
  70
0
   0
ENDBLK
   5
3B
 330
15
 100
AcDbEntity
   8
0
 100
AcDbBlockEnd
   0
BLOCK
   5
18
 330
17
 100
AcDbEntity
   8
0
 100
AcDbBlockBegin
   2
VALVE_GATE
  70
2
  10
0
  20
0
  30
0
   3
VALVE_GATE
   1

   0
ATTDEF
   5
1E9F
 330
17
 100
AcDbEntity
   8
0
   6
ByBlock
  62
0
 370
-2
 100
AcDbText
  10
-1E-16
  20
-5.5
  30
0
  40
3
   1

  50
0
  41
1
  51
0
   7
romans
  71
1
  72
0
 210
0
 220
0
 230
1
 100
AcDbText
  73
0
 100
AcDbAttributeDefinition
   3
VALVE SIZE
   2
SIZE
  70
0
   0
LINE
   5
1EA0
 330
17
 100
AcDbEntity
   8
0
   6
ByBlock
  62
0
 370
-2
 100
AcDbLine
  10
-5
  20
2
  11
-5
  21
-2
   0
LINE
   5
1EA1
 330
17
 100
AcDbEntity
   8
0
   6
ByBlock
  62
0
 370
-2
 100
AcDbLine
  10
-4
  20
2
  11
-4
  21
-2
   0
LINE
   5
1EA2
 330
17
 100
AcDbEntity
   8
0
   6
ByBlock
  62
0
 370
-2
 100
AcDbLine
  10
4
  20
2
  11
4
  21
-2
   0
LINE
   5
1EA3
 330
17
 100
AcDbEntity
   8
0
   6
ByBlock
  62
0
 370
-2
 100
AcDbLine
  10
5
  20
2
  11
5
  21
-2
   0
LINE
   5
1EA4
 330
17
 100
AcDbEntity
   8
0
   6
ByBlock
  62
0
 370
-2
 100
AcDbLine
  10
-4
  20
2
  11
4
  21
-2
   0
LINE
   5
1EA5
 330
17
 100
AcDbEntity
   8
0
   6
ByBlock
  62
0
 370
-2
 100
AcDbLine
  10
4
  20
2
  11
-4
  21
-2
   0
ENDBLK
   5
3C
 330
17
 100
AcDbEntity
   8
0
 100
AcDbBlockEnd
   0
BLOCK
   5
1A
 330
19
 100
AcDbEntity
   8
0
 100
AcDbBlockBegin
   2
INDICATING_DCS
  70
2
  10
0
  20
0
  30
0
   3
INDICATING_DCS
   1

   0
CIRCLE
   5
1F34
 330
19
 100
AcDbEntity
   8
0
   6
ByBlock
  62
0
 370
-2
 100
AcDbCircle
  10
0
  20
0
  40
6
   0
ATTDEF
   5
1F35
 330
19
 100
AcDbEntity
   8
0
   6
ByBlock
  62
0
 370
-2
 100
AcDbText
  10
-3
  20
1.5
  30
0
  40
3
   1
##
  50
0
  41
1
  51
0
   7
romans
  71
1
  72
0
 210
0
 220
0
 230
1
 100
AcDbText
  73
0
 100
AcDbAttributeDefinition
   3
INSTRUMENT TYPE
   2
INS
  70
0
   0
ATTDEF
   5
1F36
 330
19
 100
AcDbEntity
   8
0
   6
ByBlock
  62
0
 370
-2
 100
AcDbText
  10
-4.57142857142857
  20
-3.6
  30
0
  40
3
   1
0000
  50
0
  41
1
  51
0
   7
romans
  71
1
  72
0
 210
0
 220
0
 230
1
 100
AcDbText
  73
0
 100
AcDbAttributeDefinition
   3
NUMBER
   2
1234
  70
0
   0
ATTDEF
   5
1F37
 330
19
 100
AcDbEntity
   8
0
   6
ByBlock
  62
0
 370
-2
 100
AcDbText
  10
6
  20
-4.5
  30
0
  40
3
   1

  50
0
  41
1
  51
0
   7
romans
  71
1
  72
0
  11
0
  21
0
  31
0
 210
0
 220
0
 230
1
 100
AcDbText
  73
0
 100
AcDbAttributeDefinition
   3
SUFFIX
   2
SF
  70
0
   0
ATTDEF
   5
1F38
 330
19
 100
AcDbEntity
   8
0
   6
ByBlock
  62
0
 370
-2
 100
AcDbText
  10
6
  20
1
  30
0
  40
3
   1

  50
0
  41
1
  51
0
   7
romans
  71
1
  72
0
  11
0
  21
0
  31
0
 210
0
 220
0
 230
1
 100
AcDbText
  73
0
 100
AcDbAttributeDefinition
   3
SET POINT
   2
SET
  70
0
   0
ATTDEF
   5
1F39
 330
19
 100
AcDbEntity
   8
0
   6
ByBlock
  62
0
 370
-2
 100
AcDbText
  10
6
  20
4.5
  30
0
  40
3
   1

  50
0
  41
1
  51
0
   7
romans
  71
1
  72
0
  11
0
  21
0
  31
0
 210
0
 220
0
 230
1
 100
AcDbText
  73
0
 100
AcDbAttributeDefinition
   3
ALARM
   2
AL
  70
0
   0
LINE
   5
1F3A
 330
19
 100
AcDbEntity
   8
0
   6
ByBlock
  62
0
 370
-2
 100
AcDbLine
  10
6
  20
0
  11
-6
  21
7E-16
   0
LWPOLYLINE
   5
1F3B
 330
19
 100
AcDbEntity
   8
0
   6
ByBlock
  62
0
 370
-2
 100
AcDbPolyline
  90
5
  70
1
  43
0
  10
-6
  20
-6
  42
0
  10
6
  20
-6
  42
0
  10
6
  20
6
  42
0
  10
-6
  20
6
  42
0
  10
-6
  20
-6
   0
ENDBLK
   5
3D
 330
19
 100
AcDbEntity
   8
0
 100
AcDbBlockEnd
   0
BLOCK
   5
1C
 330
1B
 100
AcDbEntity
   8
0
 100
AcDbBlockBegin
   2
VALVE_GLOBE
  70
2
  10
0
  20
0
  30
0
   3
VALVE_GLOBE
   1

   0
ATTDEF
   5
1F84
 330
1B
 100
AcDbEntity
   8
0
   6
ByBlock
  62
0
 370
-2
 100
AcDbText
  10
-1E-16
  20
-5.5
  30
0
  40
3
   1

  50
0
  41
1
  51
0
   7
romans
  71
1
  72
0
 210
0
 220
0
 230
1
 100
AcDbText
  73
0
 100
AcDbAttributeDefinition
   3
VALVE SIZE
   2
SIZE
  70
0
   0
LINE
   5
1F85
 330
1B
 100
AcDbEntity
   8
0
   6
ByBlock
  62
0
 370
-2
 100
AcDbLine
  10
-5
  20
2
  11
-5
  21
-2
   0
LINE
   5
1F86
 330
1B
 100
AcDbEntity
   8
0
   6
ByBlock
  62
0
 370
-2
 100
AcDbLine
  10
-4
  20
2
  11
-4
  21
-2
   0
LINE
   5
1F87
 330
1B
 100
AcDbEntity
   8
0
   6
ByBlock
  62
0
 370
-2
 100
AcDbLine
  10
4
  20
2
  11
4
  21
-2
   0
LINE
   5
1F88
 330
1B
 100
AcDbEntity
   8
0
   6
ByBlock
  62
0
 370
-2
 100
AcDbLine
  10
5
  20
2
  11
5
  21
-2
   0
LINE
   5
1F89
 330
1B
 100
AcDbEntity
   8
0
   6
ByBlock
  62
0
 370
-2
 100
AcDbLine
  10
4
  20
2
  11
-4
  21
-2
   0
LINE
   5
1F8A
 330
1B
 100
AcDbEntity
   8
0
   6
ByBlock
  62
0
 370
-2
 100
AcDbLine
  10
-4
  20
2
  11
4
  21
-2
   0
CIRCLE
   5
1F8B
 330
1B
 100
AcDbEntity
   8
0
   6
ByBlock
  62
0
 370
-2
 100
AcDbCircle
  10
0
  20
0
  40
2
   0
ENDBLK
   5
3E
 330
1B
 100
AcDbEntity
   8
0
 100
AcDbBlockEnd
   0
BLOCK
   5
1E
 330
1D
 100
AcDbEntity
   8
0
 100
AcDbBlockBegin
   2
VALVE_ACTUATOR_PNEUMATIC
  70
0
  10
0
  20
0
  30
0
   3
VALVE_ACTUATOR_PNEUMATIC
   1

   0
LINE
   5
1FCD
 330
1D
 100
AcDbEntity
   8
0
   6
ByBlock
  62
0
 370
-2
 100
AcDbLine
  10
-2
  20
5
  11
2
  21
5
   0
ARC
   5
1FCE
 330
1D
 100
AcDbEntity
   8
0
   6
ByBlock
  62
0
 370
-2
 100
AcDbCircle
  10
3E-16
  20
4.41666666666667
  40
2.08333333333333
 100
AcDbArc
  50
16.260204708312
  51
163.739795291688
   0
LINE
   5
1FCF
 330
1D
 100
AcDbEntity
   8
0
   6
ByBlock
  62
0
 370
-2
 100
AcDbLine
  10
0
  20
0
  11
3E-16
  21
5
   0
ENDBLK
   5
3F
 330
1D
 100
AcDbEntity
   8
0
 100
AcDbBlockEnd
   0
BLOCK
   5
6
 330
5
 100
AcDbEntity
   8
0
 100
AcDbBlockBegin
   2
*Paper_Space19
  70
0
  10
0
  20
0
  30
0
   3
*Paper_Space19
   1

   0
ENDBLK
   5
40
 330
5
 100
AcDbEntity
   8
0
 100
AcDbBlockEnd
   0
ENDSEC
  0
SECTION
  2
ENTITIES
   0
VIEWPORT
   5
41
 330
2
 100
AcDbEntity
   8
0
   6
ByBlock
  62
0
 370
-3
 100
AcDbViewport
  10
296.989577481771
  20
210.0108598495
  30
0
  40
948.451315064035
  41
420.021719699
  68
0
  69
0
  12
296.989577481771
  22
210.0108598495
  13
0
  23
0
  14
0
  24
0
  15
0
  25
0
  16
0
  26
0
  36
1
  17
0
  27
0
  37
0
  42
0
  43
0
  44
0
  45
423.609450120722
  50
0
  51
0
  72
0
  90
64
   0
VIEWPORT
   5
42
 330
2
 100
AcDbEntity
   8
EQUPMENT
   6
ByBlock
  62
0
 370
-3
 100
AcDbViewport
  10
210.499999333624
  20
229.000000130496
  30
0
  40
399.000001332753
  41
458.000000260992
  68
0
  69
0
  12
343.655487892497
  22
285.621479511649
  13
0
  23
0
  14
0
  24
0
  15
0
  25
0
  16
0
  26
0
  36
1
  17
0
  27
0
  37
0
  42
0
  43
0
  44
0
  45
378.947367430008
  50
0
  51
0
  72
0
  90
64
   0
INSERT
   5
43
 330
2
 100
AcDbEntity
   8
PIPELINES
   6
ByBlock
  62
0
 370
-3
 100
AcDbBlockReference
   2
A2
  10
0
  20
0
  30
0
  41
1
  42
1
  43
1
  50
0
  70
1
  71
1
  44
0
  45
0
   0
SEQEND
   5
44
 330
43
 100
AcDbEntity
   8
0
 100
AcDbBlockEnd
   0
INSERT
   5
45
 330
2
 100
AcDbEntity
   8
PIPELINES
   6
ByBlock
  62
0
 370
-3
 100
AcDbBlockReference
   2
A
  10
593.999998667247
  20
2.609911007E-7
  30
0
  41
1
  42
1
  43
1
  50
0
  70
1
  71
1
  44
0
  45
0
   0
ATTRIB
   5
46
 330
45
 100
AcDbEntity
   8
0
   6
ByBlock
  62
4
 370
-2
 100
AcDbText
  10
541.999998667247
  20
24.0000002609911
  30
0
  40
3
   1
NUMBER
  50
0
  41
1
  51
0
   7
standard
  71
1
  72
0
 210
0
 220
0
 230
1
 100
AcDbText
  73
0
 100
AcDbAttribute
   3

   2
TAG001
  70
0
   0
ATTRIB
   5
47
 330
45
 100
AcDbEntity
   8
0
   6
ByBlock
  62
3
 370
-2
 100
AcDbText
  10
569.999998667248
  20
12.500000260991
  30
0
  40
2
   1
01 OF 25
  50
0
  41
1
  51
0
   7
standard
  71
1
  72
0
 210
0
 220
0
 230
1
 100
AcDbText
  73
0
 100
AcDbAttribute
   3

   2
TAG002
  70
0
   0
ATTRIB
   5
48
 330
45
 100
AcDbEntity
   8
0
   6
ByBlock
  62
3
 370
-2
 100
AcDbText
  10
569.999998667248
  20
24.500000260991
  30
0
  40
2
   1
A
  50
0
  41
1
  51
0
   7
standard
  71
1
  72
0
 210
0
 220
0
 230
1
 100
AcDbText
  73
0
 100
AcDbAttribute
   3

   2
TAG003
  70
0
   0
ATTRIB
   5
49
 330
45
 100
AcDbEntity
   8
0
   6
ByBlock
  62
4
 370
-2
 100
AcDbText
  10
484.5571415244
  20
24.000000260991
  30
0
  40
3
   1
TESTING PROJECT
  50
0
  41
1
  51
0
   7
standard
  71
1
  72
0
 210
0
 220
0
 230
1
 100
AcDbText
  73
0
 100
AcDbAttribute
   3

   2
TAG004
  70
0
   0
ATTRIB
   5
4A
 330
45
 100
AcDbEntity
   8
0
   6
ByBlock
  62
3
 370
-2
 100
AcDbText
  10
485.299998667248
  20
16.8571431181339
  30
0
  40
3
   1
TITLE FIRST LINE
  50
0
  41
1
  51
0
   7
standard
  71
1
  72
0
 210
0
 220
0
 230
1
 100
AcDbText
  73
0
 100
AcDbAttribute
   3

   2
TAG005
  70
0
   0
ATTRIB
   5
4B
 330
45
 100
AcDbEntity
   8
0
   6
ByBlock
  62
3
 370
-2
 100
AcDbText
  10
482.899998667248
  20
12.000000260991
  30
0
  40
3
   1
TITLE SECOND LINE
  50
0
  41
1
  51
0
   7
standard
  71
1
  72
0
 210
0
 220
0
 230
1
 100
AcDbText
  73
0
 100
AcDbAttribute
   3

   2
TAG006
  70
0
   0
ATTRIB
   5
4C
 330
45
 100
AcDbEntity
   8
0
   6
ByBlock
  62
3
 370
-2
 100
AcDbText
  10
541.999998667247
  20
18.0000002609911
  30
0
  40
3
   1
123456
  50
0
  41
1
  51
0
   7
standard
  71
1
  72
0
 210
0
 220
0
 230
1
 100
AcDbText
  73
0
 100
AcDbAttribute
   3

   2
TAG007
  70
0
   0
ATTRIB
   5
4D
 330
45
 100
AcDbEntity
   8
0
   6
ByBlock
  62
3
 370
-2
 100
AcDbText
  10
569.999998667248
  20
30.500000260991
  30
0
  40
2
   1
PID
  50
0
  41
1
  51
0
   7
standard
  71
1
  72
0
 210
0
 220
0
 230
1
 100
AcDbText
  73
0
 100
AcDbAttribute
   3

   2
TAG008
  70
0
   0
ATTRIB
   5
4E
 330
45
 100
AcDbEntity
   8
0
   6
ByBlock
  62
3
 370
-2
 100
AcDbText
  10
569.999998667248
  20
36.500000260991
  30
0
  40
2
   1

  50
0
  41
1
  51
0
   7
standard
  71
1
  72
0
 210
0
 220
0
 230
1
 100
AcDbText
  73
0
 100
AcDbAttribute
   3

   2
TAG009
  70
0
   0
ATTRIB
   5
4F
 330
45
 100
AcDbEntity
   8
0
   6
ByBlock
  62
3
 370
-2
 100
AcDbText
  10
421.499998667247
  20
38.0000002609911
  30
0
  40
2
   1

  50
0
  41
1
  51
0
   7
standard
  71
1
  72
0
 210
0
 220
0
 230
1
 100
AcDbText
  73
0
 100
AcDbAttribute
   3

   2
TAG026
  70
0
   0
ATTRIB
   5
50
 330
45
 100
AcDbEntity
   8
0
   6
ByBlock
  62
3
 370
-2
 100
AcDbText
  10
428.499998667247
  20
38.0000002609911
  30
0
  40
2
   1

  50
0
  41
1
  51
0
   7
standard
  71
1
  72
0
 210
0
 220
0
 230
1
 100
AcDbText
  73
0
 100
AcDbAttribute
   3

   2
TAG027
  70
0
   0
ATTRIB
   5
51
 330
45
 100
AcDbEntity
   8
0
   6
ByBlock
  62
3
 370
-2
 100
AcDbText
  10
439.999998667247
  20
38.0000002609911
  30
0
  40
2
   1

  50
0
  41
1
  51
0
   7
standard
  71
1
  72
0
 210
0
 220
0
 230
1
 100
AcDbText
  73
0
 100
AcDbAttribute
   3

   2
TAG028
  70
0
   0
ATTRIB
   5
52
 330
45
 100
AcDbEntity
   8
0
   6
ByBlock
  62
3
 370
-2
 100
AcDbText
  10
421.499998667247
  20
42.0000002609911
  30
0
  40
2
   1

  50
0
  41
1
  51
0
   7
standard
  71
1
  72
0
 210
0
 220
0
 230
1
 100
AcDbText
  73
0
 100
AcDbAttribute
   3

   2
TAG023
  70
0
   0
ATTRIB
   5
53
 330
45
 100
AcDbEntity
   8
0
   6
ByBlock
  62
3
 370
-2
 100
AcDbText
  10
428.499998667247
  20
42.0000002609911
  30
0
  40
2
   1

  50
0
  41
1
  51
0
   7
standard
  71
1
  72
0
 210
0
 220
0
 230
1
 100
AcDbText
  73
0
 100
AcDbAttribute
   3

   2
TAG024
  70
0
   0
ATTRIB
   5
54
 330
45
 100
AcDbEntity
   8
0
   6
ByBlock
  62
3
 370
-2
 100
AcDbText
  10
439.999998667247
  20
42.0000002609911
  30
0
  40
2
   1

  50
0
  41
1
  51
0
   7
standard
  71
1
  72
0
 210
0
 220
0
 230
1
 100
AcDbText
  73
0
 100
AcDbAttribute
   3

   2
TAG025
  70
0
   0
ATTRIB
   5
55
 330
45
 100
AcDbEntity
   8
0
   6
ByBlock
  62
3
 370
-2
 100
AcDbText
  10
421.499998667247
  20
46.0000002609912
  30
0
  40
2
   1

  50
0
  41
1
  51
0
   7
standard
  71
1
  72
0
 210
0
 220
0
 230
1
 100
AcDbText
  73
0
 100
AcDbAttribute
   3

   2
TAG020
  70
0
   0
ATTRIB
   5
56
 330
45
 100
AcDbEntity
   8
0
   6
ByBlock
  62
3
 370
-2
 100
AcDbText
  10
428.499998667247
  20
46.0000002609912
  30
0
  40
2
   1

  50
0
  41
1
  51
0
   7
standard
  71
1
  72
0
 210
0
 220
0
 230
1
 100
AcDbText
  73
0
 100
AcDbAttribute
   3

   2
TAG021
  70
0
   0
ATTRIB
   5
57
 330
45
 100
AcDbEntity
   8
0
   6
ByBlock
  62
3
 370
-2
 100
AcDbText
  10
439.999998667247
  20
46.0000002609912
  30
0
  40
2
   1

  50
0
  41
1
  51
0
   7
standard
  71
1
  72
0
 210
0
 220
0
 230
1
 100
AcDbText
  73
0
 100
AcDbAttribute
   3

   2
TAG022
  70
0
   0
ATTRIB
   5
58
 330
45
 100
AcDbEntity
   8
0
   6
ByBlock
  62
3
 370
-2
 100
AcDbText
  10
541.999998667247
  20
12.0000002609911
  30
0
  40
3
   1

  50
0
  41
1
  51
0
   7
standard
  71
1
  72
0
 210
0
 220
0
 230
1
 100
AcDbText
  73
0
 100
AcDbAttribute
   3

   2
TAG010
  70
0
   0
ATTRIB
   5
59
 330
45
 100
AcDbEntity
   8
0
   6
ByBlock
  62
3
 370
-2
 100
AcDbText
  10
463.499998667247
  20
30.0000002609911
  30
0
  40
2
   1

  50
0
  41
1
  51
0
   7
standard
  71
1
  72
0
 210
0
 220
0
 230
1
 100
AcDbText
  73
0
 100
AcDbAttribute
   3

   2
TAG030
  70
0
   0
ATTRIB
   5
5A
 330
45
 100
AcDbEntity
   8
0
   6
ByBlock
  62
3
 370
-2
 100
AcDbText
  10
473.999998667247
  20
30.0000002609912
  30
0
  40
2
   1

  50
0
  41
1
  51
0
   7
standard
  71
1
  72
0
 210
0
 220
0
 230
1
 100
AcDbText
  73
0
 100
AcDbAttribute
   3

   2
TAG031
  70
0
   0
ATTRIB
   5
5B
 330
45
 100
AcDbEntity
   8
0
   6
ByBlock
  62
3
 370
-2
 100
AcDbText
  10
485.499998667247
  20
30.0000002609912
  30
0
  40
2
   1

  50
0
  41
1
  51
0
   7
standard
  71
1
  72
0
 210
0
 220
0
 230
1
 100
AcDbText
  73
0
 100
AcDbAttribute
   3

   2
TAG032
  70
0
   0
ATTRIB
   5
5C
 330
45
 100
AcDbEntity
   8
0
   6
ByBlock
  62
3
 370
-2
 100
AcDbText
  10
492.499998667247
  20
30.0000002609912
  30
0
  40
2
   1

  50
0
  41
1
  51
0
   7
standard
  71
1
  72
0
 210
0
 220
0
 230
1
 100
AcDbText
  73
0
 100
AcDbAttribute
   3

   2
TAG033
  70
0
   0
ATTRIB
   5
5D
 330
45
 100
AcDbEntity
   8
0
   6
ByBlock
  62
3
 370
-2
 100
AcDbText
  10
499.499998667247
  20
30.0000002609913
  30
0
  40
2
   1

  50
0
  41
1
  51
0
   7
standard
  71
1
  72
0
 210
0
 220
0
 230
1
 100
AcDbText
  73
0
 100
AcDbAttribute
   3

   2
TAG034
  70
0
   0
ATTRIB
   5
5E
 330
45
 100
AcDbEntity
   8
0
   6
ByBlock
  62
3
 370
-2
 100
AcDbText
  10
503.999998667247
  20
30.0000002609914
  30
0
  40
2
   1

  50
0
  41
1
  51
0
   7
standard
  71
1
  72
0
 210
0
 220
0
 230
1
 100
AcDbText
  73
0
 100
AcDbAttribute
   3

   2
TAG039
  70
0
   0
ATTRIB
   5
5F
 330
45
 100
AcDbEntity
   8
0
   6
ByBlock
  62
3
 370
-2
 100
AcDbText
  10
463.499998667247
  20
34.0000002609911
  30
0
  40
2
   1

  50
0
  41
1
  51
0
   7
standard
  71
1
  72
0
 210
0
 220
0
 230
1
 100
AcDbText
  73
0
 100
AcDbAttribute
   3

   2
TAG040
  70
0
   0
ATTRIB
   5
60
 330
45
 100
AcDbEntity
   8
0
   6
ByBlock
  62
3
 370
-2
 100
AcDbText
  10
473.999998667247
  20
34.0000002609912
  30
0
  40
2
   1

  50
0
  41
1
  51
0
   7
standard
  71
1
  72
0
 210
0
 220
0
 230
1
 100
AcDbText
  73
0
 100
AcDbAttribute
   3

   2
TAG041
  70
0
   0
ATTRIB
   5
61
 330
45
 100
AcDbEntity
   8
0
   6
ByBlock
  62
3
 370
-2
 100
AcDbText
  10
485.499998667247
  20
34.0000002609912
  30
0
  40
2
   1

  50
0
  41
1
  51
0
   7
standard
  71
1
  72
0
 210
0
 220
0
 230
1
 100
AcDbText
  73
0
 100
AcDbAttribute
   3

   2
TAG042
  70
0
   0
ATTRIB
   5
62
 330
45
 100
AcDbEntity
   8
0
   6
ByBlock
  62
3
 370
-2
 100
AcDbText
  10
492.499998667247
  20
34.0000002609912
  30
0
  40
2
   1

  50
0
  41
1
  51
0
   7
standard
  71
1
  72
0
 210
0
 220
0
 230
1
 100
AcDbText
  73
0
 100
AcDbAttribute
   3

   2
TAG043
  70
0
   0
ATTRIB
   5
63
 330
45
 100
AcDbEntity
   8
0
   6
ByBlock
  62
3
 370
-2
 100
AcDbText
  10
499.499998667247
  20
34.0000002609913
  30
0
  40
2
   1

  50
0
  41
1
  51
0
   7
standard
  71
1
  72
0
 210
0
 220
0
 230
1
 100
AcDbText
  73
0
 100
AcDbAttribute
   3

   2
TAG044
  70
0
   0
ATTRIB
   5
64
 330
45
 100
AcDbEntity
   8
0
   6
ByBlock
  62
3
 370
-2
 100
AcDbText
  10
503.999998667247
  20
34.0000002609914
  30
0
  40
2
   1

  50
0
  41
1
  51
0
   7
standard
  71
1
  72
0
 210
0
 220
0
 230
1
 100
AcDbText
  73
0
 100
AcDbAttribute
   3

   2
TAG049
  70
0
   0
ATTRIB
   5
65
 330
45
 100
AcDbEntity
   8
0
   6
ByBlock
  62
3
 370
-2
 100
AcDbText
  10
463.499998667247
  20
38.0000002609911
  30
0
  40
2
   1

  50
0
  41
1
  51
0
   7
standard
  71
1
  72
0
 210
0
 220
0
 230
1
 100
AcDbText
  73
0
 100
AcDbAttribute
   3

   2
TAG050
  70
0
   0
ATTRIB
   5
66
 330
45
 100
AcDbEntity
   8
0
   6
ByBlock
  62
3
 370
-2
 100
AcDbText
  10
473.999998667247
  20
38.0000002609912
  30
0
  40
2
   1

  50
0
  41
1
  51
0
   7
standard
  71
1
  72
0
 210
0
 220
0
 230
1
 100
AcDbText
  73
0
 100
AcDbAttribute
   3

   2
TAG051
  70
0
   0
ATTRIB
   5
67
 330
45
 100
AcDbEntity
   8
0
   6
ByBlock
  62
3
 370
-2
 100
AcDbText
  10
485.499998667247
  20
38.0000002609912
  30
0
  40
2
   1

  50
0
  41
1
  51
0
   7
standard
  71
1
  72
0
 210
0
 220
0
 230
1
 100
AcDbText
  73
0
 100
AcDbAttribute
   3

   2
TAG052
  70
0
   0
ATTRIB
   5
68
 330
45
 100
AcDbEntity
   8
0
   6
ByBlock
  62
3
 370
-2
 100
AcDbText
  10
492.499998667247
  20
38.0000002609912
  30
0
  40
2
   1

  50
0
  41
1
  51
0
   7
standard
  71
1
  72
0
 210
0
 220
0
 230
1
 100
AcDbText
  73
0
 100
AcDbAttribute
   3

   2
TAG053
  70
0
   0
ATTRIB
   5
69
 330
45
 100
AcDbEntity
   8
0
   6
ByBlock
  62
3
 370
-2
 100
AcDbText
  10
499.499998667247
  20
38.0000002609913
  30
0
  40
2
   1

  50
0
  41
1
  51
0
   7
standard
  71
1
  72
0
 210
0
 220
0
 230
1
 100
AcDbText
  73
0
 100
AcDbAttribute
   3

   2
TAG054
  70
0
   0
ATTRIB
   5
6A
 330
45
 100
AcDbEntity
   8
0
   6
ByBlock
  62
3
 370
-2
 100
AcDbText
  10
503.999998667247
  20
38.0000002609914
  30
0
  40
2
   1

  50
0
  41
1
  51
0
   7
standard
  71
1
  72
0
 210
0
 220
0
 230
1
 100
AcDbText
  73
0
 100
AcDbAttribute
   3

   2
TAG059
  70
0
   0
ATTRIB
   5
6B
 330
45
 100
AcDbEntity
   8
0
   6
ByBlock
  62
3
 370
-2
 100
AcDbText
  10
463.499998667247
  20
42.0000002609911
  30
0
  40
2
   1

  50
0
  41
1
  51
0
   7
standard
  71
1
  72
0
 210
0
 220
0
 230
1
 100
AcDbText
  73
0
 100
AcDbAttribute
   3

   2
TAG060
  70
0
   0
ATTRIB
   5
6C
 330
45
 100
AcDbEntity
   8
0
   6
ByBlock
  62
3
 370
-2
 100
AcDbText
  10
473.999998667247
  20
42.0000002609912
  30
0
  40
2
   1

  50
0
  41
1
  51
0
   7
standard
  71
1
  72
0
 210
0
 220
0
 230
1
 100
AcDbText
  73
0
 100
AcDbAttribute
   3

   2
TAG061
  70
0
   0
ATTRIB
   5
6D
 330
45
 100
AcDbEntity
   8
0
   6
ByBlock
  62
3
 370
-2
 100
AcDbText
  10
485.499998667247
  20
42.0000002609912
  30
0
  40
2
   1

  50
0
  41
1
  51
0
   7
standard
  71
1
  72
0
 210
0
 220
0
 230
1
 100
AcDbText
  73
0
 100
AcDbAttribute
   3

   2
TAG062
  70
0
   0
ATTRIB
   5
6E
 330
45
 100
AcDbEntity
   8
0
   6
ByBlock
  62
3
 370
-2
 100
AcDbText
  10
492.499998667247
  20
42.0000002609912
  30
0
  40
2
   1

  50
0
  41
1
  51
0
   7
standard
  71
1
  72
0
 210
0
 220
0
 230
1
 100
AcDbText
  73
0
 100
AcDbAttribute
   3

   2
TAG063
  70
0
   0
ATTRIB
   5
6F
 330
45
 100
AcDbEntity
   8
0
   6
ByBlock
  62
3
 370
-2
 100
AcDbText
  10
499.499998667247
  20
42.0000002609913
  30
0
  40
2
   1

  50
0
  41
1
  51
0
   7
standard
  71
1
  72
0
 210
0
 220
0
 230
1
 100
AcDbText
  73
0
 100
AcDbAttribute
   3

   2
TAG064
  70
0
   0
ATTRIB
   5
70
 330
45
 100
AcDbEntity
   8
0
   6
ByBlock
  62
3
 370
-2
 100
AcDbText
  10
503.999998667247
  20
42.0000002609914
  30
0
  40
2
   1

  50
0
  41
1
  51
0
   7
standard
  71
1
  72
0
 210
0
 220
0
 230
1
 100
AcDbText
  73
0
 100
AcDbAttribute
   3

   2
TAG069
  70
0
   0
ATTRIB
   5
71
 330
45
 100
AcDbEntity
   8
0
   6
ByBlock
  62
3
 370
-2
 100
AcDbText
  10
463.499998667247
  20
46.0000002609911
  30
0
  40
2
   1

  50
0
  41
1
  51
0
   7
standard
  71
1
  72
0
 210
0
 220
0
 230
1
 100
AcDbText
  73
0
 100
AcDbAttribute
   3

   2
TAG070
  70
0
   0
ATTRIB
   5
72
 330
45
 100
AcDbEntity
   8
0
   6
ByBlock
  62
3
 370
-2
 100
AcDbText
  10
473.999998667247
  20
46.0000002609912
  30
0
  40
2
   1

  50
0
  41
1
  51
0
   7
standard
  71
1
  72
0
 210
0
 220
0
 230
1
 100
AcDbText
  73
0
 100
AcDbAttribute
   3

   2
TAG071
  70
0
   0
ATTRIB
   5
73
 330
45
 100
AcDbEntity
   8
0
   6
ByBlock
  62
3
 370
-2
 100
AcDbText
  10
485.499998667247
  20
46.0000002609912
  30
0
  40
2
   1

  50
0
  41
1
  51
0
   7
standard
  71
1
  72
0
 210
0
 220
0
 230
1
 100
AcDbText
  73
0
 100
AcDbAttribute
   3

   2
TAG072
  70
0
   0
ATTRIB
   5
74
 330
45
 100
AcDbEntity
   8
0
   6
ByBlock
  62
3
 370
-2
 100
AcDbText
  10
492.499998667247
  20
46.0000002609912
  30
0
  40
2
   1

  50
0
  41
1
  51
0
   7
standard
  71
1
  72
0
 210
0
 220
0
 230
1
 100
AcDbText
  73
0
 100
AcDbAttribute
   3

   2
TAG073
  70
0
   0
ATTRIB
   5
75
 330
45
 100
AcDbEntity
   8
0
   6
ByBlock
  62
3
 370
-2
 100
AcDbText
  10
499.499998667247
  20
46.0000002609913
  30
0
  40
2
   1

  50
0
  41
1
  51
0
   7
standard
  71
1
  72
0
 210
0
 220
0
 230
1
 100
AcDbText
  73
0
 100
AcDbAttribute
   3

   2
TAG074
  70
0
   0
ATTRIB
   5
76
 330
45
 100
AcDbEntity
   8
0
   6
ByBlock
  62
3
 370
-2
 100
AcDbText
  10
503.999998667247
  20
46.0000002609914
  30
0
  40
2
   1

  50
0
  41
1
  51
0
   7
standard
  71
1
  72
0
 210
0
 220
0
 230
1
 100
AcDbText
  73
0
 100
AcDbAttribute
   3

   2
TAG079
  70
0
   0
SEQEND
   5
77
 330
45
 100
AcDbEntity
   8
0
 100
AcDbBlockEnd
   0
VIEWPORT
   5
78
 330
2
 100
AcDbEntity
   8
EQUPMENT
   6
ByBlock
  62
0
 370
-3
 100
AcDbViewport
  10
496.72348269441
  20
324.208769283543
  30
0
  40
136.975901772084
  41
648.417538567086
  68
0
  69
0
  12
360.774456584227
  22
319.9459900871
  13
0
  23
0
  14
0
  24
0
  15
0
  25
0
  16
0
  26
0
  36
1
  17
0
  27
0
  37
0
  42
0
  43
0
  44
0
  45
63.6223413940392
  50
0
  51
0
  72
0
  90
64
   0
VIEWPORT
   5
79
 330
5
 100
AcDbEntity
   8
0
   6
ByBlock
  62
0
 370
-3
 100
AcDbViewport
  10
296.989577481771
  20
210.0108598495
  30
0
  40
948.451315064035
  41
420.021719699
  68
0
  69
0
  12
296.989577481771
  22
210.0108598495
  13
0
  23
0
  14
0
  24
0
  15
0
  25
0
  16
0
  26
0
  36
1
  17
0
  27
0
  37
0
  42
0
  43
0
  44
0
  45
423.609450120722
  50
0
  51
0
  72
0
  90
64
   0
VIEWPORT
   5
7A
 330
5
 100
AcDbEntity
   8
EQUPMENT
   6
ByBlock
  62
0
 370
-3
 100
AcDbViewport
  10
210.499999333624
  20
229.000000130496
  30
0
  40
399.000001332753
  41
458.000000260992
  68
0
  69
0
  12
343.655487892497
  22
285.621479511649
  13
0
  23
0
  14
0
  24
0
  15
0
  25
0
  16
0
  26
0
  36
1
  17
0
  27
0
  37
0
  42
0
  43
0
  44
0
  45
378.947367430008
  50
0
  51
0
  72
0
  90
64
   0
INSERT
   5
7B
 330
5
 100
AcDbEntity
   8
PIPELINES
   6
ByBlock
  62
0
 370
-3
 100
AcDbBlockReference
   2
A2
  10
0
  20
0
  30
0
  41
1
  42
1
  43
1
  50
0
  70
1
  71
1
  44
0
  45
0
   0
SEQEND
   5
7C
 330
7B
 100
AcDbEntity
   8
0
 100
AcDbBlockEnd
   0
INSERT
   5
7D
 330
5
 100
AcDbEntity
   8
PIPELINES
   6
ByBlock
  62
0
 370
-3
 100
AcDbBlockReference
   2
A
  10
593.999998667247
  20
2.609911007E-7
  30
0
  41
1
  42
1
  43
1
  50
0
  70
1
  71
1
  44
0
  45
0
   0
ATTRIB
   5
7E
 330
7D
 100
AcDbEntity
   8
0
   6
ByBlock
  62
4
 370
-2
 100
AcDbText
  10
541.999998667247
  20
24.0000002609911
  30
0
  40
3
   1
NUMBER
  50
0
  41
1
  51
0
   7
standard
  71
1
  72
0
 210
0
 220
0
 230
1
 100
AcDbText
  73
0
 100
AcDbAttribute
   3

   2
TAG001
  70
0
   0
ATTRIB
   5
7F
 330
7D
 100
AcDbEntity
   8
0
   6
ByBlock
  62
3
 370
-2
 100
AcDbText
  10
569.999998667248
  20
12.500000260991
  30
0
  40
2
   1
01 OF 25
  50
0
  41
1
  51
0
   7
standard
  71
1
  72
0
 210
0
 220
0
 230
1
 100
AcDbText
  73
0
 100
AcDbAttribute
   3

   2
TAG002
  70
0
   0
ATTRIB
   5
80
 330
7D
 100
AcDbEntity
   8
0
   6
ByBlock
  62
3
 370
-2
 100
AcDbText
  10
569.999998667248
  20
24.500000260991
  30
0
  40
2
   1
A
  50
0
  41
1
  51
0
   7
standard
  71
1
  72
0
 210
0
 220
0
 230
1
 100
AcDbText
  73
0
 100
AcDbAttribute
   3

   2
TAG003
  70
0
   0
ATTRIB
   5
81
 330
7D
 100
AcDbEntity
   8
0
   6
ByBlock
  62
4
 370
-2
 100
AcDbText
  10
484.5571415244
  20
24.000000260991
  30
0
  40
3
   1
TESTING PROJECT
  50
0
  41
1
  51
0
   7
standard
  71
1
  72
0
 210
0
 220
0
 230
1
 100
AcDbText
  73
0
 100
AcDbAttribute
   3

   2
TAG004
  70
0
   0
ATTRIB
   5
82
 330
7D
 100
AcDbEntity
   8
0
   6
ByBlock
  62
3
 370
-2
 100
AcDbText
  10
485.299998667248
  20
16.8571431181339
  30
0
  40
3
   1
TITLE FIRST LINE
  50
0
  41
1
  51
0
   7
standard
  71
1
  72
0
 210
0
 220
0
 230
1
 100
AcDbText
  73
0
 100
AcDbAttribute
   3

   2
TAG005
  70
0
   0
ATTRIB
   5
83
 330
7D
 100
AcDbEntity
   8
0
   6
ByBlock
  62
3
 370
-2
 100
AcDbText
  10
482.899998667248
  20
12.000000260991
  30
0
  40
3
   1
TITLE SECOND LINE
  50
0
  41
1
  51
0
   7
standard
  71
1
  72
0
 210
0
 220
0
 230
1
 100
AcDbText
  73
0
 100
AcDbAttribute
   3

   2
TAG006
  70
0
   0
ATTRIB
   5
84
 330
7D
 100
AcDbEntity
   8
0
   6
ByBlock
  62
3
 370
-2
 100
AcDbText
  10
541.999998667247
  20
18.0000002609911
  30
0
  40
3
   1
123456
  50
0
  41
1
  51
0
   7
standard
  71
1
  72
0
 210
0
 220
0
 230
1
 100
AcDbText
  73
0
 100
AcDbAttribute
   3

   2
TAG007
  70
0
   0
ATTRIB
   5
85
 330
7D
 100
AcDbEntity
   8
0
   6
ByBlock
  62
3
 370
-2
 100
AcDbText
  10
569.999998667248
  20
30.500000260991
  30
0
  40
2
   1
PID
  50
0
  41
1
  51
0
   7
standard
  71
1
  72
0
 210
0
 220
0
 230
1
 100
AcDbText
  73
0
 100
AcDbAttribute
   3

   2
TAG008
  70
0
   0
ATTRIB
   5
86
 330
7D
 100
AcDbEntity
   8
0
   6
ByBlock
  62
3
 370
-2
 100
AcDbText
  10
569.999998667248
  20
36.500000260991
  30
0
  40
2
   1

  50
0
  41
1
  51
0
   7
standard
  71
1
  72
0
 210
0
 220
0
 230
1
 100
AcDbText
  73
0
 100
AcDbAttribute
   3

   2
TAG009
  70
0
   0
ATTRIB
   5
87
 330
7D
 100
AcDbEntity
   8
0
   6
ByBlock
  62
3
 370
-2
 100
AcDbText
  10
421.499998667247
  20
38.0000002609911
  30
0
  40
2
   1

  50
0
  41
1
  51
0
   7
standard
  71
1
  72
0
 210
0
 220
0
 230
1
 100
AcDbText
  73
0
 100
AcDbAttribute
   3

   2
TAG026
  70
0
   0
ATTRIB
   5
88
 330
7D
 100
AcDbEntity
   8
0
   6
ByBlock
  62
3
 370
-2
 100
AcDbText
  10
428.499998667247
  20
38.0000002609911
  30
0
  40
2
   1

  50
0
  41
1
  51
0
   7
standard
  71
1
  72
0
 210
0
 220
0
 230
1
 100
AcDbText
  73
0
 100
AcDbAttribute
   3

   2
TAG027
  70
0
   0
ATTRIB
   5
89
 330
7D
 100
AcDbEntity
   8
0
   6
ByBlock
  62
3
 370
-2
 100
AcDbText
  10
439.999998667247
  20
38.0000002609911
  30
0
  40
2
   1

  50
0
  41
1
  51
0
   7
standard
  71
1
  72
0
 210
0
 220
0
 230
1
 100
AcDbText
  73
0
 100
AcDbAttribute
   3

   2
TAG028
  70
0
   0
ATTRIB
   5
8A
 330
7D
 100
AcDbEntity
   8
0
   6
ByBlock
  62
3
 370
-2
 100
AcDbText
  10
421.499998667247
  20
42.0000002609911
  30
0
  40
2
   1

  50
0
  41
1
  51
0
   7
standard
  71
1
  72
0
 210
0
 220
0
 230
1
 100
AcDbText
  73
0
 100
AcDbAttribute
   3

   2
TAG023
  70
0
   0
ATTRIB
   5
8B
 330
7D
 100
AcDbEntity
   8
0
   6
ByBlock
  62
3
 370
-2
 100
AcDbText
  10
428.499998667247
  20
42.0000002609911
  30
0
  40
2
   1

  50
0
  41
1
  51
0
   7
standard
  71
1
  72
0
 210
0
 220
0
 230
1
 100
AcDbText
  73
0
 100
AcDbAttribute
   3

   2
TAG024
  70
0
   0
ATTRIB
   5
8C
 330
7D
 100
AcDbEntity
   8
0
   6
ByBlock
  62
3
 370
-2
 100
AcDbText
  10
439.999998667247
  20
42.0000002609911
  30
0
  40
2
   1

  50
0
  41
1
  51
0
   7
standard
  71
1
  72
0
 210
0
 220
0
 230
1
 100
AcDbText
  73
0
 100
AcDbAttribute
   3

   2
TAG025
  70
0
   0
ATTRIB
   5
8D
 330
7D
 100
AcDbEntity
   8
0
   6
ByBlock
  62
3
 370
-2
 100
AcDbText
  10
421.499998667247
  20
46.0000002609912
  30
0
  40
2
   1

  50
0
  41
1
  51
0
   7
standard
  71
1
  72
0
 210
0
 220
0
 230
1
 100
AcDbText
  73
0
 100
AcDbAttribute
   3

   2
TAG020
  70
0
   0
ATTRIB
   5
8E
 330
7D
 100
AcDbEntity
   8
0
   6
ByBlock
  62
3
 370
-2
 100
AcDbText
  10
428.499998667247
  20
46.0000002609912
  30
0
  40
2
   1

  50
0
  41
1
  51
0
   7
standard
  71
1
  72
0
 210
0
 220
0
 230
1
 100
AcDbText
  73
0
 100
AcDbAttribute
   3

   2
TAG021
  70
0
   0
ATTRIB
   5
8F
 330
7D
 100
AcDbEntity
   8
0
   6
ByBlock
  62
3
 370
-2
 100
AcDbText
  10
439.999998667247
  20
46.0000002609912
  30
0
  40
2
   1

  50
0
  41
1
  51
0
   7
standard
  71
1
  72
0
 210
0
 220
0
 230
1
 100
AcDbText
  73
0
 100
AcDbAttribute
   3

   2
TAG022
  70
0
   0
ATTRIB
   5
90
 330
7D
 100
AcDbEntity
   8
0
   6
ByBlock
  62
3
 370
-2
 100
AcDbText
  10
541.999998667247
  20
12.0000002609911
  30
0
  40
3
   1

  50
0
  41
1
  51
0
   7
standard
  71
1
  72
0
 210
0
 220
0
 230
1
 100
AcDbText
  73
0
 100
AcDbAttribute
   3

   2
TAG010
  70
0
   0
ATTRIB
   5
91
 330
7D
 100
AcDbEntity
   8
0
   6
ByBlock
  62
3
 370
-2
 100
AcDbText
  10
463.499998667247
  20
30.0000002609911
  30
0
  40
2
   1

  50
0
  41
1
  51
0
   7
standard
  71
1
  72
0
 210
0
 220
0
 230
1
 100
AcDbText
  73
0
 100
AcDbAttribute
   3

   2
TAG030
  70
0
   0
ATTRIB
   5
92
 330
7D
 100
AcDbEntity
   8
0
   6
ByBlock
  62
3
 370
-2
 100
AcDbText
  10
473.999998667247
  20
30.0000002609912
  30
0
  40
2
   1

  50
0
  41
1
  51
0
   7
standard
  71
1
  72
0
 210
0
 220
0
 230
1
 100
AcDbText
  73
0
 100
AcDbAttribute
   3

   2
TAG031
  70
0
   0
ATTRIB
   5
93
 330
7D
 100
AcDbEntity
   8
0
   6
ByBlock
  62
3
 370
-2
 100
AcDbText
  10
485.499998667247
  20
30.0000002609912
  30
0
  40
2
   1

  50
0
  41
1
  51
0
   7
standard
  71
1
  72
0
 210
0
 220
0
 230
1
 100
AcDbText
  73
0
 100
AcDbAttribute
   3

   2
TAG032
  70
0
   0
ATTRIB
   5
94
 330
7D
 100
AcDbEntity
   8
0
   6
ByBlock
  62
3
 370
-2
 100
AcDbText
  10
492.499998667247
  20
30.0000002609912
  30
0
  40
2
   1

  50
0
  41
1
  51
0
   7
standard
  71
1
  72
0
 210
0
 220
0
 230
1
 100
AcDbText
  73
0
 100
AcDbAttribute
   3

   2
TAG033
  70
0
   0
ATTRIB
   5
95
 330
7D
 100
AcDbEntity
   8
0
   6
ByBlock
  62
3
 370
-2
 100
AcDbText
  10
499.499998667247
  20
30.0000002609913
  30
0
  40
2
   1

  50
0
  41
1
  51
0
   7
standard
  71
1
  72
0
 210
0
 220
0
 230
1
 100
AcDbText
  73
0
 100
AcDbAttribute
   3

   2
TAG034
  70
0
   0
ATTRIB
   5
96
 330
7D
 100
AcDbEntity
   8
0
   6
ByBlock
  62
3
 370
-2
 100
AcDbText
  10
503.999998667247
  20
30.0000002609914
  30
0
  40
2
   1

  50
0
  41
1
  51
0
   7
standard
  71
1
  72
0
 210
0
 220
0
 230
1
 100
AcDbText
  73
0
 100
AcDbAttribute
   3

   2
TAG039
  70
0
   0
ATTRIB
   5
97
 330
7D
 100
AcDbEntity
   8
0
   6
ByBlock
  62
3
 370
-2
 100
AcDbText
  10
463.499998667247
  20
34.0000002609911
  30
0
  40
2
   1

  50
0
  41
1
  51
0
   7
standard
  71
1
  72
0
 210
0
 220
0
 230
1
 100
AcDbText
  73
0
 100
AcDbAttribute
   3

   2
TAG040
  70
0
   0
ATTRIB
   5
98
 330
7D
 100
AcDbEntity
   8
0
   6
ByBlock
  62
3
 370
-2
 100
AcDbText
  10
473.999998667247
  20
34.0000002609912
  30
0
  40
2
   1

  50
0
  41
1
  51
0
   7
standard
  71
1
  72
0
 210
0
 220
0
 230
1
 100
AcDbText
  73
0
 100
AcDbAttribute
   3

   2
TAG041
  70
0
   0
ATTRIB
   5
99
 330
7D
 100
AcDbEntity
   8
0
   6
ByBlock
  62
3
 370
-2
 100
AcDbText
  10
485.499998667247
  20
34.0000002609912
  30
0
  40
2
   1

  50
0
  41
1
  51
0
   7
standard
  71
1
  72
0
 210
0
 220
0
 230
1
 100
AcDbText
  73
0
 100
AcDbAttribute
   3

   2
TAG042
  70
0
   0
ATTRIB
   5
9A
 330
7D
 100
AcDbEntity
   8
0
   6
ByBlock
  62
3
 370
-2
 100
AcDbText
  10
492.499998667247
  20
34.0000002609912
  30
0
  40
2
   1

  50
0
  41
1
  51
0
   7
standard
  71
1
  72
0
 210
0
 220
0
 230
1
 100
AcDbText
  73
0
 100
AcDbAttribute
   3

   2
TAG043
  70
0
   0
ATTRIB
   5
9B
 330
7D
 100
AcDbEntity
   8
0
   6
ByBlock
  62
3
 370
-2
 100
AcDbText
  10
499.499998667247
  20
34.0000002609913
  30
0
  40
2
   1

  50
0
  41
1
  51
0
   7
standard
  71
1
  72
0
 210
0
 220
0
 230
1
 100
AcDbText
  73
0
 100
AcDbAttribute
   3

   2
TAG044
  70
0
   0
ATTRIB
   5
9C
 330
7D
 100
AcDbEntity
   8
0
   6
ByBlock
  62
3
 370
-2
 100
AcDbText
  10
503.999998667247
  20
34.0000002609914
  30
0
  40
2
   1

  50
0
  41
1
  51
0
   7
standard
  71
1
  72
0
 210
0
 220
0
 230
1
 100
AcDbText
  73
0
 100
AcDbAttribute
   3

   2
TAG049
  70
0
   0
ATTRIB
   5
9D
 330
7D
 100
AcDbEntity
   8
0
   6
ByBlock
  62
3
 370
-2
 100
AcDbText
  10
463.499998667247
  20
38.0000002609911
  30
0
  40
2
   1

  50
0
  41
1
  51
0
   7
standard
  71
1
  72
0
 210
0
 220
0
 230
1
 100
AcDbText
  73
0
 100
AcDbAttribute
   3

   2
TAG050
  70
0
   0
ATTRIB
   5
9E
 330
7D
 100
AcDbEntity
   8
0
   6
ByBlock
  62
3
 370
-2
 100
AcDbText
  10
473.999998667247
  20
38.0000002609912
  30
0
  40
2
   1

  50
0
  41
1
  51
0
   7
standard
  71
1
  72
0
 210
0
 220
0
 230
1
 100
AcDbText
  73
0
 100
AcDbAttribute
   3

   2
TAG051
  70
0
   0
ATTRIB
   5
9F
 330
7D
 100
AcDbEntity
   8
0
   6
ByBlock
  62
3
 370
-2
 100
AcDbText
  10
485.499998667247
  20
38.0000002609912
  30
0
  40
2
   1

  50
0
  41
1
  51
0
   7
standard
  71
1
  72
0
 210
0
 220
0
 230
1
 100
AcDbText
  73
0
 100
AcDbAttribute
   3

   2
TAG052
  70
0
   0
ATTRIB
   5
A0
 330
7D
 100
AcDbEntity
   8
0
   6
ByBlock
  62
3
 370
-2
 100
AcDbText
  10
492.499998667247
  20
38.0000002609912
  30
0
  40
2
   1

  50
0
  41
1
  51
0
   7
standard
  71
1
  72
0
 210
0
 220
0
 230
1
 100
AcDbText
  73
0
 100
AcDbAttribute
   3

   2
TAG053
  70
0
   0
ATTRIB
   5
A1
 330
7D
 100
AcDbEntity
   8
0
   6
ByBlock
  62
3
 370
-2
 100
AcDbText
  10
499.499998667247
  20
38.0000002609913
  30
0
  40
2
   1

  50
0
  41
1
  51
0
   7
standard
  71
1
  72
0
 210
0
 220
0
 230
1
 100
AcDbText
  73
0
 100
AcDbAttribute
   3

   2
TAG054
  70
0
   0
ATTRIB
   5
A2
 330
7D
 100
AcDbEntity
   8
0
   6
ByBlock
  62
3
 370
-2
 100
AcDbText
  10
503.999998667247
  20
38.0000002609914
  30
0
  40
2
   1

  50
0
  41
1
  51
0
   7
standard
  71
1
  72
0
 210
0
 220
0
 230
1
 100
AcDbText
  73
0
 100
AcDbAttribute
   3

   2
TAG059
  70
0
   0
ATTRIB
   5
A3
 330
7D
 100
AcDbEntity
   8
0
   6
ByBlock
  62
3
 370
-2
 100
AcDbText
  10
463.499998667247
  20
42.0000002609911
  30
0
  40
2
   1

  50
0
  41
1
  51
0
   7
standard
  71
1
  72
0
 210
0
 220
0
 230
1
 100
AcDbText
  73
0
 100
AcDbAttribute
   3

   2
TAG060
  70
0
   0
ATTRIB
   5
A4
 330
7D
 100
AcDbEntity
   8
0
   6
ByBlock
  62
3
 370
-2
 100
AcDbText
  10
473.999998667247
  20
42.0000002609912
  30
0
  40
2
   1

  50
0
  41
1
  51
0
   7
standard
  71
1
  72
0
 210
0
 220
0
 230
1
 100
AcDbText
  73
0
 100
AcDbAttribute
   3

   2
TAG061
  70
0
   0
ATTRIB
   5
A5
 330
7D
 100
AcDbEntity
   8
0
   6
ByBlock
  62
3
 370
-2
 100
AcDbText
  10
485.499998667247
  20
42.0000002609912
  30
0
  40
2
   1

  50
0
  41
1
  51
0
   7
standard
  71
1
  72
0
 210
0
 220
0
 230
1
 100
AcDbText
  73
0
 100
AcDbAttribute
   3

   2
TAG062
  70
0
   0
ATTRIB
   5
A6
 330
7D
 100
AcDbEntity
   8
0
   6
ByBlock
  62
3
 370
-2
 100
AcDbText
  10
492.499998667247
  20
42.0000002609912
  30
0
  40
2
   1

  50
0
  41
1
  51
0
   7
standard
  71
1
  72
0
 210
0
 220
0
 230
1
 100
AcDbText
  73
0
 100
AcDbAttribute
   3

   2
TAG063
  70
0
   0
ATTRIB
   5
A7
 330
7D
 100
AcDbEntity
   8
0
   6
ByBlock
  62
3
 370
-2
 100
AcDbText
  10
499.499998667247
  20
42.0000002609913
  30
0
  40
2
   1

  50
0
  41
1
  51
0
   7
standard
  71
1
  72
0
 210
0
 220
0
 230
1
 100
AcDbText
  73
0
 100
AcDbAttribute
   3

   2
TAG064
  70
0
   0
ATTRIB
   5
A8
 330
7D
 100
AcDbEntity
   8
0
   6
ByBlock
  62
3
 370
-2
 100
AcDbText
  10
503.999998667247
  20
42.0000002609914
  30
0
  40
2
   1

  50
0
  41
1
  51
0
   7
standard
  71
1
  72
0
 210
0
 220
0
 230
1
 100
AcDbText
  73
0
 100
AcDbAttribute
   3

   2
TAG069
  70
0
   0
ATTRIB
   5
A9
 330
7D
 100
AcDbEntity
   8
0
   6
ByBlock
  62
3
 370
-2
 100
AcDbText
  10
463.499998667247
  20
46.0000002609911
  30
0
  40
2
   1

  50
0
  41
1
  51
0
   7
standard
  71
1
  72
0
 210
0
 220
0
 230
1
 100
AcDbText
  73
0
 100
AcDbAttribute
   3

   2
TAG070
  70
0
   0
ATTRIB
   5
AA
 330
7D
 100
AcDbEntity
   8
0
   6
ByBlock
  62
3
 370
-2
 100
AcDbText
  10
473.999998667247
  20
46.0000002609912
  30
0
  40
2
   1

  50
0
  41
1
  51
0
   7
standard
  71
1
  72
0
 210
0
 220
0
 230
1
 100
AcDbText
  73
0
 100
AcDbAttribute
   3

   2
TAG071
  70
0
   0
ATTRIB
   5
AB
 330
7D
 100
AcDbEntity
   8
0
   6
ByBlock
  62
3
 370
-2
 100
AcDbText
  10
485.499998667247
  20
46.0000002609912
  30
0
  40
2
   1

  50
0
  41
1
  51
0
   7
standard
  71
1
  72
0
 210
0
 220
0
 230
1
 100
AcDbText
  73
0
 100
AcDbAttribute
   3

   2
TAG072
  70
0
   0
ATTRIB
   5
AC
 330
7D
 100
AcDbEntity
   8
0
   6
ByBlock
  62
3
 370
-2
 100
AcDbText
  10
492.499998667247
  20
46.0000002609912
  30
0
  40
2
   1

  50
0
  41
1
  51
0
   7
standard
  71
1
  72
0
 210
0
 220
0
 230
1
 100
AcDbText
  73
0
 100
AcDbAttribute
   3

   2
TAG073
  70
0
   0
ATTRIB
   5
AD
 330
7D
 100
AcDbEntity
   8
0
   6
ByBlock
  62
3
 370
-2
 100
AcDbText
  10
499.499998667247
  20
46.0000002609913
  30
0
  40
2
   1

  50
0
  41
1
  51
0
   7
standard
  71
1
  72
0
 210
0
 220
0
 230
1
 100
AcDbText
  73
0
 100
AcDbAttribute
   3

   2
TAG074
  70
0
   0
ATTRIB
   5
AE
 330
7D
 100
AcDbEntity
   8
0
   6
ByBlock
  62
3
 370
-2
 100
AcDbText
  10
503.999998667247
  20
46.0000002609914
  30
0
  40
2
   1

  50
0
  41
1
  51
0
   7
standard
  71
1
  72
0
 210
0
 220
0
 230
1
 100
AcDbText
  73
0
 100
AcDbAttribute
   3

   2
TAG079
  70
0
   0
SEQEND
   5
AF
 330
7D
 100
AcDbEntity
   8
0
 100
AcDbBlockEnd
   0
VIEWPORT
   5
B0
 330
5
 100
AcDbEntity
   8
EQUPMENT
   6
ByBlock
  62
0
 370
-3
 100
AcDbViewport
  10
496.72348269441
  20
324.208769283543
  30
0
  40
136.975901772084
  41
648.417538567086
  68
0
  69
0
  12
279.62737085308
  22
256.094705935449
  13
0
  23
0
  14
0
  24
0
  15
0
  25
0
  16
0
  26
0
  36
1
  17
0
  27
0
  37
0
  42
0
  43
0
  44
0
  45
63.6223411449771
  50
0
  51
0
  72
0
  90
64
   0
LINE
   5
B1
 330
8
 100
AcDbEntity
   8
PIPELINES
   6
ByBlock
  62
6
 370
-3
 100
AcDbLine
  10
179.913407598648
  20
272.500829443215
  11
275.014351367347
  21
272.500829443215
   0
INSERT
   5
B2
 330
8
 100
AcDbEntity
   8
INSTRUMENTS
   6
ByBlock
  62
3
 370
-3
 100
AcDbBlockReference
   2
INSTRUMENT_LOCAL
  10
224.9948984836
  20
293.103343785169
  30
0
  41
1
  42
1
  43
1
  50
0
  70
1
  71
1
  44
0
  45
0
   0
ATTRIB
   5
B3
 330
B2
 100
AcDbEntity
   8
0
   6
Continuous
  62
0
 370
-3
 100
AcDbText
  10
221.923469912072
  20
294.603343785169
  30
0
  40
3
   1
PG
  50
0
  41
1
  51
0
   7
romans
  71
1
  72
0
 210
0
 220
0
 230
1
 100
AcDbText
  73
0
 100
AcDbAttribute
   3

   2
INS
  70
0
   0
ATTRIB
   5
B4
 330
B2
 100
AcDbEntity
   8
0
   6
Continuous
  62
0
 370
-3
 100
AcDbText
  10
220.252041340644
  20
289.503343785169
  30
0
  40
3
   1
1000
  50
0
  41
1
  51
0
   7
romans
  71
1
  72
0
 210
0
 220
0
 230
1
 100
AcDbText
  73
0
 100
AcDbAttribute
   3

   2
1234
  70
0
   0
ATTRIB
   5
B5
 330
B2
 100
AcDbEntity
   8
0
   6
Continuous
  62
0
 370
-3
 100
AcDbText
  10
230.9948984836
  20
288.603343785169
  30
0
  40
3
   1

  50
0
  41
1
  51
0
   7
romans
  71
1
  72
0
  11
0
  21
0
  31
0
 210
0
 220
0
 230
1
 100
AcDbText
  73
0
 100
AcDbAttribute
   3

   2
SF
  70
0
   0
ATTRIB
   5
B6
 330
B2
 100
AcDbEntity
   8
0
   6
Continuous
  62
0
 370
-3
 100
AcDbText
  10
230.9948984836
  20
294.003343785169
  30
0
  40
3
   1

  50
0
  41
1
  51
0
   7
romans
  71
1
  72
0
  11
0
  21
0
  31
0
 210
0
 220
0
 230
1
 100
AcDbText
  73
0
 100
AcDbAttribute
   3

   2
SET
  70
0
   0
ATTRIB
   5
B7
 330
B2
 100
AcDbEntity
   8
0
   6
Continuous
  62
0
 370
-3
 100
AcDbText
  10
230.9948984836
  20
297.603343785169
  30
0
  40
3
   1

  50
0
  41
1
  51
0
   7
romans
  71
1
  72
0
  11
0
  21
0
  31
0
 210
0
 220
0
 230
1
 100
AcDbText
  73
0
 100
AcDbAttribute
   3

   2
AL
  70
0
   0
SEQEND
   5
B8
 330
B2
 100
AcDbEntity
   8
0
 100
AcDbBlockEnd
   0
LINE
   5
B9
 330
8
 100
AcDbEntity
   8
INSTRUMENTS
   6
ByBlock
  62
3
 370
-3
 100
AcDbLine
  10
224.9948984836
  20
287.103343785169
  11
224.9948984836
  21
272.500829443215
   0
LINE
   5
BA
 330
8
 100
AcDbEntity
   8
PIPELINES
   6
ByBlock
  62
6
 370
-3
 100
AcDbLine
  10
285.014351367347
  20
272.500829443215
  11
349.501011513363
  21
272.500829443215
   0
INSERT
   5
BB
 330
8
 100
AcDbEntity
   8
INSTRUMENTS
   6
ByBlock
  62
3
 370
-3
 100
AcDbBlockReference
   2
INSTRUMENT_LOCAL
  10
364.501011513363
  20
330.603343785169
  30
0
  41
1
  42
1
  43
1
  50
0
  70
1
  71
1
  44
0
  45
0
   0
ATTRIB
   5
BC
 330
BB
 100
AcDbEntity
   8
0
   6
Continuous
  62
0
 370
-3
 100
AcDbText
  10
361.072440084791
  20
332.103343785169
  30
0
  40
3
   1
PIT
  50
0
  41
1
  51
0
   7
romans
  71
1
  72
0
 210
0
 220
0
 230
1
 100
AcDbText
  73
0
 100
AcDbAttribute
   3

   2
INS
  70
0
   0
ATTRIB
   5
BD
 330
BB
 100
AcDbEntity
   8
0
   6
Continuous
  62
0
 370
-3
 100
AcDbText
  10
360.101011513363
  20
327.003343785169
  30
0
  40
3
   1
1001
  50
0
  41
1
  51
0
   7
romans
  71
1
  72
0
 210
0
 220
0
 230
1
 100
AcDbText
  73
0
 100
AcDbAttribute
   3

   2
1234
  70
0
   0
ATTRIB
   5
BE
 330
BB
 100
AcDbEntity
   8
0
   6
Continuous
  62
0
 370
-3
 100
AcDbText
  10
370.501011513363
  20
326.103343785169
  30
0
  40
3
   1

  50
0
  41
1
  51
0
   7
romans
  71
1
  72
0
  11
0
  21
0
  31
0
 210
0
 220
0
 230
1
 100
AcDbText
  73
0
 100
AcDbAttribute
   3

   2
SF
  70
0
   0
ATTRIB
   5
BF
 330
BB
 100
AcDbEntity
   8
0
   6
Continuous
  62
0
 370
-3
 100
AcDbText
  10
370.501011513363
  20
331.503343785169
  30
0
  40
3
   1

  50
0
  41
1
  51
0
   7
romans
  71
1
  72
0
  11
0
  21
0
  31
0
 210
0
 220
0
 230
1
 100
AcDbText
  73
0
 100
AcDbAttribute
   3

   2
SET
  70
0
   0
ATTRIB
   5
C0
 330
BB
 100
AcDbEntity
   8
0
   6
Continuous
  62
0
 370
-3
 100
AcDbText
  10
370.501011513363
  20
335.103343785169
  30
0
  40
3
   1

  50
0
  41
1
  51
0
   7
romans
  71
1
  72
0
  11
0
  21
0
  31
0
 210
0
 220
0
 230
1
 100
AcDbText
  73
0
 100
AcDbAttribute
   3

   2
AL
  70
0
   0
SEQEND
   5
C1
 330
BB
 100
AcDbEntity
   8
0
 100
AcDbBlockEnd
   0
LINE
   5
C2
 330
8
 100
AcDbEntity
   8
INSTRUMENTS
   6
ByBlock
  62
3
 370
-3
 100
AcDbLine
  10
364.501011513363
  20
324.603343785169
  11
364.501011513363
  21
310.000829443215
   0
INSERT
   5
C3
 330
8
 100
AcDbEntity
   8
INSTRUMENTS
   6
ByBlock
  62
3
 370
-3
 100
AcDbBlockReference
   2
INDICATING_DCS
  10
364.501011513363
  20
368.804937839489
  30
0
  41
1
  42
1
  43
1
  50
0
  70
1
  71
1
  44
0
  45
0
   0
ATTRIB
   5
C4
 330
C3
 100
AcDbEntity
   8
0
   6
Continuous
  62
0
 370
-3
 100
AcDbText
  10
362.429582941934
  20
370.304937839489
  30
0
  40
3
   1
PI
  50
0
  41
1
  51
0
   7
romans
  71
1
  72
0
 210
0
 220
0
 230
1
 100
AcDbText
  73
0
 100
AcDbAttribute
   3

   2
INS
  70
0
   0
ATTRIB
   5
C5
 330
C3
 100
AcDbEntity
   8
0
   6
Continuous
  62
0
 370
-3
 100
AcDbText
  10
360.101011513363
  20
365.204937839489
  30
0
  40
3
   1
1001
  50
0
  41
1
  51
0
   7
romans
  71
1
  72
0
 210
0
 220
0
 230
1
 100
AcDbText
  73
0
 100
AcDbAttribute
   3

   2
1234
  70
0
   0
ATTRIB
   5
C6
 330
C3
 100
AcDbEntity
   8
0
   6
Continuous
  62
0
 370
-3
 100
AcDbText
  10
370.501011513363
  20
364.304937839489
  30
0
  40
3
   1

  50
0
  41
1
  51
0
   7
romans
  71
1
  72
0
  11
0
  21
0
  31
0
 210
0
 220
0
 230
1
 100
AcDbText
  73
0
 100
AcDbAttribute
   3

   2
SF
  70
0
   0
ATTRIB
   5
C7
 330
C3
 100
AcDbEntity
   8
0
   6
Continuous
  62
0
 370
-3
 100
AcDbText
  10
370.501011513363
  20
369.704937839489
  30
0
  40
3
   1

  50
0
  41
1
  51
0
   7
romans
  71
1
  72
0
  11
0
  21
0
  31
0
 210
0
 220
0
 230
1
 100
AcDbText
  73
0
 100
AcDbAttribute
   3

   2
SET
  70
0
   0
ATTRIB
   5
C8
 330
C3
 100
AcDbEntity
   8
0
   6
Continuous
  62
0
 370
-3
 100
AcDbText
  10
370.501011513363
  20
373.304937839489
  30
0
  40
3
   1
HH
  50
0
  41
1
  51
0
   7
romans
  71
1
  72
0
  11
0
  21
0
  31
0
 210
0
 220
0
 230
1
 100
AcDbText
  73
0
 100
AcDbAttribute
   3

   2
AL
  70
0
   0
SEQEND
   5
C9
 330
C3
 100
AcDbEntity
   8
0
 100
AcDbBlockEnd
   0
LINE
   5
CA
 330
8
 100
AcDbEntity
   8
INSTRUMENTS
   6
HIDDEN
  62
3
 370
-3
 100
AcDbLine
  10
364.501011513363
  20
336.603343785169
  11
364.501011513363
  21
362.804937839489
   0
LINE
   5
CB
 330
8
 100
AcDbEntity
   8
PIPELINES
   6
ByBlock
  62
6
 370
-3
 100
AcDbLine
  10
259.37868983829
  20
248.207010946216
  11
275.014351367347
  21
248.207010946216
   0
INSERT
   5
CC
 330
8
 100
AcDbEntity
   8
PIPELINES
   6
ByBlock
  62
1
 370
-3
 100
AcDbBlockReference
   2
VALVE_GATE
  10
280.014351367347
  20
248.207010946216
  30
0
  41
1
  42
1
  43
1
  50
0
  70
1
  71
1
  44
0
  45
0
   0
ATTRIB
   5
CD
 330
CC
 100
AcDbEntity
   8
0
   6
Continuous
  62
0
 370
-2
 100
AcDbText
  10
277.514351367347
  20
242.707010946216
  30
0
  40
3
   1
2"
  50
0
  41
1
  51
0
   7
romans
  71
1
  72
0
 210
0
 220
0
 230
1
 100
AcDbText
  73
0
 100
AcDbAttribute
   3

   2
SIZE
  70
0
   0
SEQEND
   5
CE
 330
CC
 100
AcDbEntity
   8
0
 100
AcDbBlockEnd
   0
LINE
   5
CF
 330
8
 100
AcDbEntity
   8
PIPELINES
   6
ByBlock
  62
6
 370
-3
 100
AcDbLine
  10
259.37868983829
  20
272.500829443215
  11
259.37868983829
  21
248.207010946216
   0
LINE
   5
D0
 330
8
 100
AcDbEntity
   8
PIPELINES
   6
ByBlock
  62
6
 370
-3
 100
AcDbLine
  10
300.650012896412
  20
248.207010946216
  11
285.014351367347
  21
248.207010946216
   0
LINE
   5
D1
 330
8
 100
AcDbEntity
   8
PIPELINES
   6
ByBlock
  62
6
 370
-3
 100
AcDbLine
  10
300.650012896412
  20
272.500829443215
  11
300.650012896412
  21
248.207010946216
   0
INSERT
   5
D2
 330
8
 100
AcDbEntity
   8
PIPELINES
   6
ByBlock
  62
1
 370
-3
 100
AcDbBlockReference
   2
VALVE_GLOBE
  10
280.014351367347
  20
272.500829443215
  30
0
  41
1
  42
1
  43
1
  50
0
  70
1
  71
1
  44
0
  45
0
   0
ATTRIB
   5
D3
 330
D2
 100
AcDbEntity
   8
0
   6
ByBlock
  62
0
 370
-2
 100
AcDbText
  10
277.514351367347
  20
267.000829443215
  30
0
  40
3
   1
2"
  50
0
  41
1
  51
0
   7
romans
  71
1
  72
0
 210
0
 220
0
 230
1
 100
AcDbText
  73
0
 100
AcDbAttribute
   3

   2
SIZE
  70
0
   0
SEQEND
   5
D4
 330
D2
 100
AcDbEntity
   8
0
 100
AcDbBlockEnd
   0
INSERT
   5
D5
 330
8
 100
AcDbEntity
   8
PIPELINES
   6
ByBlock
  62
1
 370
-3
 100
AcDbBlockReference
   2
VALVE_ACTUATOR_PNEUMATIC
  10
280.014351367347
  20
272.500829443215
  30
0
  41
1
  42
1
  43
1
  50
0
  70
1
  71
1
  44
0
  45
0
   0
SEQEND
   5
D6
 330
D5
 100
AcDbEntity
   8
0
 100
AcDbBlockEnd
   0
INSERT
   5
D7
 330
8
 100
AcDbEntity
   8
INSTRUMENTS
   6
ByBlock
  62
3
 370
-3
 100
AcDbBlockReference
   2
INSTRUMENT_LOCAL
  10
200.472000570391
  20
293.103343785169
  30
0
  41
1
  42
1
  43
1
  50
0
  70
1
  71
1
  44
0
  45
0
   0
ATTRIB
   5
D8
 330
D7
 100
AcDbEntity
   8
0
   6
Continuous
  62
0
 370
-3
 100
AcDbText
  10
197.257714856106
  20
294.603343785169
  30
0
  40
3
   1
FIT
  50
0
  41
1
  51
0
   7
romans
  71
1
  72
0
 210
0
 220
0
 230
1
 100
AcDbText
  73
0
 100
AcDbAttribute
   3

   2
INS
  70
0
   0
ATTRIB
   5
D9
 330
D7
 100
AcDbEntity
   8
0
   6
Continuous
  62
0
 370
-3
 100
AcDbText
  10
195.729143427534
  20
289.503343785169
  30
0
  40
3
   1
1002
  50
0
  41
1
  51
0
   7
romans
  71
1
  72
0
 210
0
 220
0
 230
1
 100
AcDbText
  73
0
 100
AcDbAttribute
   3

   2
1234
  70
0
   0
ATTRIB
   5
DA
 330
D7
 100
AcDbEntity
   8
0
   6
Continuous
  62
0
 370
-3
 100
AcDbText
  10
206.472000570391
  20
288.603343785169
  30
0
  40
3
   1

  50
0
  41
1
  51
0
   7
romans
  71
1
  72
0
  11
0
  21
0
  31
0
 210
0
 220
0
 230
1
 100
AcDbText
  73
0
 100
AcDbAttribute
   3

   2
SF
  70
0
   0
ATTRIB
   5
DB
 330
D7
 100
AcDbEntity
   8
0
   6
Continuous
  62
0
 370
-3
 100
AcDbText
  10
206.472000570391
  20
294.003343785169
  30
0
  40
3
   1

  50
0
  41
1
  51
0
   7
romans
  71
1
  72
0
  11
0
  21
0
  31
0
 210
0
 220
0
 230
1
 100
AcDbText
  73
0
 100
AcDbAttribute
   3

   2
SET
  70
0
   0
ATTRIB
   5
DC
 330
D7
 100
AcDbEntity
   8
0
   6
Continuous
  62
0
 370
-3
 100
AcDbText
  10
206.472000570391
  20
297.603343785169
  30
0
  40
3
   1

  50
0
  41
1
  51
0
   7
romans
  71
1
  72
0
  11
0
  21
0
  31
0
 210
0
 220
0
 230
1
 100
AcDbText
  73
0
 100
AcDbAttribute
   3

   2
AL
  70
0
   0
SEQEND
   5
DD
 330
D7
 100
AcDbEntity
   8
0
 100
AcDbBlockEnd
   0
LINE
   5
DE
 330
8
 100
AcDbEntity
   8
INSTRUMENTS
   6
ByBlock
  62
3
 370
-3
 100
AcDbLine
  10
200.472000570391
  20
287.103343785169
  11
200.472000570391
  21
272.500829443215
   0
INSERT
   5
DF
 330
8
 100
AcDbEntity
   8
INSTRUMENTS
   6
ByBlock
  62
3
 370
-3
 100
AcDbBlockReference
   2
INDICATING_DCS
  10
200.472000570391
  20
368.804937839489
  30
0
  41
1
  42
1
  43
1
  50
0
  70
1
  71
1
  44
0
  45
0
   0
ATTRIB
   5
E0
 330
DF
 100
AcDbEntity
   8
0
   6
Continuous
  62
0
 370
-3
 100
AcDbText
  10
197.04342914182
  20
370.304937839489
  30
0
  40
3
   1
FIC
  50
0
  41
1
  51
0
   7
romans
  71
1
  72
0
 210
0
 220
0
 230
1
 100
AcDbText
  73
0
 100
AcDbAttribute
   3

   2
INS
  70
0
   0
ATTRIB
   5
E1
 330
DF
 100
AcDbEntity
   8
0
   6
Continuous
  62
0
 370
-3
 100
AcDbText
  10
195.729143427534
  20
365.204937839489
  30
0
  40
3
   1
1002
  50
0
  41
1
  51
0
   7
romans
  71
1
  72
0
 210
0
 220
0
 230
1
 100
AcDbText
  73
0
 100
AcDbAttribute
   3

   2
1234
  70
0
   0
ATTRIB
   5
E2
 330
DF
 100
AcDbEntity
   8
0
   6
Continuous
  62
0
 370
-3
 100
AcDbText
  10
206.472000570391
  20
364.304937839489
  30
0
  40
3
   1

  50
0
  41
1
  51
0
   7
romans
  71
1
  72
0
  11
0
  21
0
  31
0
 210
0
 220
0
 230
1
 100
AcDbText
  73
0
 100
AcDbAttribute
   3

   2
SF
  70
0
   0
ATTRIB
   5
E3
 330
DF
 100
AcDbEntity
   8
0
   6
Continuous
  62
0
 370
-3
 100
AcDbText
  10
206.472000570391
  20
369.704937839489
  30
0
  40
3
   1

  50
0
  41
1
  51
0
   7
romans
  71
1
  72
0
  11
0
  21
0
  31
0
 210
0
 220
0
 230
1
 100
AcDbText
  73
0
 100
AcDbAttribute
   3

   2
SET
  70
0
   0
ATTRIB
   5
E4
 330
DF
 100
AcDbEntity
   8
0
   6
Continuous
  62
0
 370
-3
 100
AcDbText
  10
206.472000570391
  20
373.304937839489
  30
0
  40
3
   1
HH
  50
0
  41
1
  51
0
   7
romans
  71
1
  72
0
  11
0
  21
0
  31
0
 210
0
 220
0
 230
1
 100
AcDbText
  73
0
 100
AcDbAttribute
   3

   2
AL
  70
0
   0
SEQEND
   5
E5
 330
DF
 100
AcDbEntity
   8
0
 100
AcDbBlockEnd
   0
LINE
   5
E6
 330
8
 100
AcDbEntity
   8
INSTRUMENTS
   6
HIDDEN
  62
3
 370
-3
 100
AcDbLine
  10
200.472000570391
  20
299.103343785169
  11
200.472000570391
  21
362.804937839489
   0
LINE
   5
E7
 330
8
 100
AcDbEntity
   8
INSTRUMENTS
   6
HIDDEN
  62
3
 370
-3
 100
AcDbLine
  10
206.472000570391
  20
368.804937839489
  11
280.014351367347
  21
368.804937839488
   0
LINE
   5
E8
 330
8
 100
AcDbEntity
   8
INSTRUMENTS
   6
HIDDEN
  62
3
 370
-3
 100
AcDbLine
  10
280.014351367347
  20
368.804937839488
  11
280.014351367347
  21
279.000829443215
   0
INSERT
   5
E9
 330
8
 100
AcDbEntity
   8
INSTRUMENTS
   6
ByBlock
  62
3
 370
-3
 100
AcDbBlockReference
   2
INSTRUMENT_LOCAL
  10
296.169190524076
  20
293.103343785169
  30
0
  41
1
  42
1
  43
1
  50
0
  70
1
  71
1
  44
0
  45
0
   0
ATTRIB
   5
EA
 330
E9
 100
AcDbEntity
   8
0
   6
Continuous
  62
0
 370
-3
 100
AcDbText
  10
291.883476238361
  20
294.603343785169
  30
0
  40
3
   1
FCV
  50
0
  41
1
  51
0
   7
romans
  71
1
  72
0
 210
0
 220
0
 230
1
 100
AcDbText
  73
0
 100
AcDbAttribute
   3

   2
INS
  70
0
   0
ATTRIB
   5
EB
 330
E9
 100
AcDbEntity
   8
0
   6
Continuous
  62
0
 370
-3
 100
AcDbText
  10
291.426333381218
  20
289.503343785169
  30
0
  40
3
   1
1002
  50
0
  41
1
  51
0
   7
romans
  71
1
  72
0
 210
0
 220
0
 230
1
 100
AcDbText
  73
0
 100
AcDbAttribute
   3

   2
1234
  70
0
   0
ATTRIB
   5
EC
 330
E9
 100
AcDbEntity
   8
0
   6
Continuous
  62
0
 370
-3
 100
AcDbText
  10
302.169190524076
  20
288.603343785169
  30
0
  40
3
   1

  50
0
  41
1
  51
0
   7
romans
  71
1
  72
0
  11
0
  21
0
  31
0
 210
0
 220
0
 230
1
 100
AcDbText
  73
0
 100
AcDbAttribute
   3

   2
SF
  70
0
   0
ATTRIB
   5
ED
 330
E9
 100
AcDbEntity
   8
0
   6
Continuous
  62
0
 370
-3
 100
AcDbText
  10
302.169190524076
  20
294.003343785169
  30
0
  40
3
   1

  50
0
  41
1
  51
0
   7
romans
  71
1
  72
0
  11
0
  21
0
  31
0
 210
0
 220
0
 230
1
 100
AcDbText
  73
0
 100
AcDbAttribute
   3

   2
SET
  70
0
   0
ATTRIB
   5
EE
 330
E9
 100
AcDbEntity
   8
0
   6
Continuous
  62
0
 370
-3
 100
AcDbText
  10
302.169190524076
  20
297.603343785169
  30
0
  40
3
   1

  50
0
  41
1
  51
0
   7
romans
  71
1
  72
0
  11
0
  21
0
  31
0
 210
0
 220
0
 230
1
 100
AcDbText
  73
0
 100
AcDbAttribute
   3

   2
AL
  70
0
   0
SEQEND
   5
EF
 330
E9
 100
AcDbEntity
   8
0
 100
AcDbBlockEnd
   0
LINE
   5
F0
 330
8
 100
AcDbEntity
   8
INSTRUMENTS
   6
ByBlock
  62
3
 370
-3
 100
AcDbLine
  10
292.887272612292
  20
288.080494512065
  11
284.014351367347
  21
274.500829443215
   0
LWPOLYLINE
   5
F1
 330
8
 100
AcDbEntity
   8
EQUPMENT
   6
ByBlock
  62
5
 370
-3
 100
AcDbPolyline
  90
5
  70
1
  43
0
  10
349.501011513363
  20
242.500829443215
  42
0
  10
379.501011513363
  20
242.500829443215
  42
0
  10
379.501011513363
  20
302.500829443215
  42
0
  10
349.501011513363
  20
302.500829443215
  42
0
  10
349.501011513363
  20
242.500829443215
   0
ARC
   5
F2
 330
8
 100
AcDbEntity
   8
EQUPMENT
   6
ByBlock
  62
5
 370
-3
 100
AcDbCircle
  10
364.501011513363
  20
291.250829443215
  40
18.75
 100
AcDbArc
  50
36.8698976458442
  51
143.130102354156
   0
ARC
   5
F3
 330
8
 100
AcDbEntity
   8
EQUPMENT
   6
ByBlock
  62
5
 370
-3
 100
AcDbCircle
  10
364.501011513363
  20
253.750829443215
  40
18.75
 100
AcDbArc
  50
216.869897645845
  51
323.130102354155
   0
INSERT
   5
F4
 330
8
 100
AcDbEntity
   8
INSTRUMENTS
   6
ByBlock
  62
3
 370
-3
 100
AcDbBlockReference
   2
INSTRUMENT_LOCAL
  10
404.769572836294
  20
330.603343785169
  30
0
  41
1
  42
1
  43
1
  50
0
  70
1
  71
1
  44
0
  45
0
   0
ATTRIB
   5
F5
 330
F4
 100
AcDbEntity
   8
0
   6
Continuous
  62
0
 370
-3
 100
AcDbText
  10
401.626715693436
  20
332.103343785169
  30
0
  40
3
   1
LIT
  50
0
  41
1
  51
0
   7
romans
  71
1
  72
0
 210
0
 220
0
 230
1
 100
AcDbText
  73
0
 100
AcDbAttribute
   3

   2
INS
  70
0
   0
ATTRIB
   5
F6
 330
F4
 100
AcDbEntity
   8
0
   6
Continuous
  62
0
 370
-3
 100
AcDbText
  10
400.026715693436
  20
327.003343785169
  30
0
  40
3
   1
1002
  50
0
  41
1
  51
0
   7
romans
  71
1
  72
0
 210
0
 220
0
 230
1
 100
AcDbText
  73
0
 100
AcDbAttribute
   3

   2
1234
  70
0
   0
ATTRIB
   5
F7
 330
F4
 100
AcDbEntity
   8
0
   6
Continuous
  62
0
 370
-3
 100
AcDbText
  10
410.769572836294
  20
326.103343785169
  30
0
  40
3
   1

  50
0
  41
1
  51
0
   7
romans
  71
1
  72
0
  11
0
  21
0
  31
0
 210
0
 220
0
 230
1
 100
AcDbText
  73
0
 100
AcDbAttribute
   3

   2
SF
  70
0
   0
ATTRIB
   5
F8
 330
F4
 100
AcDbEntity
   8
0
   6
Continuous
  62
0
 370
-3
 100
AcDbText
  10
410.769572836294
  20
331.503343785169
  30
0
  40
3
   1

  50
0
  41
1
  51
0
   7
romans
  71
1
  72
0
  11
0
  21
0
  31
0
 210
0
 220
0
 230
1
 100
AcDbText
  73
0
 100
AcDbAttribute
   3

   2
SET
  70
0
   0
ATTRIB
   5
F9
 330
F4
 100
AcDbEntity
   8
0
   6
Continuous
  62
0
 370
-3
 100
AcDbText
  10
410.769572836294
  20
335.103343785169
  30
0
  40
3
   1

  50
0
  41
1
  51
0
   7
romans
  71
1
  72
0
  11
0
  21
0
  31
0
 210
0
 220
0
 230
1
 100
AcDbText
  73
0
 100
AcDbAttribute
   3

   2
AL
  70
0
   0
SEQEND
   5
FA
 330
F4
 100
AcDbEntity
   8
0
 100
AcDbBlockEnd
   0
LINE
   5
FB
 330
8
 100
AcDbEntity
   8
INSTRUMENTS
   6
ByBlock
  62
3
 370
-3
 100
AcDbLine
  10
404.769572836294
  20
324.603343785169
  11
404.769572836294
  21
288.418170934387
   0
INSERT
   5
FC
 330
8
 100
AcDbEntity
   8
INSTRUMENTS
   6
ByBlock
  62
3
 370
-3
 100
AcDbBlockReference
   2
INDICATING_DCS
  10
404.769572836294
  20
368.804937839489
  30
0
  41
1
  42
1
  43
1
  50
0
  70
1
  71
1
  44
0
  45
0
   0
ATTRIB
   5
FD
 330
FC
 100
AcDbEntity
   8
0
   6
Continuous
  62
0
 370
-3
 100
AcDbText
  10
402.983858550579
  20
370.304937839489
  30
0
  40
3
   1
LI
  50
0
  41
1
  51
0
   7
romans
  71
1
  72
0
 210
0
 220
0
 230
1
 100
AcDbText
  73
0
 100
AcDbAttribute
   3

   2
INS
  70
0
   0
ATTRIB
   5
FE
 330
FC
 100
AcDbEntity
   8
0
   6
Continuous
  62
0
 370
-3
 100
AcDbText
  10
400.026715693436
  20
365.204937839489
  30
0
  40
3
   1
1002
  50
0
  41
1
  51
0
   7
romans
  71
1
  72
0
 210
0
 220
0
 230
1
 100
AcDbText
  73
0
 100
AcDbAttribute
   3

   2
1234
  70
0
   0
ATTRIB
   5
FF
 330
FC
 100
AcDbEntity
   8
0
   6
Continuous
  62
0
 370
-3
 100
AcDbText
  10
410.769572836294
  20
364.304937839489
  30
0
  40
3
   1

  50
0
  41
1
  51
0
   7
romans
  71
1
  72
0
  11
0
  21
0
  31
0
 210
0
 220
0
 230
1
 100
AcDbText
  73
0
 100
AcDbAttribute
   3

   2
SF
  70
0
   0
ATTRIB
   5
100
 330
FC
 100
AcDbEntity
   8
0
   6
Continuous
  62
0
 370
-3
 100
AcDbText
  10
410.769572836294
  20
369.704937839489
  30
0
  40
3
   1

  50
0
  41
1
  51
0
   7
romans
  71
1
  72
0
  11
0
  21
0
  31
0
 210
0
 220
0
 230
1
 100
AcDbText
  73
0
 100
AcDbAttribute
   3

   2
SET
  70
0
   0
ATTRIB
   5
101
 330
FC
 100
AcDbEntity
   8
0
   6
Continuous
  62
0
 370
-3
 100
AcDbText
  10
410.769572836294
  20
373.304937839489
  30
0
  40
3
   1
HH
  50
0
  41
1
  51
0
   7
romans
  71
1
  72
0
  11
0
  21
0
  31
0
 210
0
 220
0
 230
1
 100
AcDbText
  73
0
 100
AcDbAttribute
   3

   2
AL
  70
0
   0
SEQEND
   5
102
 330
FC
 100
AcDbEntity
   8
0
 100
AcDbBlockEnd
   0
LINE
   5
103
 330
8
 100
AcDbEntity
   8
INSTRUMENTS
   6
HIDDEN
  62
3
 370
-3
 100
AcDbLine
  10
404.769572836294
  20
336.603343785169
  11
404.769572836294
  21
362.804937839489
   0
LINE
   5
104
 330
8
 100
AcDbEntity
   8
INSTRUMENTS
   6
ByBlock
  62
3
 370
-3
 100
AcDbLine
  10
379.501011513363
  20
288.418170934387
  11
404.769572836294
  21
288.418170934387
   0
LWPOLYLINE
   5
105
 330
8
 100
AcDbEntity
   8
INSTRUMENTS
   6
FENCELINE1
  62
3
 370
-3
 100
AcDbPolyline
  90
4
  70
0
  43
0
  10
200.472000570391
  20
374.804937839489
  42
0
  10
200.472000570391
  20
389.24143677716
  42
0
  10
404.769572836294
  20
389.24143677716
  42
0
  10
404.769572836294
  20
374.804937839489
  42
0
   0
LINE
   5
106
 330
8
 100
AcDbEntity
   8
INSTRUMENTS
   6
ByBlock
  62
3
 370
-3
 100
AcDbLine
  10
379.501011513363
  20
279.08545492608
  11
404.769572836294
  21
279.08545492608
   0
INSERT
   5
107
 330
8
 100
AcDbEntity
   8
INSTRUMENTS
   6
ByBlock
  62
3
 370
-3
 100
AcDbBlockReference
   2
INSTRUMENT_LOCAL
  10
410.769572836294
  20
279.08545492608
  30
0
  41
1
  42
1
  43
1
  50
0
  70
1
  71
1
  44
0
  45
0
   0
ATTRIB
   5
108
 330
107
 100
AcDbEntity
   8
0
   6
Continuous
  62
0
 370
-3
 100
AcDbText
  10
406.555287122008
  20
280.58545492608
  30
0
  40
3
   1
LSH
  50
0
  41
1
  51
0
   7
romans
  71
1
  72
0
 210
0
 220
0
 230
1
 100
AcDbText
  73
0
 100
AcDbAttribute
   3

   2
INS
  70
0
   0
ATTRIB
   5
109
 330
107
 100
AcDbEntity
   8
0
   6
Continuous
  62
0
 370
-3
 100
AcDbText
  10
406.026715693436
  20
275.48545492608
  30
0
  40
3
   1
1003
  50
0
  41
1
  51
0
   7
romans
  71
1
  72
0
 210
0
 220
0
 230
1
 100
AcDbText
  73
0
 100
AcDbAttribute
   3

   2
1234
  70
0
   0
ATTRIB
   5
10A
 330
107
 100
AcDbEntity
   8
0
   6
Continuous
  62
0
 370
-3
 100
AcDbText
  10
416.769572836294
  20
274.58545492608
  30
0
  40
3
   1

  50
0
  41
1
  51
0
   7
romans
  71
1
  72
0
  11
0
  21
0
  31
0
 210
0
 220
0
 230
1
 100
AcDbText
  73
0
 100
AcDbAttribute
   3

   2
SF
  70
0
   0
ATTRIB
   5
10B
 330
107
 100
AcDbEntity
   8
0
   6
Continuous
  62
0
 370
-3
 100
AcDbText
  10
416.769572836294
  20
279.98545492608
  30
0
  40
3
   1

  50
0
  41
1
  51
0
   7
romans
  71
1
  72
0
  11
0
  21
0
  31
0
 210
0
 220
0
 230
1
 100
AcDbText
  73
0
 100
AcDbAttribute
   3

   2
SET
  70
0
   0
ATTRIB
   5
10C
 330
107
 100
AcDbEntity
   8
0
   6
Continuous
  62
0
 370
-3
 100
AcDbText
  10
416.769572836294
  20
283.58545492608
  30
0
  40
3
   1

  50
0
  41
1
  51
0
   7
romans
  71
1
  72
0
  11
0
  21
0
  31
0
 210
0
 220
0
 230
1
 100
AcDbText
  73
0
 100
AcDbAttribute
   3

   2
AL
  70
0
   0
SEQEND
   5
10D
 330
107
 100
AcDbEntity
   8
0
 100
AcDbBlockEnd
   0
LINE
   5
10E
 330
8
 100
AcDbEntity
   8
INSTRUMENTS
   6
ByBlock
  62
3
 370
-3
 100
AcDbLine
  10
379.501011513363
  20
248.991631192075
  11
404.769572836294
  21
248.991631192075
   0
INSERT
   5
10F
 330
8
 100
AcDbEntity
   8
INSTRUMENTS
   6
ByBlock
  62
3
 370
-3
 100
AcDbBlockReference
   2
INSTRUMENT_LOCAL
  10
410.769572836294
  20
248.991631192075
  30
0
  41
1
  42
1
  43
1
  50
0
  70
1
  71
1
  44
0
  45
0
   0
ATTRIB
   5
110
 330
10F
 100
AcDbEntity
   8
0
   6
Continuous
  62
0
 370
-3
 100
AcDbText
  10
406.698144264865
  20
250.491631192075
  30
0
  40
3
   1
LSL
  50
0
  41
1
  51
0
   7
romans
  71
1
  72
0
 210
0
 220
0
 230
1
 100
AcDbText
  73
0
 100
AcDbAttribute
   3

   2
INS
  70
0
   0
ATTRIB
   5
111
 330
10F
 100
AcDbEntity
   8
0
   6
Continuous
  62
0
 370
-3
 100
AcDbText
  10
405.969572836294
  20
245.391631192075
  30
0
  40
3
   1
1004
  50
0
  41
1
  51
0
   7
romans
  71
1
  72
0
 210
0
 220
0
 230
1
 100
AcDbText
  73
0
 100
AcDbAttribute
   3

   2
1234
  70
0
   0
ATTRIB
   5
112
 330
10F
 100
AcDbEntity
   8
0
   6
Continuous
  62
0
 370
-3
 100
AcDbText
  10
416.769572836294
  20
244.491631192075
  30
0
  40
3
   1

  50
0
  41
1
  51
0
   7
romans
  71
1
  72
0
  11
0
  21
0
  31
0
 210
0
 220
0
 230
1
 100
AcDbText
  73
0
 100
AcDbAttribute
   3

   2
SF
  70
0
   0
ATTRIB
   5
113
 330
10F
 100
AcDbEntity
   8
0
   6
Continuous
  62
0
 370
-3
 100
AcDbText
  10
416.769572836294
  20
249.891631192075
  30
0
  40
3
   1

  50
0
  41
1
  51
0
   7
romans
  71
1
  72
0
  11
0
  21
0
  31
0
 210
0
 220
0
 230
1
 100
AcDbText
  73
0
 100
AcDbAttribute
   3

   2
SET
  70
0
   0
ATTRIB
   5
114
 330
10F
 100
AcDbEntity
   8
0
   6
Continuous
  62
0
 370
-3
 100
AcDbText
  10
416.769572836294
  20
253.491631192075
  30
0
  40
3
   1

  50
0
  41
1
  51
0
   7
romans
  71
1
  72
0
  11
0
  21
0
  31
0
 210
0
 220
0
 230
1
 100
AcDbText
  73
0
 100
AcDbAttribute
   3

   2
AL
  70
0
   0
SEQEND
   5
115
 330
10F
 100
AcDbEntity
   8
0
 100
AcDbBlockEnd
   0
INSERT
   5
116
 330
8
 100
AcDbEntity
   8
INSTRUMENTS
   6
ByBlock
  62
3
 370
-3
 100
AcDbBlockReference
   2
INDICATING_DCS
  10
433.814518939762
  20
368.804937839489
  30
0
  41
1
  42
1
  43
1
  50
0
  70
1
  71
1
  44
0
  45
0
   0
ATTRIB
   5
117
 330
116
 100
AcDbEntity
   8
0
   6
Continuous
  62
0
 370
-3
 100
AcDbText
  10
431.100233225476
  20
370.304937839489
  30
0
  40
3
   1
LA
  50
0
  41
1
  51
0
   7
romans
  71
1
  72
0
 210
0
 220
0
 230
1
 100
AcDbText
  73
0
 100
AcDbAttribute
   3

   2
INS
  70
0
   0
ATTRIB
   5
118
 330
116
 100
AcDbEntity
   8
0
   6
Continuous
  62
0
 370
-3
 100
AcDbText
  10
429.071661796905
  20
365.204937839489
  30
0
  40
3
   1
1003
  50
0
  41
1
  51
0
   7
romans
  71
1
  72
0
 210
0
 220
0
 230
1
 100
AcDbText
  73
0
 100
AcDbAttribute
   3

   2
1234
  70
0
   0
ATTRIB
   5
119
 330
116
 100
AcDbEntity
   8
0
   6
Continuous
  62
0
 370
-3
 100
AcDbText
  10
439.814518939762
  20
364.304937839489
  30
0
  40
3
   1

  50
0
  41
1
  51
0
   7
romans
  71
1
  72
0
  11
0
  21
0
  31
0
 210
0
 220
0
 230
1
 100
AcDbText
  73
0
 100
AcDbAttribute
   3

   2
SF
  70
0
   0
ATTRIB
   5
11A
 330
116
 100
AcDbEntity
   8
0
   6
Continuous
  62
0
 370
-3
 100
AcDbText
  10
439.814518939762
  20
369.704937839489
  30
0
  40
3
   1

  50
0
  41
1
  51
0
   7
romans
  71
1
  72
0
  11
0
  21
0
  31
0
 210
0
 220
0
 230
1
 100
AcDbText
  73
0
 100
AcDbAttribute
   3

   2
SET
  70
0
   0
ATTRIB
   5
11B
 330
116
 100
AcDbEntity
   8
0
   6
Continuous
  62
0
 370
-3
 100
AcDbText
  10
439.814518939762
  20
373.304937839489
  30
0
  40
3
   1
H
  50
0
  41
1
  51
0
   7
romans
  71
1
  72
0
  11
0
  21
0
  31
0
 210
0
 220
0
 230
1
 100
AcDbText
  73
0
 100
AcDbAttribute
   3

   2
AL
  70
0
   0
SEQEND
   5
11C
 330
116
 100
AcDbEntity
   8
0
 100
AcDbBlockEnd
   0
INSERT
   5
11D
 330
8
 100
AcDbEntity
   8
INSTRUMENTS
   6
ByBlock
  62
3
 370
-3
 100
AcDbBlockReference
   2
INDICATING_DCS
  10
459.442412962463
  20
368.804937839489
  30
0
  41
1
  42
1
  43
1
  50
0
  70
1
  71
1
  44
0
  45
0
   0
ATTRIB
   5
11E
 330
11D
 100
AcDbEntity
   8
0
   6
Continuous
  62
0
 370
-3
 100
AcDbText
  10
456.728127248177
  20
370.304937839489
  30
0
  40
3
   1
LA
  50
0
  41
1
  51
0
   7
romans
  71
1
  72
0
 210
0
 220
0
 230
1
 100
AcDbText
  73
0
 100
AcDbAttribute
   3

   2
INS
  70
0
   0
ATTRIB
   5
11F
 330
11D
 100
AcDbEntity
   8
0
   6
Continuous
  62
0
 370
-3
 100
AcDbText
  10
454.642412962463
  20
365.204937839489
  30
0
  40
3
   1
1004
  50
0
  41
1
  51
0
   7
romans
  71
1
  72
0
 210
0
 220
0
 230
1
 100
AcDbText
  73
0
 100
AcDbAttribute
   3

   2
1234
  70
0
   0
ATTRIB
   5
120
 330
11D
 100
AcDbEntity
   8
0
   6
Continuous
  62
0
 370
-3
 100
AcDbText
  10
465.442412962463
  20
364.304937839489
  30
0
  40
3
   1

  50
0
  41
1
  51
0
   7
romans
  71
1
  72
0
  11
0
  21
0
  31
0
 210
0
 220
0
 230
1
 100
AcDbText
  73
0
 100
AcDbAttribute
   3

   2
SF
  70
0
   0
ATTRIB
   5
121
 330
11D
 100
AcDbEntity
   8
0
   6
Continuous
  62
0
 370
-3
 100
AcDbText
  10
465.442412962463
  20
369.704937839489
  30
0
  40
3
   1

  50
0
  41
1
  51
0
   7
romans
  71
1
  72
0
  11
0
  21
0
  31
0
 210
0
 220
0
 230
1
 100
AcDbText
  73
0
 100
AcDbAttribute
   3

   2
SET
  70
0
   0
ATTRIB
   5
122
 330
11D
 100
AcDbEntity
   8
0
   6
Continuous
  62
0
 370
-3
 100
AcDbText
  10
465.442412962463
  20
373.304937839489
  30
0
  40
3
   1
L
  50
0
  41
1
  51
0
   7
romans
  71
1
  72
0
  11
0
  21
0
  31
0
 210
0
 220
0
 230
1
 100
AcDbText
  73
0
 100
AcDbAttribute
   3

   2
AL
  70
0
   0
SEQEND
   5
123
 330
11D
 100
AcDbEntity
   8
0
 100
AcDbBlockEnd
   0
LINE
   5
124
 330
8
 100
AcDbEntity
   8
INSTRUMENTS
   6
HIDDEN
  62
3
 370
-3
 100
AcDbLine
  10
416.769572836294
  20
279.08545492608
  11
433.814518939762
  21
279.08545492608
   0
LINE
   5
125
 330
8
 100
AcDbEntity
   8
INSTRUMENTS
   6
HIDDEN
  62
3
 370
-3
 100
AcDbLine
  10
433.814518939762
  20
279.08545492608
  11
433.814518939762
  21
362.804937839489
   0
LINE
   5
126
 330
8
 100
AcDbEntity
   8
INSTRUMENTS
   6
HIDDEN
  62
3
 370
-3
 100
AcDbLine
  10
416.769572836294
  20
248.991631192075
  11
459.442412962463
  21
248.991631192075
   0
LINE
   5
127
 330
8
 100
AcDbEntity
   8
INSTRUMENTS
   6
HIDDEN
  62
3
 370
-3
 100
AcDbLine
  10
459.442412962463
  20
248.991631192075
  11
459.442412962463
  21
362.804937839489
   0
INSERT
   5
128
 330
8
 100
AcDbEntity
   8
INSTRUMENTS
   6
ByBlock
  62
3
 370
-3
 100
AcDbBlockReference
   2
INSTRUMENT_LOCAL
  10
352.501011513363
  20
330.603343785169
  30
0
  41
1
  42
1
  43
1
  50
0
  70
1
  71
1
  44
0
  45
0
   0
ATTRIB
   5
129
 330
128
 100
AcDbEntity
   8
0
   6
Continuous
  62
0
 370
-3
 100
AcDbText
  10
349.429582941934
  20
332.103343785169
  30
0
  40
3
   1
PG
  50
0
  41
1
  51
0
   7
romans
  71
1
  72
0
 210
0
 220
0
 230
1
 100
AcDbText
  73
0
 100
AcDbAttribute
   3

   2
INS
  70
0
   0
ATTRIB
   5
12A
 330
128
 100
AcDbEntity
   8
0
   6
Continuous
  62
0
 370
-3
 100
AcDbText
  10
347.758154370505
  20
327.003343785169
  30
0
  40
3
   1
1005
  50
0
  41
1
  51
0
   7
romans
  71
1
  72
0
 210
0
 220
0
 230
1
 100
AcDbText
  73
0
 100
AcDbAttribute
   3

   2
1234
  70
0
   0
ATTRIB
   5
12B
 330
128
 100
AcDbEntity
   8
0
   6
Continuous
  62
0
 370
-3
 100
AcDbText
  10
358.501011513363
  20
326.103343785169
  30
0
  40
3
   1

  50
0
  41
1
  51
0
   7
romans
  71
1
  72
0
  11
0
  21
0
  31
0
 210
0
 220
0
 230
1
 100
AcDbText
  73
0
 100
AcDbAttribute
   3

   2
SF
  70
0
   0
ATTRIB
   5
12C
 330
128
 100
AcDbEntity
   8
0
   6
Continuous
  62
0
 370
-3
 100
AcDbText
  10
358.501011513363
  20
331.503343785169
  30
0
  40
3
   1

  50
0
  41
1
  51
0
   7
romans
  71
1
  72
0
  11
0
  21
0
  31
0
 210
0
 220
0
 230
1
 100
AcDbText
  73
0
 100
AcDbAttribute
   3

   2
SET
  70
0
   0
ATTRIB
   5
12D
 330
128
 100
AcDbEntity
   8
0
   6
Continuous
  62
0
 370
-3
 100
AcDbText
  10
358.501011513363
  20
335.103343785169
  30
0
  40
3
   1

  50
0
  41
1
  51
0
   7
romans
  71
1
  72
0
  11
0
  21
0
  31
0
 210
0
 220
0
 230
1
 100
AcDbText
  73
0
 100
AcDbAttribute
   3

   2
AL
  70
0
   0
SEQEND
   5
12E
 330
128
 100
AcDbEntity
   8
0
 100
AcDbBlockEnd
   0
LINE
   5
12F
 330
8
 100
AcDbEntity
   8
INSTRUMENTS
   6
ByBlock
  62
3
 370
-3
 100
AcDbLine
  10
352.501011513363
  20
324.603343785169
  11
352.501011513363
  21
305.657858977439
   0
LINE
   5
130
 330
8
 100
AcDbEntity
   8
PIPELINES
   6
ByBlock
  62
6
 370
-3
 100
AcDbLine
  10
364.501011513363
  20
235.000829443215
  11
364.501011513363
  21
181.775941138395
   0
LINE
   5
131
 330
8
 100
AcDbEntity
   8
PIPELINES
   6
ByBlock
  62
6
 370
-3
 100
AcDbLine
  10
364.501011513363
  20
181.775941138395
  11
495.95293399243
  21
181.775941138395
  0
ENDSEC
   0
SECTION
   2
OBJECTS
   0
DICTIONARY
   5
A
 330
0
 100
AcDbDictionary
 280
0
 281
1
   3
ACAD_COLOR
 350
B
   3
ACAD_GROUP
 350
C
   3
ACAD_LAYOUT
 350
D
   3
ACAD_MATERIAL
 350
E
   3
ACAD_MLEADERSTYLE
 350
F
   3
ACAD_MLINESTYLE
 350
10
   3
ACAD_PLOTSETTINGS
 350
11
   3
ACAD_PLOTSTYLENAME
 350
12
   3
ACAD_SCALELIST
 350
14
   3
ACAD_TABLESTYLE
 350
15
   3
ACAD_VISUALSTYLE
 350
16
   2
DICTIONARY
   5
B
 330
A
 100
AcDbDictionary
 280
0
 281
1
   0
DICTIONARY
   5
C
 330
0
   3
Layout1
 350
2
   3
Layout1 (2)
 350
5
   3
Model
 350
8
   0
LAYOUT
   5
4
 100
AcDbPlotSettings
   1

   2
DWG To PDF.pc3
   4
ISO_full_bleed_A2_(594.00_x_420.00_MM)
  40
0.793749988079071
  41
0.793749988079071
  42
0.79376220703125
  43
0.79376220703125
  44
594
  45
420
  46
0
  47
0
  48
0
  49
0
 140
0
 141
0
 142
1
 143
1
  70

  72

  73

  74
5
   7

  75

  76

  77

  78

 147

 148

 149

 100
AcDbLayout
   1
Layout1
  70

  71
1
 330
C
   0
LAYOUT
   5
7
 100
AcDbPlotSettings
   1

   2
DWG To PDF.pc3
   4
ISO_full_bleed_A2_(594.00_x_420.00_MM)
  40
0.793749988079071
  41
0.793749988079071
  42
0.79376220703125
  43
0.79376220703125
  44
594
  45
420
  46
0
  47
0
  48
0
  49
0
 140
0
 141
0
 142
1
 143
1
  70

  72

  73

  74
5
   7

  75

  76

  77

  78

 147

 148

 149

 100
AcDbLayout
   1
Layout1 (2)
  70

  71
2
 330
C
   0
LAYOUT
   5
A
 100
AcDbPlotSettings
   1

   2
3S-08-A3 iR3380C
   4
A3
  40
5.78908348083496
  41
5.02708530426025
  42
5.7890625
  43
5.02706909179688
  44
419.946655273438
  45
296.925994873047
  46
11.6800003051758
  47
4.94000005722046
  48
-217.428085327148
  49
-445.608795166016
 140
-198.178085327148
 141
-431.7587890625
 142
1
 143
0.05
  70

  72

  73

  74
4
   7

  75

  76

  77

  78

 147

 148

 149

 100
AcDbLayout
   1
Model
  70

  71
0
 330
C
  0
ENDSEC
   0
SECTION
   2
THUMBNAILIMAGE
   0
ENDSEC
   0
EOF
