999
GambasCAD
  0
SECTION
2
HEADER
9
$MENU
1
acad
9
$DIMTM
40
0
9
$DIMTP
40
0
9
$SURFU
70
10
9
$SURFV
70
10
9
$XEDIT
290
1
9
$ANGDIR
70
0
9
$AUNITS
70
0
9
$AUPREC
70
0
9
$CLAYER
8
0
9
$DIMALT
70
0
9
$DIMASO
70
1
9
$DIMASZ
40
0.180000007152557
9
$DIMBLK
1

9
$DIMCEN
40
0.090000003576279
9
$DIMDEC
70
2
9
$DIMDLE
40
0
9
$DIMDLI
40
0.379999995231628
9
$DIMEXE
40
0.180000007152557
9
$DIMEXO
40
0.0625
9
$DIMFXL
70
1
9
$DIMGAP
40
0
9
$DIMLIM
70
0
9
$DIMLWD
70
-3
9
$DIMLWE
70
-3
9
$DIMRND
40
0
9
$DIMSAH
70
0
9
$DIMSD1
70
0
9
$DIMSD2
70
0
9
$DIMSE1
70
0
9
$DIMSE2
70
0
9
$DIMSHO
70
1
9
$DIMTAD
70
0
9
$DIMTIH
70
1
9
$DIMTIX
70
0
9
$DIMTOH
70
1
9
$DIMTOL
70
0
9
$DIMTSZ
40
0
9
$DIMTVP
40
0
9
$DIMTXT
40
0.180000007152557
9
$DIMUPT
70
0
9
$DIMZIN
70
0
9
$DRAGVS
349
0
9
$EXTMAX
10
80.2951965332031
20
-38.9212989807129
9
$EXTMIN
10
-15.3127002716064
20
-72.9213027954102
9
$LIMMAX
10
12
20
9
9
$LIMMIN
10
0
20
0
9
$LUNITS
70
2
9
$LUPREC
70
4
9
$PDMODE
70
0
9
$PDSIZE
40
0
9
$SKPOLY
70
0
9
$UCSORG
10
0
20
0
30
0
9
$USERI1
70
0
9
$USERI2
70
0
9
$USERI3
70
0
9
$USERI4
70
0
9
$USERI5
70
0
9
$USERR1
70
0
9
$USERR2
70
0
9
$USERR3
70
0
9
$USERR4
70
0
9
$USERR5
70
0
9
$ACADVER
1
AC1006
9
$ANGBASE
50
0
9
$ATTMODE
70
1
9
$CECOLOR
62
256
9
$CELTYPE
6
CONTINUOUS
9
$CEPSNID
390
0
9
$CMLJUST
70
0
9
$CSHADOW
280
0
9
$DIMADEC
70
0
9
$DIMALTD
70
2
9
$DIMALTF
40
25.3999996185303
9
$DIMALTU
70
2
9
$DIMALTZ
70
0
9
$DIMAZIN
70
0
9
$DIMBLK1
1

9
$DIMBLK2
1

9
$DIMCLRD
70
0
9
$DIMCLRE
70
0
9
$DIMCLRT
70
0
9
$DIMDSEP
70
44
9
$DIMFRAC
40
0
9
$DIMJUST
70
0
9
$DIMLFAC
40
1
9
$DIMPOST
1

9
$DIMSOXD
70
0
9
$DIMTDEC
70
2
9
$DIMTFAC
40
1
9
$DIMTOFL
70
0
9
$DIMTOLJ
70
1
9
$DIMTZIN
70
0
9
$ENDCAPS
280
0
9
$HALOGAP
280
0
9
$INSBASE
10
0
20
0
30
0
9
$LTSCALE
40
1
9
$PEXTMAX
10
0
20
0
9
$PEXTMIN
10
0
20
0
9
$PLIMMAX
10
0
20
0
9
$PLIMMIN
10
0
20
0
9
$PUCSORG
10
0
20
0
9
$TDINDWG
40
0
9
$UCSBASE
2

9
$UCSNAME
2

9
$UCSXDIR
10
1
20
0
30
0
9
$UCSYDIR
10
0
20
1
30
0
9
$CHAMFERA
40
0
9
$CHAMFERB
40
0
9
$CHAMFERC
40
20
9
$CHAMFERD
40
0
9
$CMLSCALE
40
1
9
$CMLSTYLE
2
standard
9
$DGNFRAME
70
0
9
$DIMALTTD
70
2
9
$DIMALTTZ
70
0
9
$DIMAPOST
1

9
$DIMASSOC
280
2
9
$DIMATFIT
70
2
9
$DIMAUNIT
70
0
9
$DIMFXLON
70
0
9
$DIMLTEX1
70
0
9
$DIMLTEX2
70
0
9
$DIMLTYPE
70
0
9
$DIMLUNIT
70
1
9
$DIMSCALE
40
1
9
$DIMSTYLE
2
standard
9
$DIMTFILL
70
0
9
$DIMTMOVE
70
0
9
$DIMTXSTY
7
standard
9
$DISPSILH
70
0
9
$DWFFRAME
70
0
9
$EXTNAMES
290
1
9
$FILLMODE
70
1
9
$HANDSEED
5
401C
9
$HIDETEXT
290
1
9
$INDEXCTL
280
0
9
$INSUNITS
70
6
9
$LATITUDE
70
37.795
9
$LIMCHECK
70
0
9
$LOFTANG1
70
1.570796326749
9
$LOFTANG2
70
1.570796326749
9
$LOFTMAG1
70
0
9
$LOFTMAG2
70
0
9
$MAXACTVP
70
64
9
$MIRRTEXT
70
1
9
$OBSCOLOR
70
257
9
$OBSLTYPE
280
0
9
$PINSBASE
10
0
20
0
9
$PLINEGEN
70
0
9
$PLINEWID
40
0
9
$PUCSBASE
2

9
$PUCSNAME
2

9
$PUCSXDIR
10
0
20
0
9
$PUCSYDIR
10
0
20
0
9
$SHADEDGE
70
3
9
$SHADEDIF
70
70
9
$SHOWHIST
70
0
9
$SORTENTS
280
0
9
$SPLFRAME
70
0
9
$STEPSIZE
70
6
9
$SURFTAB1
70
6
9
$SURFTAB2
70
6
9
$SURFTYPE
70
6
9
$TDCREATE
40
0
9
$TDUPDATE
40
0
9
$TEXTSIZE
40
0.200000002980232
9
$TILEMODE
70
1
9
$TIMEZONE
70
-8000
9
$TRACEWID
40
0.050000000745058
9
$UNITMODE
70
0
9
$USRTIMER
70
1
9
$CELTSCALE
40
1
9
$CELWEIGHT
370
-1
9
$CEPSNTYPE
380
0
9
$CMATERIAL
70
0
9
$DIMALTRND
40
0
9
$DIMARCSYM
70
0
9
$DIMJOGANG
70
0.785398163
9
$DIMLDRBLK
1
ARROW
9
$ELEVATION
40
0
9
$ExportDXF
9
$FILLETRAD
40
0
9
$JOINSTYLE
280
0
9
$LOFTPARAM
70
7
9
$LONGITUDE
70
-122.394
9
$LWDISPLAY
290
0
9
$ORTHOMODE
70
0
9
$PLIMCHECK
70
0
9
$PSLTSCALE
70
1
9
$PSOLWIDTH
70
0.25
9
$PSVPSCALE
40
0
9
$QTEXTMODE
70
0
9
$REGENMODE
70
1
9
$SetValues
9
$SKETCHINC
40
0.100000001490116
9
$SOLIDHIST
70
0
9
$TDUCREATE
40
2453292
9
$TDUUPDATE
40
2459858
9
$TEXTSTYLE
7
STANDARD
9
$THICKNESS
40
0
9
$TREEDEPTH
70
3020
9
$UCSORGTOP
10
0
20
0
9
$VISRETAIN
70
0
9
$WORLDVIEW
70
1
9
$LENSLENGTH
70
50
9
$OLESTARTUP
70
0
9
$PELEVATION
40
0
9
$PSOLHEIGHT
70
4
9
$PSTYLEMODE
290
1
9
$PUCSORGTOP
10
0
20
0
9
$SPLINESEGS
70
10
9
$SPLINETYPE
70
6
9
$STYLESHEET
70
0
9
$TDUSRTIMER
40
0
9
$UCSORGBACK
10
0
20
0
9
$UCSORGLEFT
10
0
20
0
9
$XCLIPFRAME
290
1
9
$DIMTFILLCLR
70
0
9
$DWGCODEPAGE
3
ANSI_1252
9
$LASTSAVEDBY
70
0
9
$LOFTNORMALS
70
1
9
$MEASUREMENT
70
1
9
$PROJECTNAME
1

9
$PUCSORGBACK
10
0
20
0
9
$PUCSORGLEFT
10
0
20
0
9
$STEPSPERSEC
70
2
9
$UCSORGFRONT
10
0
20
0
9
$UCSORGRIGHT
10
0
20
0
9
$UCSORTHOREF
2

9
$VERSIONGUID
2

9
$ACADMAINTVER
70
0
9
$CAMERAHEIGHT
70
0
9
$PUCSORGFRONT
10
0
20
0
9
$PUCSORGRIGHT
10
0
20
0
9
$PUCSORTHOREF
2

9
$UCSORGBOTTOM
10
0
20
0
9
$UCSORTHOVIEW
70
0
9
$CAMERADISPLAY
70
0
9
$HYPERLINKBASE
1

9
$INTERFEREVPVS
346
0
9
$PROXYGRAPHICS
70
0
9
$PUCSORGBOTTOM
10
0
20
0
9
$PUCSORTHOVIEW
70
0
9
$INTERFERECOLOR
62
256
9
$INTERFEREOBJVS
345
0
9
$NORTHDIRECTION
70
0
9
$REALWORLDSCALE
70
1
9
$DIMTXTDIRECTION
70
0
9
$FINGERPRINTGUID
2

9
$INTERSECTIONCOLOR
70
257
9
$LIGHTGLYPHDISPLAY
70
0
9
$TILEMODELIGHTSYNCH
70
0
9
$INTERSECTIONDISPLAY
290
0
9
$SHADOWPLANELOCATION
40
0
  0
ENDSEC
  0
SECTION
  2
CLASSES
  0
ENDSEC
  0
SECTION
2
TABLES
  0
TABLE
  2
VPORT
  5
9
  330
0
  100
AcDbSymbolTable
  70
0
  0
ENDTAB
  0
TABLE
  2
LTYPE
  5
A
  330
0
  100
AcDbSymbolTable
  70
7
  0
LTYPE
  5
B
  330
A
  100
AcDbSymbolTableRecord
  100
AcDbLinetypeTableRecord
   2
CONTINUOUS
  70
0
   3
Solid line
  72
65
  73
0
  40
0
  0
LTYPE
  5
C
  330
A
  100
AcDbSymbolTableRecord
  100
AcDbLinetypeTableRecord
   2
DOT
  70
0
   3
. . . . . . . . . . . . . . . . . . . . . . . . . . . . . . . . .
  72
65
  73
2
  40
0.25
  49
0
  49
0
  0
LTYPE
  5
D
  330
A
  100
AcDbSymbolTableRecord
  100
AcDbLinetypeTableRecord
   2
HIDDEN
  70
0
   3
__ __ __ __ __ __ __ __ __ __ __ __ __ __ __ __ __ __ __ __ __
  72
65
  73
2
  40
0.375
  49
0.25
  49
0.25
  0
LTYPE
  5
E
  330
A
  100
AcDbSymbolTableRecord
  100
AcDbLinetypeTableRecord
   2
DASHED
  70
0
   3
__ __ __ __ __ __ __ __ __ __ __ __ __ __ __ __ __ __ __ __ __
  72
65
  73
2
  40
0.75
  49
0.5
  49
0.5
  0
LTYPE
  5
F
  330
A
  100
AcDbSymbolTableRecord
  100
AcDbLinetypeTableRecord
   2
DASHDOT
  70
0
   3
__ . __ . __ . __ . __ . __ . __ . __ . __ . __ . __ . __ . _
  72
65
  73
4
  40
1
  49
0.5
  49
0.5
  49
0.5
  49
0.5
  0
LTYPE
  5
10
  330
A
  100
AcDbSymbolTableRecord
  100
AcDbLinetypeTableRecord
   2
DIVIDE
  70
0
   3
____ . . ____ . . ____ . . ____ . . ____ . . ____ . . ____ . .
  72
65
  73
6
  40
1.25
  49
0.5
  49
0.5
  49
0.5
  49
0.5
  49
0.5
  49
0.5
  0
LTYPE
  5
11
  330
A
  100
AcDbSymbolTableRecord
  100
AcDbLinetypeTableRecord
   2
CENTER
  70
0
   3
____ _ ____ _ ____ _ ____ _ ____ _ ____ _ ____ _ ____ _ ____ _
  72
65
  73
4
  40
2
  49
1.25
  49
1.25
  49
1.25
  49
1.25
  0
ENDTAB
  0
TABLE
  2
LAYER
  5
12
  330
0
  100
AcDbSymbolTable
  70
12
  0
LAYER
  5
13
  330
12
  100
AcDbSymbolTableRecord
  100
AcDbLayerTableRecord
  2
0
 70
0
 62
7
  6
CONTINUOUS
290
1
370
-3
390
 
347
 
  0
LAYER
  5
14
  330
12
  100
AcDbSymbolTableRecord
  100
AcDbLayerTableRecord
  2
CONSTRUCTION_CLASS
 70
0
 62
7
  6
CONTINUOUS
290
1
370
-3
390
 
347
 
  0
LAYER
  5
15
  330
12
  100
AcDbSymbolTableRecord
  100
AcDbLayerTableRecord
  2
PATTERN_CLASS
 70
0
 62
7
  6
CONTINUOUS
290
1
370
-3
390
 
347
 
  0
LAYER
  5
16
  330
12
  100
AcDbSymbolTableRecord
  100
AcDbLayerTableRecord
  2
2
 70
0
 62
7
  6
CONTINUOUS
290
1
370
-3
390
 
347
 
  0
LAYER
  5
17
  330
12
  100
AcDbSymbolTableRecord
  100
AcDbLayerTableRecord
  2
1
 70
0
 62
7
  6
CONTINUOUS
290
1
370
-3
390
 
347
 
  0
LAYER
  5
18
  330
12
  100
AcDbSymbolTableRecord
  100
AcDbLayerTableRecord
  2
7
 70
0
 62
7
  6
CONTINUOUS
290
1
370
-3
390
 
347
 
  0
LAYER
  5
19
  330
12
  100
AcDbSymbolTableRecord
  100
AcDbLayerTableRecord
  2
10
 70
0
 62
7
  6
CONTINUOUS
290
1
370
-3
390
 
347
 
  0
LAYER
  5
1A
  330
12
  100
AcDbSymbolTableRecord
  100
AcDbLayerTableRecord
  2
12
 70
0
 62
7
  6
CONTINUOUS
290
1
370
-3
390
 
347
 
  0
LAYER
  5
1B
  330
12
  100
AcDbSymbolTableRecord
  100
AcDbLayerTableRecord
  2
6
 70
0
 62
7
  6
CONTINUOUS
290
1
370
-3
390
 
347
 
  0
LAYER
  5
1C
  330
12
  100
AcDbSymbolTableRecord
  100
AcDbLayerTableRecord
  2
3
 70
0
 62
7
  6
CONTINUOUS
290
1
370
-3
390
 
347
 
  0
LAYER
  5
1D
  330
12
  100
AcDbSymbolTableRecord
  100
AcDbLayerTableRecord
  2
4
 70
0
 62
7
  6
CONTINUOUS
290
1
370
-3
390
 
347
 
  0
LAYER
  5
1E
  330
12
  100
AcDbSymbolTableRecord
  100
AcDbLayerTableRecord
  2
5
 70
0
 62
7
  6
CONTINUOUS
290
1
370
-3
390
 
347
 
  0
ENDTAB
  0
TABLE
  2
STYLE
  5
1F
  330
0
  100
AcDbSymbolTable
  70
3
  0
STYLE
  5
20
  330
1F
  100
AcDbSymbolTableRecord
  100
AcDbTextStyleTableRecord
  2
standard
 70
0
 40
0.2
 41
0
 50
0
 71
0
 42
0
  3
txt
  4

  0
STYLE
  5
21
  330
1F
  100
AcDbSymbolTableRecord
  100
AcDbTextStyleTableRecord
  2
romans
 70
0
 40
0.2
 41
0
 50
0
 71
0
 42
0
  3
romans
  4

  0
STYLE
  5
22
  330
1F
  100
AcDbSymbolTableRecord
  100
AcDbTextStyleTableRecord
  2
romanc
 70
0
 40
0.2
 41
0
 50
0
 71
0
 42
0
  3
romanc
  4

  0
ENDTAB
  0
TABLE
  2
VIEW
  5
23
  330
0
  100
AcDbSymbolTable
  70
0
  0
ENDTAB
  0
TABLE
  2
APPID
  5
24
  330
0
  100
AcDbSymbolTable
  70
0
  0
ENDTAB
  0
TABLE
  2
UCS
  5
25
  330
0
  100
AcDbSymbolTable
  70
0
  0
ENDTAB
  0
TABLE
  2
DIMSTYLE
  5
26
  330
0
  100
AcDbSymbolTable
  70
0
  0
ENDTAB
  0
TABLE
  2
BLOCK_RECORD
  5
1
  330
0
  100
AcDbSymbolTable
  70
3
  0
BLOCK_RECORD
  5
7
 330
1
 100
AcDbSymbolTableRecord
 100
AcDbBlockTableRecord
  2
ARROWD
 340
0
  70
0
 280
0
 281
0
  0
BLOCK_RECORD
  5
2
 330
1
 100
AcDbSymbolTableRecord
 100
AcDbBlockTableRecord
  2
*Model_Space
 340
4
  70
0
 280
0
 281
0
  0
ENDTAB
  0
ENDSEC
   0
SECTION
   2
BLOCKS
   0
BLOCK
   5
8
 330
7
 100
AcDbEntity
   8
2
 100
AcDbBlockBegin
   2
ARROWD
  70
0
  10
0
  20
0
  30
0
   3
ARROWD
   1

   0
SOLID
   5
6E8
 330
7
 100
AcDbEntity
   8
2
   6
CONTINUOUS
  62
7
 370
-3
 100
AcDbTrace
  10
0.0157
  20
0.0936
  11
-0.0218
  21
0.0936
  12
-0.0031
  22
-0.0189
  13
-0.0031
  23
-0.0189
   0
LINE
   5
6EA
 330
7
 100
AcDbEntity
   8
2
   6
CONTINUOUS
  62
7
 370
-3
 100
AcDbLine
  10
-0.003
  20
0.0936
  11
-0.0031
  21
0.3561
   0
ENDBLK
   5
27
 330
7
 100
AcDbEntity
   8
0
 100
AcDbBlockEnd
   0
BLOCK
   5
3
 330
2
 100
AcDbEntity
   8

 100
AcDbBlockBegin
   2
*Model_Space
  70
0
  10
0
  20
0
  30
0
   3
*Model_Space
   1

   0
ENDBLK
   5
28
 330
2
 100
AcDbEntity
   8
0
 100
AcDbBlockEnd
   0
ENDSEC
  0
SECTION
  2
ENTITIES
   0
LINE
   5
2
 330
2
 100
AcDbEntity
   8
2
   6
CONTINUOUS
  62
3
 370
-3
 100
AcDbLine
  10
44.564
  20
-56.4878
  11
44.689
  21
-56.504
   0
LINE
   5
4
 330
2
 100
AcDbEntity
   8
2
   6
CONTINUOUS
  62
3
 370
-3
 100
AcDbLine
  10
65.7991
  20
-59.2284
  11
65.9242
  21
-59.2445
   0
LINE
   5
6
 330
2
 100
AcDbEntity
   8
1
   6
CONTINUOUS
  62
3
 370
-3
 100
AcDbLine
  10
44.689
  20
-71.4447
  11
69.9244
  21
-68.1881
   0
LINE
   5
8
 330
2
 100
AcDbEntity
   8
2
   6
CONTINUOUS
  62
3
 370
-3
 100
AcDbLine
  10
44.564
  20
-69.1919
  11
44.689
  21
-69.1759
   0
LINE
   5
A
 330
2
 100
AcDbEntity
   8
2
   6
CONTINUOUS
  62
3
 370
-3
 100
AcDbLine
  10
45.7984
  20
-56.6472
  11
45.9234
  21
-56.6633
   0
LINE
   5
C
 330
2
 100
AcDbEntity
   8
2
   6
CONTINUOUS
  62
3
 370
-3
 100
AcDbLine
  10
49.7986
  20
-57.1634
  11
49.9236
  21
-57.1795
   0
LINE
   5
E
 330
2
 100
AcDbEntity
   8
2
   6
CONTINUOUS
  62
3
 370
-3
 100
AcDbLine
  10
53.7987
  20
-57.6795
  11
53.9237
  21
-57.6957
   0
LINE
   5
10
 330
2
 100
AcDbEntity
   8
2
   6
CONTINUOUS
  62
3
 370
-3
 100
AcDbLine
  10
57.7988
  20
-58.1958
  11
57.9238
  21
-58.212
   0
LINE
   5
12
 330
2
 100
AcDbEntity
   8
2
   6
CONTINUOUS
  62
3
 370
-3
 100
AcDbLine
  10
61.799
  20
-58.712
  11
61.924
  21
-58.7282
   0
LINE
   5
14
 330
2
 100
AcDbEntity
   8
2
   6
CONTINUOUS
  62
3
 370
-3
 100
AcDbLine
  10
61.924
  20
-58.9804
  11
65.7991
  21
-59.4805
   0
LINE
   5
16
 330
2
 100
AcDbEntity
   8
2
   6
CONTINUOUS
  62
3
 370
-3
 100
AcDbLine
  10
57.9238
  20
-58.464
  11
61.799
  21
-58.9642
   0
LINE
   5
18
 330
2
 100
AcDbEntity
   8
2
   6
CONTINUOUS
  62
3
 370
-3
 100
AcDbLine
  10
53.9237
  20
-57.9478
  11
57.7988
  21
-58.4479
   0
LINE
   5
1A
 330
2
 100
AcDbEntity
   8
2
   6
CONTINUOUS
  62
3
 370
-3
 100
AcDbLine
  10
49.9236
  20
-57.4317
  11
53.7987
  21
-57.9317
   0
LINE
   5
1C
 330
2
 100
AcDbEntity
   8
2
   6
CONTINUOUS
  62
3
 370
-3
 100
AcDbLine
  10
44.689
  20
-56.7561
  11
45.7984
  21
-56.8992
   0
LINE
   5
1E
 330
2
 100
AcDbEntity
   8
2
   6
CONTINUOUS
  62
3
 370
-3
 100
AcDbLine
  10
45.9234
  20
-56.9154
  11
49.7986
  21
-57.4156
   0
LINE
   5
20
 330
2
 100
AcDbEntity
   8
2
   6
CONTINUOUS
  62
3
 370
-3
 100
AcDbLine
  10
61.799
  20
-66.9678
  11
61.924
  21
-66.9517
   0
LINE
   5
22
 330
2
 100
AcDbEntity
   8
2
   6
CONTINUOUS
  62
3
 370
-3
 100
AcDbLine
  10
57.7988
  20
-67.4839
  11
57.9238
  21
-67.4678
   0
LINE
   5
24
 330
2
 100
AcDbEntity
   8
2
   6
CONTINUOUS
  62
3
 370
-3
 100
AcDbLine
  10
57.9238
  20
-67.3418
  11
61.799
  21
-66.8417
   0
LINE
   5
26
 330
2
 100
AcDbEntity
   8
2
   6
CONTINUOUS
  62
3
 370
-3
 100
AcDbLine
  10
61.924
  20
-66.8257
  11
69.9244
  21
-65.7933
   0
LINE
   5
28
 330
2
 100
AcDbEntity
   8
2
   6
CONTINUOUS
  62
3
 370
-3
 100
AcDbLine
  10
53.7987
  20
-68.0002
  11
53.9237
  21
-67.9842
   0
LINE
   5
2A
 330
2
 100
AcDbEntity
   8
2
   6
CONTINUOUS
  62
3
 370
-3
 100
AcDbLine
  10
49.7986
  20
-68.5164
  11
49.9236
  21
-68.5002
   0
LINE
   5
2C
 330
2
 100
AcDbEntity
   8
2
   6
CONTINUOUS
  62
3
 370
-3
 100
AcDbLine
  10
49.9236
  20
-68.3743
  11
53.7987
  21
-67.8741
   0
LINE
   5
2E
 330
2
 100
AcDbEntity
   8
2
   6
CONTINUOUS
  62
3
 370
-3
 100
AcDbLine
  10
53.9237
  20
-67.8581
  11
57.7988
  21
-67.358
   0
LINE
   5
30
 330
2
 100
AcDbEntity
   8
2
   6
CONTINUOUS
  62
3
 370
-3
 100
AcDbLine
  10
45.7984
  20
-69.0327
  11
45.9234
  21
-69.0165
   0
LINE
   5
32
 330
2
 100
AcDbEntity
   8
2
   6
CONTINUOUS
  62
3
 370
-3
 100
AcDbLine
  10
44.689
  20
-69.0498
  11
45.7984
  21
-68.9066
   0
LINE
   5
34
 330
2
 100
AcDbEntity
   8
2
   6
CONTINUOUS
  62
3
 370
-3
 100
AcDbLine
  10
45.9234
  20
-68.8906
  11
49.7986
  21
-68.3904
   0
LINE
   5
36
 330
2
 100
AcDbEntity
   8
2
   6
CONTINUOUS
  62
3
 370
-3
 100
AcDbLine
  10
65.7991
  20
-59.2284
  11
65.7991
  21
-62.3082
   0
LINE
   5
38
 330
2
 100
AcDbEntity
   8
2
   6
CONTINUOUS
  62
3
 370
-3
 100
AcDbLine
  10
65.7991
  20
-62.6837
  11
65.7991
  21
-66.3256
   0
LINE
   5
3A
 330
2
 100
AcDbEntity
   8
2
   6
CONTINUOUS
  62
3
 370
-3
 100
AcDbLine
  10
61.924
  20
-58.7282
  11
61.924
  21
-62.1415
   0
LINE
   5
3C
 330
2
 100
AcDbEntity
   8
2
   6
CONTINUOUS
  62
3
 370
-3
 100
AcDbLine
  10
61.924
  20
-62.5169
  11
61.924
  21
-66.9517
   0
LINE
   5
3E
 330
2
 100
AcDbEntity
   8
2
   6
CONTINUOUS
  62
3
 370
-3
 100
AcDbLine
  10
57.9238
  20
-58.212
  11
57.9238
  21
-61.9696
   0
LINE
   5
40
 330
2
 100
AcDbEntity
   8
2
   6
CONTINUOUS
  62
3
 370
-3
 100
AcDbLine
  10
57.9238
  20
-62.3449
  11
57.9238
  21
-67.4678
   0
LINE
   5
42
 330
2
 100
AcDbEntity
   8
2
   6
CONTINUOUS
  62
3
 370
-3
 100
AcDbLine
  10
53.9237
  20
-57.6957
  11
53.9237
  21
-61.7976
   0
LINE
   5
44
 330
2
 100
AcDbEntity
   8
2
   6
CONTINUOUS
  62
3
 370
-3
 100
AcDbLine
  10
53.9237
  20
-62.1728
  11
53.9237
  21
-67.9842
   0
LINE
   5
46
 330
2
 100
AcDbEntity
   8
2
   6
CONTINUOUS
  62
3
 370
-3
 100
AcDbLine
  10
49.9236
  20
-57.1795
  11
49.9236
  21
-61.6253
   0
LINE
   5
48
 330
2
 100
AcDbEntity
   8
2
   6
CONTINUOUS
  62
3
 370
-3
 100
AcDbLine
  10
49.9236
  20
-62.0008
  11
49.9236
  21
-68.5002
   0
LINE
   5
4A
 330
2
 100
AcDbEntity
   8
2
   6
CONTINUOUS
  62
3
 370
-3
 100
AcDbLine
  10
49.7986
  20
-57.1633
  11
49.7986
  21
-61.62
   0
LINE
   5
4C
 330
2
 100
AcDbEntity
   8
2
   6
CONTINUOUS
  62
3
 370
-3
 100
AcDbLine
  10
49.7986
  20
-61.9954
  11
49.7986
  21
-68.5164
   0
LINE
   5
4E
 330
2
 100
AcDbEntity
   8
2
   6
CONTINUOUS
  62
3
 370
-3
 100
AcDbLine
  10
53.7987
  20
-57.6795
  11
53.7987
  21
-61.7921
   0
LINE
   5
50
 330
2
 100
AcDbEntity
   8
2
   6
CONTINUOUS
  62
3
 370
-3
 100
AcDbLine
  10
53.7987
  20
-62.1673
  11
53.7987
  21
-68.0002
   0
LINE
   5
52
 330
2
 100
AcDbEntity
   8
2
   6
CONTINUOUS
  62
3
 370
-3
 100
AcDbLine
  10
61.799
  20
-58.712
  11
61.799
  21
-62.1363
   0
LINE
   5
54
 330
2
 100
AcDbEntity
   8
2
   6
CONTINUOUS
  62
3
 370
-3
 100
AcDbLine
  10
61.799
  20
-62.5115
  11
61.799
  21
-66.9678
   0
LINE
   5
56
 330
2
 100
AcDbEntity
   8
2
   6
CONTINUOUS
  62
3
 370
-3
 100
AcDbLine
  10
57.7988
  20
-58.1958
  11
57.7988
  21
-61.9642
   0
LINE
   5
58
 330
2
 100
AcDbEntity
   8
2
   6
CONTINUOUS
  62
3
 370
-3
 100
AcDbLine
  10
57.7988
  20
-62.3394
  11
57.7988
  21
-67.4839
   0
LINE
   5
5A
 330
2
 100
AcDbEntity
   8
2
   6
CONTINUOUS
  62
3
 370
-3
 100
AcDbLine
  10
45.9234
  20
-56.6633
  11
45.9234
  21
-61.4533
   0
LINE
   5
5C
 330
2
 100
AcDbEntity
   8
2
   6
CONTINUOUS
  62
3
 370
-3
 100
AcDbLine
  10
45.9234
  20
-61.8286
  11
45.9234
  21
-69.0165
   0
LINE
   5
5E
 330
2
 100
AcDbEntity
   8
2
   6
CONTINUOUS
  62
3
 370
-3
 100
AcDbLine
  10
45.7984
  20
-56.647
  11
45.7984
  21
-61.448
   0
LINE
   5
60
 330
2
 100
AcDbEntity
   8
2
   6
CONTINUOUS
  62
3
 370
-3
 100
AcDbLine
  10
45.7984
  20
-61.8233
  11
45.7984
  21
-69.0327
   0
LINE
   5
62
 330
2
 100
AcDbEntity
   8
2
   6
CONTINUOUS
  62
3
 370
-3
 100
AcDbLine
  10
44.689
  20
-56.504
  11
44.689
  21
-61.4003
   0
LINE
   5
64
 330
2
 100
AcDbEntity
   8
2
   6
CONTINUOUS
  62
3
 370
-3
 100
AcDbLine
  10
44.689
  20
-61.7756
  11
44.689
  21
-69.1759
   0
LINE
   5
66
 330
2
 100
AcDbEntity
   8
2
   6
CONTINUOUS
  62
3
 370
-3
 100
AcDbLine
  10
44.564
  20
-55.9838
  11
44.564
  21
-61.3949
   0
LINE
   5
68
 330
2
 100
AcDbEntity
   8
2
   6
CONTINUOUS
  62
3
 370
-3
 100
AcDbLine
  10
44.564
  20
-61.3949
  11
44.564
  21
-71.4608
   0
LINE
   5
6A
 330
2
 100
AcDbEntity
   8
1
   6
CONTINUOUS
  62
3
 370
-3
 100
AcDbLine
  10
44.564
  20
-69.444
  11
69.9244
  21
-66.1714
   0
LINE
   5
6C
 330
2
 100
AcDbEntity
   8
2
   6
DIVIDE
  62
6
 370
-3
 100
AcDbLine
  10
44.564
  20
-66.4192
  11
69.9244
  21
-63.1463
   0
LINE
   5
6E
 330
2
 100
AcDbEntity
   8
2
   6
DIVIDE
  62
6
 370
-3
 100
AcDbLine
  10
44.564
  20
-61.6452
  11
69.9244
  21
-62.7362
   0
LINE
   5
70
 330
2
 100
AcDbEntity
   8
2
   6
HIDDEN
  62
4
 370
-3
 100
AcDbLine
  10
44.564
  20
-61.3949
  11
69.9244
  21
-62.4857
   0
LINE
   5
72
 330
2
 100
AcDbEntity
   8
2
   6
CONTINUOUS
  62
3
 370
-3
 100
AcDbLine
  10
44.564
  20
-61.7701
  11
69.9244
  21
-62.8611
   0
LINE
   5
74
 330
2
 100
AcDbEntity
   8
2
   6
CONTINUOUS
  62
3
 370
-3
 100
AcDbLine
  10
69.9244
  20
-59.6035
  11
69.9244
  21
-68.1881
   0
LINE
   5
76
 330
2
 100
AcDbEntity
   8
2
   6
CONTINUOUS
  62
3
 370
-3
 100
AcDbLine
  10
65.9242
  20
-59.4965
  11
69.7993
  21
-59.9969
   0
LINE
   5
78
 330
2
 100
AcDbEntity
   8
2
   6
CONTINUOUS
  62
3
 370
-3
 100
AcDbLine
  10
69.7993
  20
-59.7436
  11
69.9244
  21
-59.7597
   0
LINE
   5
7A
 330
2
 100
AcDbEntity
   8
2
   6
CONTINUOUS
  62
3
 370
-3
 100
AcDbLine
  10
69.7993
  20
-59.7436
  11
69.7993
  21
-62.4805
   0
LINE
   5
7C
 330
2
 100
AcDbEntity
   8
2
   6
CONTINUOUS
  62
3
 370
-3
 100
AcDbLine
  10
69.7993
  20
-62.8611
  11
69.7993
  21
-65.8093
   0
LINE
   5
7E
 330
2
 100
AcDbEntity
   8
2
   6
CONTINUOUS
  62
3
 370
-3
 100
AcDbLine
  10
65.9242
  20
-59.2445
  11
65.9242
  21
-62.3163
   0
LINE
   5
80
 330
2
 100
AcDbEntity
   8
2
   6
CONTINUOUS
  62
3
 370
-3
 100
AcDbLine
  10
65.9242
  20
-62.6918
  11
65.9242
  21
-66.3094
   0
LINE
   5
82
 330
2
 100
AcDbEntity
   8
1
   6
CONTINUOUS
  62
3
 370
-3
 100
AcDbLine
  10
43.0335
  20
-55.7863
  11
44.564
  21
-55.9838
   0
LINE
   5
84
 330
2
 100
AcDbEntity
   8
2
   6
CONTINUOUS
  62
3
 370
-3
 100
AcDbLine
  10
44.439
  20
-56.4717
  11
44.564
  21
-56.4878
   0
LINE
   5
86
 330
2
 100
AcDbEntity
   8
2
   6
CONTINUOUS
  62
3
 370
-3
 100
AcDbLine
  10
44.439
  20
-69.2082
  11
44.564
  21
-69.1919
   0
LINE
   5
88
 330
2
 100
AcDbEntity
   8
2
   6
DIVIDE
  62
6
 370
-3
 100
AcDbLine
  10
43.0335
  20
-66.6167
  11
44.564
  21
-66.4192
   0
LINE
   5
8A
 330
2
 100
AcDbEntity
   8
2
   6
CONTINUOUS
  62
3
 370
-3
 100
AcDbLine
  10
43.1014
  20
-56.2991
  11
43.2264
  21
-56.3151
   0
LINE
   5
8C
 330
2
 100
AcDbEntity
   8
2
   6
CONTINUOUS
  62
3
 370
-3
 100
AcDbLine
  10
43.2264
  20
-56.5674
  11
44.439
  21
-56.7239
   0
LINE
   5
8E
 330
2
 100
AcDbEntity
   8
2
   6
CONTINUOUS
  62
3
 370
-3
 100
AcDbLine
  10
43.2264
  20
-69.2385
  11
44.439
  21
-69.082
   0
LINE
   5
90
 330
2
 100
AcDbEntity
   8
2
   6
CONTINUOUS
  62
3
 370
-3
 100
AcDbLine
  10
43.0335
  20
-69.2634
  11
43.1014
  21
-69.2547
   0
LINE
   5
92
 330
2
 100
AcDbEntity
   8
2
   6
CONTINUOUS
  62
3
 370
-3
 100
AcDbLine
  10
43.1014
  20
-69.3805
  11
43.2264
  21
-69.3644
   0
LINE
   5
94
 330
2
 100
AcDbEntity
   8
2
   6
CONTINUOUS
  62
3
 370
-3
 100
AcDbLine
  10
43.0335
  20
-56.5424
  11
43.1014
  21
-56.5511
   0
LINE
   5
96
 330
2
 100
AcDbEntity
   8
2
   6
CONTINUOUS
  62
3
 370
-3
 100
AcDbLine
  10
43.0335
  20
-69.6417
  11
44.564
  21
-69.4442
   0
LINE
   5
98
 330
2
 100
AcDbEntity
   8
2
   6
CONTINUOUS
  62
3
 370
-3
 100
AcDbLine
  10
44.564
  20
-55.9838
  11
44.564
  21
-61.3949
   0
LINE
   5
9A
 330
2
 100
AcDbEntity
   8
2
   6
CONTINUOUS
  62
3
 370
-3
 100
AcDbLine
  10
44.564
  20
-61.3949
  11
44.564
  21
-69.4442
   0
LINE
   5
9C
 330
2
 100
AcDbEntity
   8
2
   6
CONTINUOUS
  62
3
 370
-3
 100
AcDbLine
  10
44.439
  20
-56.4717
  11
44.439
  21
-69.2082
   0
LINE
   5
9E
 330
2
 100
AcDbEntity
   8
2
   6
CONTINUOUS
  62
3
 370
-3
 100
AcDbLine
  10
43.2264
  20
-56.3151
  11
43.2264
  21
-69.3644
   0
LINE
   5
A0
 330
2
 100
AcDbEntity
   8
2
   6
CONTINUOUS
  62
3
 370
-3
 100
AcDbLine
  10
43.1014
  20
-56.2991
  11
43.1014
  21
-69.3805
   0
LINE
   5
A2
 330
2
 100
AcDbEntity
   8
1
   6
CONTINUOUS
  62
3
 370
-3
 100
AcDbLine
  10
43.0335
  20
-71.6584
  11
44.689
  21
-71.4447
   0
LINE
   5
A4
 330
2
 100
AcDbEntity
   8
1
   6
HIDDEN
  62
30
 370
-3
 100
AcDbLine
  10
43.0335
  20
-61.3949
  11
44.564
  21
-61.3949
   0
LINE
   5
A6
 330
2
 100
AcDbEntity
   8
1
   6
HIDDEN
  62
30
 370
-3
 100
AcDbLine
  10
43.0335
  20
-61.7699
  11
44.564
  21
-61.7699
   0
LINE
   5
A8
 330
2
 100
AcDbEntity
   8
1
   6
DIVIDE
  62
6
 370
-3
 100
AcDbLine
  10
44.564
  20
-61.6452
  11
43.0335
  21
-61.6452
   0
LINE
   5
AA
 330
2
 100
AcDbEntity
   8
1
   6
HIDDEN
  62
30
 370
-3
 100
AcDbLine
  10
43.0335
  20
-57.8339
  11
44.564
  21
-57.8339
   0
LINE
   5
AC
 330
2
 100
AcDbEntity
   8
1
   6
HIDDEN
  62
30
 370
-3
 100
AcDbLine
  10
43.0335
  20
-57.4589
  11
44.564
  21
-57.4589
   0
LINE
   5
AE
 330
2
 100
AcDbEntity
   8
0
   6
HIDDEN
  62
253
 370
-3
 100
AcDbLine
  10
49.9236
  20
-60.9919
  11
43.0335
  21
-60.9919
   0
LINE
   5
B0
 330
2
 100
AcDbEntity
   8
0
   6
HIDDEN
  62
253
 370
-3
 100
AcDbLine
  10
49.9236
  20
-60.3668
  11
43.0335
  21
-60.3668
   0
LINE
   5
B2
 330
2
 100
AcDbEntity
   8
7
   6
HIDDEN
  62
46
 370
-3
 100
AcDbLine
  10
49.9236
  20
-60.3355
  11
43.0335
  21
-60.3355
   0
ARC
   5
B4
 330
2
 100
AcDbEntity
   8
10
   6
CONTINUOUS
  62
3
 370
-3
 100
AcDbCircle
  10
64.812079
  20
-42.985367
  40
25.715976
 100
AcDbArc
  50
281.4664638889
  51
299.4432166667
   0
ARC
   5
B6
 330
2
 100
AcDbEntity
   8
10
   6
CONTINUOUS
  62
3
 370
-3
 100
AcDbCircle
  10
77.108939
  20
-64.770342
  40
0.700024
 100
AcDbArc
  50
299.4432166667
  51
35.5530055556
   0
LINE
   5
B8
 330
2
 100
AcDbEntity
   8
1
   6
CONTINUOUS
  62
3
 370
-3
 100
AcDbLine
  10
44.564
  20
-55.9838
  11
66.6531
  21
-58.8345
   0
ARC
   5
BA
 330
2
 100
AcDbEntity
   8
10
   6
CONTINUOUS
  62
3
 370
-3
 100
AcDbCircle
  10
63.813861
  20
-78.253684
  40
19.625688
 100
AcDbArc
  50
45.0531722222
  51
81.6816833333
   0
LINE
   5
BC
 330
2
 100
AcDbEntity
   8
10
   6
CONTINUOUS
  62
2
 370
-3
 100
AcDbLine
  10
74.6082
  20
-65.6336
  11
72.6812
  21
-66.2988
   0
LINE
   5
BE
 330
2
 100
AcDbEntity
   8
10
   6
CONTINUOUS
  62
2
 370
-3
 100
AcDbLine
  10
72.6812
  20
-66.2988
  11
71.0332
  21
-66.8677
   0
LINE
   5
C0
 330
2
 100
AcDbEntity
   8
10
   6
CONTINUOUS
  62
2
 370
-3
 100
AcDbLine
  10
71.0789
  20
-61.1384
  11
72.6812
  21
-62.0119
   0
LINE
   5
C2
 330
2
 100
AcDbEntity
   8
10
   6
CONTINUOUS
  62
2
 370
-3
 100
AcDbLine
  10
72.6812
  20
-62.0119
  11
74.6541
  21
-63.0873
   0
LINE
   5
C4
 330
2
 100
AcDbEntity
   8
2
   6
CONTINUOUS
  62
2
 370
-3
 100
AcDbLine
  10
70.0492
  20
-60.0443
  11
70.0492
  21
-67.9104
   0
LINE
   5
C6
 330
2
 100
AcDbEntity
   8
10
   6
CONTINUOUS
  62
2
 370
-3
 100
AcDbLine
  10
70.0492
  20
-60.0443
  11
69.9244
  21
-59.9919
   0
LINE
   5
C8
 330
2
 100
AcDbEntity
   8
10
   6
CONTINUOUS
  62
2
 370
-3
 100
AcDbLine
  10
70.0492
  20
-67.9104
  11
69.9244
  21
-67.9479
   0
LINE
   5
CA
 330
2
 100
AcDbEntity
   8
2
   6
CONTINUOUS
  62
3
 370
-3
 100
AcDbLine
  10
43.0335
  20
-59.5673
  11
44.564
  21
-59.7648
   0
LINE
   5
CC
 330
2
 100
AcDbEntity
   8
2
   6
CONTINUOUS
  62
3
 370
-3
 100
AcDbLine
  10
43.0335
  20
-66.2382
  11
44.564
  21
-66.0407
   0
LINE
   5
CE
 330
2
 100
AcDbEntity
   8
2
   6
CONTINUOUS
  62
3
 370
-3
 100
AcDbLine
  10
43.0335
  20
-63.2133
  11
44.564
  21
-63.0158
   0
LINE
   5
D0
 330
2
 100
AcDbEntity
   8
2
   6
CONTINUOUS
  62
3
 370
-3
 100
AcDbLine
  10
43.0335
  20
-62.5923
  11
44.564
  21
-62.7898
   0
LINE
   5
D2
 330
2
 100
AcDbEntity
   8
12
   6
HIDDEN
  62
4
 370
-3
 100
AcDbLine
  10
44.564
  20
-62.0676
  11
43.2263
  21
-62.0676
   0
LINE
   5
D4
 330
2
 100
AcDbEntity
   8
12
   6
HIDDEN
  62
4
 370
-3
 100
AcDbLine
  10
44.564
  20
-62.5678
  11
43.2263
  21
-62.5678
   0
LINE
   5
D6
 330
2
 100
AcDbEntity
   8
12
   6
HIDDEN
  62
4
 370
-3
 100
AcDbLine
  10
44.1554
  20
-62.2391
  11
44.5691
  21
-62.2391
   0
LINE
   5
D8
 330
2
 100
AcDbEntity
   8
12
   6
HIDDEN
  62
4
 370
-3
 100
AcDbLine
  10
44.1554
  20
-62.3706
  11
44.5693
  21
-62.3706
   0
ARC
   5
DA
 330
2
 100
AcDbEntity
   8
12
   6
HIDDEN
  62
4
 370
-3
 100
AcDbCircle
  10
44.207141
  20
-62.556319
  40
0.321436
 100
AcDbArc
  50
99.2710305556
  51
128.5067305556
   0
ARC
   5
DC
 330
2
 100
AcDbEntity
   8
12
   6
HIDDEN
  62
4
 370
-3
 100
AcDbCircle
  10
44.207141
  20
-62.053249
  40
0.321436
 100
AcDbArc
  50
231.4932694444
  51
260.7289694444
   0
LINE
   5
DE
 330
2
 100
AcDbEntity
   8
12
   6
HIDDEN
  62
4
 370
-3
 100
AcDbLine
  10
44.689
  20
-61.9546
  11
44.564
  21
-61.9546
   0
LINE
   5
E0
 330
2
 100
AcDbEntity
   8
12
   6
HIDDEN
  62
4
 370
-3
 100
AcDbLine
  10
44.689
  20
-62.6674
  11
44.564
  21
-62.6674
   0
LINE
   5
E2
 330
2
 100
AcDbEntity
   8
12
   6
HIDDEN
  62
4
 370
-3
 100
AcDbLine
  10
45.5364
  20
-62.2677
  11
44.8184
  21
-62.2677
   0
LINE
   5
E4
 330
2
 100
AcDbEntity
   8
12
   6
HIDDEN
  62
4
 370
-3
 100
AcDbLine
  10
45.5364
  20
-62.3423
  11
44.8184
  21
-62.3423
   0
ARC
   5
E6
 330
2
 100
AcDbEntity
   8
12
   6
HIDDEN
  62
4
 370
-3
 100
AcDbCircle
  10
44.818378
  20
-62.304984
  40
0.037301
 100
AcDbArc
  50
90
  51
270
   0
ARC
   5
E8
 330
2
 100
AcDbEntity
   8
12
   6
HIDDEN
  62
4
 370
-3
 100
AcDbCircle
  10
44.760876
  20
-62.304784
  40
0.202607
 100
AcDbArc
  50
198.9521194444
  51
349.3334
   0
ARC
   5
EA
 330
2
 100
AcDbEntity
   8
12
   6
HIDDEN
  62
4
 370
-3
 100
AcDbCircle
  10
44.760876
  20
-62.304784
  40
0.202607
 100
AcDbArc
  50
10.5515111111
  51
161.0777805556
   0
ARC
   5
EC
 330
2
 100
AcDbEntity
   8
12
   6
HIDDEN
  62
4
 370
-3
 100
AcDbCircle
  10
44.760876
  20
-62.304784
  40
0.113204
 100
AcDbArc
  50
19.1315694444
  51
340.6539972222
   0
LINE
   5
EE
 330
2
 100
AcDbEntity
   8
12
   6
HIDDEN
  62
4
 370
-3
 100
AcDbLine
  10
47.0273
  20
-62.2384
  11
47.3243
  21
-62.2384
   0
LINE
   5
F0
 330
2
 100
AcDbEntity
   8
12
   6
HIDDEN
  62
4
 370
-3
 100
AcDbLine
  10
47.0273
  20
-62.3104
  11
47.3243
  21
-62.3104
   0
ARC
   5
F2
 330
2
 100
AcDbEntity
   8
12
   6
HIDDEN
  62
4
 370
-3
 100
AcDbCircle
  10
47.316013
  20
-62.274433
  40
0.036983
 100
AcDbArc
  50
257.1098944444
  51
77.1098944444
   0
LINE
   5
F4
 330
2
 100
AcDbEntity
   8
12
   6
HIDDEN
  62
4
 370
-3
 100
AcDbLine
  10
48.0102
  20
-62.2112
  11
47.5964
  21
-62.2112
   0
LINE
   5
F6
 330
2
 100
AcDbEntity
   8
12
   6
HIDDEN
  62
4
 370
-3
 100
AcDbLine
  10
48.0102
  20
-62.3427
  11
47.5963
  21
-62.3427
   0
ARC
   5
F8
 330
2
 100
AcDbEntity
   8
12
   6
HIDDEN
  62
4
 370
-3
 100
AcDbCircle
  10
47.958402
  20
-62.528418
  40
0.321436
 100
AcDbArc
  50
51.4932694444
  51
80.7289694444
   0
ARC
   5
FA
 330
2
 100
AcDbEntity
   8
12
   6
HIDDEN
  62
4
 370
-3
 100
AcDbCircle
  10
47.958402
  20
-62.025348
  40
0.321436
 100
AcDbArc
  50
279.2710305556
  51
308.5067305556
   0
ARC
   5
FC
 330
2
 100
AcDbEntity
   8
12
   6
HIDDEN
  62
4
 370
-3
 100
AcDbCircle
  10
47.404666
  20
-62.276883
  40
0.202607
 100
AcDbArc
  50
190.6666
  51
341.0478805556
   0
ARC
   5
FE
 330
2
 100
AcDbEntity
   8
12
   6
HIDDEN
  62
4
 370
-3
 100
AcDbCircle
  10
47.404666
  20
-62.276883
  40
0.202607
 100
AcDbArc
  50
18.9222194444
  51
169.4484888889
   0
ARC
   5
100
 330
2
 100
AcDbEntity
   8
12
   6
HIDDEN
  62
4
 370
-3
 100
AcDbCircle
  10
47.404666
  20
-62.276883
  40
0.113204
 100
AcDbArc
  50
199.3460027778
  51
160.8684305556
   0
LINE
   5
102
 330
2
 100
AcDbEntity
   8
12
   6
HIDDEN
  62
4
 370
-3
 100
AcDbLine
  10
47.6674
  20
-61.9035
  11
47.6674
  21
-62.526
   0
LINE
   5
104
 330
2
 100
AcDbEntity
   8
12
   6
HIDDEN
  62
4
 370
-3
 100
AcDbLine
  10
47.6674
  20
-62.526
  11
48.5124
  21
-62.526
   0
LINE
   5
106
 330
2
 100
AcDbEntity
   8
12
   6
HIDDEN
  62
4
 370
-3
 100
AcDbLine
  10
48.5124
  20
-62.526
  11
48.5124
  21
-61.94
   0
LINE
   5
108
 330
2
 100
AcDbEntity
   8
12
   6
HIDDEN
  62
4
 370
-3
 100
AcDbLine
  10
47.0273
  20
-62.149
  11
47.0273
  21
-62.4406
   0
LINE
   5
10A
 330
2
 100
AcDbEntity
   8
12
   6
HIDDEN
  62
4
 370
-3
 100
AcDbLine
  10
47.0273
  20
-62.4406
  11
45.5364
  21
-62.4406
   0
LINE
   5
10C
 330
2
 100
AcDbEntity
   8
12
   6
HIDDEN
  62
4
 370
-3
 100
AcDbLine
  10
45.5364
  20
-62.4406
  11
45.5364
  21
-62.149
   0
LINE
   5
10E
 330
2
 100
AcDbEntity
   8
12
   6
HIDDEN
  62
4
 370
-3
 100
AcDbLine
  10
45.5364
  20
-62.149
  11
47.0273
  21
-62.149
   0
LINE
   5
110
 330
2
 100
AcDbEntity
   8
12
   6
HIDDEN
  62
4
 370
-3
 100
AcDbLine
  10
45.6197
  20
-62.4406
  11
45.6197
  21
-62.149
   0
LINE
   5
112
 330
2
 100
AcDbEntity
   8
12
   6
HIDDEN
  62
4
 370
-3
 100
AcDbLine
  10
45.7269
  20
-62.4406
  11
45.7269
  21
-62.149
   0
LINE
   5
114
 330
2
 100
AcDbEntity
   8
12
   6
HIDDEN
  62
4
 370
-3
 100
AcDbLine
  10
45.8341
  20
-62.4406
  11
45.8341
  21
-62.149
   0
LINE
   5
116
 330
2
 100
AcDbEntity
   8
12
   6
HIDDEN
  62
4
 370
-3
 100
AcDbLine
  10
45.9649
  20
-62.4406
  11
45.9649
  21
-62.149
   0
LINE
   5
118
 330
2
 100
AcDbEntity
   8
12
   6
HIDDEN
  62
4
 370
-3
 100
AcDbLine
  10
46.0959
  20
-62.4406
  11
46.0959
  21
-62.149
   0
LINE
   5
11A
 330
2
 100
AcDbEntity
   8
12
   6
HIDDEN
  62
4
 370
-3
 100
AcDbLine
  10
46.203
  20
-62.4406
  11
46.203
  21
-62.149
   0
LINE
   5
11C
 330
2
 100
AcDbEntity
   8
12
   6
HIDDEN
  62
4
 370
-3
 100
AcDbLine
  10
46.3458
  20
-62.4406
  11
46.3458
  21
-62.149
   0
LINE
   5
11E
 330
2
 100
AcDbEntity
   8
12
   6
HIDDEN
  62
4
 370
-3
 100
AcDbLine
  10
46.4411
  20
-62.4406
  11
46.4411
  21
-62.149
   0
LINE
   5
120
 330
2
 100
AcDbEntity
   8
12
   6
HIDDEN
  62
4
 370
-3
 100
AcDbLine
  10
46.5364
  20
-62.4406
  11
46.5364
  21
-62.149
   0
LINE
   5
122
 330
2
 100
AcDbEntity
   8
12
   6
HIDDEN
  62
4
 370
-3
 100
AcDbLine
  10
46.6196
  20
-62.4406
  11
46.6196
  21
-62.149
   0
LINE
   5
124
 330
2
 100
AcDbEntity
   8
12
   6
HIDDEN
  62
4
 370
-3
 100
AcDbLine
  10
46.7149
  20
-62.4406
  11
46.7149
  21
-62.149
   0
LINE
   5
126
 330
2
 100
AcDbEntity
   8
12
   6
HIDDEN
  62
4
 370
-3
 100
AcDbLine
  10
46.8221
  20
-62.4406
  11
46.8221
  21
-62.149
   0
LINE
   5
128
 330
2
 100
AcDbEntity
   8
12
   6
HIDDEN
  62
4
 370
-3
 100
AcDbLine
  10
46.941
  20
-62.4406
  11
46.941
  21
-62.149
   0
LINE
   5
12A
 330
2
 100
AcDbEntity
   8
12
   6
CONTINUOUS
  62
2
 370
-3
 100
AcDbLine
  10
70.6352
  20
-61.4018
  11
70.6352
  21
-66.5841
   0
ARC
   5
12C
 330
2
 100
AcDbEntity
   8
12
   6
CONTINUOUS
  62
2
 370
-3
 100
AcDbCircle
  10
70.935304
  20
-66.58406
  40
0.30001
 100
AcDbArc
  50
180
  51
289.0366722222
   0
ARC
   5
12E
 330
2
 100
AcDbEntity
   8
12
   6
CONTINUOUS
  62
2
 370
-3
 100
AcDbCircle
  10
70.935304
  20
-61.401843
  40
0.30001
 100
AcDbArc
  50
61.3968138889
  51
180
   0
ARC
   5
130
 330
2
 100
AcDbEntity
   8
12
   6
CONTINUOUS
  62
2
 370
-3
 100
AcDbCircle
  10
74.510426
  20
-65.350129
  40
0.30001
 100
AcDbArc
  50
289.0327972222
  51
360
   0
ARC
   5
132
 330
2
 100
AcDbEntity
   8
12
   6
CONTINUOUS
  62
2
 370
-3
 100
AcDbCircle
  10
74.510426
  20
-63.350674
  40
0.30001
 100
AcDbArc
  50
0
  51
61.4078361111
   0
LINE
   5
134
 330
2
 100
AcDbEntity
   8
12
   6
CONTINUOUS
  62
2
 370
-3
 100
AcDbLine
  10
75.3104
  20
-64.8342
  11
74.8105
  21
-64.8342
   0
LINE
   5
136
 330
2
 100
AcDbEntity
   8
12
   6
CONTINUOUS
  62
2
 370
-3
 100
AcDbLine
  10
75.3104
  20
-64.7092
  11
74.8105
  21
-64.7092
   0
LINE
   5
138
 330
2
 100
AcDbEntity
   8
12
   6
CONTINUOUS
  62
2
 370
-3
 100
AcDbLine
  10
75.3104
  20
-64.7092
  11
75.3104
  21
-64.8342
   0
LINE
   5
13A
 330
2
 100
AcDbEntity
   8
12
   6
CONTINUOUS
  62
2
 370
-3
 100
AcDbLine
  10
74.8105
  20
-63.3507
  11
74.8105
  21
-64.7092
   0
LINE
   5
13C
 330
2
 100
AcDbEntity
   8
12
   6
CONTINUOUS
  62
2
 370
-3
 100
AcDbLine
  10
74.8105
  20
-64.8342
  11
74.8105
  21
-65.3501
   0
TEXT
   5
13F
 330
2
 100
AcDbEntity
   8
6
   6
CONTINUOUS
  62
3
 370
-3
 100
AcDbText
  10
22.5048
  20
-53.7221
  30
0
  40
0.5006
   1
ALUMINUM WING
  50
270
  41
1
  51
0
   7
standard
  71
0
  72
4
  11
22.7551
  21
-56.7906
  31
0
 210
0
 220
0
 230
1
 100
AcDbText
  73
0
   0
TEXT
   5
141
 330
2
 100
AcDbEntity
   8
6
   6
CONTINUOUS
  62
3
 370
-3
 100
AcDbText
  10
21.7042
  20
-54.2385
  30
0
  40
0.5006
   1
JOINER TUBE
  50
270
  41
1
  51
0
   7
standard
  71
0
  72
4
  11
21.9545
  21
-56.7907
  31
0
 210
0
 220
0
 230
1
 100
AcDbText
  73
0
   0
LINE
   5
143
 330
2
 100
AcDbEntity
   8
3
   6
CENTER
  62
1
 370
-3
 100
AcDbLine
  10
-12.7752
  20
-40.5628
  11
32.4961
  21
-42.1437
   0
LINE
   5
145
 330
2
 100
AcDbEntity
   8
1
   6
CONTINUOUS
  62
3
 370
-3
 100
AcDbLine
  10
32.4961
  20
-41.0167
  11
-6.1282
  21
-40.2601
   0
LINE
   5
147
 330
2
 100
AcDbEntity
   8
1
   6
CONTINUOUS
  62
3
 370
-3
 100
AcDbLine
  10
32.4963
  20
-43.272
  11
-6.1654
  21
-41.3284
   0
LINE
   5
149
 330
2
 100
AcDbEntity
   8
3
   6
CENTER
  62
1
 370
-3
 100
AcDbLine
  10
80.0998
  20
-40.4814
  11
32.4961
  21
-42.1437
   0
LINE
   5
14B
 330
2
 100
AcDbEntity
   8
1
   6
CONTINUOUS
  62
3
 370
-3
 100
AcDbLine
  10
71.1203
  20
-40.2602
  11
71.1576
  21
-41.3284
   0
LINE
   5
14D
 330
2
 100
AcDbEntity
   8
1
   6
CONTINUOUS
  62
3
 370
-3
 100
AcDbLine
  10
32.4961
  20
-43.272
  11
71.1576
  21
-41.3284
   0
LINE
   5
14F
 330
2
 100
AcDbEntity
   8
2
   6
CONTINUOUS
  62
30
 370
-3
 100
AcDbLine
  10
24.9513
  20
-42.7755
  11
24.9513
  21
-41.8802
   0
LINE
   5
151
 330
2
 100
AcDbEntity
   8
2
   6
CONTINUOUS
  62
30
 370
-3
 100
AcDbLine
  10
24.8263
  20
-45.6851
  11
24.8263
  21
-40.996
   0
LINE
   5
153
 330
2
 100
AcDbEntity
   8
2
   6
CONTINUOUS
  62
30
 370
-3
 100
AcDbLine
  10
24.7013
  20
-45.6851
  11
24.7013
  21
-40.996
   0
LINE
   5
155
 330
2
 100
AcDbEntity
   8
2
   6
CONTINUOUS
  62
30
 370
-3
 100
AcDbLine
  10
21.134
  20
-45.6851
  11
21.134
  21
-40.9439
   0
LINE
   5
157
 330
2
 100
AcDbEntity
   8
1
   6
CONTINUOUS
  62
30
 370
-3
 100
AcDbLine
  10
24.8263
  20
-40.996
  11
24.7013
  21
-40.996
   0
LINE
   5
159
 330
2
 100
AcDbEntity
   8
1
   6
CONTINUOUS
  62
30
 370
-3
 100
AcDbLine
  10
24.8263
  20
-42.7755
  11
24.9513
  21
-42.7755
   0
LINE
   5
15B
 330
2
 100
AcDbEntity
   8
1
   6
CONTINUOUS
  62
30
 370
-3
 100
AcDbLine
  10
21.009
  20
-40.9439
  11
21.134
  21
-40.9439
   0
LINE
   5
15D
 330
2
 100
AcDbEntity
   8
1
   6
CENTER
  62
1
 370
-3
 100
AcDbLine
  10
22.9176
  20
-40.3073
  11
22.9176
  21
-48.083
   0
LINE
   5
15F
 330
2
 100
AcDbEntity
   8
1
   6
CENTER
  62
1
 370
-3
 100
AcDbLine
  10
20.1291
  20
-43.112
  11
25.5339
  21
-43.112
   0
CIRCLE
   5
161
 330
2
 100
AcDbEntity
   8
1
   6
CONTINUOUS
  62
3
 370
-3
 100
AcDbCircle
  10
22.917673
  20
-43.111942
  40
1.250043
   0
LINE
   5
163
 330
2
 100
AcDbEntity
   8
1
   6
CONTINUOUS
  62
3
 370
-3
 100
AcDbLine
  10
25.0764
  20
-45.7085
  11
25.0764
  21
-41.4537
   0
LINE
   5
165
 330
2
 100
AcDbEntity
   8
1
   6
CONTINUOUS
  62
3
 370
-3
 100
AcDbLine
  10
20.7589
  20
-45.7085
  11
20.7589
  21
-41.3644
   0
LINE
   5
167
 330
2
 100
AcDbEntity
   8
1
   6
CONTINUOUS
  62
3
 370
-3
 100
AcDbLine
  10
22.259
  20
-47.2086
  11
23.5764
  21
-47.2086
   0
LINE
   5
169
 330
2
 100
AcDbEntity
   8
1
   6
CONTINUOUS
  62
3
 370
-3
 100
AcDbLine
  10
21.0148
  20
-41.1145
  11
24.8321
  21
-41.2038
   0
ARC
   5
16B
 330
2
 100
AcDbEntity
   8
1
   6
CONTINUOUS
  62
3
 370
-3
 100
AcDbCircle
  10
22.25905
  20
-45.70853
  40
1.500051
 100
AcDbArc
  50
180
  51
270
   0
ARC
   5
16D
 330
2
 100
AcDbEntity
   8
1
   6
CONTINUOUS
  62
3
 370
-3
 100
AcDbCircle
  10
23.576295
  20
-45.70853
  40
1.500051
 100
AcDbArc
  50
270
  51
360
   0
LINE
   5
16F
 330
2
 100
AcDbEntity
   8
1
   6
CONTINUOUS
  62
3
 370
-3
 100
AcDbLine
  10
22.6591
  20
-52.1912
  11
23.0995
  21
-52.1912
   0
LINE
   5
171
 330
2
 100
AcDbEntity
   8
1
   6
CONTINUOUS
  62
3
 370
-3
 100
AcDbLine
  10
22.6591
  20
-48.191
  11
23.0995
  21
-48.191
   0
LINE
   5
173
 330
2
 100
AcDbEntity
   8
1
   6
CONTINUOUS
  62
3
 370
-3
 100
AcDbLine
  10
22.1486
  20
-47.2086
  11
22.1486
  21
-50.1129
   0
LINE
   5
175
 330
2
 100
AcDbEntity
   8
1
   6
CONTINUOUS
  62
3
 370
-3
 100
AcDbLine
  10
21.9923
  20
-47.1846
  11
21.9923
  21
-50.2692
   0
LINE
   5
177
 330
2
 100
AcDbEntity
   8
1
   6
CONTINUOUS
  62
3
 370
-3
 100
AcDbLine
  10
22.2842
  20
-48.566
  11
22.2842
  21
-51.8162
   0
LINE
   5
179
 330
2
 100
AcDbEntity
   8
1
   6
CONTINUOUS
  62
3
 370
-3
 100
AcDbLine
  10
23.4745
  20
-48.566
  11
23.4745
  21
-51.8162
   0
ARC
   5
17B
 330
2
 100
AcDbEntity
   8
1
   6
CONTINUOUS
  62
3
 370
-3
 100
AcDbCircle
  10
23.099479
  20
-48.566028
  40
0.375013
 100
AcDbArc
  50
0
  51
90
   0
ARC
   5
17D
 330
2
 100
AcDbEntity
   8
1
   6
CONTINUOUS
  62
3
 370
-3
 100
AcDbCircle
  10
22.659164
  20
-48.566028
  40
0.375013
 100
AcDbArc
  50
90
  51
180
   0
ARC
   5
17F
 330
2
 100
AcDbEntity
   8
1
   6
CONTINUOUS
  62
3
 370
-3
 100
AcDbCircle
  10
23.099479
  20
-51.816138
  40
0.375013
 100
AcDbArc
  50
270
  51
0
   0
ARC
   5
181
 330
2
 100
AcDbEntity
   8
1
   6
CONTINUOUS
  62
3
 370
-3
 100
AcDbCircle
  10
22.659164
  20
-51.816138
  40
0.375013
 100
AcDbArc
  50
180
  51
270
   0
LINE
   5
183
 330
2
 100
AcDbEntity
   8
1
   6
CENTER
  62
1
 370
-3
 100
AcDbLine
  10
24.3744
  20
-50.191
  11
21.1519
  21
-50.191
   0
LINE
   5
185
 330
2
 100
AcDbEntity
   8
1
   6
CONTINUOUS
  62
3
 370
-3
 100
AcDbLine
  10
23.6868
  20
-47.2086
  11
23.6868
  21
-50.1129
   0
LINE
   5
187
 330
2
 100
AcDbEntity
   8
1
   6
CONTINUOUS
  62
3
 370
-3
 100
AcDbLine
  10
23.8432
  20
-47.1846
  11
23.8432
  21
-50.2692
   0
LINE
   5
189
 330
2
 100
AcDbEntity
   8
1
   6
CONTINUOUS
  62
3
 370
-3
 100
AcDbLine
  10
23.6868
  20
-50.1129
  11
23.4745
  21
-50.1129
   0
LINE
   5
18B
 330
2
 100
AcDbEntity
   8
1
   6
CONTINUOUS
  62
3
 370
-3
 100
AcDbLine
  10
22.2842
  20
-50.1129
  11
22.1486
  21
-50.1129
   0
LINE
   5
18D
 330
2
 100
AcDbEntity
   8
1
   6
CONTINUOUS
  62
3
 370
-3
 100
AcDbLine
  10
23.8432
  20
-50.2692
  11
23.4745
  21
-50.2692
   0
LINE
   5
18F
 330
2
 100
AcDbEntity
   8
1
   6
CONTINUOUS
  62
3
 370
-3
 100
AcDbLine
  10
22.2842
  20
-50.2692
  11
21.9923
  21
-50.2692
   0
ARC
   5
191
 330
2
 100
AcDbEntity
   8
1
   6
CONTINUOUS
  62
3
 370
-3
 100
AcDbCircle
  10
21.009008
  20
-41.36438
  40
0.250009
 100
AcDbArc
  50
88.6643305556
  51
180
   0
ARC
   5
193
 330
2
 100
AcDbEntity
   8
1
   6
CONTINUOUS
  62
3
 370
-3
 100
AcDbCircle
  10
24.826337
  20
-41.453714
  40
0.250009
 100
AcDbArc
  50
0
  51
88.6619305556
   0
LINE
   5
195
 330
2
 100
AcDbEntity
   8
1
   6
CONTINUOUS
  62
3
 370
-3
 100
AcDbLine
  10
20.7589
  20
-45.6851
  11
24.8263
  21
-45.6851
   0
LINE
   5
197
 330
2
 100
AcDbEntity
   8
1
   6
CONTINUOUS
  62
3
 370
-3
 100
AcDbLine
  10
24.8263
  20
-45.6851
  11
25.0764
  21
-45.6851
   0
LINE
   5
199
 330
2
 100
AcDbEntity
   8
1
   6
CONTINUOUS
  62
3
 370
-3
 100
AcDbLine
  10
19.1899
  20
-42.603
  11
19.1899
  21
-40.756
   0
LINE
   5
19B
 330
2
 100
AcDbEntity
   8
1
   6
CONTINUOUS
  62
3
 370
-3
 100
AcDbLine
  10
19.3149
  20
-42.6094
  11
19.3149
  21
-40.7585
   0
LINE
   5
19D
 330
2
 100
AcDbEntity
   8
1
   6
CONTINUOUS
  62
3
 370
-3
 100
AcDbLine
  10
20.5276
  20
-42.6703
  11
20.5276
  21
-40.7822
   0
LINE
   5
19F
 330
2
 100
AcDbEntity
   8
1
   6
CONTINUOUS
  62
3
 370
-3
 100
AcDbLine
  10
20.6526
  20
-42.6767
  11
20.6526
  21
-40.7846
   0
LINE
   5
1A1
 330
2
 100
AcDbEntity
   8
1
   6
CONTINUOUS
  62
3
 370
-3
 100
AcDbLine
  10
25.1297
  20
-42.9018
  11
25.1297
  21
-40.8724
   0
LINE
   5
1A3
 330
2
 100
AcDbEntity
   8
1
   6
CONTINUOUS
  62
3
 370
-3
 100
AcDbLine
  10
25.2546
  20
-42.9078
  11
25.2546
  21
-40.8748
   0
LINE
   5
1A5
 330
2
 100
AcDbEntity
   8
1
   6
CONTINUOUS
  62
3
 370
-3
 100
AcDbLine
  10
29.1299
  20
-43.1029
  11
29.1299
  21
-40.9507
   0
LINE
   5
1A7
 330
2
 100
AcDbEntity
   8
1
   6
CONTINUOUS
  62
3
 370
-3
 100
AcDbLine
  10
29.2548
  20
-43.1091
  11
29.2548
  21
-40.9532
   0
LINE
   5
1A9
 330
2
 100
AcDbEntity
   8
1
   6
CONTINUOUS
  62
3
 370
-3
 100
AcDbLine
  10
32.4961
  20
-43.272
  11
32.4961
  21
-41.0167
   0
LINE
   5
1AB
 330
2
 100
AcDbEntity
   8
1
   6
CONTINUOUS
  62
3
 370
-3
 100
AcDbLine
  10
32.6211
  20
-43.2657
  11
32.6211
  21
-41.0143
   0
LINE
   5
1AD
 330
2
 100
AcDbEntity
   8
1
   6
CONTINUOUS
  62
3
 370
-3
 100
AcDbLine
  10
32.3711
  20
-43.2657
  11
32.3711
  21
-41.0143
   0
LINE
   5
1AF
 330
2
 100
AcDbEntity
   8
2
   6
HIDDEN
  62
4
 370
-3
 100
AcDbLine
  10
32.4961
  20
-41.1105
  11
-6.13
  21
-40.3539
   0
LINE
   5
1B1
 330
2
 100
AcDbEntity
   8
2
   6
HIDDEN
  62
4
 370
-3
 100
AcDbLine
  10
32.4961
  20
-43.1783
  11
-6.1608
  21
-41.2348
   0
POLYLINE
   5
1B3
 330
2
 100
AcDbEntity
   8
4
   6
CONTINUOUS
  62
2
 370
-3
 100
AcDb3dPolyline
  10
0
  20
0
  30
0
  39
0
  70
0
   0
SEQEND
   5
102
 330
101
 100
AcDbEntity
   8
0
 100
AcDbBlockEnd
   0
VERTEX
   5
1B4
 330
2
 100
AcDbEntity
   8
4
   6
CONTINUOUS
  62
2
 370
-3
 100
AcDbPoint
  10
25.076346
  20
-43.111942
  30
0
  39
0
   0
VERTEX
   5
1B5
 330
2
 100
AcDbEntity
   8
4
   6
CONTINUOUS
  62
2
 370
-3
 100
AcDbPoint
  10
25.034868
  20
-42.730937
  30
0
  39
0
   0
VERTEX
   5
1B6
 330
2
 100
AcDbEntity
   8
4
   6
CONTINUOUS
  62
2
 370
-3
 100
AcDbPoint
  10
24.912027
  20
-42.364574
  30
0
  39
0
   0
VERTEX
   5
1B7
 330
2
 100
AcDbEntity
   8
4
   6
CONTINUOUS
  62
2
 370
-3
 100
AcDbPoint
  10
24.712544
  20
-42.026932
  30
0
  39
0
   0
VERTEX
   5
1B8
 330
2
 100
AcDbEntity
   8
4
   6
CONTINUOUS
  62
2
 370
-3
 100
AcDbPoint
  10
24.444085
  20
-41.730986
  30
0
  39
0
   0
VERTEX
   5
1B9
 330
2
 100
AcDbEntity
   8
4
   6
CONTINUOUS
  62
2
 370
-3
 100
AcDbPoint
  10
24.116967
  20
-41.48811
  30
0
  39
0
   0
VERTEX
   5
1BA
 330
2
 100
AcDbEntity
   8
4
   6
CONTINUOUS
  62
2
 370
-3
 100
AcDbPoint
  10
23.743761
  20
-41.307636
  30
0
  39
0
   0
VERTEX
   5
1BB
 330
2
 100
AcDbEntity
   8
4
   6
CONTINUOUS
  62
2
 370
-3
 100
AcDbPoint
  10
23.338809
  20
-41.196501
  30
0
  39
0
   0
VERTEX
   5
1BC
 330
2
 100
AcDbEntity
   8
4
   6
CONTINUOUS
  62
2
 370
-3
 100
AcDbPoint
  10
22.917673
  20
-41.158976
  30
0
  39
0
   0
VERTEX
   5
1BD
 330
2
 100
AcDbEntity
   8
4
   6
CONTINUOUS
  62
2
 370
-3
 100
AcDbPoint
  10
22.496536
  20
-41.196501
  30
0
  39
0
   0
VERTEX
   5
1BE
 330
2
 100
AcDbEntity
   8
4
   6
CONTINUOUS
  62
2
 370
-3
 100
AcDbPoint
  10
22.091584
  20
-41.307636
  30
0
  39
0
   0
VERTEX
   5
1BF
 330
2
 100
AcDbEntity
   8
4
   6
CONTINUOUS
  62
2
 370
-3
 100
AcDbPoint
  10
21.718378
  20
-41.48811
  30
0
  39
0
   0
VERTEX
   5
1C0
 330
2
 100
AcDbEntity
   8
4
   6
CONTINUOUS
  62
2
 370
-3
 100
AcDbPoint
  10
21.39126
  20
-41.730986
  30
0
  39
0
   0
VERTEX
   5
1C1
 330
2
 100
AcDbEntity
   8
4
   6
CONTINUOUS
  62
2
 370
-3
 100
AcDbPoint
  10
21.122801
  20
-42.026932
  30
0
  39
0
   0
VERTEX
   5
1C2
 330
2
 100
AcDbEntity
   8
4
   6
CONTINUOUS
  62
2
 370
-3
 100
AcDbPoint
  10
20.923318
  20
-42.364574
  30
0
  39
0
   0
VERTEX
   5
1C3
 330
2
 100
AcDbEntity
   8
4
   6
CONTINUOUS
  62
2
 370
-3
 100
AcDbPoint
  10
20.800478
  20
-42.730937
  30
0
  39
0
   0
VERTEX
   5
1C4
 330
2
 100
AcDbEntity
   8
4
   6
CONTINUOUS
  62
2
 370
-3
 100
AcDbPoint
  10
20.758999
  20
-43.111942
  30
0
  39
0
   0
LINE
   5
1C7
 330
2
 100
AcDbEntity
   8
5
   6
CONTINUOUS
  62
30
 370
-3
 100
AcDbLine
  10
24.7013
  20
-45.6851
  11
24.8263
  21
-45.6851
   0
LINE
   5
1C9
 330
2
 100
AcDbEntity
   8
1
   6
CONTINUOUS
  62
3
 370
-3
 100
AcDbLine
  10
24.9513
  20
-45.6851
  11
24.9513
  21
-41.2372
   0
LINE
   5
1CB
 330
2
 100
AcDbEntity
   8
2
   6
CONTINUOUS
  62
30
 370
-3
 100
AcDbLine
  10
21.009
  20
-45.6851
  11
21.009
  21
-40.9439
   0
LINE
   5
1CD
 330
2
 100
AcDbEntity
   8
1
   6
CONTINUOUS
  62
3
 370
-3
 100
AcDbLine
  10
20.884
  20
-45.6851
  11
20.884
  21
-41.1479
   0
LINE
   5
1CF
 330
2
 100
AcDbEntity
   8
1
   6
DASHDOT
  62
6
 370
-3
 100
AcDbLine
  10
46.7816
  20
-41.6449
  11
35.1831
  21
-42.0499
   0
LINE
   5
1D1
 330
2
 100
AcDbEntity
   8
1
   6
CONTINUOUS
  62
3
 370
-3
 100
AcDbLine
  10
32.4961
  20
-41.0168
  11
71.1203
  21
-40.2599
   0
LINE
   5
1D3
 330
2
 100
AcDbEntity
   8
2
   6
CONTINUOUS
  62
30
 370
-3
 100
AcDbLine
  10
40.0408
  20
-42.7755
  11
40.0408
  21
-41.8802
   0
LINE
   5
1D5
 330
2
 100
AcDbEntity
   8
2
   6
CONTINUOUS
  62
30
 370
-3
 100
AcDbLine
  10
40.1658
  20
-45.6851
  11
40.1658
  21
-40.996
   0
LINE
   5
1D7
 330
2
 100
AcDbEntity
   8
2
   6
CONTINUOUS
  62
30
 370
-3
 100
AcDbLine
  10
40.2908
  20
-45.6851
  11
40.2908
  21
-40.996
   0
LINE
   5
1D9
 330
2
 100
AcDbEntity
   8
2
   6
CONTINUOUS
  62
30
 370
-3
 100
AcDbLine
  10
43.8581
  20
-45.6851
  11
43.8581
  21
-40.9439
   0
LINE
   5
1DB
 330
2
 100
AcDbEntity
   8
1
   6
CONTINUOUS
  62
30
 370
-3
 100
AcDbLine
  10
40.1658
  20
-40.996
  11
40.2908
  21
-40.996
   0
LINE
   5
1DD
 330
2
 100
AcDbEntity
   8
1
   6
CONTINUOUS
  62
30
 370
-3
 100
AcDbLine
  10
40.1658
  20
-42.7755
  11
40.0408
  21
-42.7755
   0
LINE
   5
1DF
 330
2
 100
AcDbEntity
   8
1
   6
CONTINUOUS
  62
30
 370
-3
 100
AcDbLine
  10
43.9831
  20
-40.9439
  11
43.8581
  21
-40.9439
   0
LINE
   5
1E1
 330
2
 100
AcDbEntity
   8
1
   6
CENTER
  62
1
 370
-3
 100
AcDbLine
  10
42.0744
  20
-40.3073
  11
42.0744
  21
-48.083
   0
LINE
   5
1E3
 330
2
 100
AcDbEntity
   8
1
   6
CENTER
  62
1
 370
-3
 100
AcDbLine
  10
44.8631
  20
-43.112
  11
39.4584
  21
-43.112
   0
CIRCLE
   5
1E5
 330
2
 100
AcDbEntity
   8
1
   6
CONTINUOUS
  62
3
 370
-3
 100
AcDbCircle
  10
42.074524
  20
-43.111942
  40
1.250043
   0
LINE
   5
1E7
 330
2
 100
AcDbEntity
   8
1
   6
CONTINUOUS
  62
3
 370
-3
 100
AcDbLine
  10
39.9159
  20
-45.7085
  11
39.9159
  21
-41.4537
   0
LINE
   5
1E9
 330
2
 100
AcDbEntity
   8
1
   6
CONTINUOUS
  62
3
 370
-3
 100
AcDbLine
  10
44.2332
  20
-45.7085
  11
44.2332
  21
-41.3644
   0
LINE
   5
1EB
 330
2
 100
AcDbEntity
   8
1
   6
CONTINUOUS
  62
3
 370
-3
 100
AcDbLine
  10
42.7332
  20
-47.2086
  11
41.4158
  21
-47.2086
   0
LINE
   5
1ED
 330
2
 100
AcDbEntity
   8
1
   6
CONTINUOUS
  62
3
 370
-3
 100
AcDbLine
  10
43.9774
  20
-41.1145
  11
40.16
  21
-41.2038
   0
ARC
   5
1EF
 330
2
 100
AcDbEntity
   8
1
   6
CONTINUOUS
  62
3
 370
-3
 100
AcDbCircle
  10
42.733146
  20
-45.70853
  40
1.500051
 100
AcDbArc
  50
270
  51
360
   0
ARC
   5
1F1
 330
2
 100
AcDbEntity
   8
1
   6
CONTINUOUS
  62
3
 370
-3
 100
AcDbCircle
  10
41.415902
  20
-45.70853
  40
1.500051
 100
AcDbArc
  50
180
  51
270
   0
LINE
   5
1F3
 330
2
 100
AcDbEntity
   8
1
   6
CONTINUOUS
  62
3
 370
-3
 100
AcDbLine
  10
42.333
  20
-52.1912
  11
41.8926
  21
-52.1912
   0
LINE
   5
1F5
 330
2
 100
AcDbEntity
   8
1
   6
CONTINUOUS
  62
3
 370
-3
 100
AcDbLine
  10
42.333
  20
-48.191
  11
41.8926
  21
-48.191
   0
LINE
   5
1F7
 330
2
 100
AcDbEntity
   8
1
   6
CONTINUOUS
  62
3
 370
-3
 100
AcDbLine
  10
42.8436
  20
-47.2086
  11
42.8436
  21
-50.1129
   0
LINE
   5
1F9
 330
2
 100
AcDbEntity
   8
1
   6
CONTINUOUS
  62
3
 370
-3
 100
AcDbLine
  10
43
  20
-47.1846
  11
43
  21
-50.2692
   0
LINE
   5
1FB
 330
2
 100
AcDbEntity
   8
1
   6
CONTINUOUS
  62
3
 370
-3
 100
AcDbLine
  10
42.708
  20
-48.566
  11
42.708
  21
-51.8162
   0
LINE
   5
1FD
 330
2
 100
AcDbEntity
   8
1
   6
CONTINUOUS
  62
3
 370
-3
 100
AcDbLine
  10
41.5177
  20
-48.566
  11
41.5177
  21
-51.8162
   0
ARC
   5
1FF
 330
2
 100
AcDbEntity
   8
1
   6
CONTINUOUS
  62
3
 370
-3
 100
AcDbCircle
  10
41.892718
  20
-48.566028
  40
0.375013
 100
AcDbArc
  50
90
  51
180
   0
ARC
   5
201
 330
2
 100
AcDbEntity
   8
1
   6
CONTINUOUS
  62
3
 370
-3
 100
AcDbCircle
  10
42.333033
  20
-48.566028
  40
0.375013
 100
AcDbArc
  50
0
  51
90
   0
ARC
   5
203
 330
2
 100
AcDbEntity
   8
1
   6
CONTINUOUS
  62
3
 370
-3
 100
AcDbCircle
  10
41.892718
  20
-51.816138
  40
0.375013
 100
AcDbArc
  50
180
  51
270
   0
ARC
   5
205
 330
2
 100
AcDbEntity
   8
1
   6
CONTINUOUS
  62
3
 370
-3
 100
AcDbCircle
  10
42.333033
  20
-51.816138
  40
0.375013
 100
AcDbArc
  50
270
  51
360
   0
LINE
   5
207
 330
2
 100
AcDbEntity
   8
1
   6
CENTER
  62
1
 370
-3
 100
AcDbLine
  10
40.6177
  20
-50.191
  11
43.8403
  21
-50.191
   0
LINE
   5
209
 330
2
 100
AcDbEntity
   8
1
   6
CONTINUOUS
  62
3
 370
-3
 100
AcDbLine
  10
41.3054
  20
-47.2086
  11
41.3054
  21
-50.1129
   0
LINE
   5
20B
 330
2
 100
AcDbEntity
   8
1
   6
CONTINUOUS
  62
3
 370
-3
 100
AcDbLine
  10
41.1491
  20
-47.1846
  11
41.1491
  21
-50.2692
   0
LINE
   5
20D
 330
2
 100
AcDbEntity
   8
1
   6
CONTINUOUS
  62
3
 370
-3
 100
AcDbLine
  10
41.3054
  20
-50.1129
  11
41.5177
  21
-50.1129
   0
LINE
   5
20F
 330
2
 100
AcDbEntity
   8
1
   6
CONTINUOUS
  62
3
 370
-3
 100
AcDbLine
  10
42.708
  20
-50.1129
  11
42.8436
  21
-50.1129
   0
LINE
   5
211
 330
2
 100
AcDbEntity
   8
1
   6
CONTINUOUS
  62
3
 370
-3
 100
AcDbLine
  10
41.1491
  20
-50.2692
  11
41.5177
  21
-50.2692
   0
LINE
   5
213
 330
2
 100
AcDbEntity
   8
1
   6
CONTINUOUS
  62
3
 370
-3
 100
AcDbLine
  10
42.708
  20
-50.2692
  11
43
  21
-50.2692
   0
ARC
   5
215
 330
2
 100
AcDbEntity
   8
1
   6
CONTINUOUS
  62
3
 370
-3
 100
AcDbCircle
  10
43.983189
  20
-41.36438
  40
0.250009
 100
AcDbArc
  50
0
  51
91.3356694444
   0
ARC
   5
217
 330
2
 100
AcDbEntity
   8
1
   6
CONTINUOUS
  62
3
 370
-3
 100
AcDbCircle
  10
40.165859
  20
-41.453714
  40
0.250009
 100
AcDbArc
  50
91.3380694444
  51
180
   0
LINE
   5
219
 330
2
 100
AcDbEntity
   8
1
   6
CONTINUOUS
  62
3
 370
-3
 100
AcDbLine
  10
44.2332
  20
-45.6851
  11
40.1658
  21
-45.6851
   0
LINE
   5
21B
 330
2
 100
AcDbEntity
   8
1
   6
CONTINUOUS
  62
3
 370
-3
 100
AcDbLine
  10
40.1658
  20
-45.6851
  11
39.9159
  21
-45.6851
   0
LINE
   5
21D
 330
2
 100
AcDbEntity
   8
1
   6
CONTINUOUS
  62
3
 370
-3
 100
AcDbLine
  10
45.8024
  20
-42.603
  11
45.8024
  21
-40.756
   0
LINE
   5
21F
 330
2
 100
AcDbEntity
   8
1
   6
CONTINUOUS
  62
3
 370
-3
 100
AcDbLine
  10
45.6772
  20
-42.6094
  11
45.6772
  21
-40.7585
   0
LINE
   5
221
 330
2
 100
AcDbEntity
   8
1
   6
CONTINUOUS
  62
3
 370
-3
 100
AcDbLine
  10
44.4646
  20
-42.6703
  11
44.4646
  21
-40.7822
   0
LINE
   5
223
 330
2
 100
AcDbEntity
   8
1
   6
CONTINUOUS
  62
3
 370
-3
 100
AcDbLine
  10
44.3396
  20
-42.6767
  11
44.3396
  21
-40.7846
   0
LINE
   5
225
 330
2
 100
AcDbEntity
   8
1
   6
CONTINUOUS
  62
3
 370
-3
 100
AcDbLine
  10
39.8626
  20
-42.9018
  11
39.8626
  21
-40.8724
   0
LINE
   5
227
 330
2
 100
AcDbEntity
   8
1
   6
CONTINUOUS
  62
3
 370
-3
 100
AcDbLine
  10
39.7376
  20
-42.9078
  11
39.7376
  21
-40.8748
   0
LINE
   5
229
 330
2
 100
AcDbEntity
   8
1
   6
CONTINUOUS
  62
3
 370
-3
 100
AcDbLine
  10
35.8624
  20
-43.1029
  11
35.8624
  21
-40.9507
   0
LINE
   5
22B
 330
2
 100
AcDbEntity
   8
1
   6
CONTINUOUS
  62
3
 370
-3
 100
AcDbLine
  10
35.7374
  20
-43.1091
  11
35.7374
  21
-40.9532
   0
LINE
   5
22D
 330
2
 100
AcDbEntity
   8
2
   6
HIDDEN
  62
4
 370
-3
 100
AcDbLine
  10
32.4961
  20
-41.1105
  11
71.1236
  21
-40.3538
   0
LINE
   5
22F
 330
2
 100
AcDbEntity
   8
2
   6
HIDDEN
  62
4
 370
-3
 100
AcDbLine
  10
32.4961
  20
-43.1783
  11
71.1543
  21
-41.2344
   0
POLYLINE
   5
231
 330
2
 100
AcDbEntity
   8
4
   6
CONTINUOUS
  62
2
 370
-3
 100
AcDb3dPolyline
  10
0
  20
0
  30
0
  39
0
  70
0
   0
SEQEND
   5
14A
 330
149
 100
AcDbEntity
   8
0
 100
AcDbBlockEnd
   0
VERTEX
   5
232
 330
2
 100
AcDbEntity
   8
4
   6
CONTINUOUS
  62
2
 370
-3
 100
AcDbPoint
  10
39.915851
  20
-43.111942
  30
0
  39
0
   0
VERTEX
   5
233
 330
2
 100
AcDbEntity
   8
4
   6
CONTINUOUS
  62
2
 370
-3
 100
AcDbPoint
  10
39.957329
  20
-42.730937
  30
0
  39
0
   0
VERTEX
   5
234
 330
2
 100
AcDbEntity
   8
4
   6
CONTINUOUS
  62
2
 370
-3
 100
AcDbPoint
  10
40.08017
  20
-42.364574
  30
0
  39
0
   0
VERTEX
   5
235
 330
2
 100
AcDbEntity
   8
4
   6
CONTINUOUS
  62
2
 370
-3
 100
AcDbPoint
  10
40.279653
  20
-42.026932
  30
0
  39
0
   0
VERTEX
   5
236
 330
2
 100
AcDbEntity
   8
4
   6
CONTINUOUS
  62
2
 370
-3
 100
AcDbPoint
  10
40.548111
  20
-41.730986
  30
0
  39
0
   0
VERTEX
   5
237
 330
2
 100
AcDbEntity
   8
4
   6
CONTINUOUS
  62
2
 370
-3
 100
AcDbPoint
  10
40.875229
  20
-41.48811
  30
0
  39
0
   0
VERTEX
   5
238
 330
2
 100
AcDbEntity
   8
4
   6
CONTINUOUS
  62
2
 370
-3
 100
AcDbPoint
  10
41.248435
  20
-41.307636
  30
0
  39
0
   0
VERTEX
   5
239
 330
2
 100
AcDbEntity
   8
4
   6
CONTINUOUS
  62
2
 370
-3
 100
AcDbPoint
  10
41.653388
  20
-41.196501
  30
0
  39
0
   0
VERTEX
   5
23A
 330
2
 100
AcDbEntity
   8
4
   6
CONTINUOUS
  62
2
 370
-3
 100
AcDbPoint
  10
42.074524
  20
-41.158976
  30
0
  39
0
   0
VERTEX
   5
23B
 330
2
 100
AcDbEntity
   8
4
   6
CONTINUOUS
  62
2
 370
-3
 100
AcDbPoint
  10
42.49566
  20
-41.196501
  30
0
  39
0
   0
VERTEX
   5
23C
 330
2
 100
AcDbEntity
   8
4
   6
CONTINUOUS
  62
2
 370
-3
 100
AcDbPoint
  10
42.900613
  20
-41.307636
  30
0
  39
0
   0
VERTEX
   5
23D
 330
2
 100
AcDbEntity
   8
4
   6
CONTINUOUS
  62
2
 370
-3
 100
AcDbPoint
  10
43.273819
  20
-41.48811
  30
0
  39
0
   0
VERTEX
   5
23E
 330
2
 100
AcDbEntity
   8
4
   6
CONTINUOUS
  62
2
 370
-3
 100
AcDbPoint
  10
43.600937
  20
-41.730986
  30
0
  39
0
   0
VERTEX
   5
23F
 330
2
 100
AcDbEntity
   8
4
   6
CONTINUOUS
  62
2
 370
-3
 100
AcDbPoint
  10
43.869395
  20
-42.026932
  30
0
  39
0
   0
VERTEX
   5
240
 330
2
 100
AcDbEntity
   8
4
   6
CONTINUOUS
  62
2
 370
-3
 100
AcDbPoint
  10
44.068878
  20
-42.364574
  30
0
  39
0
   0
VERTEX
   5
241
 330
2
 100
AcDbEntity
   8
4
   6
CONTINUOUS
  62
2
 370
-3
 100
AcDbPoint
  10
44.191719
  20
-42.730937
  30
0
  39
0
   0
VERTEX
   5
242
 330
2
 100
AcDbEntity
   8
4
   6
CONTINUOUS
  62
2
 370
-3
 100
AcDbPoint
  10
44.233197
  20
-43.111942
  30
0
  39
0
   0
LINE
   5
245
 330
2
 100
AcDbEntity
   8
5
   6
CONTINUOUS
  62
30
 370
-3
 100
AcDbLine
  10
40.2908
  20
-45.6851
  11
40.1658
  21
-45.6851
   0
LINE
   5
247
 330
2
 100
AcDbEntity
   8
1
   6
CONTINUOUS
  62
3
 370
-3
 100
AcDbLine
  10
40.0408
  20
-45.6851
  11
40.0408
  21
-41.2372
   0
LINE
   5
249
 330
2
 100
AcDbEntity
   8
2
   6
CONTINUOUS
  62
30
 370
-3
 100
AcDbLine
  10
43.9831
  20
-45.6851
  11
43.9831
  21
-40.9439
   0
LINE
   5
24B
 330
2
 100
AcDbEntity
   8
1
   6
CONTINUOUS
  62
3
 370
-3
 100
AcDbLine
  10
44.1082
  20
-45.6851
  11
44.1082
  21
-41.1479
   0
ARC
   5
24D
 330
2
 100
AcDbEntity
   8
1
   6
CONTINUOUS
  62
3
 370
-3
 100
AcDbCircle
  10
72.439036
  20
-252.443652
  40
212.187565
 100
AcDbArc
  50
87.9779333333
  51
90.3565972222
   0
ARC
   5
24F
 330
2
 100
AcDbEntity
   8
1
   6
CONTINUOUS
  62
3
 370
-3
 100
AcDbCircle
  10
65.156966
  20
82.102477
  40
123.576647
 100
AcDbArc
  50
272.7830138889
  51
276.8679166667
   0
ARC
   5
251
 330
2
 100
AcDbEntity
   8
1
   6
CONTINUOUS
  62
3
 370
-3
 100
AcDbCircle
  10
79.922416
  20
-40.488155
  40
0.100003
 100
AcDbArc
  50
276.8679166667
  51
87.9779333333
   0
LINE
   5
253
 330
2
 100
AcDbEntity
   8
3
   6
CENTER
  62
1
 370
-3
 100
AcDbLine
  10
-15.1076
  20
-40.4814
  11
-5.8003
  21
-40.8064
   0
LINE
   5
255
 330
2
 100
AcDbEntity
   8
1
   6
CONTINUOUS
  62
3
 370
-3
 100
AcDbLine
  10
-6.1282
  20
-40.2602
  11
-6.1654
  21
-41.3284
   0
LINE
   5
257
 330
2
 100
AcDbEntity
   8
1
   6
CONTINUOUS
  62
3
 370
-3
 100
AcDbLine
  10
-5.8003
  20
-41.3468
  11
-6.1654
  21
-41.3284
   0
LINE
   5
259
 330
2
 100
AcDbEntity
   8
1
   6
CONTINUOUS
  62
3
 370
-3
 100
AcDbLine
  10
-5.8003
  20
-40.2664
  11
-6.1282
  21
-40.2599
   0
LINE
   5
25B
 330
2
 100
AcDbEntity
   8
2
   6
HIDDEN
  62
4
 370
-3
 100
AcDbLine
  10
-5.8003
  20
-40.3603
  11
-6.1314
  21
-40.3538
   0
LINE
   5
25D
 330
2
 100
AcDbEntity
   8
2
   6
HIDDEN
  62
4
 370
-3
 100
AcDbLine
  10
-5.8003
  20
-41.2527
  11
-6.1621
  21
-41.2344
   0
ARC
   5
25F
 330
2
 100
AcDbEntity
   8
1
   6
CONTINUOUS
  62
3
 370
-3
 100
AcDbCircle
  10
-7.446815
  20
-252.443652
  40
212.187565
 100
AcDbArc
  50
89.6434027778
  51
92.0220666667
   0
ARC
   5
261
 330
2
 100
AcDbEntity
   8
1
   6
CONTINUOUS
  62
3
 370
-3
 100
AcDbCircle
  10
-0.164745
  20
82.102477
  40
123.576647
 100
AcDbArc
  50
263.1320833333
  51
267.2169861111
   0
ARC
   5
263
 330
2
 100
AcDbEntity
   8
1
   6
CONTINUOUS
  62
3
 370
-3
 100
AcDbCircle
  10
-14.930195
  20
-40.488155
  40
0.100003
 100
AcDbArc
  50
92.0220666667
  51
263.1320833333
   0
LINE
   5
265
 330
2
 100
AcDbEntity
   8
2
   6
DASHDOT
  62
4
 370
-3
 100
AcDbLine
  10
27.9747
  20
-67.1753
  11
31.5374
  21
-67.1753
   0
LINE
   5
267
 330
2
 100
AcDbEntity
   8
2
   6
DASHDOT
  62
4
 370
-3
 100
AcDbLine
  10
31.7874
  20
-63.8527
  11
31.7874
  21
-66.9252
   0
LINE
   5
269
 330
2
 100
AcDbEntity
   8
2
   6
DASHDOT
  62
4
 370
-3
 100
AcDbLine
  10
27.9747
  20
-63.6026
  11
31.5374
  21
-63.6026
   0
LINE
   5
26B
 330
2
 100
AcDbEntity
   8
2
   6
DASHDOT
  62
4
 370
-3
 100
AcDbLine
  10
27.7248
  20
-63.8527
  11
27.9747
  21
-63.8527
   0
LINE
   5
26D
 330
2
 100
AcDbEntity
   8
2
   6
DASHDOT
  62
4
 370
-3
 100
AcDbLine
  10
31.5374
  20
-63.8527
  11
31.7874
  21
-63.8527
   0
LINE
   5
26F
 330
2
 100
AcDbEntity
   8
2
   6
DASHDOT
  62
4
 370
-3
 100
AcDbLine
  10
31.5374
  20
-63.6026
  11
31.5374
  21
-63.8527
   0
LINE
   5
271
 330
2
 100
AcDbEntity
   8
2
   6
DASHDOT
  62
4
 370
-3
 100
AcDbLine
  10
31.5374
  20
-66.9252
  11
31.5374
  21
-67.1753
   0
LINE
   5
273
 330
2
 100
AcDbEntity
   8
2
   6
DASHDOT
  62
4
 370
-3
 100
AcDbLine
  10
27.7248
  20
-66.9252
  11
27.9747
  21
-66.9252
   0
LINE
   5
275
 330
2
 100
AcDbEntity
   8
2
   6
DASHDOT
  62
4
 370
-3
 100
AcDbLine
  10
31.5374
  20
-66.9252
  11
31.7874
  21
-66.9252
   0
LINE
   5
277
 330
2
 100
AcDbEntity
   8
2
   6
DASHDOT
  62
4
 370
-3
 100
AcDbLine
  10
27.9747
  20
-63.6026
  11
27.9747
  21
-63.8527
   0
LINE
   5
279
 330
2
 100
AcDbEntity
   8
2
   6
DASHDOT
  62
4
 370
-3
 100
AcDbLine
  10
27.9747
  20
-66.9252
  11
27.9747
  21
-67.1753
   0
LINE
   5
27B
 330
2
 100
AcDbEntity
   8
1
   6
CENTER
  62
1
 370
-3
 100
AcDbLine
  10
29.756
  20
-67.9439
  11
29.756
  21
-62.3507
   0
LINE
   5
27D
 330
2
 100
AcDbEntity
   8
2
   6
DASHDOT
  62
4
 370
-3
 100
AcDbLine
  10
28.4249
  20
-64.1027
  11
31.0873
  21
-64.1027
   0
LINE
   5
27F
 330
2
 100
AcDbEntity
   8
2
   6
DASHDOT
  62
4
 370
-3
 100
AcDbLine
  10
31.2874
  20
-64.3027
  11
31.2874
  21
-66.4752
   0
LINE
   5
281
 330
2
 100
AcDbEntity
   8
2
   6
DASHDOT
  62
4
 370
-3
 100
AcDbLine
  10
28.4249
  20
-66.6753
  11
31.0873
  21
-66.6753
   0
LINE
   5
283
 330
2
 100
AcDbEntity
   8
2
   6
DASHDOT
  62
4
 370
-3
 100
AcDbLine
  10
28.2248
  20
-64.3027
  11
28.2248
  21
-66.4752
   0
ARC
   5
285
 330
2
 100
AcDbEntity
   8
2
   6
DASHDOT
  62
4
 370
-3
 100
AcDbCircle
  10
31.087283
  20
-64.302743
  40
0.20001
 100
AcDbArc
  50
0
  51
90
   0
ARC
   5
287
 330
2
 100
AcDbEntity
   8
2
   6
DASHDOT
  62
4
 370
-3
 100
AcDbCircle
  10
28.424749
  20
-64.302743
  40
0.20001
 100
AcDbArc
  50
90
  51
180
   0
ARC
   5
289
 330
2
 100
AcDbEntity
   8
2
   6
DASHDOT
  62
4
 370
-3
 100
AcDbCircle
  10
31.087283
  20
-66.475152
  40
0.20001
 100
AcDbArc
  50
270
  51
0
   0
ARC
   5
28B
 330
2
 100
AcDbEntity
   8
2
   6
DASHDOT
  62
4
 370
-3
 100
AcDbCircle
  10
28.424749
  20
-66.475152
  40
0.20001
 100
AcDbArc
  50
180
  51
270
   0
TEXT
   5
28D
 330
2
 100
AcDbEntity
   8
1
   6
CONTINUOUS
  62
3
 370
-3
 100
AcDbText
  10
29.2132
  20
-63.3518
  30
0
  40
0.3329
   1
NOSE
  50
0
  41
1
  51
0
   7
standard
  71
0
  72
-1
 210
0
 220
0
 230
1
 100
AcDbText
  73
0
   0
LINE
   5
28F
 330
2
 100
AcDbEntity
   8
2
   6
DASHDOT
  62
4
 370
-3
 100
AcDbLine
  10
27.7248
  20
-63.84
  11
27.7248
  21
-66.9377
   0
LINE
   5
291
 330
2
 100
AcDbEntity
   8
1
   6
CENTER
  62
1
 370
-3
 100
AcDbLine
  10
29.9896
  20
-65.2982
  11
29.5015
  21
-65.2982
   0
LINE
   5
293
 330
2
 100
AcDbEntity
   8
1
   6
CENTER
  62
1
 370
-3
 100
AcDbLine
  10
32.251
  20
-65.389
  11
27.2057
  21
-65.389
   0
LINE
   5
295
 330
2
 100
AcDbEntity
   8
1
   6
CONTINUOUS
  62
3
 370
-3
 100
AcDbLine
  10
27.5997
  20
-63.6026
  11
27.5997
  21
-67.1753
   0
LINE
   5
297
 330
2
 100
AcDbEntity
   8
1
   6
CONTINUOUS
  62
3
 370
-3
 100
AcDbLine
  10
31.9123
  20
-63.6026
  11
31.9123
  21
-67.1753
   0
LINE
   5
299
 330
2
 100
AcDbEntity
   8
2
   6
DASHDOT
  62
4
 370
-3
 100
AcDbLine
  10
31.5374
  20
-63.6026
  11
31.9123
  21
-63.6026
   0
LINE
   5
29B
 330
2
 100
AcDbEntity
   8
2
   6
DASHDOT
  62
4
 370
-3
 100
AcDbLine
  10
27.9747
  20
-63.6026
  11
27.5997
  21
-63.6026
   0
LINE
   5
29D
 330
2
 100
AcDbEntity
   8
2
   6
DASHDOT
  62
4
 370
-3
 100
AcDbLine
  10
27.7248
  20
-63.8527
  11
27.7248
  21
-63.6026
   0
LINE
   5
29F
 330
2
 100
AcDbEntity
   8
2
   6
DASHDOT
  62
4
 370
-3
 100
AcDbLine
  10
31.7874
  20
-63.8527
  11
31.7874
  21
-63.6026
   0
LINE
   5
2A1
 330
2
 100
AcDbEntity
   8
2
   6
DASHDOT
  62
4
 370
-3
 100
AcDbLine
  10
31.5374
  20
-67.1753
  11
31.9123
  21
-67.1753
   0
LINE
   5
2A3
 330
2
 100
AcDbEntity
   8
2
   6
DASHDOT
  62
4
 370
-3
 100
AcDbLine
  10
27.9747
  20
-67.1753
  11
27.5997
  21
-67.1753
   0
LINE
   5
2A5
 330
2
 100
AcDbEntity
   8
2
   6
DASHDOT
  62
4
 370
-3
 100
AcDbLine
  10
27.7248
  20
-66.9252
  11
27.7248
  21
-67.1753
   0
LINE
   5
2A7
 330
2
 100
AcDbEntity
   8
2
   6
DASHDOT
  62
4
 370
-3
 100
AcDbLine
  10
31.7874
  20
-66.9252
  11
31.7874
  21
-67.1753
   0
POLYLINE
   5
2A9
 330
2
 100
AcDbEntity
   8
1
   6
CONTINUOUS
  62
3
 370
-3
 100
AcDb3dPolyline
  10
0
  20
0
  30
0
  39
0
  70
0
   0
SEQEND
   5
18F
 330
18E
 100
AcDbEntity
   8
0
 100
AcDbBlockEnd
   0
VERTEX
   5
2AA
 330
2
 100
AcDbEntity
   8
1
   6
CONTINUOUS
  62
3
 370
-3
 100
AcDbPoint
  10
31.912324
  20
-63.602708
  30
0
  39
0
   0
VERTEX
   5
2AB
 330
2
 100
AcDbEntity
   8
1
   6
CONTINUOUS
  62
3
 370
-3
 100
AcDbPoint
  10
31.870891
  20
-63.402379
  30
0
  39
0
   0
VERTEX
   5
2AC
 330
2
 100
AcDbEntity
   8
1
   6
CONTINUOUS
  62
3
 370
-3
 100
AcDbPoint
  10
31.748185
  20
-63.209749
  30
0
  39
0
   0
VERTEX
   5
2AD
 330
2
 100
AcDbEntity
   8
1
   6
CONTINUOUS
  62
3
 370
-3
 100
AcDbPoint
  10
31.548921
  20
-63.032219
  30
0
  39
0
   0
VERTEX
   5
2AE
 330
2
 100
AcDbEntity
   8
1
   6
CONTINUOUS
  62
3
 370
-3
 100
AcDbPoint
  10
31.280756
  20
-62.876614
  30
0
  39
0
   0
VERTEX
   5
2AF
 330
2
 100
AcDbEntity
   8
1
   6
CONTINUOUS
  62
3
 370
-3
 100
AcDbPoint
  10
30.953997
  20
-62.748912
  30
0
  39
0
   0
VERTEX
   5
2B0
 330
2
 100
AcDbEntity
   8
1
   6
CONTINUOUS
  62
3
 370
-3
 100
AcDbPoint
  10
30.581199
  20
-62.65402
  30
0
  39
0
   0
VERTEX
   5
2B1
 330
2
 100
AcDbEntity
   8
1
   6
CONTINUOUS
  62
3
 370
-3
 100
AcDbPoint
  10
30.176691
  20
-62.595587
  30
0
  39
0
   0
VERTEX
   5
2B2
 330
2
 100
AcDbEntity
   8
1
   6
CONTINUOUS
  62
3
 370
-3
 100
AcDbPoint
  10
29.756016
  20
-62.575856
  30
0
  39
0
   0
VERTEX
   5
2B3
 330
2
 100
AcDbEntity
   8
1
   6
CONTINUOUS
  62
3
 370
-3
 100
AcDbPoint
  10
29.335341
  20
-62.595587
  30
0
  39
0
   0
VERTEX
   5
2B4
 330
2
 100
AcDbEntity
   8
1
   6
CONTINUOUS
  62
3
 370
-3
 100
AcDbPoint
  10
28.930832
  20
-62.65402
  30
0
  39
0
   0
VERTEX
   5
2B5
 330
2
 100
AcDbEntity
   8
1
   6
CONTINUOUS
  62
3
 370
-3
 100
AcDbPoint
  10
28.558035
  20
-62.748912
  30
0
  39
0
   0
VERTEX
   5
2B6
 330
2
 100
AcDbEntity
   8
1
   6
CONTINUOUS
  62
3
 370
-3
 100
AcDbPoint
  10
28.231276
  20
-62.876614
  30
0
  39
0
   0
VERTEX
   5
2B7
 330
2
 100
AcDbEntity
   8
1
   6
CONTINUOUS
  62
3
 370
-3
 100
AcDbPoint
  10
27.963111
  20
-63.032219
  30
0
  39
0
   0
VERTEX
   5
2B8
 330
2
 100
AcDbEntity
   8
1
   6
CONTINUOUS
  62
3
 370
-3
 100
AcDbPoint
  10
27.763847
  20
-63.209749
  30
0
  39
0
   0
VERTEX
   5
2B9
 330
2
 100
AcDbEntity
   8
1
   6
CONTINUOUS
  62
3
 370
-3
 100
AcDbPoint
  10
27.64114
  20
-63.402379
  30
0
  39
0
   0
VERTEX
   5
2BA
 330
2
 100
AcDbEntity
   8
1
   6
CONTINUOUS
  62
3
 370
-3
 100
AcDbPoint
  10
27.599708
  20
-63.602708
  30
0
  39
0
   0
POLYLINE
   5
2BD
 330
2
 100
AcDbEntity
   8
1
   6
CONTINUOUS
  62
3
 370
-3
 100
AcDb3dPolyline
  10
0
  20
0
  30
0
  39
0
  70
0
   0
SEQEND
   5
1A2
 330
1A1
 100
AcDbEntity
   8
0
 100
AcDbBlockEnd
   0
VERTEX
   5
2BE
 330
2
 100
AcDbEntity
   8
1
   6
CONTINUOUS
  62
3
 370
-3
 100
AcDbPoint
  10
27.599708
  20
-67.175187
  30
0
  39
0
   0
VERTEX
   5
2BF
 330
2
 100
AcDbEntity
   8
1
   6
CONTINUOUS
  62
3
 370
-3
 100
AcDbPoint
  10
27.64114
  20
-67.325161
  30
0
  39
0
   0
VERTEX
   5
2C0
 330
2
 100
AcDbEntity
   8
1
   6
CONTINUOUS
  62
3
 370
-3
 100
AcDbPoint
  10
27.763847
  20
-67.469371
  30
0
  39
0
   0
VERTEX
   5
2C1
 330
2
 100
AcDbEntity
   8
1
   6
CONTINUOUS
  62
3
 370
-3
 100
AcDbPoint
  10
27.963111
  20
-67.602276
  30
0
  39
0
   0
VERTEX
   5
2C2
 330
2
 100
AcDbEntity
   8
1
   6
CONTINUOUS
  62
3
 370
-3
 100
AcDbPoint
  10
28.231276
  20
-67.718768
  30
0
  39
0
   0
VERTEX
   5
2C3
 330
2
 100
AcDbEntity
   8
1
   6
CONTINUOUS
  62
3
 370
-3
 100
AcDbPoint
  10
28.558035
  20
-67.81437
  30
0
  39
0
   0
VERTEX
   5
2C4
 330
2
 100
AcDbEntity
   8
1
   6
CONTINUOUS
  62
3
 370
-3
 100
AcDbPoint
  10
28.930832
  20
-67.885409
  30
0
  39
0
   0
VERTEX
   5
2C5
 330
2
 100
AcDbEntity
   8
1
   6
CONTINUOUS
  62
3
 370
-3
 100
AcDbPoint
  10
29.335341
  20
-67.929155
  30
0
  39
0
   0
VERTEX
   5
2C6
 330
2
 100
AcDbEntity
   8
1
   6
CONTINUOUS
  62
3
 370
-3
 100
AcDbPoint
  10
29.756016
  20
-67.943926
  30
0
  39
0
   0
VERTEX
   5
2C7
 330
2
 100
AcDbEntity
   8
1
   6
CONTINUOUS
  62
3
 370
-3
 100
AcDbPoint
  10
30.176691
  20
-67.929155
  30
0
  39
0
   0
VERTEX
   5
2C8
 330
2
 100
AcDbEntity
   8
1
   6
CONTINUOUS
  62
3
 370
-3
 100
AcDbPoint
  10
30.581199
  20
-67.885409
  30
0
  39
0
   0
VERTEX
   5
2C9
 330
2
 100
AcDbEntity
   8
1
   6
CONTINUOUS
  62
3
 370
-3
 100
AcDbPoint
  10
30.953997
  20
-67.81437
  30
0
  39
0
   0
VERTEX
   5
2CA
 330
2
 100
AcDbEntity
   8
1
   6
CONTINUOUS
  62
3
 370
-3
 100
AcDbPoint
  10
31.280756
  20
-67.718768
  30
0
  39
0
   0
VERTEX
   5
2CB
 330
2
 100
AcDbEntity
   8
1
   6
CONTINUOUS
  62
3
 370
-3
 100
AcDbPoint
  10
31.548921
  20
-67.602276
  30
0
  39
0
   0
VERTEX
   5
2CC
 330
2
 100
AcDbEntity
   8
1
   6
CONTINUOUS
  62
3
 370
-3
 100
AcDbPoint
  10
31.748185
  20
-67.469371
  30
0
  39
0
   0
VERTEX
   5
2CD
 330
2
 100
AcDbEntity
   8
1
   6
CONTINUOUS
  62
3
 370
-3
 100
AcDbPoint
  10
31.870891
  20
-67.325161
  30
0
  39
0
   0
VERTEX
   5
2CE
 330
2
 100
AcDbEntity
   8
1
   6
CONTINUOUS
  62
3
 370
-3
 100
AcDbPoint
  10
31.912324
  20
-67.175187
  30
0
  39
0
   0
CIRCLE
   5
2D1
 330
2
 100
AcDbEntity
   8
1
   6
CONTINUOUS
  62
3
 370
-3
 100
AcDbCircle
  10
29.756016
  20
-65.298293
  40
1.017751
   0
CIRCLE
   5
2D3
 330
2
 100
AcDbEntity
   8
1
   6
CONTINUOUS
  62
3
 370
-3
 100
AcDbCircle
  10
29.756016
  20
-65.298293
  40
0.774939
   0
POLYLINE
   5
2D5
 330
2
 100
AcDbEntity
   8
1
   6
CONTINUOUS
  62
3
 370
-3
 100
AcDb3dPolyline
  10
0
  20
0
  30
0
  39
0
  70
0
   0
SEQEND
   5
1B7
 330
1B6
 100
AcDbEntity
   8
0
 100
AcDbBlockEnd
   0
VERTEX
   5
2D6
 330
2
 100
AcDbEntity
   8
1
   6
CONTINUOUS
  62
3
 370
-3
 100
AcDbPoint
  10
38.802677
  20
-62.606895
  30
0
  39
0
   0
VERTEX
   5
2D7
 330
2
 100
AcDbEntity
   8
1
   6
CONTINUOUS
  62
3
 370
-3
 100
AcDbPoint
  10
38.982086
  20
-62.56101
  30
0
  39
0
   0
VERTEX
   5
2D8
 330
2
 100
AcDbEntity
   8
1
   6
CONTINUOUS
  62
3
 370
-3
 100
AcDbPoint
  10
39.161589
  20
-62.515769
  30
0
  39
0
   0
ARC
   5
2DB
 330
2
 100
AcDbEntity
   8
1
   6
DASHDOT
  62
4
 370
-3
 100
AcDbCircle
  10
33.773718
  20
-65.412153
  40
0.800085
 100
AcDbArc
  50
118.1303527778
  51
236.8377444444
   0
LINE
   5
2DD
 330
2
 100
AcDbEntity
   8
1
   6
DASHDOT
  62
4
 370
-3
 100
AcDbLine
  10
33.9508
  20
-64.4195
  11
33.9508
  21
-66.3086
   0
LINE
   5
2DF
 330
2
 100
AcDbEntity
   8
2
   6
CENTER
  62
1
 370
-3
 100
AcDbLine
  10
32.6331
  20
-65.3768
  11
39.1615
  21
-65.3768
   0
LINE
   5
2E1
 330
2
 100
AcDbEntity
   8
2
   6
HIDDEN
  62
4
 370
-3
 100
AcDbLine
  10
38.8701
  20
-63.9185
  11
38.8701
  21
-67.0161
   0
LINE
   5
2E3
 330
2
 100
AcDbEntity
   8
1
   6
CONTINUOUS
  62
30
 370
-3
 100
AcDbLine
  10
34.1233
  20
-64.1716
  11
34.1233
  21
-66.582
   0
ARC
   5
2E5
 330
2
 100
AcDbEntity
   8
2
   6
HIDDEN
  62
4
 370
-3
 100
AcDbCircle
  10
34.597098
  20
-65.427295
  40
0.980159
 100
AcDbArc
  50
131.2505527778
  51
177.0580805556
   0
ARC
   5
2E7
 330
2
 100
AcDbEntity
   8
2
   6
HIDDEN
  62
4
 370
-3
 100
AcDbCircle
  10
34.597098
  20
-65.326684
  40
0.980159
 100
AcDbArc
  50
182.9419194444
  51
228.7494472222
   0
ARC
   5
2E9
 330
2
 100
AcDbEntity
   8
1
   6
CONTINUOUS
  62
3
 370
-3
 100
AcDbCircle
  10
44.768754
  20
-44.698792
  40
24.120388
 100
AcDbArc
  50
244.3048361111
  51
255.6794916667
   0
POLYLINE
   5
2EB
 330
2
 100
AcDbEntity
   8
1
   6
CONTINUOUS
  62
3
 370
-3
 100
AcDb3dPolyline
  10
0
  20
0
  30
0
  39
0
  70
0
   0
SEQEND
   5
1C4
 330
1C3
 100
AcDbEntity
   8
0
 100
AcDbBlockEnd
   0
VERTEX
   5
2EC
 330
2
 100
AcDbEntity
   8
1
   6
CONTINUOUS
  62
3
 370
-3
 100
AcDbPoint
  10
38.802677
  20
-68.069694
  30
0
  39
0
   0
VERTEX
   5
2ED
 330
2
 100
AcDbEntity
   8
1
   6
CONTINUOUS
  62
3
 370
-3
 100
AcDbPoint
  10
38.982086
  20
-68.115579
  30
0
  39
0
   0
VERTEX
   5
2EE
 330
2
 100
AcDbEntity
   8
1
   6
CONTINUOUS
  62
3
 370
-3
 100
AcDbPoint
  10
39.161589
  20
-68.160821
  30
0
  39
0
   0
LINE
   5
2F1
 330
2
 100
AcDbEntity
   8
2
   6
HIDDEN
  62
4
 370
-3
 100
AcDbLine
  10
39.1615
  20
-63.8876
  11
38.6204
  21
-63.9449
   0
LINE
   5
2F3
 330
2
 100
AcDbEntity
   8
2
   6
HIDDEN
  62
4
 370
-3
 100
AcDbLine
  10
39.1615
  20
-63.6363
  11
38.6204
  21
-63.6935
   0
LINE
   5
2F5
 330
2
 100
AcDbEntity
   8
2
   6
HIDDEN
  62
4
 370
-3
 100
AcDbLine
  10
38.6204
  20
-67.2374
  11
39.1615
  21
-67.3033
   0
LINE
   5
2F7
 330
2
 100
AcDbEntity
   8
2
   6
HIDDEN
  62
4
 370
-3
 100
AcDbLine
  10
38.6204
  20
-66.9856
  11
39.1615
  21
-67.0514
   0
ARC
   5
2F9
 330
2
 100
AcDbEntity
   8
1
   6
DASHDOT
  62
4
 370
-3
 100
AcDbCircle
  10
44.768754
  20
-85.977797
  40
24.120388
 100
AcDbArc
  50
116.1897444444
  51
118.1303527778
   0
ARC
   5
2FB
 330
2
 100
AcDbEntity
   8
1
   6
CONTINUOUS
  62
3
 370
-3
 100
AcDbCircle
  10
44.768754
  20
-85.977797
  40
24.120388
 100
AcDbArc
  50
104.3205083333
  51
116.1898222222
   0
ARC
   5
2FD
 330
2
 100
AcDbEntity
   8
1
   6
DASHDOT
  62
4
 370
-3
 100
AcDbCircle
  10
44.248623
  20
-37.400099
  40
30.687662
 100
AcDbArc
  50
249.1697916667
  51
250.7344694444
   0
ARC
   5
2FF
 330
2
 100
AcDbEntity
   8
1
   6
CONTINUOUS
  62
3
 370
-3
 100
AcDbCircle
  10
44.248623
  20
-37.400099
  40
30.687662
 100
AcDbArc
  50
250.7344111111
  51
251.1043583333
   0
LINE
   5
301
 330
2
 100
AcDbEntity
   8
1
   6
CONTINUOUS
  62
6
 370
-3
 100
AcDbLine
  10
32.0997
  20
-63.6026
  11
32.0997
  21
-67.1753
   0
LINE
   5
303
 330
2
 100
AcDbEntity
   8
1
   6
HIDDEN
  62
6
 370
-3
 100
AcDbLine
  10
32.0997
  20
-63.6026
  11
31.9123
  21
-63.6026
   0
LINE
   5
305
 330
2
 100
AcDbEntity
   8
1
   6
HIDDEN
  62
6
 370
-3
 100
AcDbLine
  10
32.0997
  20
-67.1753
  11
31.9123
  21
-67.1753
   0
LINE
   5
307
 330
2
 100
AcDbEntity
   8
1
   6
HIDDEN
  62
6
 370
-3
 100
AcDbLine
  10
31.5998
  20
-63.6026
  11
31.5998
  21
-67.1753
   0
LINE
   5
309
 330
2
 100
AcDbEntity
   8
1
   6
CONTINUOUS
  62
6
 370
-3
 100
AcDbLine
  10
27.4121
  20
-63.6026
  11
27.4121
  21
-67.1753
   0
LINE
   5
30B
 330
2
 100
AcDbEntity
   8
1
   6
HIDDEN
  62
6
 370
-3
 100
AcDbLine
  10
27.4121
  20
-63.6026
  11
27.5997
  21
-63.6026
   0
LINE
   5
30D
 330
2
 100
AcDbEntity
   8
1
   6
HIDDEN
  62
6
 370
-3
 100
AcDbLine
  10
27.4121
  20
-67.1753
  11
27.5997
  21
-67.1753
   0
LINE
   5
30F
 330
2
 100
AcDbEntity
   8
1
   6
HIDDEN
  62
6
 370
-3
 100
AcDbLine
  10
27.9122
  20
-63.6026
  11
27.9122
  21
-67.1753
   0
LINE
   5
311
 330
2
 100
AcDbEntity
   8
1
   6
CONTINUOUS
  62
6
 370
-3
 100
AcDbLine
  10
38.6204
  20
-63.6935
  11
34.1233
  21
-64.7595
   0
LINE
   5
313
 330
2
 100
AcDbEntity
   8
1
   6
CONTINUOUS
  62
30
 370
-3
 100
AcDbLine
  10
27.4121
  20
-63.6026
  11
27.4121
  21
-62.3507
   0
LINE
   5
315
 330
2
 100
AcDbEntity
   8
1
   6
CONTINUOUS
  62
30
 370
-3
 100
AcDbLine
  10
32.0997
  20
-63.6026
  11
32.0997
  21
-62.3507
   0
LINE
   5
317
 330
2
 100
AcDbEntity
   8
1
   6
CONTINUOUS
  62
30
 370
-3
 100
AcDbLine
  10
30.8947
  20
-64.093
  11
28.6171
  21
-64.093
   0
LINE
   5
319
 330
2
 100
AcDbEntity
   8
1
   6
CONTINUOUS
  62
30
 370
-3
 100
AcDbLine
  10
28.6171
  20
-64.6811
  11
30.8947
  21
-64.6811
   0
LINE
   5
31B
 330
2
 100
AcDbEntity
   8
1
   6
CONTINUOUS
  62
30
 370
-3
 100
AcDbLine
  10
38.6204
  20
-63.6935
  11
38.6204
  21
-62.4292
   0
LINE
   5
31D
 330
2
 100
AcDbEntity
   8
1
   6
CONTINUOUS
  62
30
 370
-3
 100
AcDbLine
  10
34.1233
  20
-64.1716
  11
38.6204
  21
-62.4292
   0
LINE
   5
31F
 330
2
 100
AcDbEntity
   8
1
   6
CONTINUOUS
  62
30
 370
-3
 100
AcDbLine
  10
32.0997
  20
-62.3507
  11
27.4121
  21
-62.3507
   0
LINE
   5
321
 330
2
 100
AcDbEntity
   8
1
   6
CONTINUOUS
  62
30
 370
-3
 100
AcDbLine
  10
30.8947
  20
-66.5036
  11
28.6171
  21
-66.5036
   0
LINE
   5
323
 330
2
 100
AcDbEntity
   8
1
   6
CONTINUOUS
  62
30
 370
-3
 100
AcDbLine
  10
27.4121
  20
-67.1753
  11
27.4121
  21
-68.1511
   0
LINE
   5
325
 330
2
 100
AcDbEntity
   8
1
   6
CONTINUOUS
  62
30
 370
-3
 100
AcDbLine
  10
32.0997
  20
-67.1753
  11
32.0997
  21
-68.1511
   0
LINE
   5
327
 330
2
 100
AcDbEntity
   8
1
   6
CONTINUOUS
  62
30
 370
-3
 100
AcDbLine
  10
38.6204
  20
-67.2374
  11
38.6204
  21
-68.2294
   0
LINE
   5
329
 330
2
 100
AcDbEntity
   8
1
   6
CONTINUOUS
  62
30
 370
-3
 100
AcDbLine
  10
34.1233
  20
-66.582
  11
38.6204
  21
-68.2294
   0
LINE
   5
32B
 330
2
 100
AcDbEntity
   8
1
   6
CONTINUOUS
  62
30
 370
-3
 100
AcDbLine
  10
32.0997
  20
-68.1511
  11
27.4121
  21
-68.1511
   0
LINE
   5
32D
 330
2
 100
AcDbEntity
   8
1
   6
CONTINUOUS
  62
30
 370
-3
 100
AcDbLine
  10
28.6171
  20
-65.9062
  11
30.8947
  21
-65.9062
   0
LINE
   5
32F
 330
2
 100
AcDbEntity
   8
1
   6
CONTINUOUS
  62
6
 370
-3
 100
AcDbLine
  10
38.6204
  20
-63.6935
  11
38.6204
  21
-67.2374
   0
LINE
   5
331
 330
2
 100
AcDbEntity
   8
2
   6
CENTER
  62
1
 370
-3
 100
AcDbLine
  10
29.756
  20
-62.1239
  11
29.756
  21
-55.6117
   0
ARC
   5
333
 330
2
 100
AcDbEntity
   8
1
   6
CONTINUOUS
  62
3
 370
-3
 100
AcDbCircle
  10
29.756276
  20
-60.905197
  40
0.80004
 100
AcDbArc
  50
208.1303527778
  51
269.9813944444
   0
ARC
   5
335
 330
2
 100
AcDbEntity
   8
1
   6
CONTINUOUS
  62
3
 370
-3
 100
AcDbCircle
  10
29.755756
  20
-60.905197
  40
0.80004
 100
AcDbArc
  50
270.0186055556
  51
331.8696472222
   0
POLYLINE
   5
337
 330
2
 100
AcDbEntity
   8
1
   6
CONTINUOUS
  62
3
 370
-3
 100
AcDb3dPolyline
  10
0
  20
0
  30
0
  39
0
  70
0
   0
SEQEND
   5
1EC
 330
1EB
 100
AcDbEntity
   8
0
 100
AcDbBlockEnd
   0
VERTEX
   5
338
 330
2
 100
AcDbEntity
   8
1
   6
CONTINUOUS
  62
3
 370
-3
 100
AcDbPoint
  10
29.05078
  20
-61.282391
  30
0
  39
0
   0
VERTEX
   5
339
 330
2
 100
AcDbEntity
   8
1
   6
CONTINUOUS
  62
3
 370
-3
 100
AcDbPoint
  10
28.152648
  20
-58.812993
  30
0
  39
0
   0
VERTEX
   5
33A
 330
2
 100
AcDbEntity
   8
1
   6
CONTINUOUS
  62
3
 370
-3
 100
AcDbPoint
  10
27.614308
  20
-56.183535
  30
0
  39
0
   0
LINE
   5
33D
 330
2
 100
AcDbEntity
   8
2
   6
CONTINUOUS
  62
30
 370
-3
 100
AcDbLine
  10
27.4121
  20
-56.1835
  11
32.0997
  21
-56.1835
   0
LINE
   5
33F
 330
2
 100
AcDbEntity
   8
2
   6
CONTINUOUS
  62
3
 370
-3
 100
AcDbLine
  10
27.7248
  20
-56.0584
  11
31.7874
  21
-56.0584
   0
ARC
   5
341
 330
2
 100
AcDbEntity
   8
1
   6
CONTINUOUS
  62
3
 370
-3
 100
AcDbCircle
  10
165.895114
  20
-38.932309
  40
139.352739
 100
AcDbArc
  50
186.9067527778
  51
187.1111972222
   0
POLYLINE
   5
343
 330
2
 100
AcDbEntity
   8
1
   6
CONTINUOUS
  62
3
 370
-3
 100
AcDb3dPolyline
  10
0
  20
0
  30
0
  39
0
  70
0
   0
SEQEND
   5
1F4
 330
1F3
 100
AcDbEntity
   8
0
 100
AcDbBlockEnd
   0
VERTEX
   5
344
 330
2
 100
AcDbEntity
   8
1
   6
CONTINUOUS
  62
3
 370
-3
 100
AcDbPoint
  10
30.461251
  20
-61.282391
  30
0
  39
0
   0
VERTEX
   5
345
 330
2
 100
AcDbEntity
   8
1
   6
CONTINUOUS
  62
3
 370
-3
 100
AcDbPoint
  10
31.359384
  20
-58.812993
  30
0
  39
0
   0
VERTEX
   5
346
 330
2
 100
AcDbEntity
   8
1
   6
CONTINUOUS
  62
3
 370
-3
 100
AcDbPoint
  10
31.897724
  20
-56.183535
  30
0
  39
0
   0
ARC
   5
349
 330
2
 100
AcDbEntity
   8
1
   6
CONTINUOUS
  62
3
 370
-3
 100
AcDbCircle
  10
-106.383082
  20
-38.932309
  40
139.352739
 100
AcDbArc
  50
352.8888027778
  51
353.0932472222
   0
ARC
   5
34B
 330
2
 100
AcDbEntity
   8
2
   6
HIDDEN
  62
4
 370
-3
 100
AcDbCircle
  10
165.895114
  20
-38.932309
  40
139.227733
 100
AcDbArc
  50
186.9129833333
  51
187.1111972222
   0
ARC
   5
34D
 330
2
 100
AcDbEntity
   8
2
   6
HIDDEN
  62
4
 370
-3
 100
AcDbCircle
  10
-106.383082
  20
-38.932309
  40
139.227733
 100
AcDbArc
  50
352.8888027778
  51
353.0870166667
   0
ARC
   5
34F
 330
2
 100
AcDbEntity
   8
2
   6
HIDDEN
  62
4
 370
-3
 100
AcDbCircle
  10
165.895114
  20
-38.932309
  40
138.977721
 100
AcDbArc
  50
186.9254805556
  51
187.1304833333
   0
ARC
   5
351
 330
2
 100
AcDbEntity
   8
2
   6
HIDDEN
  62
4
 370
-3
 100
AcDbCircle
  10
-106.383082
  20
-38.932309
  40
138.977721
 100
AcDbArc
  50
352.8695166667
  51
353.0745194444
   0
LINE
   5
353
 330
2
 100
AcDbEntity
   8
1
   6
CONTINUOUS
  62
30
 370
-3
 100
AcDbLine
  10
28.6171
  20
-60.5462
  11
30.8947
  21
-60.5462
   0
LINE
   5
355
 330
2
 100
AcDbEntity
   8
1
   6
CONTINUOUS
  62
6
 370
-3
 100
AcDbLine
  10
30.8947
  20
-65.9062
  11
30.8947
  21
-64.6811
   0
LINE
   5
357
 330
2
 100
AcDbEntity
   8
1
   6
CONTINUOUS
  62
6
 370
-3
 100
AcDbLine
  10
30.3948
  20
-65.9062
  11
30.3948
  21
-64.6811
   0
LINE
   5
359
 330
2
 100
AcDbEntity
   8
1
   6
CONTINUOUS
  62
6
 370
-3
 100
AcDbLine
  10
29.1172
  20
-65.9062
  11
29.1172
  21
-64.6811
   0
LINE
   5
35B
 330
2
 100
AcDbEntity
   8
1
   6
CONTINUOUS
  62
6
 370
-3
 100
AcDbLine
  10
28.6171
  20
-65.9062
  11
28.6171
  21
-64.6811
   0
LINE
   5
35D
 330
2
 100
AcDbEntity
   8
1
   6
CONTINUOUS
  62
30
 370
-3
 100
AcDbLine
  10
28.6171
  20
-64.6811
  11
28.6171
  21
-64.1027
   0
LINE
   5
35F
 330
2
 100
AcDbEntity
   8
1
   6
CONTINUOUS
  62
30
 370
-3
 100
AcDbLine
  10
30.8947
  20
-64.6811
  11
30.8947
  21
-64.093
   0
LINE
   5
361
 330
2
 100
AcDbEntity
   8
1
   6
CONTINUOUS
  62
30
 370
-3
 100
AcDbLine
  10
30.8947
  20
-65.9062
  11
30.8947
  21
-66.5036
   0
LINE
   5
363
 330
2
 100
AcDbEntity
   8
1
   6
CONTINUOUS
  62
30
 370
-3
 100
AcDbLine
  10
28.6171
  20
-65.9062
  11
28.6171
  21
-66.5036
   0
LINE
   5
365
 330
2
 100
AcDbEntity
   8
1
   6
CONTINUOUS
  62
30
 370
-3
 100
AcDbLine
  10
27.4121
  20
-62.3507
  11
28.6171
  21
-64.093
   0
LINE
   5
367
 330
2
 100
AcDbEntity
   8
1
   6
CONTINUOUS
  62
30
 370
-3
 100
AcDbLine
  10
27.4121
  20
-63.6026
  11
28.6171
  21
-64.6811
   0
LINE
   5
369
 330
2
 100
AcDbEntity
   8
1
   6
CONTINUOUS
  62
30
 370
-3
 100
AcDbLine
  10
30.8947
  20
-64.6811
  11
32.0997
  21
-63.6026
   0
LINE
   5
36B
 330
2
 100
AcDbEntity
   8
1
   6
CONTINUOUS
  62
30
 370
-3
 100
AcDbLine
  10
30.8947
  20
-64.093
  11
32.0997
  21
-62.3507
   0
LINE
   5
36D
 330
2
 100
AcDbEntity
   8
1
   6
CONTINUOUS
  62
30
 370
-3
 100
AcDbLine
  10
28.6171
  20
-66.5036
  11
27.4121
  21
-68.1511
   0
LINE
   5
36F
 330
2
 100
AcDbEntity
   8
1
   6
CONTINUOUS
  62
30
 370
-3
 100
AcDbLine
  10
30.8947
  20
-66.5036
  11
32.0997
  21
-68.1511
   0
LINE
   5
371
 330
2
 100
AcDbEntity
   8
1
   6
CONTINUOUS
  62
30
 370
-3
 100
AcDbLine
  10
30.8947
  20
-65.9062
  11
32.0997
  21
-67.1753
   0
LINE
   5
373
 330
2
 100
AcDbEntity
   8
1
   6
CONTINUOUS
  62
30
 370
-3
 100
AcDbLine
  10
28.6171
  20
-65.9062
  11
27.4121
  21
-67.1753
   0
LINE
   5
375
 330
2
 100
AcDbEntity
   8
1
   6
HIDDEN
  62
6
 370
-3
 100
AcDbLine
  10
27.9122
  20
-63.6026
  11
29.1172
  21
-64.6811
   0
LINE
   5
377
 330
2
 100
AcDbEntity
   8
1
   6
HIDDEN
  62
6
 370
-3
 100
AcDbLine
  10
31.5998
  20
-63.6026
  11
30.3948
  21
-64.6811
   0
LINE
   5
379
 330
2
 100
AcDbEntity
   8
1
   6
HIDDEN
  62
6
 370
-3
 100
AcDbLine
  10
30.3948
  20
-65.9062
  11
31.5998
  21
-67.1753
   0
LINE
   5
37B
 330
2
 100
AcDbEntity
   8
1
   6
HIDDEN
  62
6
 370
-3
 100
AcDbLine
  10
29.1172
  20
-65.9062
  11
27.9122
  21
-67.1753
   0
LINE
   5
37D
 330
2
 100
AcDbEntity
   8
1
   6
CONTINUOUS
  62
6
 370
-3
 100
AcDbLine
  10
38.6204
  20
-67.2537
  11
34.1233
  21
-65.9845
   0
LINE
   5
37F
 330
2
 100
AcDbEntity
   8
1
   6
CONTINUOUS
  62
30
 370
-3
 100
AcDbLine
  10
27.4121
  20
-56.1835
  11
28.6171
  21
-60.5462
   0
LINE
   5
381
 330
2
 100
AcDbEntity
   8
1
   6
CONTINUOUS
  62
30
 370
-3
 100
AcDbLine
  10
32.0997
  20
-56.1835
  11
30.8947
  21
-60.5462
   0
LINE
   5
383
 330
2
 100
AcDbEntity
   8
1
   6
HIDDEN
  62
6
 370
-3
 100
AcDbLine
  10
31.5809
  20
-56.1835
  11
30.3758
  21
-60.5462
   0
LINE
   5
385
 330
2
 100
AcDbEntity
   8
1
   6
HIDDEN
  62
6
 370
-3
 100
AcDbLine
  10
27.8942
  20
-56.0505
  11
29.136
  21
-60.5462
   0
LINE
   5
387
 330
2
 100
AcDbEntity
   8
1
   6
CONTINUOUS
  62
30
 370
-3
 100
AcDbLine
  10
33.4339
  20
-57.4878
  11
37.9307
  21
-58.5538
   0
LINE
   5
389
 330
2
 100
AcDbEntity
   8
1
   6
CONTINUOUS
  62
30
 370
-3
 100
AcDbLine
  10
33.4339
  20
-57.4878
  11
33.4339
  21
-56.2237
   0
LINE
   5
38B
 330
2
 100
AcDbEntity
   8
1
   6
CONTINUOUS
  62
30
 370
-3
 100
AcDbLine
  10
37.9307
  20
-57.9659
  11
33.4339
  21
-56.2237
   0
LINE
   5
38D
 330
2
 100
AcDbEntity
   8
1
   6
CONTINUOUS
  62
30
 370
-3
 100
AcDbLine
  10
37.9307
  20
-57.9659
  11
37.9307
  21
-58.5538
   0
ARC
   5
38F
 330
2
 100
AcDbEntity
   8
1
   6
CONTINUOUS
  62
3
 370
-3
 100
AcDbCircle
  10
27.285308
  20
-79.772185
  40
24.120388
 100
AcDbArc
  50
63.8101777778
  51
75.2318333333
   0
ARC
   5
391
 330
2
 100
AcDbEntity
   8
1
   6
CONTINUOUS
  62
3
 370
-3
 100
AcDbCircle
  10
27.721535
  20
-32.149735
  40
30.687662
 100
AcDbArc
  50
288.8956416667
  51
289.2655888889
   0
LINE
   5
393
 330
2
 100
AcDbEntity
   8
1
   6
CONTINUOUS
  62
30
 370
-3
 100
AcDbLine
  10
33.3498
  20
-61.9873
  11
33.3498
  21
-62.9793
   0
LINE
   5
395
 330
2
 100
AcDbEntity
   8
1
   6
CONTINUOUS
  62
30
 370
-3
 100
AcDbLine
  10
37.8469
  20
-61.3315
  11
33.3498
  21
-62.9793
   0
LINE
   5
397
 330
2
 100
AcDbEntity
   8
1
   6
CONTINUOUS
  62
30
 370
-3
 100
AcDbLine
  10
33.3498
  20
-62.0031
  11
37.8469
  21
-60.7344
   0
LINE
   5
399
 330
2
 100
AcDbEntity
   8
1
   6
CONTINUOUS
  62
30
 370
-3
 100
AcDbLine
  10
37.8469
  20
-60.7344
  11
37.8469
  21
-61.3315
   0
ARC
   5
39B
 330
2
 100
AcDbEntity
   8
1
   6
CONTINUOUS
  62
3
 370
-3
 100
AcDbCircle
  10
27.201404
  20
-39.448429
  40
24.120388
 100
AcDbArc
  50
284.7681666667
  51
295.6951638889
   0
LINE
   5
39D
 330
2
 100
AcDbEntity
   8
1
   6
CONTINUOUS
  62
6
 370
-3
 100
AcDbLine
  10
33.2847
  20
-57.8816
  11
37.7816
  21
-58.9476
   0
LINE
   5
39F
 330
2
 100
AcDbEntity
   8
1
   6
CONTINUOUS
  62
6
 370
-3
 100
AcDbLine
  10
33.2847
  20
-57.8816
  11
33.2847
  21
-61.4255
   0
LINE
   5
3A1
 330
2
 100
AcDbEntity
   8
1
   6
CONTINUOUS
  62
6
 370
-3
 100
AcDbLine
  10
33.2847
  20
-61.4417
  11
37.7816
  21
-60.1727
   0
LINE
   5
3A3
 330
2
 100
AcDbEntity
   8
1
   6
DASHDOT
  62
4
 370
-3
 100
AcDbLine
  10
37.6797
  20
-60.4005
  11
37.6797
  21
-60.4069
   0
LINE
   5
3A5
 330
2
 100
AcDbEntity
   8
2
   6
CENTER
  62
1
 370
-3
 100
AcDbLine
  10
37.9107
  20
-59.5649
  11
33.1803
  21
-59.5649
   0
LINE
   5
3A7
 330
2
 100
AcDbEntity
   8
1
   6
CONTINUOUS
  62
6
 370
-3
 100
AcDbLine
  10
37.7816
  20
-58.9476
  11
37.7816
  21
-60.1727
   0
TEXT
   5
3A9
 330
2
 100
AcDbEntity
   8
1
   6
CONTINUOUS
  62
30
 370
-3
 100
AcDbText
  10
34.5523
  20
-62.1991
  30
0
  40
0.2365
   1
BOTTOM
  50
15.267486
  41
1
  51
0
   7
romans
  71
0
  72
-1
 210
0
 220
0
 230
1
 100
AcDbText
  73
0
   0
TEXT
   5
3AB
 330
2
 100
AcDbEntity
   8
1
   6
CONTINUOUS
  62
30
 370
-3
 100
AcDbText
  10
34.922
  20
-57.6597
  30
0
  40
0.3353
   1
TOP
  50
349.688722
  41
1
  51
0
   7
romans
  71
0
  72
-1
 210
0
 220
0
 230
1
 100
AcDbText
  73
0
   0
TEXT
   5
3AD
 330
2
 100
AcDbEntity
   8
1
   6
CONTINUOUS
  62
30
 370
-3
 100
AcDbText
  10
34.2009
  20
-59.3735
  30
0
  40
0.305
   1
SIDE(2)
  50
0
  41
1
  51
0
   7
romans
  71
0
  72
-1
 210
0
 220
0
 230
1
 100
AcDbText
  73
0
   0
POLYLINE
   5
3AF
 330
2
 100
AcDbEntity
   8
1
   6
CONTINUOUS
  62
3
 370
-3
 100
AcDb3dPolyline
  10
0
  20
0
  30
0
  39
0
  70
1
   0
SEQEND
   5
22C
 330
22B
 100
AcDbEntity
   8
0
 100
AcDbBlockEnd
   0
VERTEX
   5
3B0
 330
2
 100
AcDbEntity
   8
1
   6
CONTINUOUS
  62
3
 370
-3
 100
AcDbPoint
  10
24.9303
  20
-53.3707
  30
0
  39
0
   0
VERTEX
   5
3B1
 330
2
 100
AcDbEntity
   8
1
   6
CONTINUOUS
  62
3
 370
-3
 100
AcDbPoint
  10
40.7264
  20
-53.3707
  30
0
  39
0
   0
VERTEX
   5
3B2
 330
2
 100
AcDbEntity
   8
1
   6
CONTINUOUS
  62
3
 370
-3
 100
AcDbPoint
  10
40.7264
  20
-70.9454
  30
0
  39
0
   0
VERTEX
   5
3B3
 330
2
 100
AcDbEntity
   8
1
   6
CONTINUOUS
  62
3
 370
-3
 100
AcDbPoint
  10
24.9303
  20
-70.9454
  30
0
  39
0
   0
TEXT
   5
3B6
 330
2
 100
AcDbEntity
   8
6
   6
CONTINUOUS
  62
3
 370
-3
 100
AcDbText
  10
30.1287
  20
-72.2281
  30
0
  40
0.5006
   1
NOSE FRAMING
  50
0
  41
1
  51
0
   7
standard
  71
0
  72
4
  11
32.9469
  21
-71.9778
  31
0
 210
0
 220
0
 230
1
 100
AcDbText
  73
0
   0
LINE
   5
3B8
 330
2
 100
AcDbEntity
   8
2
   6
CONTINUOUS
  62
3
 370
-3
 100
AcDbLine
  10
-11.0268
  20
-53.5634
  11
-8.002
  21
-53.5634
   0
LINE
   5
3BA
 330
2
 100
AcDbEntity
   8
2
   6
CONTINUOUS
  62
3
 370
-3
 100
AcDbLine
  10
-10.0531
  20
-46.0187
  11
-7.0281
  21
-46.0187
   0
LINE
   5
3BC
 330
2
 100
AcDbEntity
   8
2
   6
CONTINUOUS
  62
3
 370
-3
 100
AcDbLine
  10
-11.0268
  20
-53.5634
  11
-10.0531
  21
-46.0187
   0
LINE
   5
3BE
 330
2
 100
AcDbEntity
   8
2
   6
CONTINUOUS
  62
3
 370
-3
 100
AcDbLine
  10
-8.002
  20
-53.5634
  11
-7.0281
  21
-46.0187
   0
TEXT
   5
3C0
 330
2
 100
AcDbEntity
   8
10
   6
CONTINUOUS
  62
3
 370
-3
 100
AcDbText
  10
-10.7536
  20
-53.3345
  30
0
  40
0.1915
   1
L.E.
  50
85.244639
  41
1
  51
0
   7
romans
  71
0
  72
-1
 210
0
 220
0
 230
1
 100
AcDbText
  73
0
   0
TEXT
   5
3C2
 330
2
 100
AcDbEntity
   8
10
   6
CONTINUOUS
  62
3
 370
-3
 100
AcDbText
  10
-10.1146
  20
-53.4829
  30
0
  40
0.1548
   1
CENTER
  50
0
  41
1
  51
0
   7
romans
  71
0
  72
-1
 210
0
 220
0
 230
1
 100
AcDbText
  73
0
   0
LINE
   5
3C4
 330
2
 100
AcDbEntity
   8
2
   6
CONTINUOUS
  62
3
 370
-3
 100
AcDbLine
  10
12.3098
  20
-53.6316
  11
15.3348
  21
-53.6316
   0
LINE
   5
3C6
 330
2
 100
AcDbEntity
   8
2
   6
CONTINUOUS
  62
3
 370
-3
 100
AcDbLine
  10
15.3348
  20
-53.6316
  11
14.2094
  21
-44.9111
   0
ARC
   5
3C8
 330
2
 100
AcDbEntity
   8
2
   6
CONTINUOUS
  62
3
 370
-3
 100
AcDbCircle
  10
1.228149
  20
12.528911
  40
58.888543
 100
AcDbArc
  50
279.8085055556
  51
282.7346944444
   0
LINE
   5
3CA
 330
2
 100
AcDbEntity
   8
2
   6
CONTINUOUS
  62
3
 370
-3
 100
AcDbLine
  10
12.3098
  20
-53.6316
  11
11.2602
  21
-45.4989
   0
TEXT
   5
3CC
 330
2
 100
AcDbEntity
   8
10
   6
CONTINUOUS
  62
3
 370
-3
 100
AcDbText
  10
14.3052
  20
-48.3686
  30
0
  40
0.2071
   1
T.E.
  50
277.760258
  41
1
  51
0
   7
romans
  71
0
  72
-1
 210
0
 220
0
 230
1
 100
AcDbText
  73
0
   0
TEXT
   5
3CE
 330
2
 100
AcDbEntity
   8
10
   6
CONTINUOUS
  62
3
 370
-3
 100
AcDbText
  10
12.9
  20
-53.5085
  30
0
  40
0.2091
   1
CENTER
  50
0
  41
1
  51
0
   7
romans
  71
0
  72
-1
 210
0
 220
0
 230
1
 100
AcDbText
  73
0
   0
LINE
   5
3D0
 330
2
 100
AcDbEntity
   8
2
   6
CONTINUOUS
  62
3
 370
-3
 100
AcDbLine
  10
7.9505
  20
-53.6315
  11
10.9756
  21
-53.6315
   0
ARC
   5
3D2
 330
2
 100
AcDbEntity
   8
2
   6
CONTINUOUS
  62
3
 370
-3
 100
AcDbCircle
  10
-0.105997
  20
12.529011
  40
58.888543
 100
AcDbArc
  50
276.8887555556
  51
279.8085055556
   0
LINE
   5
3D4
 330
2
 100
AcDbEntity
   8
2
   6
CONTINUOUS
  62
3
 370
-3
 100
AcDbLine
  10
10.9756
  20
-53.6315
  11
9.926
  21
-45.4987
   0
LINE
   5
3D6
 330
2
 100
AcDbEntity
   8
2
   6
CONTINUOUS
  62
3
 370
-3
 100
AcDbLine
  10
7.9505
  20
-53.6315
  11
6.9572
  21
-45.9344
   0
TEXT
   5
3D8
 330
2
 100
AcDbEntity
   8
10
   6
CONTINUOUS
  62
3
 370
-3
 100
AcDbText
  10
8.8668
  20
-53.4829
  30
0
  40
0.1548
   1
CENTER
  50
0
  41
1
  51
0
   7
romans
  71
0
  72
-1
 210
0
 220
0
 230
1
 100
AcDbText
  73
0
   0
TEXT
   5
3DA
 330
2
 100
AcDbEntity
   8
10
   6
CONTINUOUS
  62
3
 370
-3
 100
AcDbText
  10
8.5262
  20
-50.3314
  30
0
  40
0.1548
   1
RIGHT
  50
0
  41
1
  51
0
   7
romans
  71
0
  72
-1
 210
0
 220
0
 230
1
 100
AcDbText
  73
0
   0
LINE
   5
3DC
 330
2
 100
AcDbEntity
   8
2
   6
CONTINUOUS
  62
3
 370
-3
 100
AcDbLine
  10
-7.3836
  20
-53.6624
  11
-4.3585
  21
-53.6624
   0
LINE
   5
3DE
 330
2
 100
AcDbEntity
   8
2
   6
CONTINUOUS
  62
3
 370
-3
 100
AcDbLine
  10
-6.426
  20
-46.2425
  11
-4.5858
  21
-46.2425
   0
ARC
   5
3E0
 330
2
 100
AcDbEntity
   8
2
   6
CONTINUOUS
  62
3
 370
-3
 100
AcDbCircle
  10
-8.754691
  20
12.49821
  40
58.888543
 100
AcDbArc
  50
274.05945
  51
275.2283555556
   0
LINE
   5
3E2
 330
2
 100
AcDbEntity
   8
2
   6
CONTINUOUS
  62
3
 370
-3
 100
AcDbLine
  10
-7.3836
  20
-53.6624
  11
-6.426
  21
-46.2425
   0
LINE
   5
3E4
 330
2
 100
AcDbEntity
   8
2
   6
CONTINUOUS
  62
3
 370
-3
 100
AcDbLine
  10
-4.3585
  20
-53.6624
  11
-3.3884
  21
-46.1452
   0
TEXT
   5
3E6
 330
2
 100
AcDbEntity
   8
10
   6
CONTINUOUS
  62
3
 370
-3
 100
AcDbText
  10
-6.2794
  20
-53.5136
  30
0
  40
0.1548
   1
CENTER
  50
0
  41
1
  51
0
   7
romans
  71
0
  72
-1
 210
0
 220
0
 230
1
 100
AcDbText
  73
0
   0
TEXT
   5
3E8
 330
2
 100
AcDbEntity
   8
10
   6
CONTINUOUS
  62
3
 370
-3
 100
AcDbText
  10
-6.0523
  20
-50.2488
  30
0
  40
0.1548
   1
LEFT
  50
0
  41
1
  51
0
   7
romans
  71
0
  72
-1
 210
0
 220
0
 230
1
 100
AcDbText
  73
0
   0
LINE
   5
3EA
 330
2
 100
AcDbEntity
   8
2
   6
CONTINUOUS
  62
3
 370
-3
 100
AcDbLine
  10
-2.247
  20
-53.4659
  11
1.4134
  21
-53.4659
   0
ARC
   5
3EC
 330
2
 100
AcDbEntity
   8
2
   6
CONTINUOUS
  62
3
 370
-3
 100
AcDbCircle
  10
-6.643119
  20
12.694617
  40
58.888543
 100
AcDbArc
  50
275.2283555556
  51
276.8887555556
   0
LINE
   5
3EE
 330
2
 100
AcDbEntity
   8
2
   6
CONTINUOUS
  62
3
 370
-3
 100
AcDbLine
  10
1.4134
  20
-53.4659
  11
0.42
  21
-45.7688
   0
LINE
   5
3F0
 330
2
 100
AcDbEntity
   8
2
   6
CONTINUOUS
  62
3
 370
-3
 100
AcDbLine
  10
-2.247
  20
-53.4659
  11
-1.277
  21
-45.949
   0
TEXT
   5
3F2
 330
2
 100
AcDbEntity
   8
10
   6
CONTINUOUS
  62
3
 370
-3
 100
AcDbText
  10
-0.8765
  20
-53.3173
  30
0
  40
0.1548
   1
CENTER
  50
0
  41
1
  51
0
   7
romans
  71
0
  72
-1
 210
0
 220
0
 230
1
 100
AcDbText
  73
0
   0
TEXT
   5
3F4
 330
2
 100
AcDbEntity
   8
10
   6
CONTINUOUS
  62
3
 370
-3
 100
AcDbText
  10
-0.9333
  20
-50.1658
  30
0
  40
0.1548
   1
MIDDLE
  50
0
  41
1
  51
0
   7
romans
  71
0
  72
-1
 210
0
 220
0
 230
1
 100
AcDbText
  73
0
   0
LINE
   5
3F6
 330
2
 100
AcDbEntity
   8
3
   6
CONTINUOUS
  62
3
 370
-3
 100
AcDbLine
  10
67.7139
  20
-48.9164
  11
67.7139
  21
-45.9163
   0
LINE
   5
3F8
 330
2
 100
AcDbEntity
   8
3
   6
CONTINUOUS
  62
3
 370
-3
 100
AcDbLine
  10
63.8965
  20
-48.9164
  11
63.8965
  21
-45.9163
   0
LINE
   5
3FA
 330
2
 100
AcDbEntity
   8
5
   6
CENTER
  62
1
 370
-3
 100
AcDbLine
  10
64.2997
  20
-46.383
  11
67.311
  21
-46.383
   0
LINE
   5
3FC
 330
2
 100
AcDbEntity
   8
3
   6
CONTINUOUS
  62
3
 370
-3
 100
AcDbLine
  10
67.8389
  20
-48.9164
  11
67.8389
  21
-45.9163
   0
LINE
   5
3FE
 330
2
 100
AcDbEntity
   8
3
   6
CONTINUOUS
  62
3
 370
-3
 100
AcDbLine
  10
63.7715
  20
-48.9164
  11
63.7715
  21
-45.9163
   0
LINE
   5
400
 330
2
 100
AcDbEntity
   8
5
   6
CENTER
  62
1
 370
-3
 100
AcDbLine
  10
65.8052
  20
-44.5635
  11
65.8052
  21
-50.4049
   0
LINE
   5
402
 330
2
 100
AcDbEntity
   8
3
   6
CONTINUOUS
  62
3
 370
-3
 100
AcDbLine
  10
67.589
  20
-48.9164
  11
67.589
  21
-45.9163
   0
LINE
   5
404
 330
2
 100
AcDbEntity
   8
3
   6
CONTINUOUS
  62
3
 370
-3
 100
AcDbLine
  10
64.0216
  20
-48.9164
  11
64.0216
  21
-45.9163
   0
LINE
   5
406
 330
2
 100
AcDbEntity
   8
5
   6
CONTINUOUS
  62
3
 370
-3
 100
AcDbLine
  10
63.7715
  20
-45.9163
  11
64.0216
  21
-45.9163
   0
LINE
   5
408
 330
2
 100
AcDbEntity
   8
5
   6
CONTINUOUS
  62
3
 370
-3
 100
AcDbLine
  10
67.589
  20
-45.9163
  11
67.8389
  21
-45.9163
   0
LINE
   5
40A
 330
2
 100
AcDbEntity
   8
5
   6
CONTINUOUS
  62
3
 370
-3
 100
AcDbLine
  10
67.589
  20
-48.9164
  11
67.8389
  21
-48.9164
   0
LINE
   5
40C
 330
2
 100
AcDbEntity
   8
5
   6
CONTINUOUS
  62
3
 370
-3
 100
AcDbLine
  10
64.0216
  20
-48.9164
  11
63.7715
  21
-48.9164
   0
LINE
   5
40E
 330
2
 100
AcDbEntity
   8
5
   6
CENTER
  62
1
 370
-3
 100
AcDbLine
  10
67.8389
  20
-47.4163
  11
63.7715
  21
-47.4163
   0
POLYLINE
   5
410
 330
2
 100
AcDbEntity
   8
5
   6
CONTINUOUS
  62
3
 370
-3
 100
AcDb3dPolyline
  10
0
  20
0
  30
0
  39
0
  70
0
   0
SEQEND
   5
25F
 330
25E
 100
AcDbEntity
   8
0
 100
AcDbBlockEnd
   0
VERTEX
   5
411
 330
2
 100
AcDbEntity
   8
5
   6
CONTINUOUS
  62
3
 370
-3
 100
AcDbPoint
  10
63.771561
  20
-48.916409
  30
0
  39
0
   0
VERTEX
   5
412
 330
2
 100
AcDbEntity
   8
5
   6
CONTINUOUS
  62
3
 370
-3
 100
AcDbPoint
  10
63.810638
  20
-49.206791
  30
0
  39
0
   0
VERTEX
   5
413
 330
2
 100
AcDbEntity
   8
5
   6
CONTINUOUS
  62
3
 370
-3
 100
AcDbPoint
  10
63.926365
  20
-49.486014
  30
0
  39
0
   0
VERTEX
   5
414
 330
2
 100
AcDbEntity
   8
5
   6
CONTINUOUS
  62
3
 370
-3
 100
AcDbPoint
  10
64.114296
  20
-49.743348
  30
0
  39
0
   0
VERTEX
   5
415
 330
2
 100
AcDbEntity
   8
5
   6
CONTINUOUS
  62
3
 370
-3
 100
AcDbPoint
  10
64.367209
  20
-49.968902
  30
0
  39
0
   0
VERTEX
   5
416
 330
2
 100
AcDbEntity
   8
5
   6
CONTINUOUS
  62
3
 370
-3
 100
AcDbPoint
  10
64.675384
  20
-50.15401
  30
0
  39
0
   0
VERTEX
   5
417
 330
2
 100
AcDbEntity
   8
5
   6
CONTINUOUS
  62
3
 370
-3
 100
AcDbPoint
  10
65.026979
  20
-50.291558
  30
0
  39
0
   0
VERTEX
   5
418
 330
2
 100
AcDbEntity
   8
5
   6
CONTINUOUS
  62
3
 370
-3
 100
AcDbPoint
  10
65.408481
  20
-50.376259
  30
0
  39
0
   0
VERTEX
   5
419
 330
2
 100
AcDbEntity
   8
5
   6
CONTINUOUS
  62
3
 370
-3
 100
AcDbPoint
  10
65.805231
  20
-50.404859
  30
0
  39
0
   0
VERTEX
   5
41A
 330
2
 100
AcDbEntity
   8
5
   6
CONTINUOUS
  62
3
 370
-3
 100
AcDbPoint
  10
66.20198
  20
-50.376259
  30
0
  39
0
   0
VERTEX
   5
41B
 330
2
 100
AcDbEntity
   8
5
   6
CONTINUOUS
  62
3
 370
-3
 100
AcDbPoint
  10
66.583482
  20
-50.291558
  30
0
  39
0
   0
VERTEX
   5
41C
 330
2
 100
AcDbEntity
   8
5
   6
CONTINUOUS
  62
3
 370
-3
 100
AcDbPoint
  10
66.935077
  20
-50.15401
  30
0
  39
0
   0
VERTEX
   5
41D
 330
2
 100
AcDbEntity
   8
5
   6
CONTINUOUS
  62
3
 370
-3
 100
AcDbPoint
  10
67.243252
  20
-49.968902
  30
0
  39
0
   0
VERTEX
   5
41E
 330
2
 100
AcDbEntity
   8
5
   6
CONTINUOUS
  62
3
 370
-3
 100
AcDbPoint
  10
67.496165
  20
-49.743348
  30
0
  39
0
   0
VERTEX
   5
41F
 330
2
 100
AcDbEntity
   8
5
   6
CONTINUOUS
  62
3
 370
-3
 100
AcDbPoint
  10
67.684096
  20
-49.486014
  30
0
  39
0
   0
VERTEX
   5
420
 330
2
 100
AcDbEntity
   8
5
   6
CONTINUOUS
  62
3
 370
-3
 100
AcDbPoint
  10
67.799823
  20
-49.206791
  30
0
  39
0
   0
VERTEX
   5
421
 330
2
 100
AcDbEntity
   8
5
   6
CONTINUOUS
  62
3
 370
-3
 100
AcDbPoint
  10
67.8389
  20
-48.916409
  30
0
  39
0
   0
POLYLINE
   5
424
 330
2
 100
AcDbEntity
   8
4
   6
CONTINUOUS
  62
3
 370
-3
 100
AcDb3dPolyline
  10
0
  20
0
  30
0
  39
0
  70
0
   0
SEQEND
   5
272
 330
271
 100
AcDbEntity
   8
0
 100
AcDbBlockEnd
   0
VERTEX
   5
425
 330
2
 100
AcDbEntity
   8
4
   6
CONTINUOUS
  62
3
 370
-3
 100
AcDbPoint
  10
67.838703
  20
-45.916307
  30
0
  39
0
   0
VERTEX
   5
426
 330
2
 100
AcDbEntity
   8
4
   6
CONTINUOUS
  62
3
 370
-3
 100
AcDbPoint
  10
67.794367
  20
-45.651723
  30
0
  39
0
   0
VERTEX
   5
427
 330
2
 100
AcDbEntity
   8
4
   6
CONTINUOUS
  62
3
 370
-3
 100
AcDbPoint
  10
67.674496
  20
-45.397672
  30
0
  39
0
   0
VERTEX
   5
428
 330
2
 100
AcDbEntity
   8
4
   6
CONTINUOUS
  62
3
 370
-3
 100
AcDbPoint
  10
67.483642
  20
-45.163801
  30
0
  39
0
   0
VERTEX
   5
429
 330
2
 100
AcDbEntity
   8
4
   6
CONTINUOUS
  62
3
 370
-3
 100
AcDbPoint
  10
67.229053
  20
-44.958992
  30
0
  39
0
   0
VERTEX
   5
42A
 330
2
 100
AcDbEntity
   8
4
   6
CONTINUOUS
  62
3
 370
-3
 100
AcDbPoint
  10
66.920396
  20
-44.791022
  30
0
  39
0
   0
VERTEX
   5
42B
 330
2
 100
AcDbEntity
   8
4
   6
CONTINUOUS
  62
3
 370
-3
 100
AcDbPoint
  10
66.569392
  20
-44.666269
  30
0
  39
0
   0
VERTEX
   5
42C
 330
2
 100
AcDbEntity
   8
4
   6
CONTINUOUS
  62
3
 370
-3
 100
AcDbPoint
  10
66.189371
  20
-44.58947
  30
0
  39
0
   0
VERTEX
   5
42D
 330
2
 100
AcDbEntity
   8
4
   6
CONTINUOUS
  62
3
 370
-3
 100
AcDbPoint
  10
65.794762
  20
-44.563543
  30
0
  39
0
   0
VERTEX
   5
42E
 330
2
 100
AcDbEntity
   8
4
   6
CONTINUOUS
  62
3
 370
-3
 100
AcDbPoint
  10
65.400551
  20
-44.58947
  30
0
  39
0
   0
VERTEX
   5
42F
 330
2
 100
AcDbEntity
   8
4
   6
CONTINUOUS
  62
3
 370
-3
 100
AcDbPoint
  10
65.021706
  20
-44.666269
  30
0
  39
0
   0
VERTEX
   5
430
 330
2
 100
AcDbEntity
   8
4
   6
CONTINUOUS
  62
3
 370
-3
 100
AcDbPoint
  10
64.672615
  20
-44.791022
  30
0
  39
0
   0
VERTEX
   5
431
 330
2
 100
AcDbEntity
   8
4
   6
CONTINUOUS
  62
3
 370
-3
 100
AcDbPoint
  10
64.366534
  20
-44.958992
  30
0
  39
0
   0
VERTEX
   5
432
 330
2
 100
AcDbEntity
   8
4
   6
CONTINUOUS
  62
3
 370
-3
 100
AcDbPoint
  10
64.115085
  20
-45.163801
  30
0
  39
0
   0
VERTEX
   5
433
 330
2
 100
AcDbEntity
   8
4
   6
CONTINUOUS
  62
3
 370
-3
 100
AcDbPoint
  10
63.927817
  20
-45.397672
  30
0
  39
0
   0
VERTEX
   5
434
 330
2
 100
AcDbEntity
   8
4
   6
CONTINUOUS
  62
3
 370
-3
 100
AcDbPoint
  10
63.811841
  20
-45.651723
  30
0
  39
0
   0
VERTEX
   5
435
 330
2
 100
AcDbEntity
   8
4
   6
CONTINUOUS
  62
3
 370
-3
 100
AcDbPoint
  10
63.771561
  20
-45.916307
  30
0
  39
0
   0
LINE
   5
438
 330
2
 100
AcDbEntity
   8
4
   6
HIDDEN
  62
4
 370
-3
 100
AcDbLine
  10
64.0216
  20
-48.9164
  11
67.589
  21
-48.9164
   0
POLYLINE
   5
43A
 330
2
 100
AcDbEntity
   8
4
   6
HIDDEN
  62
4
 370
-3
 100
AcDb3dPolyline
  10
0
  20
0
  30
0
  39
0
  70
0
   0
SEQEND
   5
286
 330
285
 100
AcDbEntity
   8
0
 100
AcDbBlockEnd
   0
VERTEX
   5
43B
 330
2
 100
AcDbEntity
   8
4
   6
HIDDEN
  62
4
 370
-3
 100
AcDbPoint
  10
64.02157
  20
-48.916409
  30
0
  39
0
   0
VERTEX
   5
43C
 330
2
 100
AcDbEntity
   8
4
   6
HIDDEN
  62
4
 370
-3
 100
AcDbPoint
  10
64.055842
  20
-49.13363
  30
0
  39
0
   0
VERTEX
   5
43D
 330
2
 100
AcDbEntity
   8
4
   6
HIDDEN
  62
4
 370
-3
 100
AcDbPoint
  10
64.157343
  20
-49.342503
  30
0
  39
0
   0
VERTEX
   5
43E
 330
2
 100
AcDbEntity
   8
4
   6
HIDDEN
  62
4
 370
-3
 100
AcDbPoint
  10
64.322171
  20
-49.535002
  30
0
  39
0
   0
VERTEX
   5
43F
 330
2
 100
AcDbEntity
   8
4
   6
HIDDEN
  62
4
 370
-3
 100
AcDbPoint
  10
64.543992
  20
-49.703728
  30
0
  39
0
   0
VERTEX
   5
440
 330
2
 100
AcDbEntity
   8
4
   6
HIDDEN
  62
4
 370
-3
 100
AcDbPoint
  10
64.814282
  20
-49.842199
  30
0
  39
0
   0
VERTEX
   5
441
 330
2
 100
AcDbEntity
   8
4
   6
HIDDEN
  62
4
 370
-3
 100
AcDbPoint
  10
65.122653
  20
-49.945091
  30
0
  39
0
   0
VERTEX
   5
442
 330
2
 100
AcDbEntity
   8
4
   6
HIDDEN
  62
4
 370
-3
 100
AcDbPoint
  10
65.457256
  20
-50.008452
  30
0
  39
0
   0
VERTEX
   5
443
 330
2
 100
AcDbEntity
   8
4
   6
HIDDEN
  62
4
 370
-3
 100
AcDbPoint
  10
65.805231
  20
-50.029847
  30
0
  39
0
   0
VERTEX
   5
444
 330
2
 100
AcDbEntity
   8
4
   6
HIDDEN
  62
4
 370
-3
 100
AcDbPoint
  10
66.153205
  20
-50.008452
  30
0
  39
0
   0
VERTEX
   5
445
 330
2
 100
AcDbEntity
   8
4
   6
HIDDEN
  62
4
 370
-3
 100
AcDbPoint
  10
66.487808
  20
-49.945091
  30
0
  39
0
   0
VERTEX
   5
446
 330
2
 100
AcDbEntity
   8
4
   6
HIDDEN
  62
4
 370
-3
 100
AcDbPoint
  10
66.796179
  20
-49.842199
  30
0
  39
0
   0
VERTEX
   5
447
 330
2
 100
AcDbEntity
   8
4
   6
HIDDEN
  62
4
 370
-3
 100
AcDbPoint
  10
67.066469
  20
-49.703728
  30
0
  39
0
   0
VERTEX
   5
448
 330
2
 100
AcDbEntity
   8
4
   6
HIDDEN
  62
4
 370
-3
 100
AcDbPoint
  10
67.28829
  20
-49.535002
  30
0
  39
0
   0
VERTEX
   5
449
 330
2
 100
AcDbEntity
   8
4
   6
HIDDEN
  62
4
 370
-3
 100
AcDbPoint
  10
67.453118
  20
-49.342503
  30
0
  39
0
   0
VERTEX
   5
44A
 330
2
 100
AcDbEntity
   8
4
   6
HIDDEN
  62
4
 370
-3
 100
AcDbPoint
  10
67.554619
  20
-49.13363
  30
0
  39
0
   0
VERTEX
   5
44B
 330
2
 100
AcDbEntity
   8
4
   6
HIDDEN
  62
4
 370
-3
 100
AcDbPoint
  10
67.588891
  20
-48.916409
  30
0
  39
0
   0
POLYLINE
   5
44E
 330
2
 100
AcDbEntity
   8
4
   6
HIDDEN
  62
4
 370
-3
 100
AcDb3dPolyline
  10
0
  20
0
  30
0
  39
0
  70
0
   0
SEQEND
   5
299
 330
298
 100
AcDbEntity
   8
0
 100
AcDbBlockEnd
   0
VERTEX
   5
44F
 330
2
 100
AcDbEntity
   8
4
   6
HIDDEN
  62
4
 370
-3
 100
AcDbPoint
  10
67.588891
  20
-45.916307
  30
0
  39
0
   0
VERTEX
   5
450
 330
2
 100
AcDbEntity
   8
4
   6
HIDDEN
  62
4
 370
-3
 100
AcDbPoint
  10
67.554619
  20
-45.68898
  30
0
  39
0
   0
VERTEX
   5
451
 330
2
 100
AcDbEntity
   8
4
   6
HIDDEN
  62
4
 370
-3
 100
AcDbPoint
  10
67.453118
  20
-45.470389
  30
0
  39
0
   0
VERTEX
   5
452
 330
2
 100
AcDbEntity
   8
4
   6
HIDDEN
  62
4
 370
-3
 100
AcDbPoint
  10
67.28829
  20
-45.268934
  30
0
  39
0
   0
VERTEX
   5
453
 330
2
 100
AcDbEntity
   8
4
   6
HIDDEN
  62
4
 370
-3
 100
AcDbPoint
  10
67.066469
  20
-45.092358
  30
0
  39
0
   0
VERTEX
   5
454
 330
2
 100
AcDbEntity
   8
4
   6
HIDDEN
  62
4
 370
-3
 100
AcDbPoint
  10
66.796179
  20
-44.947445
  30
0
  39
0
   0
VERTEX
   5
455
 330
2
 100
AcDbEntity
   8
4
   6
HIDDEN
  62
4
 370
-3
 100
AcDbPoint
  10
66.487808
  20
-44.839766
  30
0
  39
0
   0
VERTEX
   5
456
 330
2
 100
AcDbEntity
   8
4
   6
HIDDEN
  62
4
 370
-3
 100
AcDbPoint
  10
66.153205
  20
-44.773457
  30
0
  39
0
   0
VERTEX
   5
457
 330
2
 100
AcDbEntity
   8
4
   6
HIDDEN
  62
4
 370
-3
 100
AcDbPoint
  10
65.805231
  20
-44.751067
  30
0
  39
0
   0
VERTEX
   5
458
 330
2
 100
AcDbEntity
   8
4
   6
HIDDEN
  62
4
 370
-3
 100
AcDbPoint
  10
65.457256
  20
-44.773457
  30
0
  39
0
   0
VERTEX
   5
459
 330
2
 100
AcDbEntity
   8
4
   6
HIDDEN
  62
4
 370
-3
 100
AcDbPoint
  10
65.122653
  20
-44.839766
  30
0
  39
0
   0
VERTEX
   5
45A
 330
2
 100
AcDbEntity
   8
4
   6
HIDDEN
  62
4
 370
-3
 100
AcDbPoint
  10
64.814282
  20
-44.947445
  30
0
  39
0
   0
VERTEX
   5
45B
 330
2
 100
AcDbEntity
   8
4
   6
HIDDEN
  62
4
 370
-3
 100
AcDbPoint
  10
64.543992
  20
-45.092358
  30
0
  39
0
   0
VERTEX
   5
45C
 330
2
 100
AcDbEntity
   8
4
   6
HIDDEN
  62
4
 370
-3
 100
AcDbPoint
  10
64.322171
  20
-45.268934
  30
0
  39
0
   0
VERTEX
   5
45D
 330
2
 100
AcDbEntity
   8
4
   6
HIDDEN
  62
4
 370
-3
 100
AcDbPoint
  10
64.157343
  20
-45.470389
  30
0
  39
0
   0
VERTEX
   5
45E
 330
2
 100
AcDbEntity
   8
4
   6
HIDDEN
  62
4
 370
-3
 100
AcDbPoint
  10
64.055842
  20
-45.68898
  30
0
  39
0
   0
VERTEX
   5
45F
 330
2
 100
AcDbEntity
   8
4
   6
HIDDEN
  62
4
 370
-3
 100
AcDbPoint
  10
64.02157
  20
-45.916307
  30
0
  39
0
   0
LINE
   5
462
 330
2
 100
AcDbEntity
   8
5
   6
CENTER
  62
1
 370
-3
 100
AcDbLine
  10
68.8838
  20
-47.4641
  11
72.4511
  21
-47.4641
   0
LINE
   5
464
 330
2
 100
AcDbEntity
   8
5
   6
CENTER
  62
1
 370
-3
 100
AcDbLine
  10
70.6675
  20
-45.8323
  11
70.6675
  21
-49.9977
   0
LINE
   5
466
 330
2
 100
AcDbEntity
   8
3
   6
CONTINUOUS
  62
3
 370
-3
 100
AcDbLine
  10
72.4511
  20
-49.9977
  11
72.4511
  21
-46.9976
   0
LINE
   5
468
 330
2
 100
AcDbEntity
   8
3
   6
CONTINUOUS
  62
3
 370
-3
 100
AcDbLine
  10
68.8838
  20
-49.9977
  11
68.8838
  21
-46.9976
   0
CIRCLE
   5
46A
 330
2
 100
AcDbEntity
   8
5
   6
DIVIDE
  62
4
 370
-3
 100
AcDbCircle
  10
70.667496
  20
-47.464159
  40
1.250043
   0
LINE
   5
46C
 330
2
 100
AcDbEntity
   8
5
   6
CENTER
  62
1
 370
-3
 100
AcDbLine
  10
72.4511
  20
-48.4976
  11
68.8838
  21
-48.4976
   0
LINE
   5
46E
 330
2
 100
AcDbEntity
   8
4
   6
CONTINUOUS
  62
3
 370
-3
 100
AcDbLine
  10
68.8838
  20
-49.9977
  11
72.4511
  21
-49.9977
   0
POLYLINE
   5
470
 330
2
 100
AcDbEntity
   8
4
   6
CONTINUOUS
  62
3
 370
-3
 100
AcDb3dPolyline
  10
0
  20
0
  30
0
  39
0
  70
0
   0
SEQEND
   5
2B3
 330
2B2
 100
AcDbEntity
   8
0
 100
AcDbBlockEnd
   0
VERTEX
   5
471
 330
2
 100
AcDbEntity
   8
4
   6
CONTINUOUS
  62
3
 370
-3
 100
AcDbPoint
  10
72.451156
  20
-46.997544
  30
0
  39
0
   0
VERTEX
   5
472
 330
2
 100
AcDbEntity
   8
4
   6
CONTINUOUS
  62
3
 370
-3
 100
AcDbPoint
  10
72.416884
  20
-46.770217
  30
0
  39
0
   0
VERTEX
   5
473
 330
2
 100
AcDbEntity
   8
4
   6
CONTINUOUS
  62
3
 370
-3
 100
AcDbPoint
  10
72.315383
  20
-46.551626
  30
0
  39
0
   0
VERTEX
   5
474
 330
2
 100
AcDbEntity
   8
4
   6
CONTINUOUS
  62
3
 370
-3
 100
AcDbPoint
  10
72.150555
  20
-46.350171
  30
0
  39
0
   0
VERTEX
   5
475
 330
2
 100
AcDbEntity
   8
4
   6
CONTINUOUS
  62
3
 370
-3
 100
AcDbPoint
  10
71.928734
  20
-46.173595
  30
0
  39
0
   0
VERTEX
   5
476
 330
2
 100
AcDbEntity
   8
4
   6
CONTINUOUS
  62
3
 370
-3
 100
AcDbPoint
  10
71.658445
  20
-46.028682
  30
0
  39
0
   0
VERTEX
   5
477
 330
2
 100
AcDbEntity
   8
4
   6
CONTINUOUS
  62
3
 370
-3
 100
AcDbPoint
  10
71.350073
  20
-45.921002
  30
0
  39
0
   0
VERTEX
   5
478
 330
2
 100
AcDbEntity
   8
4
   6
CONTINUOUS
  62
3
 370
-3
 100
AcDbPoint
  10
71.015471
  20
-45.854694
  30
0
  39
0
   0
VERTEX
   5
479
 330
2
 100
AcDbEntity
   8
4
   6
CONTINUOUS
  62
3
 370
-3
 100
AcDbPoint
  10
70.667496
  20
-45.832304
  30
0
  39
0
   0
VERTEX
   5
47A
 330
2
 100
AcDbEntity
   8
4
   6
CONTINUOUS
  62
3
 370
-3
 100
AcDbPoint
  10
70.319521
  20
-45.854694
  30
0
  39
0
   0
VERTEX
   5
47B
 330
2
 100
AcDbEntity
   8
4
   6
CONTINUOUS
  62
3
 370
-3
 100
AcDbPoint
  10
69.984918
  20
-45.921002
  30
0
  39
0
   0
VERTEX
   5
47C
 330
2
 100
AcDbEntity
   8
4
   6
CONTINUOUS
  62
3
 370
-3
 100
AcDbPoint
  10
69.676547
  20
-46.028682
  30
0
  39
0
   0
VERTEX
   5
47D
 330
2
 100
AcDbEntity
   8
4
   6
CONTINUOUS
  62
3
 370
-3
 100
AcDbPoint
  10
69.406257
  20
-46.173595
  30
0
  39
0
   0
VERTEX
   5
47E
 330
2
 100
AcDbEntity
   8
4
   6
CONTINUOUS
  62
3
 370
-3
 100
AcDbPoint
  10
69.184436
  20
-46.350171
  30
0
  39
0
   0
VERTEX
   5
47F
 330
2
 100
AcDbEntity
   8
4
   6
CONTINUOUS
  62
3
 370
-3
 100
AcDbPoint
  10
69.019608
  20
-46.551626
  30
0
  39
0
   0
VERTEX
   5
480
 330
2
 100
AcDbEntity
   8
4
   6
CONTINUOUS
  62
3
 370
-3
 100
AcDbPoint
  10
68.918108
  20
-46.770217
  30
0
  39
0
   0
VERTEX
   5
481
 330
2
 100
AcDbEntity
   8
4
   6
CONTINUOUS
  62
3
 370
-3
 100
AcDbPoint
  10
68.883835
  20
-46.997544
  30
0
  39
0
   0
LINE
   5
484
 330
2
 100
AcDbEntity
   8
1
   6
CONTINUOUS
  62
3
 370
-3
 100
AcDbLine
  10
61.6402
  20
-45.6116
  11
58.7586
  21
-45.6116
   0
LINE
   5
486
 330
2
 100
AcDbEntity
   8
1
   6
HIDDEN
  62
4
 370
-3
 100
AcDbLine
  10
61.6402
  20
-45.9866
  11
58.7586
  21
-45.9866
   0
LINE
   5
488
 330
2
 100
AcDbEntity
   8
1
   6
CONTINUOUS
  62
3
 370
-3
 100
AcDbLine
  10
57.9226
  20
-48.3678
  11
57.7975
  21
-48.3678
   0
LINE
   5
48A
 330
2
 100
AcDbEntity
   8
2
   6
CONTINUOUS
  62
3
 370
-3
 100
AcDbLine
  10
62.5247
  20
-47.6275
  11
62.5247
  21
-48.1276
   0
LINE
   5
48C
 330
2
 100
AcDbEntity
   8
1
   6
CONTINUOUS
  62
3
 370
-3
 100
AcDbLine
  10
61.6402
  20
-45.6116
  11
61.6402
  21
-47.3873
   0
LINE
   5
48E
 330
2
 100
AcDbEntity
   8
1
   6
CONTINUOUS
  62
3
 370
-3
 100
AcDbLine
  10
58.7586
  20
-45.6116
  11
58.7586
  21
-47.3873
   0
LINE
   5
490
 330
2
 100
AcDbEntity
   8
1
   6
CONTINUOUS
  62
3
 370
-3
 100
AcDbLine
  10
62.3997
  20
-48.3678
  11
57.9226
  21
-48.3678
   0
LINE
   5
492
 330
2
 100
AcDbEntity
   8
1
   6
CONTINUOUS
  62
3
 370
-3
 100
AcDbLine
  10
62.3997
  20
-47.3873
  11
61.6402
  21
-47.3873
   0
LINE
   5
494
 330
2
 100
AcDbEntity
   8
1
   6
CONTINUOUS
  62
3
 370
-3
 100
AcDbLine
  10
58.7586
  20
-47.3873
  11
57.9226
  21
-47.3873
   0
LINE
   5
496
 330
2
 100
AcDbEntity
   8
1
   6
CONTINUOUS
  62
3
 370
-3
 100
AcDbLine
  10
61.2652
  20
-46.3618
  11
59.1337
  21
-46.3618
   0
LINE
   5
498
 330
2
 100
AcDbEntity
   8
1
   6
CONTINUOUS
  62
3
 370
-3
 100
AcDbLine
  10
61.2652
  20
-46.3618
  11
61.2652
  21
-47.0124
   0
LINE
   5
49A
 330
2
 100
AcDbEntity
   8
1
   6
CONTINUOUS
  62
3
 370
-3
 100
AcDbLine
  10
59.1337
  20
-46.3618
  11
59.1337
  21
-47.0124
   0
LINE
   5
49C
 330
2
 100
AcDbEntity
   8
1
   6
CONTINUOUS
  62
3
 370
-3
 100
AcDbLine
  10
61.2652
  20
-47.0124
  11
59.1337
  21
-47.0124
   0
LINE
   5
49E
 330
2
 100
AcDbEntity
   8
10
   6
CONTINUOUS
  62
2
 370
-3
 100
AcDbLine
  10
62.5247
  20
-47.8775
  11
61.9754
  21
-47.8775
   0
LINE
   5
4A0
 330
2
 100
AcDbEntity
   8
10
   6
CONTINUOUS
  62
2
 370
-3
 100
AcDbLine
  10
62.5247
  20
-47.6275
  11
62.3997
  21
-47.6275
   0
LINE
   5
4A2
 330
2
 100
AcDbEntity
   8
10
   6
CONTINUOUS
  62
2
 370
-3
 100
AcDbLine
  10
62.5247
  20
-48.1276
  11
62.3997
  21
-48.1276
   0
LINE
   5
4A4
 330
2
 100
AcDbEntity
   8
2
   6
CONTINUOUS
  62
2
 370
-3
 100
AcDbLine
  10
62.3997
  20
-47.3873
  11
62.3997
  21
-47.6275
   0
LINE
   5
4A6
 330
2
 100
AcDbEntity
   8
2
   6
CONTINUOUS
  62
2
 370
-3
 100
AcDbLine
  10
62.3997
  20
-48.1276
  11
62.3997
  21
-48.3678
   0
LINE
   5
4A8
 330
2
 100
AcDbEntity
   8
2
   6
CONTINUOUS
  62
3
 370
-3
 100
AcDbLine
  10
57.7976
  20
-47.6275
  11
57.7976
  21
-48.1276
   0
LINE
   5
4AA
 330
2
 100
AcDbEntity
   8
10
   6
CONTINUOUS
  62
2
 370
-3
 100
AcDbLine
  10
57.7976
  20
-47.8775
  11
58.3471
  21
-47.8775
   0
LINE
   5
4AC
 330
2
 100
AcDbEntity
   8
10
   6
CONTINUOUS
  62
2
 370
-3
 100
AcDbLine
  10
57.7976
  20
-47.6275
  11
57.9226
  21
-47.6275
   0
LINE
   5
4AE
 330
2
 100
AcDbEntity
   8
10
   6
CONTINUOUS
  62
2
 370
-3
 100
AcDbLine
  10
57.7976
  20
-48.1276
  11
57.9226
  21
-48.1276
   0
LINE
   5
4B0
 330
2
 100
AcDbEntity
   8
2
   6
CONTINUOUS
  62
2
 370
-3
 100
AcDbLine
  10
57.9226
  20
-47.3873
  11
57.9226
  21
-47.6275
   0
LINE
   5
4B2
 330
2
 100
AcDbEntity
   8
2
   6
CONTINUOUS
  62
2
 370
-3
 100
AcDbLine
  10
57.9226
  20
-48.1276
  11
57.9226
  21
-48.3678
   0
ARC
   5
4B4
 330
2
 100
AcDbEntity
   8
2
   6
CONTINUOUS
  62
3
 370
-3
 100
AcDbCircle
  10
52.337774
  20
4.484151
  40
58.763538
 100
AcDbArc
  50
276.2419388889
  51
278.9905583333
   0
ARC
   5
4B6
 330
2
 100
AcDbEntity
   8
2
   6
CONTINUOUS
  62
3
 370
-3
 100
AcDbCircle
  10
52.337774
  20
-108.680101
  40
58.763538
 100
AcDbArc
  50
81.0094416667
  51
83.7580611111
   0
CIRCLE
   5
4B8
 330
2
 100
AcDbEntity
   8
2
   6
CONTINUOUS
  62
3
 370
-3
 100
AcDbCircle
  10
59.127448
  20
-51.647499
  40
0.067957
   0
CIRCLE
   5
4BA
 330
2
 100
AcDbEntity
   8
2
   6
CONTINUOUS
  62
3
 370
-3
 100
AcDbCircle
  10
61.126605
  20
-51.647499
  40
0.067957
   0
CIRCLE
   5
4BC
 330
2
 100
AcDbEntity
   8
2
   6
CONTINUOUS
  62
3
 370
-3
 100
AcDbCircle
  10
61.126605
  20
-51.132804
  40
0.067957
   0
CIRCLE
   5
4BE
 330
2
 100
AcDbEntity
   8
2
   6
CONTINUOUS
  62
3
 370
-3
 100
AcDbCircle
  10
59.127448
  20
-51.132804
  40
0.067957
   0
ARC
   5
4C0
 330
2
 100
AcDbEntity
   8
2
   6
CONTINUOUS
  62
3
 370
-3
 100
AcDbCircle
  10
59.985307
  20
-51.094099
  40
0.100003
 100
AcDbArc
  50
186.1442527778
  51
231.6811277778
   0
ARC
   5
4C2
 330
2
 100
AcDbEntity
   8
2
   6
CONTINUOUS
  62
3
 370
-3
 100
AcDbCircle
  10
59.512475
  20
-51.094099
  40
0.100003
 100
AcDbArc
  50
308.3188722222
  51
353.8557472222
   0
CIRCLE
   5
4C4
 330
2
 100
AcDbEntity
   8
2
   6
CONTINUOUS
  62
3
 370
-3
 100
AcDbCircle
  10
59.748891
  20
-50.741055
  40
0.033974
   0
CIRCLE
   5
4C6
 330
2
 100
AcDbEntity
   8
2
   6
CONTINUOUS
  62
3
 370
-3
 100
AcDbCircle
  10
59.748891
  20
-50.895594
  40
0.033974
   0
CIRCLE
   5
4C8
 330
2
 100
AcDbEntity
   8
2
   6
CONTINUOUS
  62
3
 370
-3
 100
AcDbCircle
  10
59.748891
  20
-51.054142
  40
0.033974
   0
TEXT
   5
4CA
 330
2
 100
AcDbEntity
   8
2
   6
CONTINUOUS
  62
3
 370
-3
 100
AcDbText
  10
60.7769
  20
-51.5456
  30
0
  40
0.0815
   1
S-148
  50
90
  41
1
  51
0
   7
standard
  71
0
  72
4
  11
60.7361
  21
-51.3791
  31
0
 210
0
 220
0
 230
1
 100
AcDbText
  73
0
   0
TEXT
   5
4CC
 330
2
 100
AcDbEntity
   8
2
   6
CONTINUOUS
  62
3
 370
-3
 100
AcDbText
  10
60.5689
  20
-51.6058
  30
0
  40
0.0815
   1
FUTABA
  50
90
  41
1
  51
0
   7
standard
  71
0
  72
4
  11
60.5281
  21
-51.3784
  31
0
 210
0
 220
0
 230
1
 100
AcDbText
  73
0
   0
LINE
   5
4CE
 330
2
 100
AcDbEntity
   8
2
   6
CONTINUOUS
  62
3
 370
-3
 100
AcDbLine
  10
60.8614
  20
-50.9999
  11
60.3922
  21
-50.9999
   0
LINE
   5
4D0
 330
2
 100
AcDbEntity
   8
2
   6
CONTINUOUS
  62
3
 370
-3
 100
AcDbLine
  10
60.8614
  20
-51.7542
  11
60.8614
  21
-50.9999
   0
LINE
   5
4D2
 330
2
 100
AcDbEntity
   8
2
   6
CONTINUOUS
  62
3
 370
-3
 100
AcDbLine
  10
60.3922
  20
-51.7542
  11
60.8614
  21
-51.7542
   0
LINE
   5
4D4
 330
2
 100
AcDbEntity
   8
2
   6
CONTINUOUS
  62
3
 370
-3
 100
AcDbLine
  10
60.3922
  20
-50.9999
  11
60.3922
  21
-51.7542
   0
LINE
   5
4D6
 330
2
 100
AcDbEntity
   8
2
   6
CONTINUOUS
  62
3
 370
-3
 100
AcDbLine
  10
58.9989
  20
-51.8207
  11
61.2489
  21
-51.8207
   0
LINE
   5
4D8
 330
2
 100
AcDbEntity
   8
2
   6
CONTINUOUS
  62
3
 370
-3
 100
AcDbLine
  10
59.6511
  20
-50.7411
  11
59.6118
  21
-51.1049
   0
LINE
   5
4DA
 330
2
 100
AcDbEntity
   8
2
   6
CONTINUOUS
  62
3
 370
-3
 100
AcDbLine
  10
59.8467
  20
-50.7411
  11
59.8859
  21
-51.1049
   0
ARC
   5
4DC
 330
2
 100
AcDbEntity
   8
2
   6
CONTINUOUS
  62
3
 370
-3
 100
AcDbCircle
  10
59.748891
  20
-50.741055
  40
0.097829
 100
AcDbArc
  50
360
  51
180
   0
LINE
   5
4DE
 330
2
 100
AcDbEntity
   8
2
   6
CONTINUOUS
  62
3
 370
-3
 100
AcDbLine
  10
60.999
  20
-50.9511
  11
60.999
  21
-51.8207
   0
LINE
   5
4E0
 330
2
 100
AcDbEntity
   8
2
   6
CONTINUOUS
  62
3
 370
-3
 100
AcDbLine
  10
59.2489
  20
-50.9511
  11
59.2489
  21
-51.8207
   0
LINE
   5
4E2
 330
2
 100
AcDbEntity
   8
2
   6
CONTINUOUS
  62
3
 370
-3
 100
AcDbLine
  10
61.2489
  20
-51.8207
  11
61.2489
  21
-50.9511
   0
LINE
   5
4E4
 330
2
 100
AcDbEntity
   8
2
   6
CONTINUOUS
  62
3
 370
-3
 100
AcDbLine
  10
58.9989
  20
-50.9511
  11
58.9989
  21
-51.8207
   0
LINE
   5
4E6
 330
2
 100
AcDbEntity
   8
2
   6
CENTER
  62
1
 370
-3
 100
AcDbLine
  10
61.7355
  20
-52.098
  11
58.3452
  21
-52.098
   0
ARC
   5
4E8
 330
2
 100
AcDbEntity
   8
2
   6
CONTINUOUS
  62
3
 370
-3
 100
AcDbCircle
  10
59.748891
  20
-51.390151
  40
0.28129
 100
AcDbArc
  50
128.318875
  51
231.6811277778
   0
ARC
   5
4EA
 330
2
 100
AcDbEntity
   8
2
   6
CONTINUOUS
  62
3
 370
-3
 100
AcDbCircle
  10
59.748891
  20
-51.390151
  40
0.28129
 100
AcDbArc
  50
231.6822055556
  51
51.6811277778
   0
LINE
   5
4EC
 330
2
 100
AcDbEntity
   8
2
   6
CONTINUOUS
  62
3
 370
-3
 100
AcDbLine
  10
59.7489
  20
-51.3901
  11
59.7489
  21
-51.4576
   0
LINE
   5
4EE
 330
2
 100
AcDbEntity
   8
2
   6
CONTINUOUS
  62
3
 370
-3
 100
AcDbLine
  10
59.7489
  20
-51.3901
  11
59.8164
  21
-51.3901
   0
LINE
   5
4F0
 330
2
 100
AcDbEntity
   8
2
   6
CONTINUOUS
  62
3
 370
-3
 100
AcDbLine
  10
59.7489
  20
-51.3901
  11
59.7489
  21
-51.3225
   0
LINE
   5
4F2
 330
2
 100
AcDbEntity
   8
2
   6
CONTINUOUS
  62
3
 370
-3
 100
AcDbLine
  10
59.7489
  20
-51.3901
  11
59.6813
  21
-51.3901
   0
CIRCLE
   5
4F4
 330
2
 100
AcDbEntity
   8
2
   6
CONTINUOUS
  62
3
 370
-3
 100
AcDbCircle
  10
59.748891
  20
-51.390151
  40
0.131647
   0
LINE
   5
4F6
 330
2
 100
AcDbEntity
   8
1
   6
HIDDEN
  62
4
 370
-3
 100
AcDbLine
  10
59.227
  20
-50.9511
  11
59.227
  21
-50.6453
   0
LINE
   5
4F8
 330
2
 100
AcDbEntity
   8
1
   6
HIDDEN
  62
4
 370
-3
 100
AcDbLine
  10
59.227
  20
-53.5271
  11
59.227
  21
-53.0888
   0
LINE
   5
4FA
 330
2
 100
AcDbEntity
   8
1
   6
HIDDEN
  62
4
 370
-3
 100
AcDbLine
  10
59.227
  20
-52.2192
  11
59.227
  21
-51.8207
   0
LINE
   5
4FC
 330
2
 100
AcDbEntity
   8
1
   6
HIDDEN
  62
4
 370
-3
 100
AcDbLine
  10
59.227
  20
-50.6453
  11
58.727
  21
-50.6453
   0
LINE
   5
4FE
 330
2
 100
AcDbEntity
   8
1
   6
HIDDEN
  62
4
 370
-3
 100
AcDbLine
  10
59.227
  20
-53.5271
  11
58.727
  21
-53.5271
   0
LINE
   5
500
 330
2
 100
AcDbEntity
   8
1
   6
CONTINUOUS
  62
3
 370
-3
 100
AcDbLine
  10
58.727
  20
-53.9311
  11
58.727
  21
-50.2649
   0
LINE
   5
502
 330
2
 100
AcDbEntity
   8
1
   6
HIDDEN
  62
4
 370
-3
 100
AcDbLine
  10
61.0208
  20
-50.6453
  11
61.5209
  21
-50.6453
   0
LINE
   5
504
 330
2
 100
AcDbEntity
   8
1
   6
HIDDEN
  62
4
 370
-3
 100
AcDbLine
  10
59.1418
  20
-53.5271
  11
58.852
  21
-53.5271
   0
LINE
   5
506
 330
2
 100
AcDbEntity
   8
1
   6
HIDDEN
  62
4
 370
-3
 100
AcDbLine
  10
61.0208
  20
-53.5271
  11
61.5209
  21
-53.5271
   0
LINE
   5
508
 330
2
 100
AcDbEntity
   8
1
   6
HIDDEN
  62
4
 370
-3
 100
AcDbLine
  10
61.0208
  20
-50.6453
  11
61.0208
  21
-50.9511
   0
LINE
   5
50A
 330
2
 100
AcDbEntity
   8
1
   6
HIDDEN
  62
4
 370
-3
 100
AcDbLine
  10
61.0208
  20
-51.8207
  11
61.0208
  21
-52.2192
   0
LINE
   5
50C
 330
2
 100
AcDbEntity
   8
1
   6
HIDDEN
  62
4
 370
-3
 100
AcDbLine
  10
61.0208
  20
-53.0888
  11
61.0208
  21
-53.5271
   0
LINE
   5
50E
 330
2
 100
AcDbEntity
   8
1
   6
CONTINUOUS
  62
3
 370
-3
 100
AcDbLine
  10
61.5209
  20
-50.6385
  11
61.5209
  21
-53.5574
   0
LINE
   5
510
 330
2
 100
AcDbEntity
   8
2
   6
CONTINUOUS
  62
3
 370
-3
 100
AcDbLine
  10
61.2489
  20
-50.9511
  11
59.8693
  21
-50.9511
   0
LINE
   5
512
 330
2
 100
AcDbEntity
   8
2
   6
CONTINUOUS
  62
3
 370
-3
 100
AcDbLine
  10
59.6285
  20
-50.9511
  11
58.9989
  21
-50.9511
   0
CIRCLE
   5
514
 330
2
 100
AcDbEntity
   8
2
   6
CONTINUOUS
  62
3
 370
-3
 100
AcDbCircle
  10
59.127448
  20
-52.915642
  40
0.067957
   0
CIRCLE
   5
516
 330
2
 100
AcDbEntity
   8
2
   6
CONTINUOUS
  62
3
 370
-3
 100
AcDbCircle
  10
61.126605
  20
-52.915642
  40
0.067957
   0
CIRCLE
   5
518
 330
2
 100
AcDbEntity
   8
2
   6
CONTINUOUS
  62
3
 370
-3
 100
AcDbCircle
  10
61.126605
  20
-52.400947
  40
0.067957
   0
CIRCLE
   5
51A
 330
2
 100
AcDbEntity
   8
2
   6
CONTINUOUS
  62
3
 370
-3
 100
AcDbCircle
  10
59.127448
  20
-52.400947
  40
0.067957
   0
ARC
   5
51C
 330
2
 100
AcDbEntity
   8
2
   6
CONTINUOUS
  62
3
 370
-3
 100
AcDbCircle
  10
59.985307
  20
-52.362243
  40
0.100003
 100
AcDbArc
  50
186.1442527778
  51
231.6811277778
   0
ARC
   5
51E
 330
2
 100
AcDbEntity
   8
2
   6
CONTINUOUS
  62
3
 370
-3
 100
AcDbCircle
  10
59.512475
  20
-52.362243
  40
0.100003
 100
AcDbArc
  50
308.3188722222
  51
353.8557472222
   0
CIRCLE
   5
520
 330
2
 100
AcDbEntity
   8
2
   6
CONTINUOUS
  62
3
 370
-3
 100
AcDbCircle
  10
59.748891
  20
-52.009198
  40
0.033974
   0
CIRCLE
   5
522
 330
2
 100
AcDbEntity
   8
2
   6
CONTINUOUS
  62
3
 370
-3
 100
AcDbCircle
  10
59.748891
  20
-52.163737
  40
0.033974
   0
CIRCLE
   5
524
 330
2
 100
AcDbEntity
   8
2
   6
CONTINUOUS
  62
3
 370
-3
 100
AcDbCircle
  10
59.748891
  20
-52.322285
  40
0.033974
   0
TEXT
   5
526
 330
2
 100
AcDbEntity
   8
2
   6
CONTINUOUS
  62
3
 370
-3
 100
AcDbText
  10
60.7769
  20
-52.8137
  30
0
  40
0.0815
   1
S-148
  50
90
  41
1
  51
0
   7
standard
  71
0
  72
4
  11
60.7361
  21
-52.6472
  31
0
 210
0
 220
0
 230
1
 100
AcDbText
  73
0
   0
TEXT
   5
528
 330
2
 100
AcDbEntity
   8
2
   6
CONTINUOUS
  62
3
 370
-3
 100
AcDbText
  10
60.5689
  20
-52.8738
  30
0
  40
0.0815
   1
FUTABA
  50
90
  41
1
  51
0
   7
standard
  71
0
  72
4
  11
60.5281
  21
-52.6464
  31
0
 210
0
 220
0
 230
1
 100
AcDbText
  73
0
   0
LINE
   5
52A
 330
2
 100
AcDbEntity
   8
2
   6
CONTINUOUS
  62
3
 370
-3
 100
AcDbLine
  10
60.8614
  20
-52.2681
  11
60.3922
  21
-52.2681
   0
LINE
   5
52C
 330
2
 100
AcDbEntity
   8
2
   6
CONTINUOUS
  62
3
 370
-3
 100
AcDbLine
  10
60.8614
  20
-53.0223
  11
60.8614
  21
-52.2681
   0
LINE
   5
52E
 330
2
 100
AcDbEntity
   8
2
   6
CONTINUOUS
  62
3
 370
-3
 100
AcDbLine
  10
60.3922
  20
-53.0223
  11
60.8614
  21
-53.0223
   0
LINE
   5
530
 330
2
 100
AcDbEntity
   8
2
   6
CONTINUOUS
  62
3
 370
-3
 100
AcDbLine
  10
60.3922
  20
-52.2681
  11
60.3922
  21
-53.0223
   0
LINE
   5
532
 330
2
 100
AcDbEntity
   8
2
   6
CONTINUOUS
  62
3
 370
-3
 100
AcDbLine
  10
58.9989
  20
-53.0888
  11
61.2489
  21
-53.0888
   0
LINE
   5
534
 330
2
 100
AcDbEntity
   8
2
   6
CONTINUOUS
  62
3
 370
-3
 100
AcDbLine
  10
59.6511
  20
-52.0092
  11
59.6118
  21
-52.373
   0
LINE
   5
536
 330
2
 100
AcDbEntity
   8
2
   6
CONTINUOUS
  62
3
 370
-3
 100
AcDbLine
  10
59.8467
  20
-52.0092
  11
59.8859
  21
-52.373
   0
ARC
   5
538
 330
2
 100
AcDbEntity
   8
2
   6
CONTINUOUS
  62
3
 370
-3
 100
AcDbCircle
  10
59.748891
  20
-52.009198
  40
0.097829
 100
AcDbArc
  50
360
  51
180
   0
LINE
   5
53A
 330
2
 100
AcDbEntity
   8
2
   6
CONTINUOUS
  62
3
 370
-3
 100
AcDbLine
  10
60.999
  20
-52.2192
  11
60.999
  21
-53.0888
   0
LINE
   5
53C
 330
2
 100
AcDbEntity
   8
2
   6
CONTINUOUS
  62
3
 370
-3
 100
AcDbLine
  10
59.2489
  20
-52.2192
  11
59.2489
  21
-53.0888
   0
LINE
   5
53E
 330
2
 100
AcDbEntity
   8
2
   6
CONTINUOUS
  62
3
 370
-3
 100
AcDbLine
  10
61.2489
  20
-53.0888
  11
61.2489
  21
-52.2192
   0
LINE
   5
540
 330
2
 100
AcDbEntity
   8
2
   6
CONTINUOUS
  62
3
 370
-3
 100
AcDbLine
  10
58.9989
  20
-52.2192
  11
58.9989
  21
-53.0888
   0
ARC
   5
542
 330
2
 100
AcDbEntity
   8
2
   6
CONTINUOUS
  62
3
 370
-3
 100
AcDbCircle
  10
59.748891
  20
-52.658294
  40
0.28129
 100
AcDbArc
  50
128.318875
  51
231.6811277778
   0
ARC
   5
544
 330
2
 100
AcDbEntity
   8
2
   6
CONTINUOUS
  62
3
 370
-3
 100
AcDbCircle
  10
59.748891
  20
-52.658294
  40
0.28129
 100
AcDbArc
  50
231.6822055556
  51
51.6811277778
   0
LINE
   5
546
 330
2
 100
AcDbEntity
   8
2
   6
CONTINUOUS
  62
3
 370
-3
 100
AcDbLine
  10
59.7489
  20
-52.6583
  11
59.7489
  21
-52.7259
   0
LINE
   5
548
 330
2
 100
AcDbEntity
   8
2
   6
CONTINUOUS
  62
3
 370
-3
 100
AcDbLine
  10
59.7489
  20
-52.6583
  11
59.8164
  21
-52.6583
   0
LINE
   5
54A
 330
2
 100
AcDbEntity
   8
2
   6
CONTINUOUS
  62
3
 370
-3
 100
AcDbLine
  10
59.7489
  20
-52.6583
  11
59.7489
  21
-52.5907
   0
LINE
   5
54C
 330
2
 100
AcDbEntity
   8
2
   6
CONTINUOUS
  62
3
 370
-3
 100
AcDbLine
  10
59.7489
  20
-52.6583
  11
59.6813
  21
-52.6583
   0
CIRCLE
   5
54E
 330
2
 100
AcDbEntity
   8
2
   6
CONTINUOUS
  62
3
 370
-3
 100
AcDbCircle
  10
59.748891
  20
-52.658294
  40
0.131647
   0
LINE
   5
550
 330
2
 100
AcDbEntity
   8
2
   6
CONTINUOUS
  62
3
 370
-3
 100
AcDbLine
  10
61.2489
  20
-52.2192
  11
59.8693
  21
-52.2192
   0
LINE
   5
552
 330
2
 100
AcDbEntity
   8
2
   6
CONTINUOUS
  62
3
 370
-3
 100
AcDbLine
  10
59.6285
  20
-52.2192
  11
58.9989
  21
-52.2192
   0
LINE
   5
554
 330
2
 100
AcDbEntity
   8
6
   6
CENTER
  62
1
 370
-3
 100
AcDbLine
  10
65.0437
  20
-53.8581
  11
70.9542
  21
-53.8581
   0
CIRCLE
   5
556
 330
2
 100
AcDbEntity
   8
6
   6
CONTINUOUS
  62
3
 370
-3
 100
AcDbCircle
  10
68.031706
  20
-53.858108
  40
1.250043
   0
CIRCLE
   5
558
 330
2
 100
AcDbEntity
   8
6
   6
CONTINUOUS
  62
3
 370
-3
 100
AcDbCircle
  10
68.031706
  20
-53.858108
  40
0.87503
   0
CIRCLE
   5
55A
 330
2
 100
AcDbEntity
   8
6
   6
CONTINUOUS
  62
3
 370
-3
 100
AcDbCircle
  10
65.805231
  20
-46.382923
  40
1.250043
   0
CIRCLE
   5
55C
 330
2
 100
AcDbEntity
   8
6
   6
CONTINUOUS
  62
3
 370
-3
 100
AcDbCircle
  10
65.805231
  20
-46.382923
  40
0.87503
   0
LINE
   5
55E
 330
2
 100
AcDbEntity
   8
6
   6
CONTINUOUS
  62
3
 370
-3
 100
AcDbLine
  10
64.4614
  20
-46.383
  11
64.4614
  21
-48.6557
   0
LINE
   5
560
 330
2
 100
AcDbEntity
   8
6
   6
CONTINUOUS
  62
3
 370
-3
 100
AcDbLine
  10
67.149
  20
-46.383
  11
67.149
  21
-48.6557
   0
LINE
   5
562
 330
2
 100
AcDbEntity
   8
4
   6
HIDDEN
  62
4
 370
-3
 100
AcDbLine
  10
63.8898
  20
-49.4165
  11
67.7207
  21
-49.4165
   0
ARC
   5
564
 330
2
 100
AcDbEntity
   8
6
   6
CONTINUOUS
  62
3
 370
-3
 100
AcDbCircle
  10
65.805231
  20
-46.382923
  40
1.343796
 100
AcDbArc
  50
0
  51
180
   0
LINE
   5
566
 330
2
 100
AcDbEntity
   8
6
   6
HIDDEN
  62
4
 370
-3
 100
AcDbLine
  10
66.5241
  20
-47.4056
  11
66.5241
  21
-49.4165
   0
LINE
   5
568
 330
2
 100
AcDbEntity
   8
6
   6
HIDDEN
  62
4
 370
-3
 100
AcDbLine
  10
65.0864
  20
-47.4056
  11
65.0864
  21
-49.4165
   0
LINE
   5
56A
 330
2
 100
AcDbEntity
   8
6
   6
CONTINUOUS
  62
3
 370
-3
 100
AcDbLine
  10
65.4613
  20
-49.6557
  11
66.1491
  21
-49.6557
   0
ARC
   5
56C
 330
2
 100
AcDbEntity
   8
6
   6
CONTINUOUS
  62
3
 370
-3
 100
AcDbCircle
  10
65.461419
  20
-48.6557
  40
1.000034
 100
AcDbArc
  50
180
  51
270
   0
ARC
   5
56E
 330
2
 100
AcDbEntity
   8
6
   6
CONTINUOUS
  62
3
 370
-3
 100
AcDbCircle
  10
66.149042
  20
-48.6557
  40
1.000034
 100
AcDbArc
  50
270
  51
360
   0
LINE
   5
570
 330
2
 100
AcDbEntity
   8
5
   6
CONTINUOUS
  62
3
 370
-3
 100
AcDbLine
  10
66.3053
  20
-48.0484
  11
66.3053
  21
-48.8227
   0
LINE
   5
572
 330
2
 100
AcDbEntity
   8
5
   6
CONTINUOUS
  62
3
 370
-3
 100
AcDbLine
  10
65.3052
  20
-48.0484
  11
65.3052
  21
-48.8227
   0
LINE
   5
574
 330
2
 100
AcDbEntity
   8
6
   6
CONTINUOUS
  62
3
 370
-3
 100
AcDbLine
  10
65.5553
  20
-47.7984
  11
66.0552
  21
-47.7984
   0
LINE
   5
576
 330
2
 100
AcDbEntity
   8
6
   6
CONTINUOUS
  62
3
 370
-3
 100
AcDbLine
  10
65.5553
  20
-49.0728
  11
66.0552
  21
-49.0728
   0
ARC
   5
578
 330
2
 100
AcDbEntity
   8
6
   6
CONTINUOUS
  62
3
 370
-3
 100
AcDbCircle
  10
66.055239
  20
-48.048379
  40
0.250009
 100
AcDbArc
  50
0
  51
90
   0
ARC
   5
57A
 330
2
 100
AcDbEntity
   8
6
   6
CONTINUOUS
  62
3
 370
-3
 100
AcDbCircle
  10
66.055239
  20
-48.822806
  40
0.250009
 100
AcDbArc
  50
270
  51
0
   0
ARC
   5
57C
 330
2
 100
AcDbEntity
   8
6
   6
CONTINUOUS
  62
3
 370
-3
 100
AcDbCircle
  10
65.555222
  20
-48.048379
  40
0.250009
 100
AcDbArc
  50
90
  51
180
   0
ARC
   5
57E
 330
2
 100
AcDbEntity
   8
6
   6
CONTINUOUS
  62
3
 370
-3
 100
AcDbCircle
  10
65.555222
  20
-48.822806
  40
0.250009
 100
AcDbArc
  50
180
  51
270
   0
LINE
   5
580
 330
2
 100
AcDbEntity
   8
4
   6
HIDDEN
  62
4
 370
-3
 100
AcDbLine
  10
64.0216
  20
-49.6665
  11
67.589
  21
-49.6665
   0
CIRCLE
   5
582
 330
2
 100
AcDbEntity
   8
6
   6
CONTINUOUS
  62
3
 370
-3
 100
AcDbCircle
  10
68.031706
  20
-53.858108
  40
1.312545
   0
LINE
   5
584
 330
2
 100
AcDbEntity
   8
2
   6
CONTINUOUS
  62
3
 370
-3
 100
AcDbLine
  10
19.2059
  20
-56.8418
  11
19.081
  21
-56.858
   0
LINE
   5
586
 330
2
 100
AcDbEntity
   8
2
   6
CONTINUOUS
  62
3
 370
-3
 100
AcDbLine
  10
-2.0291
  20
-59.5824
  11
-2.1542
  21
-59.5985
   0
LINE
   5
588
 330
2
 100
AcDbEntity
   8
1
   6
CONTINUOUS
  62
3
 370
-3
 100
AcDbLine
  10
19.081
  20
-71.7987
  11
-6.1544
  21
-68.5421
   0
LINE
   5
58A
 330
2
 100
AcDbEntity
   8
2
   6
CONTINUOUS
  62
3
 370
-3
 100
AcDbLine
  10
19.2059
  20
-69.5459
  11
19.081
  21
-69.5299
   0
LINE
   5
58C
 330
2
 100
AcDbEntity
   8
2
   6
CONTINUOUS
  62
3
 370
-3
 100
AcDbLine
  10
17.9715
  20
-57.0012
  11
17.8465
  21
-57.0173
   0
LINE
   5
58E
 330
2
 100
AcDbEntity
   8
2
   6
CONTINUOUS
  62
3
 370
-3
 100
AcDbLine
  10
13.9714
  20
-57.5174
  11
13.8464
  21
-57.5335
   0
LINE
   5
590
 330
2
 100
AcDbEntity
   8
2
   6
CONTINUOUS
  62
3
 370
-3
 100
AcDbLine
  10
9.9713
  20
-58.0335
  11
9.8463
  21
-58.0497
   0
LINE
   5
592
 330
2
 100
AcDbEntity
   8
2
   6
CONTINUOUS
  62
3
 370
-3
 100
AcDbLine
  10
5.9711
  20
-58.5498
  11
5.8461
  21
-58.566
   0
LINE
   5
594
 330
2
 100
AcDbEntity
   8
2
   6
CONTINUOUS
  62
3
 370
-3
 100
AcDbLine
  10
1.971
  20
-59.0661
  11
1.846
  21
-59.0822
   0
LINE
   5
596
 330
2
 100
AcDbEntity
   8
2
   6
CONTINUOUS
  62
3
 370
-3
 100
AcDbLine
  10
1.846
  20
-59.3344
  11
-2.0291
  21
-59.8345
   0
LINE
   5
598
 330
2
 100
AcDbEntity
   8
2
   6
CONTINUOUS
  62
3
 370
-3
 100
AcDbLine
  10
5.8461
  20
-58.8181
  11
1.971
  21
-59.3182
   0
LINE
   5
59A
 330
2
 100
AcDbEntity
   8
2
   6
CONTINUOUS
  62
3
 370
-3
 100
AcDbLine
  10
9.8463
  20
-58.3018
  11
5.9711
  21
-58.8019
   0
LINE
   5
59C
 330
2
 100
AcDbEntity
   8
2
   6
CONTINUOUS
  62
3
 370
-3
 100
AcDbLine
  10
13.8464
  20
-57.7857
  11
9.9713
  21
-58.2857
   0
LINE
   5
59E
 330
2
 100
AcDbEntity
   8
2
   6
CONTINUOUS
  62
3
 370
-3
 100
AcDbLine
  10
19.081
  20
-57.1101
  11
17.9715
  21
-57.2532
   0
LINE
   5
5A0
 330
2
 100
AcDbEntity
   8
2
   6
CONTINUOUS
  62
3
 370
-3
 100
AcDbLine
  10
17.8465
  20
-57.2694
  11
13.9714
  21
-57.7696
   0
LINE
   5
5A2
 330
2
 100
AcDbEntity
   8
2
   6
CONTINUOUS
  62
3
 370
-3
 100
AcDbLine
  10
1.971
  20
-67.3218
  11
1.846
  21
-67.3057
   0
LINE
   5
5A4
 330
2
 100
AcDbEntity
   8
2
   6
CONTINUOUS
  62
3
 370
-3
 100
AcDbLine
  10
5.9711
  20
-67.8379
  11
5.8461
  21
-67.8218
   0
LINE
   5
5A6
 330
2
 100
AcDbEntity
   8
2
   6
CONTINUOUS
  62
3
 370
-3
 100
AcDbLine
  10
5.8461
  20
-67.6958
  11
1.971
  21
-67.1957
   0
LINE
   5
5A8
 330
2
 100
AcDbEntity
   8
2
   6
CONTINUOUS
  62
3
 370
-3
 100
AcDbLine
  10
1.846
  20
-67.1797
  11
-6.1544
  21
-66.1473
   0
LINE
   5
5AA
 330
2
 100
AcDbEntity
   8
2
   6
CONTINUOUS
  62
3
 370
-3
 100
AcDbLine
  10
9.9713
  20
-68.3542
  11
9.8463
  21
-68.3382
   0
LINE
   5
5AC
 330
2
 100
AcDbEntity
   8
2
   6
CONTINUOUS
  62
3
 370
-3
 100
AcDbLine
  10
13.9714
  20
-68.8704
  11
13.8464
  21
-68.8542
   0
LINE
   5
5AE
 330
2
 100
AcDbEntity
   8
2
   6
CONTINUOUS
  62
3
 370
-3
 100
AcDbLine
  10
13.8464
  20
-68.7283
  11
9.9713
  21
-68.2281
   0
LINE
   5
5B0
 330
2
 100
AcDbEntity
   8
2
   6
CONTINUOUS
  62
3
 370
-3
 100
AcDbLine
  10
9.8463
  20
-68.2121
  11
5.9711
  21
-67.712
   0
LINE
   5
5B2
 330
2
 100
AcDbEntity
   8
2
   6
CONTINUOUS
  62
3
 370
-3
 100
AcDbLine
  10
17.9715
  20
-69.3867
  11
17.8465
  21
-69.3705
   0
LINE
   5
5B4
 330
2
 100
AcDbEntity
   8
2
   6
CONTINUOUS
  62
3
 370
-3
 100
AcDbLine
  10
19.081
  20
-69.4038
  11
17.9715
  21
-69.2606
   0
LINE
   5
5B6
 330
2
 100
AcDbEntity
   8
2
   6
CONTINUOUS
  62
3
 370
-3
 100
AcDbLine
  10
17.8465
  20
-69.2446
  11
13.9714
  21
-68.7444
   0
LINE
   5
5B8
 330
2
 100
AcDbEntity
   8
2
   6
CONTINUOUS
  62
3
 370
-3
 100
AcDbLine
  10
-2.0291
  20
-59.5824
  11
-2.0291
  21
-62.6622
   0
LINE
   5
5BA
 330
2
 100
AcDbEntity
   8
2
   6
CONTINUOUS
  62
3
 370
-3
 100
AcDbLine
  10
-2.0291
  20
-63.0377
  11
-2.0291
  21
-66.6796
   0
LINE
   5
5BC
 330
2
 100
AcDbEntity
   8
2
   6
CONTINUOUS
  62
3
 370
-3
 100
AcDbLine
  10
1.846
  20
-59.0822
  11
1.846
  21
-62.4955
   0
LINE
   5
5BE
 330
2
 100
AcDbEntity
   8
2
   6
CONTINUOUS
  62
3
 370
-3
 100
AcDbLine
  10
1.846
  20
-62.8709
  11
1.846
  21
-67.3057
   0
LINE
   5
5C0
 330
2
 100
AcDbEntity
   8
2
   6
CONTINUOUS
  62
3
 370
-3
 100
AcDbLine
  10
5.8461
  20
-58.566
  11
5.8461
  21
-62.3236
   0
LINE
   5
5C2
 330
2
 100
AcDbEntity
   8
2
   6
CONTINUOUS
  62
3
 370
-3
 100
AcDbLine
  10
5.8461
  20
-62.6989
  11
5.8461
  21
-67.8218
   0
LINE
   5
5C4
 330
2
 100
AcDbEntity
   8
2
   6
CONTINUOUS
  62
3
 370
-3
 100
AcDbLine
  10
9.8463
  20
-58.0497
  11
9.8463
  21
-62.1516
   0
LINE
   5
5C6
 330
2
 100
AcDbEntity
   8
2
   6
CONTINUOUS
  62
3
 370
-3
 100
AcDbLine
  10
9.8463
  20
-62.5268
  11
9.8463
  21
-68.3382
   0
LINE
   5
5C8
 330
2
 100
AcDbEntity
   8
2
   6
CONTINUOUS
  62
3
 370
-3
 100
AcDbLine
  10
13.8464
  20
-57.5335
  11
13.8464
  21
-61.9793
   0
LINE
   5
5CA
 330
2
 100
AcDbEntity
   8
2
   6
CONTINUOUS
  62
3
 370
-3
 100
AcDbLine
  10
13.8464
  20
-62.3548
  11
13.8464
  21
-68.8542
   0
LINE
   5
5CC
 330
2
 100
AcDbEntity
   8
2
   6
CONTINUOUS
  62
3
 370
-3
 100
AcDbLine
  10
13.9714
  20
-57.5173
  11
13.9714
  21
-61.974
   0
LINE
   5
5CE
 330
2
 100
AcDbEntity
   8
2
   6
CONTINUOUS
  62
3
 370
-3
 100
AcDbLine
  10
13.9714
  20
-62.3494
  11
13.9714
  21
-68.8704
   0
LINE
   5
5D0
 330
2
 100
AcDbEntity
   8
2
   6
CONTINUOUS
  62
3
 370
-3
 100
AcDbLine
  10
9.9713
  20
-58.0335
  11
9.9713
  21
-62.1461
   0
LINE
   5
5D2
 330
2
 100
AcDbEntity
   8
2
   6
CONTINUOUS
  62
3
 370
-3
 100
AcDbLine
  10
9.9713
  20
-62.5213
  11
9.9713
  21
-68.3542
   0
LINE
   5
5D4
 330
2
 100
AcDbEntity
   8
2
   6
CONTINUOUS
  62
3
 370
-3
 100
AcDbLine
  10
1.971
  20
-59.0661
  11
1.971
  21
-62.4903
   0
LINE
   5
5D6
 330
2
 100
AcDbEntity
   8
2
   6
CONTINUOUS
  62
3
 370
-3
 100
AcDbLine
  10
1.971
  20
-62.8656
  11
1.971
  21
-67.3218
   0
LINE
   5
5D8
 330
2
 100
AcDbEntity
   8
2
   6
CONTINUOUS
  62
3
 370
-3
 100
AcDbLine
  10
5.9711
  20
-58.5498
  11
5.9711
  21
-62.3182
   0
LINE
   5
5DA
 330
2
 100
AcDbEntity
   8
2
   6
CONTINUOUS
  62
3
 370
-3
 100
AcDbLine
  10
5.9711
  20
-62.6934
  11
5.9711
  21
-67.8379
   0
LINE
   5
5DC
 330
2
 100
AcDbEntity
   8
2
   6
CONTINUOUS
  62
3
 370
-3
 100
AcDbLine
  10
17.8465
  20
-57.0173
  11
17.8465
  21
-61.8073
   0
LINE
   5
5DE
 330
2
 100
AcDbEntity
   8
2
   6
CONTINUOUS
  62
3
 370
-3
 100
AcDbLine
  10
17.8465
  20
-62.1826
  11
17.8465
  21
-69.3705
   0
LINE
   5
5E0
 330
2
 100
AcDbEntity
   8
2
   6
CONTINUOUS
  62
3
 370
-3
 100
AcDbLine
  10
17.9715
  20
-57.001
  11
17.9715
  21
-61.802
   0
LINE
   5
5E2
 330
2
 100
AcDbEntity
   8
2
   6
CONTINUOUS
  62
3
 370
-3
 100
AcDbLine
  10
17.9715
  20
-62.1773
  11
17.9715
  21
-69.3867
   0
LINE
   5
5E4
 330
2
 100
AcDbEntity
   8
2
   6
CONTINUOUS
  62
3
 370
-3
 100
AcDbLine
  10
19.081
  20
-56.858
  11
19.081
  21
-61.7543
   0
LINE
   5
5E6
 330
2
 100
AcDbEntity
   8
2
   6
CONTINUOUS
  62
3
 370
-3
 100
AcDbLine
  10
19.081
  20
-62.1296
  11
19.081
  21
-69.5299
   0
LINE
   5
5E8
 330
2
 100
AcDbEntity
   8
2
   6
CONTINUOUS
  62
3
 370
-3
 100
AcDbLine
  10
19.2059
  20
-56.3378
  11
19.2059
  21
-61.7489
   0
LINE
   5
5EA
 330
2
 100
AcDbEntity
   8
2
   6
CONTINUOUS
  62
3
 370
-3
 100
AcDbLine
  10
19.2059
  20
-61.7489
  11
19.2059
  21
-71.8148
   0
LINE
   5
5EC
 330
2
 100
AcDbEntity
   8
1
   6
CONTINUOUS
  62
3
 370
-3
 100
AcDbLine
  10
19.2059
  20
-69.7981
  11
-6.1544
  21
-66.5254
   0
LINE
   5
5EE
 330
2
 100
AcDbEntity
   8
2
   6
DIVIDE
  62
6
 370
-3
 100
AcDbLine
  10
19.2059
  20
-66.7732
  11
-6.1544
  21
-63.5003
   0
LINE
   5
5F0
 330
2
 100
AcDbEntity
   8
2
   6
DIVIDE
  62
6
 370
-3
 100
AcDbLine
  10
19.2059
  20
-61.9992
  11
-6.1544
  21
-63.0902
   0
LINE
   5
5F2
 330
2
 100
AcDbEntity
   8
2
   6
HIDDEN
  62
4
 370
-3
 100
AcDbLine
  10
19.2059
  20
-61.7489
  11
-6.1544
  21
-62.8397
   0
LINE
   5
5F4
 330
2
 100
AcDbEntity
   8
2
   6
CONTINUOUS
  62
3
 370
-3
 100
AcDbLine
  10
19.2059
  20
-62.1241
  11
-6.1544
  21
-63.2151
   0
LINE
   5
5F6
 330
2
 100
AcDbEntity
   8
2
   6
CONTINUOUS
  62
3
 370
-3
 100
AcDbLine
  10
-6.1544
  20
-59.9575
  11
-6.1544
  21
-68.5421
   0
LINE
   5
5F8
 330
2
 100
AcDbEntity
   8
2
   6
CONTINUOUS
  62
3
 370
-3
 100
AcDbLine
  10
-2.1542
  20
-59.8506
  11
-6.0293
  21
-60.3509
   0
LINE
   5
5FA
 330
2
 100
AcDbEntity
   8
2
   6
CONTINUOUS
  62
3
 370
-3
 100
AcDbLine
  10
-6.0293
  20
-60.0976
  11
-6.1544
  21
-60.1137
   0
LINE
   5
5FC
 330
2
 100
AcDbEntity
   8
2
   6
CONTINUOUS
  62
3
 370
-3
 100
AcDbLine
  10
-6.0293
  20
-60.0976
  11
-6.0293
  21
-62.8345
   0
LINE
   5
5FE
 330
2
 100
AcDbEntity
   8
2
   6
CONTINUOUS
  62
3
 370
-3
 100
AcDbLine
  10
-6.0293
  20
-63.2151
  11
-6.0293
  21
-66.1633
   0
LINE
   5
600
 330
2
 100
AcDbEntity
   8
2
   6
CONTINUOUS
  62
3
 370
-3
 100
AcDbLine
  10
-2.1542
  20
-59.5985
  11
-2.1542
  21
-62.6703
   0
LINE
   5
602
 330
2
 100
AcDbEntity
   8
2
   6
CONTINUOUS
  62
3
 370
-3
 100
AcDbLine
  10
-2.1542
  20
-63.0458
  11
-2.1542
  21
-66.6634
   0
LINE
   5
604
 330
2
 100
AcDbEntity
   8
1
   6
CONTINUOUS
  62
3
 370
-3
 100
AcDbLine
  10
20.7364
  20
-56.1403
  11
19.2059
  21
-56.3378
   0
LINE
   5
606
 330
2
 100
AcDbEntity
   8
2
   6
CONTINUOUS
  62
3
 370
-3
 100
AcDbLine
  10
19.3309
  20
-56.8257
  11
19.2059
  21
-56.8418
   0
LINE
   5
608
 330
2
 100
AcDbEntity
   8
2
   6
CONTINUOUS
  62
3
 370
-3
 100
AcDbLine
  10
19.3309
  20
-69.5622
  11
19.2059
  21
-69.5459
   0
LINE
   5
60A
 330
2
 100
AcDbEntity
   8
2
   6
DIVIDE
  62
6
 370
-3
 100
AcDbLine
  10
20.7364
  20
-66.9707
  11
19.2059
  21
-66.7732
   0
LINE
   5
60C
 330
2
 100
AcDbEntity
   8
2
   6
CONTINUOUS
  62
3
 370
-3
 100
AcDbLine
  10
20.6686
  20
-56.6531
  11
20.5436
  21
-56.6691
   0
LINE
   5
60E
 330
2
 100
AcDbEntity
   8
2
   6
CONTINUOUS
  62
3
 370
-3
 100
AcDbLine
  10
20.5436
  20
-56.9214
  11
19.3309
  21
-57.0779
   0
LINE
   5
610
 330
2
 100
AcDbEntity
   8
2
   6
CONTINUOUS
  62
3
 370
-3
 100
AcDbLine
  10
20.5436
  20
-69.5925
  11
19.3309
  21
-69.436
   0
LINE
   5
612
 330
2
 100
AcDbEntity
   8
2
   6
CONTINUOUS
  62
3
 370
-3
 100
AcDbLine
  10
20.7364
  20
-69.6174
  11
20.6686
  21
-69.6087
   0
LINE
   5
614
 330
2
 100
AcDbEntity
   8
2
   6
CONTINUOUS
  62
3
 370
-3
 100
AcDbLine
  10
20.6686
  20
-69.7345
  11
20.5436
  21
-69.7185
   0
LINE
   5
616
 330
2
 100
AcDbEntity
   8
2
   6
CONTINUOUS
  62
3
 370
-3
 100
AcDbLine
  10
20.7364
  20
-56.8964
  11
20.6686
  21
-56.9052
   0
LINE
   5
618
 330
2
 100
AcDbEntity
   8
2
   6
CONTINUOUS
  62
3
 370
-3
 100
AcDbLine
  10
20.7364
  20
-69.9957
  11
19.2059
  21
-69.7982
   0
LINE
   5
61A
 330
2
 100
AcDbEntity
   8
2
   6
CONTINUOUS
  62
3
 370
-3
 100
AcDbLine
  10
19.2059
  20
-56.3378
  11
19.2059
  21
-61.7489
   0
LINE
   5
61C
 330
2
 100
AcDbEntity
   8
2
   6
CONTINUOUS
  62
3
 370
-3
 100
AcDbLine
  10
19.2059
  20
-61.7489
  11
19.2059
  21
-69.7982
   0
LINE
   5
61E
 330
2
 100
AcDbEntity
   8
2
   6
CONTINUOUS
  62
3
 370
-3
 100
AcDbLine
  10
19.3309
  20
-56.8257
  11
19.3309
  21
-69.5622
   0
LINE
   5
620
 330
2
 100
AcDbEntity
   8
2
   6
CONTINUOUS
  62
3
 370
-3
 100
AcDbLine
  10
20.5436
  20
-56.6691
  11
20.5436
  21
-69.7185
   0
LINE
   5
622
 330
2
 100
AcDbEntity
   8
2
   6
CONTINUOUS
  62
3
 370
-3
 100
AcDbLine
  10
20.6686
  20
-56.6531
  11
20.6686
  21
-69.7345
   0
LINE
   5
624
 330
2
 100
AcDbEntity
   8
1
   6
CONTINUOUS
  62
3
 370
-3
 100
AcDbLine
  10
20.7364
  20
-72.0124
  11
19.081
  21
-71.7987
   0
LINE
   5
626
 330
2
 100
AcDbEntity
   8
1
   6
HIDDEN
  62
30
 370
-3
 100
AcDbLine
  10
20.7364
  20
-61.7489
  11
19.2059
  21
-61.7489
   0
LINE
   5
628
 330
2
 100
AcDbEntity
   8
1
   6
HIDDEN
  62
30
 370
-3
 100
AcDbLine
  10
20.7364
  20
-62.1239
  11
19.2059
  21
-62.1239
   0
LINE
   5
62A
 330
2
 100
AcDbEntity
   8
1
   6
DIVIDE
  62
6
 370
-3
 100
AcDbLine
  10
19.2059
  20
-61.9992
  11
20.7364
  21
-61.9992
   0
LINE
   5
62C
 330
2
 100
AcDbEntity
   8
1
   6
HIDDEN
  62
30
 370
-3
 100
AcDbLine
  10
20.7364
  20
-58.1879
  11
19.2059
  21
-58.1879
   0
LINE
   5
62E
 330
2
 100
AcDbEntity
   8
1
   6
HIDDEN
  62
30
 370
-3
 100
AcDbLine
  10
20.7364
  20
-57.8129
  11
19.2059
  21
-57.8129
   0
LINE
   5
630
 330
2
 100
AcDbEntity
   8
0
   6
HIDDEN
  62
253
 370
-3
 100
AcDbLine
  10
13.8464
  20
-61.3459
  11
20.7364
  21
-61.3459
   0
LINE
   5
632
 330
2
 100
AcDbEntity
   8
0
   6
HIDDEN
  62
253
 370
-3
 100
AcDbLine
  10
13.8464
  20
-60.7208
  11
20.7364
  21
-60.7208
   0
LINE
   5
634
 330
2
 100
AcDbEntity
   8
7
   6
HIDDEN
  62
46
 370
-3
 100
AcDbLine
  10
13.8464
  20
-60.6895
  11
20.7364
  21
-60.6895
   0
ARC
   5
636
 330
2
 100
AcDbEntity
   8
10
   6
CONTINUOUS
  62
3
 370
-3
 100
AcDbCircle
  10
-1.042071
  20
-43.339371
  40
25.715976
 100
AcDbArc
  50
240.5567833333
  51
258.5335361111
   0
ARC
   5
638
 330
2
 100
AcDbEntity
   8
10
   6
CONTINUOUS
  62
3
 370
-3
 100
AcDbCircle
  10
-13.33893
  20
-65.124345
  40
0.700024
 100
AcDbArc
  50
144.4469944444
  51
240.5567833333
   0
LINE
   5
63A
 330
2
 100
AcDbEntity
   8
1
   6
CONTINUOUS
  62
3
 370
-3
 100
AcDbLine
  10
19.2059
  20
-56.3378
  11
-2.8831
  21
-59.1885
   0
ARC
   5
63C
 330
2
 100
AcDbEntity
   8
10
   6
CONTINUOUS
  62
3
 370
-3
 100
AcDbCircle
  10
-0.043853
  20
-78.607687
  40
19.625688
 100
AcDbArc
  50
98.3183166667
  51
134.9468277778
   0
LINE
   5
63E
 330
2
 100
AcDbEntity
   8
10
   6
CONTINUOUS
  62
2
 370
-3
 100
AcDbLine
  10
-10.8382
  20
-65.9876
  11
-8.9113
  21
-66.6528
   0
LINE
   5
640
 330
2
 100
AcDbEntity
   8
10
   6
CONTINUOUS
  62
2
 370
-3
 100
AcDbLine
  10
-8.9113
  20
-66.6528
  11
-7.2632
  21
-67.2217
   0
LINE
   5
642
 330
2
 100
AcDbEntity
   8
10
   6
CONTINUOUS
  62
2
 370
-3
 100
AcDbLine
  10
-7.309
  20
-61.4924
  11
-8.9113
  21
-62.3659
   0
LINE
   5
644
 330
2
 100
AcDbEntity
   8
10
   6
CONTINUOUS
  62
2
 370
-3
 100
AcDbLine
  10
-8.9113
  20
-62.3659
  11
-10.8841
  21
-63.4413
   0
LINE
   5
646
 330
2
 100
AcDbEntity
   8
2
   6
CONTINUOUS
  62
2
 370
-3
 100
AcDbLine
  10
-6.2793
  20
-60.3983
  11
-6.2793
  21
-68.2644
   0
LINE
   5
648
 330
2
 100
AcDbEntity
   8
10
   6
CONTINUOUS
  62
2
 370
-3
 100
AcDbLine
  10
-6.2793
  20
-60.3983
  11
-6.1544
  21
-60.3459
   0
LINE
   5
64A
 330
2
 100
AcDbEntity
   8
10
   6
CONTINUOUS
  62
2
 370
-3
 100
AcDbLine
  10
-6.2793
  20
-68.2644
  11
-6.1544
  21
-68.3019
   0
LINE
   5
64C
 330
2
 100
AcDbEntity
   8
2
   6
CONTINUOUS
  62
3
 370
-3
 100
AcDbLine
  10
20.7364
  20
-59.9213
  11
19.2059
  21
-60.1188
   0
LINE
   5
64E
 330
2
 100
AcDbEntity
   8
2
   6
CONTINUOUS
  62
3
 370
-3
 100
AcDbLine
  10
20.7364
  20
-66.5922
  11
19.2059
  21
-66.3947
   0
LINE
   5
650
 330
2
 100
AcDbEntity
   8
2
   6
CONTINUOUS
  62
3
 370
-3
 100
AcDbLine
  10
20.7364
  20
-63.5673
  11
19.2059
  21
-63.3698
   0
LINE
   5
652
 330
2
 100
AcDbEntity
   8
2
   6
CONTINUOUS
  62
3
 370
-3
 100
AcDbLine
  10
20.7364
  20
-62.9463
  11
19.2059
  21
-63.1438
   0
LINE
   5
654
 330
2
 100
AcDbEntity
   8
12
   6
HIDDEN
  62
4
 370
-3
 100
AcDbLine
  10
19.2059
  20
-62.4216
  11
20.5437
  21
-62.4216
   0
LINE
   5
656
 330
2
 100
AcDbEntity
   8
12
   6
HIDDEN
  62
4
 370
-3
 100
AcDbLine
  10
19.2059
  20
-62.9218
  11
20.5437
  21
-62.9218
   0
LINE
   5
658
 330
2
 100
AcDbEntity
   8
12
   6
HIDDEN
  62
4
 370
-3
 100
AcDbLine
  10
19.6145
  20
-62.5931
  11
19.2008
  21
-62.5931
   0
LINE
   5
65A
 330
2
 100
AcDbEntity
   8
12
   6
HIDDEN
  62
4
 370
-3
 100
AcDbLine
  10
19.6145
  20
-62.7246
  11
19.2007
  21
-62.7246
   0
ARC
   5
65C
 330
2
 100
AcDbEntity
   8
12
   6
HIDDEN
  62
4
 370
-3
 100
AcDbCircle
  10
19.562868
  20
-62.910322
  40
0.321436
 100
AcDbArc
  50
51.4932694444
  51
80.7289694444
   0
ARC
   5
65E
 330
2
 100
AcDbEntity
   8
12
   6
HIDDEN
  62
4
 370
-3
 100
AcDbCircle
  10
19.562868
  20
-62.407253
  40
0.321436
 100
AcDbArc
  50
279.2710305556
  51
308.5067305556
   0
LINE
   5
660
 330
2
 100
AcDbEntity
   8
12
   6
HIDDEN
  62
4
 370
-3
 100
AcDbLine
  10
19.081
  20
-62.3086
  11
19.2059
  21
-62.3086
   0
LINE
   5
662
 330
2
 100
AcDbEntity
   8
12
   6
HIDDEN
  62
4
 370
-3
 100
AcDbLine
  10
19.081
  20
-63.0214
  11
19.2059
  21
-63.0214
   0
LINE
   5
664
 330
2
 100
AcDbEntity
   8
12
   6
HIDDEN
  62
4
 370
-3
 100
AcDbLine
  10
18.2336
  20
-62.6217
  11
18.9515
  21
-62.6217
   0
LINE
   5
666
 330
2
 100
AcDbEntity
   8
12
   6
HIDDEN
  62
4
 370
-3
 100
AcDbLine
  10
18.2336
  20
-62.6963
  11
18.9515
  21
-62.6963
   0
ARC
   5
668
 330
2
 100
AcDbEntity
   8
12
   6
HIDDEN
  62
4
 370
-3
 100
AcDbCircle
  10
18.95163
  20
-62.658988
  40
0.037301
 100
AcDbArc
  50
270
  51
90
   0
ARC
   5
66A
 330
2
 100
AcDbEntity
   8
12
   6
HIDDEN
  62
4
 370
-3
 100
AcDbCircle
  10
19.009132
  20
-62.658788
  40
0.202607
 100
AcDbArc
  50
190.6666
  51
341.0478805556
   0
ARC
   5
66C
 330
2
 100
AcDbEntity
   8
12
   6
HIDDEN
  62
4
 370
-3
 100
AcDbCircle
  10
19.009132
  20
-62.658788
  40
0.202607
 100
AcDbArc
  50
18.9222194444
  51
169.4484888889
   0
ARC
   5
66E
 330
2
 100
AcDbEntity
   8
12
   6
HIDDEN
  62
4
 370
-3
 100
AcDbCircle
  10
19.009132
  20
-62.658788
  40
0.113204
 100
AcDbArc
  50
199.3460027778
  51
160.8684305556
   0
LINE
   5
670
 330
2
 100
AcDbEntity
   8
12
   6
HIDDEN
  62
4
 370
-3
 100
AcDbLine
  10
16.7427
  20
-62.5924
  11
16.4457
  21
-62.5924
   0
LINE
   5
672
 330
2
 100
AcDbEntity
   8
12
   6
HIDDEN
  62
4
 370
-3
 100
AcDbLine
  10
16.7427
  20
-62.6644
  11
16.4457
  21
-62.6644
   0
ARC
   5
674
 330
2
 100
AcDbEntity
   8
12
   6
HIDDEN
  62
4
 370
-3
 100
AcDbCircle
  10
16.453995
  20
-62.628437
  40
0.036983
 100
AcDbArc
  50
102.8901055556
  51
282.8901055556
   0
LINE
   5
676
 330
2
 100
AcDbEntity
   8
12
   6
HIDDEN
  62
4
 370
-3
 100
AcDbLine
  10
15.7598
  20
-62.5652
  11
16.1736
  21
-62.5652
   0
LINE
   5
678
 330
2
 100
AcDbEntity
   8
12
   6
HIDDEN
  62
4
 370
-3
 100
AcDbLine
  10
15.7598
  20
-62.6967
  11
16.1737
  21
-62.6967
   0
ARC
   5
67A
 330
2
 100
AcDbEntity
   8
12
   6
HIDDEN
  62
4
 370
-3
 100
AcDbCircle
  10
15.811606
  20
-62.882422
  40
0.321436
 100
AcDbArc
  50
99.2710305556
  51
128.5067305556
   0
ARC
   5
67C
 330
2
 100
AcDbEntity
   8
12
   6
HIDDEN
  62
4
 370
-3
 100
AcDbCircle
  10
15.811606
  20
-62.379352
  40
0.321436
 100
AcDbArc
  50
231.4932694444
  51
260.7289694444
   0
ARC
   5
67E
 330
2
 100
AcDbEntity
   8
12
   6
HIDDEN
  62
4
 370
-3
 100
AcDbCircle
  10
16.365342
  20
-62.630887
  40
0.202607
 100
AcDbArc
  50
198.9521194444
  51
349.3334
   0
ARC
   5
680
 330
2
 100
AcDbEntity
   8
12
   6
HIDDEN
  62
4
 370
-3
 100
AcDbCircle
  10
16.365342
  20
-62.630887
  40
0.202607
 100
AcDbArc
  50
10.5515111111
  51
161.0777805556
   0
ARC
   5
682
 330
2
 100
AcDbEntity
   8
12
   6
HIDDEN
  62
4
 370
-3
 100
AcDbCircle
  10
16.365342
  20
-62.630887
  40
0.113204
 100
AcDbArc
  50
19.1315694444
  51
340.6539972222
   0
LINE
   5
684
 330
2
 100
AcDbEntity
   8
12
   6
HIDDEN
  62
4
 370
-3
 100
AcDbLine
  10
16.1026
  20
-62.2575
  11
16.1026
  21
-62.88
   0
LINE
   5
686
 330
2
 100
AcDbEntity
   8
12
   6
HIDDEN
  62
4
 370
-3
 100
AcDbLine
  10
16.1026
  20
-62.88
  11
15.2576
  21
-62.88
   0
LINE
   5
688
 330
2
 100
AcDbEntity
   8
12
   6
HIDDEN
  62
4
 370
-3
 100
AcDbLine
  10
15.2576
  20
-62.88
  11
15.2576
  21
-62.294
   0
LINE
   5
68A
 330
2
 100
AcDbEntity
   8
12
   6
HIDDEN
  62
4
 370
-3
 100
AcDbLine
  10
16.7427
  20
-62.503
  11
16.7427
  21
-62.7946
   0
LINE
   5
68C
 330
2
 100
AcDbEntity
   8
12
   6
HIDDEN
  62
4
 370
-3
 100
AcDbLine
  10
16.7427
  20
-62.7946
  11
18.2336
  21
-62.7946
   0
LINE
   5
68E
 330
2
 100
AcDbEntity
   8
12
   6
HIDDEN
  62
4
 370
-3
 100
AcDbLine
  10
18.2336
  20
-62.7946
  11
18.2336
  21
-62.503
   0
LINE
   5
690
 330
2
 100
AcDbEntity
   8
12
   6
HIDDEN
  62
4
 370
-3
 100
AcDbLine
  10
18.2336
  20
-62.503
  11
16.7427
  21
-62.503
   0
LINE
   5
692
 330
2
 100
AcDbEntity
   8
12
   6
HIDDEN
  62
4
 370
-3
 100
AcDbLine
  10
18.1503
  20
-62.7946
  11
18.1503
  21
-62.503
   0
LINE
   5
694
 330
2
 100
AcDbEntity
   8
12
   6
HIDDEN
  62
4
 370
-3
 100
AcDbLine
  10
18.0431
  20
-62.7946
  11
18.0431
  21
-62.503
   0
LINE
   5
696
 330
2
 100
AcDbEntity
   8
12
   6
HIDDEN
  62
4
 370
-3
 100
AcDbLine
  10
17.9359
  20
-62.7946
  11
17.9359
  21
-62.503
   0
LINE
   5
698
 330
2
 100
AcDbEntity
   8
12
   6
HIDDEN
  62
4
 370
-3
 100
AcDbLine
  10
17.8051
  20
-62.7946
  11
17.8051
  21
-62.503
   0
LINE
   5
69A
 330
2
 100
AcDbEntity
   8
12
   6
HIDDEN
  62
4
 370
-3
 100
AcDbLine
  10
17.6741
  20
-62.7946
  11
17.6741
  21
-62.503
   0
LINE
   5
69C
 330
2
 100
AcDbEntity
   8
12
   6
HIDDEN
  62
4
 370
-3
 100
AcDbLine
  10
17.567
  20
-62.7946
  11
17.567
  21
-62.503
   0
LINE
   5
69E
 330
2
 100
AcDbEntity
   8
12
   6
HIDDEN
  62
4
 370
-3
 100
AcDbLine
  10
17.4242
  20
-62.7946
  11
17.4242
  21
-62.503
   0
LINE
   5
6A0
 330
2
 100
AcDbEntity
   8
12
   6
HIDDEN
  62
4
 370
-3
 100
AcDbLine
  10
17.3289
  20
-62.7946
  11
17.3289
  21
-62.503
   0
LINE
   5
6A2
 330
2
 100
AcDbEntity
   8
12
   6
HIDDEN
  62
4
 370
-3
 100
AcDbLine
  10
17.2336
  20
-62.7946
  11
17.2336
  21
-62.503
   0
LINE
   5
6A4
 330
2
 100
AcDbEntity
   8
12
   6
HIDDEN
  62
4
 370
-3
 100
AcDbLine
  10
17.1504
  20
-62.7946
  11
17.1504
  21
-62.503
   0
LINE
   5
6A6
 330
2
 100
AcDbEntity
   8
12
   6
HIDDEN
  62
4
 370
-3
 100
AcDbLine
  10
17.0551
  20
-62.7946
  11
17.0551
  21
-62.503
   0
LINE
   5
6A8
 330
2
 100
AcDbEntity
   8
12
   6
HIDDEN
  62
4
 370
-3
 100
AcDbLine
  10
16.9479
  20
-62.7946
  11
16.9479
  21
-62.503
   0
LINE
   5
6AA
 330
2
 100
AcDbEntity
   8
12
   6
HIDDEN
  62
4
 370
-3
 100
AcDbLine
  10
16.8289
  20
-62.7946
  11
16.8289
  21
-62.503
   0
LINE
   5
6AC
 330
2
 100
AcDbEntity
   8
12
   6
CENTER
  62
1
 370
-3
 100
AcDbLine
  10
-14.0389
  20
-65.1257
  11
20.7364
  21
-65.1257
   0
LINE
   5
6AE
 330
2
 100
AcDbEntity
   8
12
   6
CONTINUOUS
  62
2
 370
-3
 100
AcDbLine
  10
-6.8652
  20
-61.7558
  11
-6.8652
  21
-66.9381
   0
ARC
   5
6B0
 330
2
 100
AcDbEntity
   8
12
   6
CONTINUOUS
  62
2
 370
-3
 100
AcDbCircle
  10
-7.165296
  20
-66.938064
  40
0.30001
 100
AcDbArc
  50
250.9633277778
  51
360
   0
ARC
   5
6B2
 330
2
 100
AcDbEntity
   8
12
   6
CONTINUOUS
  62
2
 370
-3
 100
AcDbCircle
  10
-7.165296
  20
-61.755846
  40
0.30001
 100
AcDbArc
  50
0
  51
118.6031861111
   0
ARC
   5
6B4
 330
2
 100
AcDbEntity
   8
12
   6
CONTINUOUS
  62
2
 370
-3
 100
AcDbCircle
  10
-10.740417
  20
-65.704133
  40
0.30001
 100
AcDbArc
  50
180
  51
250.9672027778
   0
ARC
   5
6B6
 330
2
 100
AcDbEntity
   8
12
   6
CONTINUOUS
  62
2
 370
-3
 100
AcDbCircle
  10
-10.740417
  20
-63.704678
  40
0.30001
 100
AcDbArc
  50
118.5921638889
  51
180
   0
LINE
   5
6B8
 330
2
 100
AcDbEntity
   8
12
   6
CONTINUOUS
  62
2
 370
-3
 100
AcDbLine
  10
-11.5405
  20
-65.1882
  11
-11.0405
  21
-65.1882
   0
LINE
   5
6BA
 330
2
 100
AcDbEntity
   8
12
   6
CONTINUOUS
  62
2
 370
-3
 100
AcDbLine
  10
-11.5405
  20
-65.0632
  11
-11.0405
  21
-65.0632
   0
LINE
   5
6BC
 330
2
 100
AcDbEntity
   8
12
   6
CONTINUOUS
  62
2
 370
-3
 100
AcDbLine
  10
-11.5405
  20
-65.0632
  11
-11.5405
  21
-65.1882
   0
LINE
   5
6BE
 330
2
 100
AcDbEntity
   8
12
   6
CONTINUOUS
  62
2
 370
-3
 100
AcDbLine
  10
-11.0405
  20
-63.7047
  11
-11.0405
  21
-65.0632
   0
LINE
   5
6C0
 330
2
 100
AcDbEntity
   8
12
   6
CONTINUOUS
  62
2
 370
-3
 100
AcDbLine
  10
-11.0405
  20
-65.1882
  11
-11.0405
  21
-65.7041
   0
INSERT
   5
6C2
 330
2
 100
AcDbEntity
   8
2
   6
CONTINUOUS
  62
7
 370
-3
 100
AcDbBlockReference
   2
ARROWD
  10
20.4165
  20
-61.0049
  30
0
  41
5.378417
  42
5.378417
  43
1
  50
302.48557
  70
1
  71
1
  44
0
  45
0
   0
SEQEND
   5
3E5
 330
3E4
 100
AcDbEntity
   8
0
 100
AcDbBlockEnd
   0
LINE
   5
6C4
 330
2
 100
AcDbEntity
   8
1
   6
CONTINUOUS
  62
253
 370
-3
 100
AcDbLine
  10
22.0234
  20
-59.9623
  11
22.0234
  21
-59.5835
   0
LINE
   5
6C6
 330
2
 100
AcDbEntity
   8
12
   6
CENTER
  62
1
 370
-3
 100
AcDbLine
  10
77.8088
  20
-64.7717
  11
44.564
  21
-64.7717
   0
LINE
   5
6C8
 330
2
 100
AcDbEntity
   8
1
   6
CONTINUOUS
  62
253
 370
-3
 100
AcDbLine
  10
80.2952
  20
-38.9213
  11
-15.3127
  21
-38.9213
   0
LINE
   5
6CA
 330
2
 100
AcDbEntity
   8
1
   6
CONTINUOUS
  62
253
 370
-3
 100
AcDbLine
  10
80.2952
  20
-38.9213
  11
80.2952
  21
-72.9213
   0
LINE
   5
6CC
 330
2
 100
AcDbEntity
   8
1
   6
CONTINUOUS
  62
253
 370
-3
 100
AcDbLine
  10
80.2952
  20
-72.9213
  11
-15.3127
  21
-72.9213
   0
LINE
   5
6CE
 330
2
 100
AcDbEntity
   8
1
   6
CONTINUOUS
  62
253
 370
-3
 100
AcDbLine
  10
-15.3127
  20
-38.9213
  11
-15.3127
  21
-72.9213
   0
TEXT
   5
6D1
 330
2
 100
AcDbEntity
   8
1
   6
CONTINUOUS
  62
3
 370
-3
 100
AcDbText
  10
44.4817
  20
-51.7778
  30
0
  40
0.4113
   1
2. THE WING CENTER SECTION
  50
0
  41
1
  51
0
   7
standard
  71
0
  72
4
  11
49.9785
  21
-51.5722
  31
0
 210
0
 220
0
 230
1
 100
AcDbText
  73
0
   0
TEXT
   5
6D3
 330
2
 100
AcDbEntity
   8
1
   6
CONTINUOUS
  62
3
 370
-3
 100
AcDbText
  10
45.7769
  20
-52.4356
  30
0
  40
0.4113
   1
IS BUILT UPSIDE DOWN
  50
0
  41
1
  51
0
   7
standard
  71
0
  72
4
  11
49.9785
  21
-52.23
  31
0
 210
0
 220
0
 230
1
 100
AcDbText
  73
0
   0
TEXT
   5
6D5
 330
2
 100
AcDbEntity
   8
1
   6
CONTINUOUS
  62
3
 370
-3
 100
AcDbText
  10
44.498
  20
-53.0935
  30
0
  40
0.4113
   1
IN ORDER TO INSTALL THE
  50
0
  41
1
  51
0
   7
standard
  71
0
  72
4
  11
49.9786
  21
-52.8879
  31
0
 210
0
 220
0
 230
1
 100
AcDbText
  73
0
   0
TEXT
   5
6D7
 330
2
 100
AcDbEntity
   8
1
   6
CONTINUOUS
  62
3
 370
-3
 100
AcDbText
  10
44.9966
  20
-53.751
  30
0
  40
0.4113
   1
ENGINE POD ASSEMBLIES.
  50
0
  41
1
  51
0
   7
standard
  71
0
  72
4
  11
49.9785
  21
-53.5454
  31
0
 210
0
 220
0
 230
1
 100
AcDbText
  73
0
   0
TEXT
   5
6DA
 330
2
 100
AcDbEntity
   8
1
   6
CONTINUOUS
  62
3
 370
-3
 100
AcDbText
  10
43.2293
  20
-49.0835
  30
0
  40
0.4113
   1
1. ALL WOOD SIZES INDICATED
  50
0
  41
1
  51
0
   7
standard
  71
0
  72
4
  11
49.4029
  21
-48.8779
  31
0
 210
0
 220
0
 230
1
 100
AcDbText
  73
0
   0
TEXT
   5
6DC
 330
2
 100
AcDbEntity
   8
1
   6
CONTINUOUS
  62
3
 370
-3
 100
AcDbText
  10
43.4365
  20
-49.7411
  30
0
  40
0.4113
   1
ARE FOR THE 93" WINGSPAN
  50
0
  41
1
  51
0
   7
standard
  71
0
  72
4
  11
49.4029
  21
-49.5355
  31
0
 210
0
 220
0
 230
1
 100
AcDbText
  73
0
   0
TEXT
   5
6DE
 330
2
 100
AcDbEntity
   8
1
   6
CONTINUOUS
  62
3
 370
-3
 100
AcDbText
  10
42.1735
  20
-50.3989
  30
0
  40
0.4113
   1
VERSION OF THIS MODEL ONLY.
  50
0
  41
1
  51
0
   7
standard
  71
0
  72
4
  11
49.4028
  21
-50.1933
  31
0
 210
0
 220
0
 230
1
 100
AcDbText
  73
0
   0
TEXT
   5
6E0
 330
2
 100
AcDbEntity
   8
1
   6
CONTINUOUS
  62
3
 370
-3
 100
AcDbText
  10
49.0902
  20
-47.6623
  30
0
  40
0.7002
   1
NOTES:
  50
0
  41
1
  51
0
   7
standard
  71
0
  72
4
  11
50.8709
  21
-47.3122
  31
0
 210
0
 220
0
 230
1
 100
AcDbText
  73
0
   0
LINE
   5
6E2
 330
2
 100
AcDbEntity
   8
1
   6
CONTINUOUS
  62
3
 370
-3
 100
AcDbLine
  10
48.6064
  20
-47.8592
  11
53.181
  21
-47.8592
   0
TEXT
   5
6E4
 330
2
 100
AcDbEntity
   8
0
   6
CONTINUOUS
  62
1
 370
-3
 100
AcDbText
  10
69.7463
  20
-71.5795
  30
0
  40
1.2337
   1
SHEET 3
  50
0
  41
1
  51
0
   7
romanc
  71
0
  72
4
  11
74.1805
  21
-70.9627
  31
0
 210
0
 220
0
 230
1
 100
AcDbText
  73
0
  0
ENDSEC
   0
SECTION
   2
OBJECTS
   0
DICTIONARY
   5
A
 330
0
 100
AcDbDictionary
 280
0
 281
1
   3
ACAD_COLOR
 350
B
   3
ACAD_GROUP
 350
C
   3
ACAD_LAYOUT
 350
D
   3
ACAD_MATERIAL
 350
E
   3
ACAD_MLEADERSTYLE
 350
F
   3
ACAD_MLINESTYLE
 350
10
   3
ACAD_PLOTSETTINGS
 350
11
   3
ACAD_PLOTSTYLENAME
 350
12
   3
ACAD_SCALELIST
 350
14
   3
ACAD_TABLESTYLE
 350
15
   3
ACAD_VISUALSTYLE
 350
16
   2
DICTIONARY
   5
B
 330
A
 100
AcDbDictionary
 280
0
 281
1
   0
DICTIONARY
   5
6
 330
0
   3
Model
 350
2
   0
LAYOUT
   5
4
 100
AcDbPlotSettings
   1

   2

   4

  40
0
  41
0
  42
0
  43
0
  44
210
  45
294
  46
0
  47
0
  48
0
  49
0
 140
0
 141
0
 142
1
 143
1
  70

  72

  73

  74
0
   7

  75

  76

  77

  78

 147

 148

 149

 100
AcDbLayout
   1
Model
  70

  71
0
 330
6
  0
ENDSEC
   0
SECTION
   2
THUMBNAILIMAGE
   0
ENDSEC
   0
EOF
