<svg height="48" width="48" xmlns="http://www.w3.org/2000/svg"><path d="m19.116356 46.136007c-3.437619-1.223954.910332-3.544527 1.808545-5.227547.767583-.862787 2.247139-2.532861.439769-.959326-1.626314 1.310556-3.239061 2.637895-4.866854 3.946602-1.843569-1.058428-.714264-2.494483.331302-3.856848 1.068928-1.720601 2.231707-3.407498 3.235387-5.153825-2.090256 2.080428-4.07799 4.264653-6.167854 6.34426-3.067106-1.647249.633771-3.732035 1.737541-5.49566 1.247078-1.476796 2.502997-2.946272 3.736483-4.434451-2.969668 2.179952-5.905431 4.405765-8.856695 6.610558-1.4677793-.722814-.487216-1.705242.180075-2.603707.948843-1.456041 2.62736-3.649466 3.134132-4.642292-1.796786 1.722319-3.546302 3.493168-5.3154836 5.243727-1.8232752-.90846.014865-2.146195.6313397-3.234309 1.5780739-2.273546 3.2153609-4.509447 4.7834659-6.787471-2.775373 2.31587-5.4057049 4.805054-8.1793352 7.124715-1.1164551-.592538-1.8005172-1.430312-.5826166-2.229742 1.6972259-2.016974 3.4186913-4.014208 5.0802828-6.060662-2.4382811 1.856463-4.8167085 3.795716-7.2204683 5.698991-2.43427264-1.487614-.9972529-4.272876 1.0363423-5.259619 3.8289703-3.018877 7.655727-6.041946 11.533496-8.997695 5.361033 5.302586 10.74927 10.593898 15.928424 16.070777-3.347058 4.496743-6.729422 8.977964-10.258066 13.333297-.569641.510331-1.399164.76027-2.149212.570227zm6.139746-23.532204c-2.821353-2.911562-5.834857-5.661539-8.524975-8.686911 1.314383-1.611706 3.803206-4.2375336 5.695475-1.775389 1.421754 1.24557 3.404857 4.141687 5.389565 2.18754 3.097331-3.345211 4.099224-8.1499278 7.474584-11.2594495 3.00584-2.83080984 8.409438-1.7523488 10.286553 1.8724112 1.675699 2.9335567.750971 6.9470533-2.040889 8.8607883-3.265835 2.514628-7.501001 3.685984-10.381306 6.704064-1.143383 2.528902 2.207547 3.959763 3.320156 5.811747 1.104486 1.757439-1.681545 4.857489-2.985193 4.477981-2.758464-2.716981-5.494482-5.456695-8.23397-8.192782zm16.331722-12.8647713c2.316069-.4866148 2.884068-3.9246603.770081-5.0679559-1.902551-1.3342946-4.681041.5671787-4.21306 2.8021313.226673 1.5255927 1.921954 2.7599629 3.442979 2.2658246z" fill="#0066b3" fill-opacity=".65" stroke-width=".04566"/></svg>