<svg viewBox="0 0 48 48" xmlns="http://www.w3.org/2000/svg"><g style="fill:#0066b3;fill-opacity:.05;stroke:#0066b3;stroke-width:1.5;stroke-linecap:round;stroke-linejoin:round"><path d="m15.150618 44.627851-.851688-3.248327.29668-2.796642.702551-2.850026 1.462247-3.194808 1.693091-2.766018 1.619883-1.846971 1.832248-1.949399"/><path d="m26.63259 21.940059 2.06848-2.329257 1.817045-2.011399 1.314432-1.973503 1.452447-2.701324.694982-2.672725.23864-1.8772781.0074-2.085781-.384562-1.5137263-.895473-1.7665717"/><path d="m32.305254 44.991506.940201-1.865231.296286-1.861433.04623-2.630994-.587372-2.705443-1.087403-2.630997-1.541112-2.620454-1.580604-2.228595-2.38575-2.589284-3.00277-2.589773-2.166075-2.054791-2.429376-2.393671-1.775604-2.53322-1.467084-2.257007-1.135029-2.667004-.512758-2.4684172-.143014-2.3886747.234796-1.7802789.77046-1.6043314"/><path d="m17.031968 5.1715841h13.773035"/><path d="m19.415576 8.9291468h8.718412"/><path d="m20.307287 12.667687h7.280529"/><path d="m21.652068 16.560465h4.288906"/><path d="m21.466348 31.437843h4.770984"/><path d="m20.11521 35.156433h7.742331"/><path d="m19.186008 38.72851h9.275199"/><path d="m17.313736 42.499763h13.265195"/></g></svg>