<svg fill-rule="evenodd" height="112.89mm" preserveAspectRatio="xMidYMid" stroke-linejoin="round" stroke-width="28.222" viewBox="0 0 11289 11289" width="112.89mm" xmlns="http://www.w3.org/2000/svg" xmlns:xlink="http://www.w3.org/1999/xlink"><marker id="a" orient="auto" overflow="visible" refX="0.0" refY="0.0"><path d="m8.7185878 4.0337352-10.9258773-4.01772194 10.9258779-4.01772106c-1.7454984 2.3720609-1.7354408 5.6174519-.0000006 8.035443z" fill="#0066b3" fill-rule="evenodd" stroke="#0066b3" stroke-linejoin="round" stroke-width=".625" transform="matrix(-.3 0 0 -.3 .69 0)"/></marker><marker id="b" orient="auto" overflow="visible" refX="0.0" refY="0.0"><path d="m8.7185878 4.0337352-10.9258773-4.01772194 10.9258779-4.01772106c-1.7454984 2.3720609-1.7354408 5.6174519-.0000006 8.035443z" fill="#0066b3" fill-rule="evenodd" stroke="#0066b3" stroke-linejoin="round" stroke-width=".625" transform="matrix(.3 0 0 .3 -.69 0)"/></marker><path d="m720 816h9799v9801h-9799z" fill="none"/><g stroke="#0066b3"><text style="font-size:2764.07;font-family:Vemana2000;letter-spacing:0;word-spacing:0;fill:#0066b3;stroke-width:0;stroke-linejoin:round" transform="scale(.89186033 1.1212518)" x="9789.9297" y="3067.6279"><tspan fill="#0066b3" font-family="Vemana2000" stroke="#0066b3" stroke-linejoin="round" stroke-width="0" x="9789.9297" y="3067.6279">2</tspan></text><g stroke-linecap="round" stroke-linejoin="miter"><g fill="none"><path d="m8202.0833 2477.7629h-1224.8933" stroke-width="396.874998"/><path d="m6977.19 2477.7629-1156.3567 1755.5704" stroke-width="320.188"/><path d="m2381.25 9789.5833 3439.5833-5556.25" marker-end="url(#b)" marker-start="url(#a)" stroke-width="343.627"/><path d="m-16139.573 1111.2493v-317.49298" stroke-width="79.375"/><path d="m-25399.999 1111.2493v-317.49298" stroke-width="79.375"/></g><ellipse cx="-2106.2129" cy="7860.8379" fill="#0066b3" fill-opacity=".35" fill-rule="nonzero" rx="3094.0376" ry="3035.8621" stroke-dashoffset="3.99627" stroke-width="132.296034" transform="matrix(.7111581 -.70303212 .7111581 .70303212 0 0)"/><path d="m2513.5417 9525-793.75 1322.917" fill="none" stroke-width="320.188"/></g></g></svg>