<svg fill-rule="evenodd" height="112.89mm" preserveAspectRatio="xMidYMid" stroke-linejoin="round" stroke-width="28.222" viewBox="0 0 11289 11289" width="112.89mm" xmlns="http://www.w3.org/2000/svg" xmlns:xlink="http://www.w3.org/1999/xlink"><marker id="a" orient="auto" overflow="visible" refX="0.0" refY="0.0"><path d="m8.7185878 4.0337352-10.9258773-4.01772194 10.9258779-4.01772106c-1.7454984 2.3720609-1.7354408 5.6174519-.0000006 8.035443z" fill="#0066b3" fill-rule="evenodd" stroke="#0066b3" stroke-linejoin="round" stroke-width=".625" transform="matrix(.3 0 0 .3 -.69 0)"/></marker><path d="m720 816h9799v9801h-9799z" fill="none"/><g stroke="#0066b3"><text style="font-size:2764.07;font-family:Vemana2000;letter-spacing:0;word-spacing:0;fill:#0066b3;stroke-width:0;stroke-linejoin:round" transform="scale(.89186033 1.1212518)" x="7119.9487" y="2831.6565"><tspan fill="#0066b3" font-family="Vemana2000" stroke="#0066b3" stroke-linejoin="round" stroke-width="0" x="7119.9487" y="2831.6565">2</tspan></text><g fill="none"><path d="m3439.5833 7408.3333 1058.3333-1852.0833" marker-start="url(#a)" stroke-linecap="round" stroke-linejoin="miter" stroke-width="343.614"/><g stroke-linejoin="round"><path d="m-401.08662 13943.863a7392.1226 7253.1323 0 0 1 -3073.42988-5959.8901 7392.1226 7253.1323 0 0 1 3195.17449-5897.9279l4196.57301 5970.9921z" stroke-dashoffset="3.99627" stroke-linecap="round" stroke-width="211.673654" transform="matrix(.7111581 -.70303212 .7111581 .70303212 0 0)"/><path d="m3904.2371 6614.5833 593.6795-1058.3334 264.5834 1852.0834 1685.5233-3704.1666h1224.8933" stroke-width="317.5"/></g></g></g></svg>