<svg fill-rule="evenodd" height="112.89mm" preserveAspectRatio="xMidYMid" stroke-linejoin="round" stroke-width="28.222" viewBox="0 0 11289 11289" width="112.89mm" xmlns="http://www.w3.org/2000/svg" xmlns:xlink="http://www.w3.org/1999/xlink"><marker id="a" orient="auto" overflow="visible" refX="0.0" refY="0.0"><path d="m8.7185878 4.0337352-10.9258773-4.01772194 10.9258779-4.01772106c-1.7454984 2.3720609-1.7354408 5.6174519-.0000006 8.035443z" fill="#0066b3" fill-rule="evenodd" stroke="#0066b3" stroke-linejoin="round" stroke-width=".625" transform="matrix(-.3 0 0 -.3 .69 0)"/></marker><marker id="b" orient="auto" overflow="visible" refX="0.0" refY="0.0"><path d="m8.7185878 4.0337352-10.9258773-4.01772194 10.9258779-4.01772106c-1.7454984 2.3720609-1.7354408 5.6174519-.0000006 8.035443z" fill="#0066b3" fill-rule="evenodd" stroke="#0066b3" stroke-linejoin="round" stroke-width=".625" transform="matrix(.3 0 0 .3 -.69 0)"/></marker><path d="m720 816h9799v9801h-9799z" fill="none"/><g stroke="#0066b3"><text style="font-size:2764.07;font-family:Vemana2000;letter-spacing:0;word-spacing:0;fill:#0066b3;stroke-width:0;stroke-linejoin:round" transform="matrix(.75523812 .47437351 -.59638503 .9494896 0 0)" x="8425.2188" y="-865.41296"><tspan fill="#0066b3" font-family="Vemana2000" stroke="#0066b3" stroke-linejoin="round" stroke-width="0" x="8425.2188" y="-865.41296">2</tspan></text><path d="m8334.375 7937.5 1719.792-1984.375" fill="none" stroke-linecap="round" stroke-linejoin="miter" stroke-width="74.2661"/><path d="m4233.3325 2645.8334 4762.5 3439.5833" style="fill:none;stroke-width:507.733;stroke-linecap:round;stroke-linejoin:miter;marker-start:url(#b);marker-end:url(#a)"/><path d="m1852.0833 9948.3347h6085.4167v-1428.7506l-6085.4167-4286.2508z" fill="#0066b3" fill-opacity=".35" stroke-linejoin="round" stroke-width="257.379"/><path d="m2248.9583 3836.4583 1719.7921-1984.3752" fill="none" stroke-linecap="round" stroke-linejoin="miter" stroke-width="74.2662"/></g></svg>