<svg fill-rule="evenodd" height="48" preserveAspectRatio="xMidYMid" stroke-linejoin="round" stroke-width="28.222" viewBox="0 0 1270 1270" width="48" xmlns="http://www.w3.org/2000/svg"><g fill="none"><path d="m720 816h9799v9801h-9799z" transform="matrix(.12960506 0 0 .12957861 -93.315635 -105.73612)"/><path d="m2698 2698h5899v5899h-5899z" transform="matrix(.12960506 0 0 .12957861 -96.944576 -96.7952)"/><path d="m7937 1235h2121v2121h-2121z" transform="matrix(.12960506 0 0 .12957861 -531.12153 337.5523)"/><path d="m1235 7937h2121v2121h-2121z" transform="matrix(.12960506 0 0 .12957861 337.49158 -530.88354)"/><g stroke-width="19.8437"><path d="m1206.2559 1198.5379h-1142.345649v-1126.911835h1142.345649z"/><path d="m108.75942 125.79526 1045.61418 1026.01884" stroke="#0066b3" stroke-linejoin="miter"/><path d="m831.06802 1198.5379h-767.323929v-756.95692h767.323929z"/><path d="m822.76005 1190.3422-750.541831-740.40158" stroke="#0066b3" stroke-linejoin="miter"/><path d="m456.04634 1198.5379h-392.136089v-386.83809h392.136089z"/><path d="m447.73837 1190.3422-375.353992-370.28276" stroke="#0066b3" stroke-linejoin="miter"/><path d="m1206.2559 828.41908h-767.32397v-756.95693h767.32397z"/><path d="m447.40605 79.821787 750.54185 740.401573" stroke="#0066b3" stroke-linejoin="miter"/><path d="m1206.2559 458.46417h-392.13614v-386.838105h392.13614z"/><path d="m822.59389 79.985702 375.35401 370.282738" stroke="#0066b3" stroke-linejoin="miter"/></g><rect fill="none" height="1114.2411" ry="133.70618" stroke="#0066b3" stroke-linecap="round" stroke-linejoin="round" stroke-width="26.458333" width="1114.4685" x="77.765747" y="77.879456"/></g></svg>