<svg fill-rule="evenodd" height="112.89mm" preserveAspectRatio="xMidYMid" stroke-linejoin="round" stroke-width="28.222" viewBox="0 0 11289 11289" width="112.89mm" xmlns="http://www.w3.org/2000/svg"><path d="m920.17829 8279.6254c-26.8563-7.2474-49.1405-31.0074-55.0275-58.6713-5.8411-27.449 2.919-278.6334 14.7057-421.6643 89.0479-1080.583 524.38651-2087.4466 1251.76561-2895.1188 686.087-761.8216 1597.5049-1293.289 2594.2267-1512.7493 701.173-154.3856 1432.5001-154.3856 2133.673 0 599.824 132.0705 1174.3407 378.6487 1685.0277 723.2008 646.9578 436.4919 1180.2019 1017.345 1559.1625 1698.3691 340.003 611.0134 543.937 1284.114 601.802 1986.2982 11.786 143.0309 20.547 394.2153 14.706 421.6643-6.018 28.2756-30.174 53.1679-57.649 59.403-18.41 4.1782-9726.90041 3.4491-9742.39271-.7317zm944.82851-312.7457.7291-159.7647 5.8867-11.0164c7.5134-14.0616 21.23-27.7709 35.2651-35.2465 15.7753-8.4027 53.069-8.48 68.705-.1408 17.4564 9.3082 26.2992 18.2604 34.7582 35.1883l7.9766 15.9624v157.3917 157.3918h473.425 473.425v-270.8092c0-302.5152-1.0993-284.3409 18.5475-306.6607 22.7904-25.8912 60.3613-33.6359 91.4798-18.857 16.003 7.6004 27.3803 18.8429 36.6794 36.2451l5.8848 11.0131.6987 274.5414.6989 274.5414 472.235-.6591 472.235-.6592-.1461-143.4621c-.081-78.9042.9286-150.7791 2.2433-159.7224 2.9537-20.0922 11.5604-37.8121 23.426-48.2304 32.9066-28.8922 80.5326-27.0212 109.1473 4.288 22.0922 24.1721 21.5126 18.924 21.5126 194.8348v153.5963h472.0623 472.0624l.7105-271.9259.7105-271.9259 6.0205-13.2998c27.5838-60.9351 111.8125-61.8238 141.8141-1.4963l6.0611 12.1877.7103 273.2301.7103 273.2301h471.9846 471.9847l.73-157.1562.7301-157.1562 6.2232-13.7708c3.7004-8.1889 11.3723-18.4007 18.926-25.192 38.5991-34.704 98.3884-22.8585 121.4268 24.0573l7.3197 14.9055.7483 157.1562.7487 157.1562h471.9776 471.9775l.6989-273.2301.699-273.2301 7.339-14.9451c17.8226-36.2944 62.5056-52.3577 100.1976-36.0207 15.9126 6.8971 32.6441 23.8981 40.7227 41.3781l5.6365 12.1961.6731 271.2739.6735 271.2737 472.0995.6592 472.0996.6591v-155.1091c0-149.8233.1826-155.5946 5.3303-169.3554 10.7476-28.7256 35.3058-46.04 68.078-47.9981 17.2034-1.0277 21.8513-.3107 33.9092 5.2322 19.874 9.1354 29.4749 18.2064 38.6018 36.4704l7.9764 15.9624v157.3917 157.3918h473.425 473.4254v-270.8092c0-302.5152-1.1-284.3409 18.547-306.6607 22.811-25.915 61.316-33.8282 91.868-18.8802 15.696 7.6792 27.11 19.0859 36.291 36.2683l5.885 11.0131.699 274.5344.699 274.5343h422.5136 422.515l-.02-16.3025c-.04-29.2256-5.128-145.2535-9.224-210.6284-59.958-956.823-406.368-1869.5167-997.4396-2627.9651-380.4049-488.1268-860.7815-905.1138-1394.3459-1210.3506-155.7204-89.0831-328.5702-175.5203-489.0753-244.5724-485.2244-208.7524-1008.3799-335.8023-1537.6531-373.4235-132.0978-9.3897-169.8991-10.543-345.6133-10.543-175.7141 0-213.5155 1.1533-345.6133 10.543-565.2566 40.179-1113.1483 179.6793-1634.1639 416.0788-61.4823 27.896-224.4986 109.029-285.62 142.1526-174.5626 94.6006-349.7763 204.0107-508.6384 317.6134-158.2461 113.1622-348.5462 268.527-474.7292 387.5781-177.2302 167.2132-312.5776 311.547-450.2545 480.1505-520.9607 637.9838-866.7507 1395.6858-1005.2827 2202.7955-29.2786 170.5817-49.1964 340.3672-59.8219 509.9427-4.0964 65.3749-9.1786 181.4028-9.2256 210.6284l-.028 16.3012h422.4842 422.4844zm652.1059-1016.7868c-28.1765-5.5531-51.7212-26.9596-59.6501-54.2336-6.6772-22.9686-3.7132-37.5572 18.1256-89.2157 275.5443-651.7865 730.934-1201.8777 1321.1533-1595.8964 510.5746-340.8496 1106.6261-546.762 1718.149-593.5534 99.2677-7.5953 162.2181-9.8211 277.7948-9.8211 149.4889 0 252.3483 5.3657 389.9561 20.3421 952.9686 103.7158 1825.9102 584.0983 2425.3698 1334.6884 203.03 254.2161 362.673 521.8734 498.1868 835.2601 23.2166 53.6901 23.6879 55.1904 23.773 75.6437.1044 24.7953-5.5999 39.6741-21.1778 55.252-12.016 12.0158-24.2055 18.2145-42.7268 21.7269-16.964 3.2172-6532.6241 3.0252-6548.9537-.193zm6414.8852-162.211c-20.3246-48.5946-78.0895-164.3813-121.3467-243.2336-270.1789-492.5007-667.8312-919.8328-1141.8259-1227.0482-480.42-311.38-1020.2204-495.9678-1590.5199-543.8867-104.6194-8.7906-149.3827-10.4243-285.6201-10.4243-136.2373 0-181.0006 1.6337-285.62 10.4243-570.2995 47.9189-1110.0999 232.5067-1590.5198 543.8867-334.7572 216.9698-636.6969 498.2761-874.6946 814.9207-123.6675 164.5336-219.5335 317.4866-315.529 503.4216-23.3205 45.1697-61.9065 125.5371-72.9492 151.9395l-3.5456 8.4773h3142.8582 3142.8583z" fill="#0066b3" stroke="#0066b3" stroke-width="235.279"/></svg>