<svg fill-rule="evenodd" height="48" preserveAspectRatio="xMidYMid" stroke-linejoin="round" stroke-width="28.222" viewBox="0 0 1270 1270" width="48" xmlns="http://www.w3.org/2000/svg"><path d="m-3.1725652.00002576h1276.3451652v1269.99997424h-1276.3451652z" fill="none" stroke-width="3.66647"/><text fill="#0066b3" font-family="'Liberation Mono'" font-size="479.202" stroke-width="11.9893" x="635.23401" y="965.72931"><tspan fill="#0066b3" font-family="'DejaVu Sans Mono'" stroke-width="11.9893" text-anchor="middle" x="635.23401" y="965.72931">##</tspan></text><g fill="none" stroke="#0066b3" stroke-width="36.456443" transform="matrix(1.0020032 0 0 .8213482 -1.272032 207.44713)"><path d="m649.4907 1215.2427s-544.5089 0-546.06144-.055c-1.55254-.055-4.660947-.1651-9.278335-1.3-4.617389-1.135-10.744076-3.296-16.226335-6.8726s-10.318926-8.5706-14.147835-14.367c-3.828909-5.7965-6.648354-12.3959-8.138955-18.5016-1.4906-6.1057-1.650598-11.7167 1.291421-36.0716s8.986335-67.4513 17.849424-133.2399c8.863089-65.78866 20.544362-154.26526 41.083585-307.50022 20.53922-153.23496 49.93499-371.21784 65.33413-483.55637 15.39914-112.33854 16.80114-119.027643 19.38312-124.948585s6.34374-11.071377 11.18251-15.565462c4.83878-4.494085 10.75318-8.330532 15.36437-10.711461 4.61119-2.380928 7.91779-3.306237 11.91147-3.890881 3.99369-.584644 8.67337-.829079 54.65547-.965041s133.2691-.163629 217.5391-.315379 165.47525-.427415 250.40808-.338793c84.93284.08862 173.63974.541358 219.90631 1.062312 46.26661.520954 50.09231 1.109562 54.53391 2.386572 4.4415 1.277011 9.4985 3.241388 14.4556 6.586532 4.957 3.345143 9.8144 8.069027 13.331 12.618245 3.5165 4.549217 5.6934 8.922757 7.3496 14.166532 1.6562 5.243774 2.7928 11.357589 26.3816 186.174709s69.628 518.32372 93.1908 693.17019c23.5629 174.8465 24.6482 181.0257 24.5261 188.0229s-1.4505 14.8129-3.5932 21.0436c-2.1428 6.2307-5.0996 10.8777-8.4747 14.962-3.375 4.0844-7.1687 7.6069-11.9878 10.4399s-10.6651 4.977-16.949 6.1002c-6.2839 1.1231-13.0069 1.2247-27.7848 1.3333s-37.6099.224-121.7925.2474c-84.1825.023-229.7095-.045-302.4761-.08-72.7666-.034-72.7666-.035-72.7666-.035z" stroke-linejoin="miter"/><path d="m427.66719 47.379921a207.79524 207.79524 0 0 1 99.59373-191.538911 207.79524 207.79524 0 0 1 215.88424.24693 207.79524 207.79524 0 0 1 99.15529 191.766257"/></g></svg>