<svg viewBox="0 0 48 48" xmlns="http://www.w3.org/2000/svg"><path d="m.084919.075368h47.852623v47.840969h-47.852623z" fill="none"/><text fill="#0066b3" font-family="Liberation Mono" font-size="24.6608" stroke-width=".617" x="24.012041" y="32.850433"><tspan fill="#0066b3" font-family="DejaVu Sans Mono" stroke-width=".617" text-anchor="middle" x="24.012041" y="32.850433">##</tspan></text><g fill="none" stroke="#0066b3" stroke-linecap="round" stroke-linejoin="round"><path d="m28.991297 32.645181-9.982595-.000001-4.991296-8.64518 4.991297-8.645181 9.982595.000001 4.991296 8.64518z" stroke-width=".439711" transform="matrix(2.2695399 0 0 2.2789077 -30.468959 -30.693784)"/><g stroke-width=".999999"><path d="m69.311791 24.000003-22.655897-.000002-11.327946-19.7015674 11.327948-19.7015696 22.655898.000003 11.327945 19.7015666z"/><path d="m69.311791 63.403139-22.655903-.000002-11.327946-19.701568 11.327948-19.701569 22.655901.000003 11.32794 19.701566z"/><path d="m103.29562 43.701571-22.655889-.000002-11.327946-19.701568 11.327948-19.7015686 22.655897.000003 11.32794 19.7015656z"/><path d="m35.327946 4.2984331-22.65589-.000002-11.327943-19.7015671 11.327953-19.70157 22.65589.000003 11.32794 19.701567z"/><path d="m103.29563 4.2984349-22.655893-.000002-11.327946-19.7015679 11.327948-19.701569 22.655901.000003 11.32794 19.701566z"/><path d="m137.27947 24.000004-22.65589-.000002-11.32795-19.701567 11.32795-19.70157 22.6559.000003 11.32794 19.701567z"/><path d="m137.27947 63.40314-22.6559-.000002-11.32794-19.701568 11.32794-19.701569 22.6559.000003 11.32794 19.701566z"/><path d="m171.2633 43.701572-22.65589-.000002-11.32794-19.701568 11.32795-19.701569 22.65589.000003 11.32794 19.701566z"/><path d="m171.26331 4.298436-22.65589-.000002-11.32795-19.701568 11.32795-19.701569 22.6559.000003 11.32794 19.701566z"/><path d="m205.24715 24.000005-22.6559-.000002-11.32794-19.701567 11.32795-19.70157 22.65589.000003 11.32795 19.701567z"/><path d="m205.24715 63.403141-22.6559-.000002-11.32795-19.701568 11.32795-19.701569 22.6559.000003 11.32794 19.701566z"/><path d="m239.23098 43.701573-22.65589-.000002-11.32794-19.701568 11.32794-19.701569 22.6559.000003 11.32794 19.701566z"/><path d="m239.23099 4.298437-22.65589-.000002-11.32795-19.701568 11.32795-19.701569 22.6559.000003 11.32794 19.701566z"/><path d="m273.21483 23.500004-22.6559-.000002-11.32794-19.701567 11.32795-19.70157 22.65589.000003 11.32795 19.701567z"/><path d="m273.21483 62.90314-22.6559-.000002-11.32795-19.701568 11.32795-19.701569 22.6559.000003 11.32794 19.701566z"/><path d="m307.19866 43.201572-22.65589-.000002-11.32795-19.701568 11.32795-19.701569 22.6559.000003 11.32794 19.701566z"/><path d="m307.19867 3.798436-22.65589-.000002-11.32795-19.701568 11.32795-19.701569 22.6559.000003 11.32794 19.701566z"/><path d="m341.18251 23.500005-22.6559-.000002-11.32794-19.701567 11.32795-19.70157 22.65589.000003 11.32795 19.701567z"/><path d="m341.18251 62.903141-22.6559-.000002-11.32795-19.701568 11.32795-19.701569 22.6559.000003 11.32794 19.701566z"/><path d="m375.16634 43.201573-22.65589-.000002-11.32794-19.701568 11.32794-19.7015689 22.6559.000003 11.32794 19.7015659z"/><path d="m375.16635 3.7984371-22.65589-.000002-11.32795-19.7015681 11.32795-19.701569 22.6559.000003 11.32794 19.701566z"/></g></g></svg>