<svg viewBox="0 0 48 48" xmlns="http://www.w3.org/2000/svg"><path d="m.084919.075368h47.852623v47.840969h-47.852623z" fill="none"/><path d="m17.247344 44.735493c.06376.06392.191233.191724.349855.33403.158623.142306.348373.299102.561678.421265s.450146.209703.71685.253317c.266703.04362.563248.04332.864054.0033.300807-.04.605851-.1197.876576-.237718.270725-.118019.507124-.27435.7343-.51233.227175-.237979.445127-.557601.601002-.834367.155876-.276765.249664-.510658.297546-.823466.04788-.312808.04985-.704521.02812-1.075425s-.06715-.720987-.184443-1.15867c-.11729-.437682-.306446-.962943-.48782-1.498186s-.354955-1.080436-.4792-1.578424c-.124246-.497987-.199145-.948742-.213077-1.352137-.01393-.403394.03311-.759396.162866-1.081001.129753-.321605.34221-.608777.496817-.792317s.251339-.263427.488671-.354009c.237332-.09058.615227-.191847.89409-.172794.278864.01905.458669.15838.647427.541531s.386477 1.01008.567301 1.476576c.180825.466496.344735.772532.608559 1.009189.263825.236658.627535.403949 1.036259.457884.408725.05394.862464-.0055 1.242637-.244159.380173-.238698.686811-.656694.876904-1.124174s.263638-.984444.210455-1.545372c-.05318-.560929-.233101-1.165794-.286955-1.607791-.05385-.441998.01837-.721065.139348-.999024.120976-.27796.290689-.55477.558055-.785813.267365-.231044.632353-.416296 1.099282-.543191.466929-.126896 1.035748-.195435 1.601531-.213392.565783-.01796 1.128464.01466 1.76891.08529s1.358596.179269 1.851098.189583c.492501.01031.759341-.07769.937717-.240884.178376-.163198.268299-.401583.219397-.786621-.0489-.385038-.236654-.916713-.38516-1.38909-.148506-.472376-.257757-.885432-.234341-1.237117.02342-.351686.179513-.641962.533532-.860283.354019-.218322.905908-.364659 1.425463-.457948.519554-.09329 1.006723-.133529 1.595857-.0963.589134.03723 1.280164.151919 2.014667.23406.734504.08214 1.512414.13173 2.097008.09752.584594-.03422.975863-.152234 1.378753-.405117.40289-.252882.817401-.640619 1.054183-1.045671.236783-.405051.295828-.827409.249947-1.244004-.04588-.416594-.196701-.82741-.456428-1.178053-.259728-.350644-.628375-.641089-1.089985-.857651-.46161-.216561-1.01617-.359219-1.546826-.385316-.530656-.0261-1.037376.06438-1.563247.22974-.525871.165359-1.07088.405597-1.509874.630206s-.771956.433579-1.28741.763268c-.515453.32969-1.213353.780069-1.750046 1.099173-.536693.319105-.912161.506923-1.272567.641566-.360406.134642-.705736.216101-1.070973.160011s-.750376-.249758-.970958-.415107-.276573-.302372-.286697-.595019c-.01012-.292648.02564-.740884.180803-1.157565.155161-.416681.429707-.801768.800923-1.187336s.839069-.771588 1.408185-1.197643c.569116-.426056 1.239447-.892114 1.755072-1.355623.515624-.463508.876514-.92444 1.064166-1.335445.187652-.411004.202052-.772081.07498-1.305336-.127075-.533255-.395624-1.238653-.923539-1.596742-.527915-.35809-1.315175-.36879-1.853204-.311398-.538029.05739-.826789.182875-1.199434.468714s-.82913.732006-1.47247 1.281658c-.643339.549652-1.473509 1.202768-2.151993 1.541448-.678485.338679-1.205275.362909-1.609357.243407-.404081-.119502-.685425-.382747-.910047-.780033-.224621-.397286-.392477-.928587-.294093-1.591436.09838-.662849.463018-1.457177.724924-2.075499.261905-.618323.421073-1.060618.509794-1.494837.08872-.434219.106987-.860345-.120709-1.629723-.227696-.769366-.701342-1.8819116-1.850053-2.2960107-1.14871-.414099-2.97233-.1296539-3.861315.7396592s-.843188 2.3233715-.907101 3.5176135c-.06391 1.194243-.237522 2.128588-.699986 2.668905s-1.213772.686584-1.707467.52582c-.493694-.160763-.729725-.628597-1.125476-1.28267-.395751-.654072-.9512-1.494339-1.650503-3.0572-.699303-1.5628601-1.542403-3.8482036-2.182973-5.3785503-.640569-1.5303467-1.078578-2.3056136-1.470511-2.7659152-.391933-.4603017-.73779-.6055995-1.355647-.6004558-.617857.0051436-1.507667.1607439-2.1605322.5448662-.6528657.3841223-1.0687332.9967307-1.2050952 1.7291382-.1363619.7324075.0067697 1.5845439.3049553 2.3578244.2981855.7732806.7513838 1.4676591 1.3324211 2.0337137.581037.5660546 1.289861 1.0037684 1.893905 1.3990268.604044.395258 1.103273.748035 1.519138 1.171174.415866.42314.748354.916601 1.095649 1.668294.347294.751693.70938 1.761561.774144 2.682999.06476.921439-.167772 1.754411-.385776 2.466786-.218005.712376-.421462 1.304108-.798314 1.7145-.376853.410391-.927076.639417-1.603711.809772-.676634.170354-1.479615.282014-2.217201.01296-.7375862-.269049-1.4097364-.918824-2.1460026-1.536943-.7362661-.61812-1.5365925-1.204534-2.5058418-1.289964-.9692494-.08543-2.1072895.33017-2.7802258.94386s-.8806736 1.425392-.9742095 2.253766c-.093536.828375-.072876 1.673369.1817605 2.422639.2546368.74927.7432043 1.402772 1.5494305 1.950013.8062262.54724 1.9300444.98821 3.0392114 1.282661 1.1091671.294451 2.2036153.442379 2.8110025.730265.6073868.287886.7277118.715679.4009528 1.146116-.3267586.430437-1.1005771.863541-1.6403752 1.391483s-.8455371 1.150677-1.0732285 1.769038-.3773269 1.232309-.2382519 1.838657.5668104 1.205049 1.4769404 1.625305c.9101299.420257 2.3025822.662079 3.4487582.588377 1.146176-.0737 2.046029-.462904 2.874165-1.026551.828136-.563646 1.584521-1.301704 2.146925-1.664067.562405-.362363.930765-.349016 1.182377-.04523.251613.303785.386488.897949.220228 1.680892-.166261.782943-.633628 1.754642-1.013937 2.655374s-.67354 1.730441-.864554 2.561753c-.191014.831311-.279805 1.664162-.294532 2.354559-.01473.690397.0446 1.238301.174012 1.585508.129411.347206.328869.493715.428582.566958.09971.07324.0998.07318.163553.137103z" fill="#fff" stroke="#0066b3"/></svg>