<svg fill-rule="evenodd" height="112.89mm" preserveAspectRatio="xMidYMid" stroke-linejoin="round" stroke-width="28.222" viewBox="0 0 11289 11289" width="112.89mm" xmlns="http://www.w3.org/2000/svg"><g stroke="#0066b3"><path d="m3926.7998 3840.2068h3307.2917v3307.2917h-3307.2917z" fill="#0066b3" fill-opacity=".35" stroke-width="327.099243"/><path d="m5325.5088 5214.5718h461.48209v461.48209h-461.48209z" fill="#0066b3" stroke-linecap="square" stroke-linejoin="round" stroke-width="67.684639"/><g fill="none" stroke-linecap="round" stroke-linejoin="miter" stroke-width="317.5"><path d="m5614.8292 3357.2082s16.9119-2147.8414 16.9119-2147.8414" transform="matrix(.93154261 0 0 1.0813788 341.41931 -273.79622)"/><path d="m7695.0217 5555.7859s2316.9633 16.9119 2316.9633 16.9119" transform="matrix(1.0025502 0 0 .99770055 -19.603674 12.79469)"/><path d="m5564.0927 7652.8905s33.8243 2367.6995 33.8243 2367.6995" transform="matrix(1.0153317 0 0 .98168606 -64.208802 183.77936)"/><path d="m3450.0756 5538.8737s-2266.2261-16.9122-2266.2261-16.9122" transform="matrix(1.0252415 0 0 .97769826 -29.690877 123.33794)"/></g></g></svg>