<svg fill-rule="evenodd" height="112.89mm" preserveAspectRatio="xMidYMid" stroke-linejoin="round" stroke-width="28.222" viewBox="0 0 11289 11289" width="112.89mm" xmlns="http://www.w3.org/2000/svg" xmlns:xlink="http://www.w3.org/1999/xlink"><marker id="a" orient="auto" overflow="visible" refX="0" refY="0"><path d="m8.7185878 4.0337352-10.9258773-4.01772194 10.9258779-4.01772106c-1.7454984 2.3720609-1.7354408 5.6174519-.0000006 8.035443z" fill="#0066b3" fill-rule="evenodd" stroke="#0066b3" stroke-linejoin="round" stroke-width=".625" transform="matrix(.3 0 0 .3 -.69 0)"/></marker><marker id="b" orient="auto" overflow="visible" refX="0" refY="0"><path d="m8.7185878 4.0337352-10.9258773-4.01772194 10.9258779-4.01772106c-1.7454984 2.3720609-1.7354408 5.6174519-.0000006 8.035443z" fill="#0066b3" fill-rule="evenodd" stroke="#0066b3" stroke-linejoin="round" stroke-width=".625" transform="matrix(-.3 0 0 -.3 .69 0)"/></marker><path d="m720 816h9799v9801h-9799z" fill="none"/><g stroke="#0066b3"><text style="font-size:2764.07;font-family:Vemana2000;letter-spacing:0;word-spacing:0;fill:#0066b3;stroke-width:0;stroke-linejoin:round" transform="matrix(.6614209 .59827856 -.75215917 .83154206 0 0)" x="7369.8843" y="-1961.559"><tspan fill="#0066b3" font-family="Vemana2000" stroke="#0066b3" stroke-linejoin="round" stroke-width="0" x="7369.8843" y="-1961.559">20</tspan></text><path d="m5291.6666 10054.167h4762.5004" fill="none" stroke-linecap="round" stroke-linejoin="miter" stroke-width="192.513"/><path d="m1058.3333 5820.8333v-4762.5" fill="none" stroke-linecap="round" stroke-linejoin="miter" stroke-width="192.513"/><path d="m137.52252-5045.4425a4923.9609 4831.3784 0 0 1 -3491.55452-2197.7041 4923.9609 4831.3784 0 0 1 -541.1431-4035.4424" fill="none" stroke-dashoffset="3.99627" stroke-linecap="round" stroke-linejoin="miter" stroke-width="396.876" transform="matrix(-.96680205 .2555265 -.25277975 -.96752385 0 0)"/><path d="m-1063.995-2484.4995a7349.4844 7926.4897 0 0 1 -5531.6903-9213.2675" style="fill:none;stroke-width:397.190302;stroke-linecap:round;stroke-linejoin:miter;stroke-dashoffset:3.99627;marker-start:url(#a);marker-end:url(#b)" transform="matrix(-.95922642 .28263876 -.22816987 -.97362134 0 0)"/></g></svg>