<svg fill-rule="evenodd" height="112.89mm" preserveAspectRatio="xMidYMid" stroke-linejoin="round" stroke-width="28.222" viewBox="0 0 11289 11289" width="112.89mm" xmlns="http://www.w3.org/2000/svg" xmlns:xlink="http://www.w3.org/1999/xlink"><marker id="a" orient="auto" overflow="visible" refX="0.0" refY="0.0"><path d="m-2.5-1c0 2.76-2.24 5-5 5s-5-2.24-5-5 2.24-5 5-5 5 2.24 5 5z" fill="#0066b3" fill-rule="evenodd" stroke="#0066b3" stroke-width="1pt" transform="matrix(.2 0 0 .2 1.48 .2)"/></marker><marker id="b" orient="auto" overflow="visible" refX="0.0" refY="0.0"><path d="m8.7185878 4.0337352-10.9258773-4.01772194 10.9258779-4.01772106c-1.7454984 2.3720609-1.7354408 5.6174519-.0000006 8.035443z" fill="#0066b3" fill-rule="evenodd" stroke="#0066b3" stroke-linejoin="round" stroke-width=".625" transform="matrix(.3 0 0 .3 -.69 0)"/></marker><path d="m720 816h9799v9801h-9799z" fill="none"/><g stroke="#0066b3"><text style="font-size:2764.07;font-family:Vemana2000;letter-spacing:0;word-spacing:0;fill:#0066b3;stroke-width:0;stroke-linejoin:round" transform="scale(.89186033 1.1212518)" x="9789.9297" y="3067.6279"><tspan fill="#0066b3" font-family="Vemana2000" stroke="#0066b3" stroke-linejoin="round" stroke-width="0" x="9789.9297" y="3067.6279">2</tspan></text><path d="m8202.0833 2477.7629h-1224.8933" fill="none" stroke-linecap="round" stroke-linejoin="miter" stroke-width="396.874998"/><path d="m6977.19 2477.7629-1156.3567 1755.5704" fill="none" stroke-linecap="round" stroke-linejoin="miter" stroke-width="320.188"/><path d="m4101.0416 7011.4583 1719.7917-2778.125" style="fill:none;stroke-width:343.614374;stroke-linecap:round;stroke-linejoin:miter;marker-end:url(#b);marker-start:url(#a)"/><ellipse cx="-2113.5129" cy="7872.9312" rx="3094.0376" ry="3035.8621" style="fill:#0066b3;fill-opacity:.35;fill-rule:nonzero;stroke-width:132.296;stroke-linecap:round;stroke-linejoin:miter;stroke-dashoffset:3.99627" transform="matrix(.7111581 -.70303212 .7111581 .70303212 0 0)"/></g></svg>