<svg viewBox="0 0 48 48" xmlns="http://www.w3.org/2000/svg"><g fill="none"><rect height="44" rx="2.73524" width="44" x="2" y="2"/><g stroke="#0066b3"><g stroke-width=".75"><circle cx="24" cy="24" r="3"/><circle cx="36.761444" cy="11.637134" fill="none" r="3"/><circle cx="11.766336" cy="11.219085" fill="none" r="3"/><circle cx="36.596294" cy="36.626411" r="3"/></g><path d="m14.060811 9.0036677c.966834-.5959298 1.933391-1.1916886 3.040818-1.636557s2.355229-.7388356 3.4014-.9330189c1.046171-.1941832 1.8905-.2886456 2.800995-.347225.910494-.058579 1.886998-.081348 2.837946.021073.950948.1024217 1.876083.3297137 2.867963.6333488.991881.3036352 2.050416.6834501 3.011908 1.1780014.961492.4945512 1.82595 1.1034361 2.689286 1.7115308m4.106266 3.9376777c.521424.957469 1.043496 1.916129 1.303884 2.394267.260387.478139.260387.478139.260387.478139.296022.787898.592497 1.577002.824617 2.388744.232121.811741.400553 1.647343.526454 2.539786.1259.892443.2094 1.84175.209857 2.76813.000458.926379-.08195 1.829955-.234173 2.741076-.152225.911121-.374168 1.829915-.634875 2.694575-.260708.86466-.560131 1.675297-.987239 2.493484-.427107.818186-.981923 1.644201-1.536598 2.470007" fill="none" stroke="#0066b3" stroke-width="2"/></g></g></svg>