<svg viewBox="0 0 48 48" xmlns="http://www.w3.org/2000/svg"><g fill="none"><rect height="44" rx="2.73524" width="44" x="2" y="2"/><g stroke="#0066b3"><circle cx="24" cy="24" r="3" stroke-width=".75"/><circle cx="16.33456" cy="10.580979" r="3" stroke-width=".75"/><circle cx="41.907383" cy="11.403763" r="3" stroke-width=".75"/><path d="m13.655484 11.791289c-1.2525.944529-2.505157 1.889176-3.634109 2.912005-1.128952 1.02283-2.1339588 2.123634-2.8918198 3.104577-.7578611.980944-1.2684 1.841717-1.8287099 3.013011-.5603099 1.171295-1.1703274 2.652832-1.5518949 4.311247s-.5347975 3.493198-.4253016 4.986112c.1094959 1.492913.4812426 2.643586.9596756 3.739041.4784329 1.095454 1.0632406 2.135635 1.8101463 2.97709.7469056.841455 1.6553908 1.484519 2.7984984 2.174123 1.1431079.689604 2.5207069 1.425871 4.2393979 1.906671 1.71869.4808 3.778458.706626 5.692317.680345 1.913859-.02628 3.681971-.304413 5.136605-.614665 1.454633-.310252 2.595887-.652541 3.622916-1.020393s1.939935-.76123 3.206532-1.43258c1.266596-.67135 2.88694-1.620634 4.353466-2.682866 1.466527-1.062233 2.779338-2.237439 4.044654-3.61967 1.265317-1.382231 2.483236-2.9716 3.415101-4.890148.931866-1.918548 1.577691-4.16662 1.897404-5.885245.319712-1.718625.313079-2.907971.127606-4.12944-.185473-1.221468-.550113-2.475173-.915105-3.730091m-3.806835-4.3377852c-1.850145-.989247-3.69906-1.9778364-5.657772-2.4979389-1.958712-.5201024-4.025664-.5704246-6.210367-.323142s-4.486642.7923473-6.053596 1.2439857c-1.566953.4516383-2.398633.8098751-3.230793 1.1683189" fill="none" stroke-linejoin="round" stroke-width="2"/></g></g></svg>