<svg fill-rule="evenodd" height="112.89mm" preserveAspectRatio="xMidYMid" stroke-linejoin="round" stroke-width="28.222" viewBox="0 0 11289 11289" width="112.89mm" xmlns="http://www.w3.org/2000/svg"><g fill="none"><path d="m720 816h9799v9801h-9799z"/><path d="m2698 2698h5899v5899h-5899z"/><path d="m7937 1235h2121v2121h-2121z"/><path d="m1235 7937h2121v2121h-2121z"/><g stroke="#0066b3" stroke-linejoin="round" stroke-width="26.458333" transform="matrix(.88232637 0 0 .88232637 -11778.026 1980.7537)"><g stroke-linecap="round"><path d="m14812.234 6472.0312-37.978-5080.5953 4618.057 2370.4473 8.334 5084.2917z" stroke-width="749.67535"/><path d="m19392.313 3761.8832 5582.817-2099.1523-27.004 4981.3721-5547.479 2202.0719" stroke-width="749.67535"/><g stroke-width="212.455656" transform="matrix(1.5928943 0 0 1.9541726 -8684.6092 -5052.7392)"><path d="m18491.747 3505.189c0 56.1838-73.1 110.0664-203.22 149.7943-130.12 39.728-306.6 62.0469-490.617 62.0469s-360.497-22.3189-490.617-62.0469c-130.12-39.7279-203.22-93.6105-203.22-149.7943m0 0c0-56.1838 73.1-110.0664 203.22-149.7944 130.12-39.7279 306.6-62.0469 490.617-62.0469s360.497 22.319 490.617 62.0469c130.12 39.728 203.22 93.6106 203.22 149.7944"/><path d="m18491.747 4008.723c0 56.1838-73.1 110.0664-203.22 149.7943-130.12 39.7281-306.6 62.047-490.617 62.047s-360.497-22.3189-490.617-62.047c-130.12-39.7279-203.22-93.6105-203.22-149.7943"/><path d="m17104.073 4008.7229v-503.5341"/><path d="m18491.747 4008.7229v-503.5341"/></g><g stroke-width="212.455656" transform="matrix(1.5928943 0 0 1.9541726 -5878.6003 -6033.2133)"><path d="m18491.747 3505.189c0 56.1838-73.1 110.0664-203.22 149.7943-130.12 39.728-306.6 62.0469-490.617 62.0469s-360.497-22.3189-490.617-62.0469c-130.12-39.7279-203.22-93.6105-203.22-149.7943m0 0c0-56.1838 73.1-110.0664 203.22-149.7944 130.12-39.7279 306.6-62.0469 490.617-62.0469s360.497 22.319 490.617 62.0469c130.12 39.728 203.22 93.6106 203.22 149.7944"/><path d="m18491.747 4008.723c0 56.1838-73.1 110.0664-203.22 149.7943-130.12 39.7281-306.6 62.047-490.617 62.047s-360.497-22.3189-490.617-62.047c-130.12-39.7279-203.22-93.6105-203.22-149.7943"/><path d="m17104.073 4008.7229v-503.5341"/><path d="m18491.747 4008.7229v-503.5341"/></g><g stroke-width="212.455656" transform="matrix(1.5928943 0 0 1.9541726 -11030.094 -6242.7286)"><path d="m18491.747 3505.189c0 56.1838-73.1 110.0664-203.22 149.7943-130.12 39.728-306.6 62.0469-490.617 62.0469s-360.497-22.3189-490.617-62.0469c-130.12-39.7279-203.22-93.6105-203.22-149.7943m0 0c0-56.1838 73.1-110.0664 203.22-149.7944 130.12-39.7279 306.6-62.0469 490.617-62.0469s360.497 22.319 490.617 62.0469c130.12 39.728 203.22 93.6106 203.22 149.7944"/><path d="m18491.747 4008.723c0 56.1838-73.1 110.0664-203.22 149.7943-130.12 39.7281-306.6 62.047-490.617 62.047s-360.497-22.3189-490.617-62.047c-130.12-39.7279-203.22-93.6105-203.22-149.7943"/><path d="m17104.073 4008.7229v-503.5341"/><path d="m18491.747 4008.7229v-503.5341"/></g><g stroke-width="212.455656" transform="matrix(1.5928943 0 0 1.9541726 -8224.0863 -7223.203)"><path d="m18491.747 3505.189c0 56.1838-73.1 110.0664-203.22 149.7943-130.12 39.728-306.6 62.0469-490.617 62.0469s-360.497-22.3189-490.617-62.0469c-130.12-39.7279-203.22-93.6105-203.22-149.7943m0 0c0-56.1838 73.1-110.0664 203.22-149.7944 130.12-39.7279 306.6-62.0469 490.617-62.0469s360.497 22.319 490.617 62.0469c130.12 39.728 203.22 93.6106 203.22 149.7944"/><path d="m18491.747 4008.723c0 56.1838-73.1 110.0664-203.22 149.7943-130.12 39.7281-306.6 62.047-490.617 62.047s-360.497-22.3189-490.617-62.047c-130.12-39.7279-203.22-93.6105-203.22-149.7943"/><path d="m17104.073 4008.7229v-503.5341"/><path d="m18491.747 4008.7229v-503.5341"/></g><path d="m14739.23 1322.6828s1442.909-487.12816 1442.909-487.12816" stroke-width="374.837675"/></g><path d="m18021.259 243.78015s930.831-321.169058 930.831-321.169058" stroke-linecap="square" stroke-width="374.837675"/><path d="m21261.775-123.65961s1004.979 506.79806 1004.979 506.79806" stroke-linecap="square" stroke-width="374.837675"/><path d="m23599.161 996.59997s1375.969 666.13093 1375.969 666.13093" stroke-linecap="square" stroke-width="374.837675"/></g></g></svg>