<svg height="48" viewBox="0 0 48 48" width="48" xmlns="http://www.w3.org/2000/svg"><g fill="none" stroke="#0066b3" transform="matrix(1.1578947 0 0 1.1578947 -13.05263 -13.05263)"><g stroke-linecap="round" stroke-linejoin="round" stroke-width="2"><path d="m21 22h25.8a3.2 3.2 0 0 0 3.2-3.2v-.49a4.33 4.33 0 0 0 -4.31-4.31h-27.38a4.33 4.33 0 0 0 -4.31 4.31v27.38a4.33 4.33 0 0 0 4.31 4.31h27.38a4.33 4.33 0 0 0 4.31-4.31v-18.69"/><path d="m33 18h-3"/><path d="m39 18h-2"/><path d="m46 18h-3"/></g><circle cx="18" cy="22.459999" r="1"/><g stroke-linecap="round" stroke-linejoin="round" stroke-width="2"><path d="m35.380001 28.190001-6.500002 16.749998"/><path d="m39.56 32.31 4.13 4.13-4.38 4.37"/><path d="m24.88 32.37-4.13 4.12 4.38 4.38"/></g></g></svg>