<svg viewBox="0 0 48 48" xmlns="http://www.w3.org/2000/svg"><g fill="none"><path d="m.580353.393494h48v48h-48z"/><g stroke="#0066b3"><path d="m26.684025 4.0338087c-.392057.1166443-.564199.6932058-.740119 1.0184465-.526539.9736046-1.082462 2.9104717-2.315847 2.9949408-.303459.0207877-.777616.0799527-1.055186-.0605266-.350844-.1775663-.564701-.6231094-.779284-.9344724-.544646-.7901656-1.101956-1.9763086-1.841914-2.5869435-.308957-.2549359-.719066-.0402206-1.045188.0684993l-2.110816.7036797c-.306404.102153-.739399.1825456-.987198.3986951-.401557.3502946-.09155 1.3392272-.07038 1.8049472.026.573116.0681 1.1508937.122707 1.7221719.03155.3302573.128483.7424779-.03482 1.0533033-.212083.403654-.871046.739644-1.252218.971139-.488041.296324-.91854.01017-1.388696-.179995-.91432-.369879-2.074047-1.1304684-3.055133-1.2221864-.4218867-.0395-.6564837.3663224-.8887229.6554814-.589135.733534-1.4124384 1.499288-1.8459409 2.333263-.3057617.588205.66465 1.452402.9919301 1.888834.4225708.563483 1.262855 1.308739 1.432552 1.999942.111931.455986-.4427303 1.576955-.7174095 1.943554-.2586434.345157-.6366034.369544-1.0276826.445264-.7936825.153609-1.5911801.297548-2.3885576.430711-.3572009.05967-1.0080109.05967-1.2129242.408598-.150725.25666-.1428309.649315-.1830167.938419-.097524.70159-.1704559 1.405236-.21992 2.11105-.018817.268491-.1660017.737533.038492.963915.2098792.232327.7322826.324102 1.0218926.424932.6887384.239771 1.3721934.498764 2.0552701.754201.3332334.124608.7363609.203605.9873926.473986.3953292.425764.4472092 1.486289.5146708 2.049495.064617.539429-.312365.783922-.668845 1.116079-.5926059.552039-1.1978726 1.097135-1.7775334 1.662452-.3102784.302547-.8041476.615372-.7003909 1.110245.1740258.830032.8679092 1.806337 1.2730109 2.555482.1400642.258991.2827617.652704.5947434.739312.2851983.07917.6634333-.07933.9434567-.139885.7602409-.164384 1.5180118-.343212 2.2774645-.511875.322731-.07172.724788-.248881 1.055408-.153162.547813.158552 1.169672 1.039693 1.550174 1.454459.488991.532984.257798 1.042192.08427 1.666617-.24252.872809-.731012 2.041775-.725121 2.944359.0025.390156.353227.540096.646019.706591.765841.435487 1.75026 1.251685 2.610753 1.435901.470602.100776.788338-.406043 1.060408-.69809.682463-.732756 1.446247-1.675562 2.272466-2.241435.500543-.342879 1.784472.128442 2.333009.293437.545038.163939.636801.692091.796169 1.170243l.685128 2.055496c.105818.317547.177696.726813.387835.993914.23269.295826.629357.228384.963811.228272.876435-.000269 2.049939.000042 2.888269-.26688.48982-.155941.477545-.810477.567421-1.233076.169255-.796032.328288-1.595009.507652-2.388819.09971-.441543.141758-.851808.591585-1.080134.447995-.227384 1.443023-.743313 1.944176-.66276.55409.089 1.185948.820421 1.610889 1.165744.47649.387267 1.62172 1.712784 2.277463 1.378849.832997-.42421 1.585893-1.178411 2.333012-1.73906.26152-.196273.644411-.417156.655354-.784812.0098-.328324-.206693-.697979-.31929-.99997-.262963-.705535-.538259-1.406515-.804-2.111049-.199195-.528263-.457215-.982361-.102819-1.499957.273573-.399488.632247-1.082635 1.07152-1.307907.532426-.273048 1.589557.03078 2.165534.101553.52965.06505 2.023998.476542 2.408057.02706.21597-.25277.297624-.67887.407777-.987305.245522-.687535.510818-1.36796.75634-2.055495.127371-.356656.309958-.712312.01655-1.03886-.683072-.760199-1.770589-1.326515-2.588865-1.940331-.353062-.26477-.839884-.533263-.882712-1.020693-.03588-.407711-.0255-1.204798.201584-1.554677.189307-.291547.549868-.421099.847772-.570095l1.833079-.916977c.35434-.177161.950535-.349211 1.180837-.686203.160868-.235437.05088-.520262-.0026-.771922l-.356698-1.666618c-.104318-.483264-.141092-1.618231-.602416-1.8895-.276574-.162606-.637746-.091-.94126-.119886-.732565-.06972-1.486072-.14705-2.221914-.156995-.401557-.0054-1.006585.02861-1.327374-.244326-.303458-.258215-.80811-1.068135-.769227-1.478068.03177-.334824.295626-.664592.463492-.944417.343453-.572484.678628-1.149689 1.022082-1.722173.246808-.411377.822506-1.056635.514271-1.555509-.513044-.830309-1.505351-1.5693439-2.182869-2.2777122-.238022-.2488264-.552367-.6493137-.942147-.5791164-.328788.0592201-.656466.3151691-.944314.4757646-.628637.35074-1.262771.6920568-1.888629 1.0477696-.511873.2909364-.923761.6330924-1.499793.3233784-.339953-.182772-.800445-.3762664-1.014194-.7130679-.145035-.2286108-.082433-.5208298-.112596-.7769442-.082875-.7020679-.094986-1.4597799-.095263-2.1666037-.000134-.4194869.110762-1.1850922-.160756-1.5364323-.173587-.2246712-.525817-.2527872-.783559-.3085081-.575531-.1244354-1.150564-.2698522-1.721984-.4120226-.450938-.1121964-1.2085-.4529871-1.665604-.3169935"/><circle cx="24" cy="24" r="5" stroke-linecap="round"/></g></g></svg>