<svg viewBox="0 0 48 48" xmlns="http://www.w3.org/2000/svg"><g fill="none"><path d="m7.5337665 20.410514a16.85293 16.85293 0 0 1 13.0107005-12.9053781" stroke="#0066b3" stroke-linecap="round" stroke-linejoin="round" stroke-width=".826484"/><path d="m40.532568 27.270392a16.85293 16.85293 0 0 1 -13.098235 13.228899" stroke="#0066b3" stroke-linecap="round" stroke-linejoin="round" stroke-width=".826484"/><g stroke="#0066b3" stroke-linecap="round" stroke-linejoin="round" stroke-width=".826484" transform="matrix(-1 0 0 1 48.066334 0)"><path d="m7.5337665 20.410514a16.85293 16.85293 0 0 1 13.0107005-12.9053781"/><path d="m40.532568 27.270392a16.85293 16.85293 0 0 1 -13.098235 13.228899"/></g><rect height="44" rx="2.73524" width="44" x="2" y="2"/></g><path d="m9.142136 19.79899h5v5h-5z" style="fill:#0066b3;fill-opacity:.3;fill-rule:evenodd;stroke:#0066b3;stroke-linecap:round;stroke-linejoin:round" transform="matrix(.70710678 -.70710678 .70710678 .70710678 0 0)"/><path d="m-14.142136 43.08326h5v5h-5z" style="fill:#0066b3;fill-opacity:.3;fill-rule:evenodd;stroke:#0066b3;stroke-linecap:round;stroke-linejoin:round" transform="matrix(.70710678 -.70710678 .70710678 .70710678 0 0)"/><path d="m-14.142136 19.79899h5v5h-5z" style="fill:#0066b3;fill-opacity:.3;fill-rule:evenodd;stroke:#0066b3;stroke-linecap:round;stroke-linejoin:round" transform="matrix(.70710678 -.70710678 .70710678 .70710678 0 0)"/><path d="m9.142136 43.08326h5v5h-5z" style="fill:#0066b3;fill-opacity:.3;fill-rule:evenodd;stroke:#0066b3;stroke-linecap:round;stroke-linejoin:round" transform="matrix(.70710678 -.70710678 .70710678 .70710678 0 0)"/></svg>