<svg viewBox="0 0 48 48" xmlns="http://www.w3.org/2000/svg"><g fill="none"><rect height="44" rx="2.73524" width="44" x="2" y="2"/><circle cx="28.995638" cy="44.691071" r="3" stroke="#0066b3" stroke-width=".75"/><circle cx="14.465365" cy="2.594672" r="3" stroke="#0066b3" stroke-width=".75"/><circle cx="41.584164" cy="8.36596" r="3" stroke="#0066b3" stroke-width=".75"/><circle cx="6.267487" cy="31.486113" r="3" stroke="#0066b3" stroke-width=".75"/><path d="m38.008906 8.9265538.545117.9397104.533831.7123038 1.020004.514643m-2.117662-3.0937504.01871.9270932m-24.892847-3.4757713 1.999917.4365557 1.543679-.7880526.878945-1.3756828m-10.5929378 25.1389852 6.1703968-23.4118055m4.422541-1.7271797 20.451596 4.2758578m2.117662 3.0937504-9.587467 30.691664m-4.177174 1.621811.47035-1.244413 1.165944-.450765.898236-.363679 1.642644.437046m-23.5747288-12.922287 1.3650432.46496 1.0782851 1.267325.039037 1.140376-.8492801 1.951712m0 0 17.7644696 9.719725"/></g><path d="m19.666161 39.081886c-3.454314-1.965069-7.236365-3.964298-8.335742-4.56598l-2.2737243-1.215352.4258198-.909457c.1154012-.246472.3713554-1.662913-.4582779-2.743931-.3183227-.414777-.5610588-.746215-.6286247-.702686-.5071626.326737-.2749879-.201065-.4778634-.314257l-.3456453-.19285 3.0060188-11.107915c1.6222-5.994395 2.92381-11.501411 2.982356-11.5689608.05855-.06755.395921.2465679.842017.1498138 1.475209-.3199591.713481-.022973 1.475209-.3199591.641798-.2502273.938923-.6069675 1.128677-.9285759.166856-.2827998.26817-.5377065.414214-.5341024.142915.00353 5.153586 1.2288564 10.399286 2.3296015l10.475737 2.1884219.148832.8578185c.08986.5179185.347161.5277925.661713 1.1342315.09487.182907.449651.301408.447995.388699-.0046.242359-9.501509 30.286715-9.6052 30.390407-.0499.0499-.123897.136087-.447932.05384-.520485-.132113-.491754-.30821-1.552416.104841-.958144.373125-.987518.392669-1.241104.688024l-.475297.553584z" fill="#0066b3" fill-rule="evenodd"/></svg>