<svg viewBox="0 0 48 48" xmlns="http://www.w3.org/2000/svg"><g fill="none"><rect height="44" rx="2.73524" width="44" x="2" y="2"/><g stroke="#0066b3"><circle cx="40.175896" cy="8.208285" r="3" stroke-width=".75"/><circle cx="31.48621" cy="30.470667" r="3" stroke-width=".75"/><circle cx="7.226577" cy="39.473621" r="3" stroke-width=".75"/><circle cx="9.843226" cy="11.459101" r="3" stroke-width=".75"/><path d="m5.9292705 36.908611c-.6062221-1.403085-1.2129656-2.807377-1.5526953-4.205819-.3397298-1.398442-.4119756-2.79082-.4667307-4.418712-.054755-1.627892-.0919824-3.491167.0500927-5.297439.1420752-1.806272.4636061-3.555203.9021991-5.057698.438593-1.502496.9942802-2.758147 1.4892295-3.551375s.9287739-1.123412 1.3624561-1.453488" stroke-width="2"/><path d="m12.741509 11.054181c.948781.246448 1.896382.492589 2.851484.957981s1.91771 1.149507 2.784889 1.973054c.867178.823547 1.639133 1.786185 2.289995 2.777757.650861.991572 1.180849 2.011917 1.633699 2.854555.45285.842639.828486 1.507532 1.246865 2.390442.418378.88291.879638 1.983758 1.249466 2.816504s.648119 1.397353 1.021744 2.025468c.373625.628114.842363 1.319735 1.331272 1.82238.48891.502644.997552.816684 1.505033 1.130007" stroke-width="2"/><path d="m34.183104 29.732565c.753298-.493166 1.506356-.986176 2.08275-1.582786.576393-.596611.976535-1.297277 1.414714-2.172783.438178-.875507.914387-1.92593 1.236326-2.973913.321939-1.047984.489516-2.093832.670202-3.157053.180685-1.063221.374479-2.143727.509427-3.288988.134947-1.14526.210955-2.35532.233539-3.291824.02258-.936505-.0084-1.599466-.03936-2.263483" stroke-width="2"/></g></g></svg>