<svg fill-rule="evenodd" height="112.89mm" preserveAspectRatio="xMidYMid" stroke-linejoin="round" stroke-width="28.222" viewBox="0 0 11289 11289" width="112.89mm" xmlns="http://www.w3.org/2000/svg"><g transform="translate(-84.56068 -50.736408)"><path d="m720 816h9799v9801h-9799z" fill="none"/><g stroke="#0066b3"><path d="m4771.668 1879.9222h1895.8571v7707.7075h-1895.8571z" fill="#0066b3" fill-opacity=".356073" stroke-width="327.099213"/><path d="m5483.3813 2464.5664h461.48203v461.48203h-461.48203z" fill="#0066b3" stroke-linecap="square" stroke-linejoin="round" stroke-width="67.684631"/><path d="m5517.2056 8594.5635h461.48209v461.48209h-461.48209z" fill="#0066b3" stroke-linecap="square" stroke-linejoin="round" stroke-width="67.684639"/><path d="m5776.8951 9904.6938v861.0252" fill="none" stroke-linecap="round" stroke-linejoin="miter" stroke-width="317.5" transform="matrix(1 0 0 .90902461 0 780.60195)"/><path d="m6948.8463 8876.247h1028.447" fill="none" stroke-linecap="round" stroke-linejoin="miter" stroke-width="317.5" transform="translate(-52.916669 23.917351)"/><path d="m5776.8951 9904.6938v861.0252" fill="none" stroke-linecap="round" stroke-linejoin="miter" stroke-width="317.5" transform="matrix(1.0000001 0 0 .90902472 -.000594 -8117.8611)"/><path d="m6948.8463 8876.247h1028.447" fill="none" stroke-linecap="round" stroke-linejoin="miter" stroke-width="317.5" transform="translate(-3358.8982 23.917351)"/><path d="m6948.8463 8876.247h1028.447" fill="none" stroke-linecap="round" stroke-linejoin="miter" stroke-width="317.5" transform="translate(-99.853884 -6199.6814)"/><path d="m6948.8463 8876.247h1028.447" fill="none" stroke-linecap="round" stroke-linejoin="miter" stroke-width="317.5" transform="translate(-3405.8356 -6199.6814)"/></g></g></svg>